<?xml version="1.0" encoding="iso-8859-1"?>
<!-- Generator: Adobe Illustrator 19.0.0, SVG Export Plug-In . SVG Version: 6.00 Build 0)  -->
<svg version="1.1" id="Layer_1" xmlns="http://www.w3.org/2000/svg" xmlns:xlink="http://www.w3.org/1999/xlink" x="0px" y="0px"
	 viewBox="0 0 504.124 504.124" style="enable-background:new 0 0 504.124 504.124;" xml:space="preserve">
<path style="fill:#D07C40;" d="M470.253,0h-33.477v67.348h33.477c18.511,0,33.871-14.966,33.871-33.477S489.158,0,470.253,0z"/>
<path style="fill:#F4B459;" d="M91.372,0C73.649,0,59.077,14.178,59.077,31.902v472.222h346.191h-0.788
	c17.723,0,32.295-14.178,32.295-31.902V32.295C436.775,14.572,451.348,0,469.465,0H91.372z"/>
<path style="fill:#D07C40;" d="M373.366,472.615c0-17.329,14.572-31.508,32.295-31.508H32.295C14.572,441.108,0,455.286,0,472.615
	c0,17.329,14.572,31.508,32.295,31.508h373.366C387.938,504.123,373.366,489.945,373.366,472.615z"/>
<path style="fill:#FBE1BD;" d="M312.714,171.323c-4.726,0-11.815,4.726-11.815,12.603v92.948c0,8.271,7.089,12.603,11.815,12.603
	s11.815-4.726,11.815-12.603v-92.948C324.923,176.049,317.44,171.323,312.714,171.323z M234.732,184.714
	c-2.757-7.877-8.665-13.391-16.935-13.391c-8.271,0-14.178,5.908-16.935,13.391l-31.902,88.222
	c-0.394,0.788-1.182,2.757-1.182,5.514c0,6.302,5.514,11.422,11.815,11.422c6.695,0,9.846-3.545,11.422-8.665l4.726-14.966h44.111
	l4.726,15.36c1.575,4.726,5.12,8.271,11.815,8.271c5.908,0,11.028-4.332,11.028-10.634c0-1.182-0.394-3.545-1.182-5.908
	C266.24,273.329,234.732,184.714,234.732,184.714z M202.437,243.791l14.966-46.868h0.394l14.966,46.868H202.437z"/>
<g>
</g>
<g>
</g>
<g>
</g>
<g>
</g>
<g>
</g>
<g>
</g>
<g>
</g>
<g>
</g>
<g>
</g>
<g>
</g>
<g>
</g>
<g>
</g>
<g>
</g>
<g>
</g>
<g>
</g>
</svg>
