<?xml version="1.0" encoding="iso-8859-1"?>
<!-- Generator: Adobe Illustrator 19.0.0, SVG Export Plug-In . SVG Version: 6.00 Build 0)  -->
<svg version="1.1" id="Layer_1" xmlns="http://www.w3.org/2000/svg" xmlns:xlink="http://www.w3.org/1999/xlink" x="0px" y="0px"
	 viewBox="0 0 504.123 504.123" style="enable-background:new 0 0 504.123 504.123;" xml:space="preserve">
<path style="fill:#FDF0DE;" d="M63.015,0h378.092c34.658,0,63.015,28.357,63.015,63.015v378.092
	c0,34.658-28.357,63.015-63.015,63.015H63.015C28.357,504.123,0,475.766,0,441.108V63.015C0,28.357,28.357,0,63.015,0z"/>
<path style="fill:#475F6C;" d="M0,366.277v74.831c0,34.658,28.357,63.015,63.015,63.015h378.092
	c34.658,0,63.015-28.357,63.015-63.015v-74.831L0,366.277L0,366.277z"/>
<path style="fill:#2B414D;" d="M96.098,413.538h311.926c9.452,0,17.329,7.877,17.329,17.723s-7.877,17.723-17.329,17.723H96.098
	c-9.452,0-17.329-7.877-17.329-17.723S86.646,413.538,96.098,413.538z"/>
<path style="fill:#E49ADF;" d="M192.985,228.431h39.385v137.846h-39.385V228.431z"/>
<path style="fill:#E5C45A;" d="M232.369,228.431h39.385v137.846h-39.385V228.431z"/>
<path style="fill:#A6D26E;" d="M271.754,228.431h39.385v137.846h-39.385V228.431z"/>
<path style="fill:#2B414D;" d="M252.062,90.585c54.351,0,98.462,44.111,98.462,98.462s-44.111,98.462-98.462,98.462
	S153.6,243.397,153.6,189.046S197.711,90.585,252.062,90.585z"/>
<path style="fill:#475F6C;" d="M252.062,110.277c43.323,0,78.769,35.446,78.769,78.769s-35.446,78.769-78.769,78.769
	s-78.769-35.446-78.769-78.769S208.738,110.277,252.062,110.277z"/>
<path style="fill:#2B414D;" d="M252.062,133.908c30.326,0,55.138,24.812,55.138,55.138s-24.812,55.138-55.138,55.138
	s-55.138-24.812-55.138-55.138S221.735,133.908,252.062,133.908z"/>
<path style="fill:#1E2D36;" d="M252.062,161.477c15.36,0,27.569,12.209,27.569,27.569s-12.209,27.569-27.569,27.569
	s-27.569-12.209-27.569-27.569S236.702,161.477,252.062,161.477z"/>
<path style="fill:#566268;" d="M246.154,173.292c5.514,0,9.846,4.332,9.846,9.846s-4.332,9.846-9.846,9.846
	s-9.846-4.332-9.846-9.846S240.64,173.292,246.154,173.292z"/>
<path style="fill:#3F5E6D;" d="M405.662,90.585h27.569c8.665,0,15.754,7.089,15.754,15.754v27.569
	c0,8.665-7.089,15.754-15.754,15.754h-27.569c-8.665,0-15.754-7.089-15.754-15.754v-27.569
	C389.908,97.674,396.997,90.585,405.662,90.585z"/>
<path style="fill:#E2574C;" d="M86.646,153.6c12.997,0,23.631,10.634,23.631,23.631s-10.634,23.631-23.631,23.631
	s-23.631-10.634-23.631-23.631S73.649,153.6,86.646,153.6z"/>
<path style="fill:#D2BB9A;" d="M70.892,90.585H102.4c8.665,0,15.754,7.089,15.754,15.754v3.938c0,8.665-7.089,15.754-15.754,15.754
	H70.892c-8.665,0-15.754-7.089-15.754-15.754v-3.938C55.138,97.674,62.228,90.585,70.892,90.585z"/>
<path style="fill:#FDF3E5;" d="M0,322.954h504.123v43.323H0V322.954z"/>
<path style="fill:#F5E8D5;" d="M441.108,0H63.015C28.357,0,0,28.357,0,63.015v31.508c0-34.658,28.357-63.015,63.015-63.015h378.092
	c34.658,0,63.015,28.357,63.015,63.015V63.015C504.123,28.357,475.766,0,441.108,0z"/>
<path style="fill:#E9AEE5;" d="M192.985,322.954h39.385v43.323h-39.385V322.954z"/>
<path style="fill:#EAD07B;" d="M232.369,322.954h39.385v43.323h-39.385V322.954z"/>
<path style="fill:#B8DB8B;" d="M271.754,322.954h39.385v43.323h-39.385V322.954z"/>
<g>
</g>
<g>
</g>
<g>
</g>
<g>
</g>
<g>
</g>
<g>
</g>
<g>
</g>
<g>
</g>
<g>
</g>
<g>
</g>
<g>
</g>
<g>
</g>
<g>
</g>
<g>
</g>
<g>
</g>
</svg>
