<?xml version="1.0" encoding="iso-8859-1"?>
<!-- Generator: Adobe Illustrator 19.0.0, SVG Export Plug-In . SVG Version: 6.00 Build 0)  -->
<svg version="1.1" id="Layer_1" xmlns="http://www.w3.org/2000/svg" xmlns:xlink="http://www.w3.org/1999/xlink" x="0px" y="0px"
	 viewBox="0 0 504.124 504.124" style="enable-background:new 0 0 504.124 504.124;" xml:space="preserve">
<path style="fill:#324D5B;" d="M252.062,0.001c139.028,0,252.062,113.034,252.062,252.062S391.089,504.123,252.062,504.123
	S0,391.484,0,252.063C0,113.035,113.034,0.001,252.062,0.001z"/>
<path style="fill:#DFE1E2;" d="M252.062,43.324c115.397,0,208.738,93.342,208.738,208.738S367.458,460.8,252.062,460.8
	S43.323,367.458,43.323,252.063S136.665,43.324,252.062,43.324z"/>
<path style="fill:#BEBFC0;" d="M244.185,228.432c17.329,0,31.508,14.178,31.508,31.508c0,17.329-14.178,31.508-31.508,31.508
	s-31.508-14.178-31.508-31.508C212.677,242.609,226.855,228.432,244.185,228.432z"/>
<path style="fill:#E2574C;" d="M285.932,207.163l-126.03,126.031c-3.151,3.151-3.151,8.271,0,11.422s8.271,3.151,11.422,0
	l126.031-126.031c3.151-3.151,3.151-8.271,0-11.422C294.203,204.012,289.083,204.012,285.932,207.163z"/>
<path style="fill:#C04A41;" d="M259.938,232.764l-42.929,43.323c2.757,4.726,6.695,8.665,11.422,11.422l42.929-43.323
	C268.603,239.458,264.665,235.521,259.938,232.764z"/>
<path style="fill:#324D5B;" d="M252.062,244.186h126.031c4.332,0,7.877,3.545,7.877,7.877c0,4.332-3.545,7.877-7.877,7.877H252.062
	c-4.332,0-7.877-3.545-7.877-7.877C244.185,247.73,247.729,244.186,252.062,244.186z M198.498,177.626l64.985,64.985
	c5.908,5.908,5.908,14.966,0,20.874s-14.966,5.908-20.874,0L177.624,198.5c-5.908-5.908-5.908-14.966,0-20.874
	C183.138,171.717,192.591,171.717,198.498,177.626z"/>
<path style="fill:#E4E7E7;" d="M252.062,220.555c17.329,0,31.508,14.178,31.508,31.508s-14.178,31.508-31.508,31.508
	s-31.508-14.178-31.508-31.508S234.732,220.555,252.062,220.555z"/>
<path style="fill:#324D5B;" d="M252.062,236.309c8.665,0,15.754,7.089,15.754,15.754c0,8.665-7.089,15.754-15.754,15.754
	s-15.754-7.089-15.754-15.754C236.308,243.398,243.397,236.309,252.062,236.309z"/>
<path style="fill:#CFD1D2;" d="M252.062,43.324c-61.834,0-116.972,26.782-155.175,69.317
	c37.022-33.083,85.858-53.563,139.422-53.563c115.397,0,208.738,93.342,208.738,208.738c0,53.563-20.086,102.4-53.563,139.422
	c42.535-38.203,69.317-93.342,69.317-155.175C460.8,136.665,367.458,43.324,252.062,43.324z"/>
<g>
</g>
<g>
</g>
<g>
</g>
<g>
</g>
<g>
</g>
<g>
</g>
<g>
</g>
<g>
</g>
<g>
</g>
<g>
</g>
<g>
</g>
<g>
</g>
<g>
</g>
<g>
</g>
<g>
</g>
</svg>
