<?xml version="1.0" encoding="iso-8859-1"?>
<!-- Generator: Adobe Illustrator 19.0.0, SVG Export Plug-In . SVG Version: 6.00 Build 0)  -->
<svg version="1.1" id="Layer_1" xmlns="http://www.w3.org/2000/svg" xmlns:xlink="http://www.w3.org/1999/xlink" x="0px" y="0px"
	 viewBox="0 0 504.124 504.124" style="enable-background:new 0 0 504.124 504.124;" xml:space="preserve">
<path style="fill:#CE5E55;" d="M454.892,397.785H49.231v46.474c0,33.083,90.978,59.865,202.831,59.865
	s202.831-26.782,202.831-59.865v-46.474H454.892z"/>
<path style="fill:#DE655B;" d="M252.062,338.708c111.852,0,202.831,26.388,202.831,59.077s-90.978,59.077-202.831,59.077
	S49.231,430.474,49.231,397.785S140.209,338.708,252.062,338.708z"/>
<path style="fill:#E66B62;" d="M381.243,374.154L289.871,28.751C285.538,11.815,269.785,0,252.455,0h-0.788
	c-17.723,0-33.083,11.815-37.415,28.751L122.88,374.154c-0.788,1.969-1.575,3.545-1.575,5.514
	c0,21.662,58.683,39.385,130.757,39.385s130.757-17.723,130.757-39.385C382.819,377.698,382.425,376.123,381.243,374.154z"/>
<path style="fill:#D4635A;" d="M144.935,379.668c0-1.969,0.788-3.938,1.575-5.514l91.372-345.403
	c3.545-12.997,13.391-23.237,25.994-26.782C260.332,0.788,256.394,0,252.455,0h-0.788c-17.723,0-33.083,11.815-37.415,28.751
	L122.88,374.154c-0.788,1.969-1.575,3.545-1.575,5.514c0,21.662,58.683,39.385,130.757,39.385h11.815
	C197.317,417.083,144.935,400.148,144.935,379.668z"/>
<path style="fill:#FFFFFF;" d="M362.338,302.868l-23.631-89.403c-23.237,6.302-53.563,9.846-86.646,9.846
	s-63.803-3.545-86.646-9.846l-23.631,89.403c23.237,11.028,63.803,18.117,110.277,18.117S339.102,313.502,362.338,302.868z
	 M324.923,161.477l-21.268-80.345c-15.754,2.757-33.477,4.332-51.594,4.332s-35.84-1.575-51.594-4.332L179.2,161.477
	c20.874,5.514,46.08,8.665,72.862,8.665S304.049,166.991,324.923,161.477z"/>
<path style="fill:#EBEBEB;" d="M179.2,161.477c7.089,1.969,14.572,3.545,22.449,4.726l21.662-81.92
	c-7.877-0.788-15.36-1.575-22.843-2.757L179.2,161.477z M187.865,218.191c-7.877-1.182-15.36-3.151-22.449-4.726l-23.631,89.403
	c5.908,2.757,13.391,5.514,21.662,7.877L187.865,218.191z"/>
<g>
</g>
<g>
</g>
<g>
</g>
<g>
</g>
<g>
</g>
<g>
</g>
<g>
</g>
<g>
</g>
<g>
</g>
<g>
</g>
<g>
</g>
<g>
</g>
<g>
</g>
<g>
</g>
<g>
</g>
</svg>
