<?xml version="1.0" encoding="iso-8859-1"?>
<!-- Generator: Adobe Illustrator 19.0.0, SVG Export Plug-In . SVG Version: 6.00 Build 0)  -->
<svg version="1.1" id="Layer_1" xmlns="http://www.w3.org/2000/svg" xmlns:xlink="http://www.w3.org/1999/xlink" x="0px" y="0px"
	 viewBox="0 0 504.124 504.124" style="enable-background:new 0 0 504.124 504.124;" xml:space="preserve">
<path style="fill:#EFEFEF;" d="M23.631,98.462h456.862c12.997,0,23.631,10.634,23.631,23.631v259.938
	c0,12.997-10.634,23.631-23.631,23.631H23.631C10.634,405.662,0,395.028,0,382.031V122.092C0,109.095,10.634,98.462,23.631,98.462z"
	/>
<path style="fill:#CCD0D2;" d="M441.108,169.354H283.569c-8.665,0-15.754,7.089-15.754,15.754v23.631
	c0,8.665,7.089,15.754,15.754,15.754h157.538c8.665,0,15.754-7.089,15.754-15.754v-23.631
	C456.862,176.443,449.772,169.354,441.108,169.354z M220.554,169.354H63.015c-8.665,0-15.754,7.089-15.754,15.754v23.631
	c0,8.665,7.089,15.754,15.754,15.754h157.538c8.665,0,15.754-7.089,15.754-15.754v-23.631
	C236.308,176.443,229.218,169.354,220.554,169.354z"/>
<path style="fill:#E2574C;" d="M366.277,271.754c19.692,0,35.446,15.754,35.446,35.446c0,19.692-15.754,35.446-35.446,35.446
	s-35.446-15.754-35.446-35.446C330.831,287.508,346.585,271.754,366.277,271.754z"/>
<path style="fill:#F4B459;" d="M421.415,271.754c19.692,0,35.446,15.754,35.446,35.446c0,19.692-15.754,35.446-35.446,35.446
	s-35.446-15.754-35.446-35.446C385.969,287.508,401.723,271.754,421.415,271.754z"/>
<path style="fill:#CCD0D2;" d="M224.492,275.692H59.077c-6.695,0-11.815,5.12-11.815,11.815s5.12,11.815,11.815,11.815h165.415
	c6.695,0,11.815-5.12,11.815-11.815C236.308,281.206,231.188,275.692,224.492,275.692z M153.6,315.077H59.077
	c-6.695,0-11.815,5.12-11.815,11.815s5.12,11.815,11.815,11.815H153.6c6.695,0,11.815-5.12,11.815-11.815
	C165.415,320.591,160.295,315.077,153.6,315.077z"/>
<g>
</g>
<g>
</g>
<g>
</g>
<g>
</g>
<g>
</g>
<g>
</g>
<g>
</g>
<g>
</g>
<g>
</g>
<g>
</g>
<g>
</g>
<g>
</g>
<g>
</g>
<g>
</g>
<g>
</g>
</svg>
