<?xml version="1.0" encoding="iso-8859-1"?>
<!-- Generator: Adobe Illustrator 19.0.0, SVG Export Plug-In . SVG Version: 6.00 Build 0)  -->
<svg version="1.1" id="Layer_1" xmlns="http://www.w3.org/2000/svg" xmlns:xlink="http://www.w3.org/1999/xlink" x="0px" y="0px"
	 viewBox="0 0 504.124 504.124" style="enable-background:new 0 0 504.124 504.124;" xml:space="preserve">
<path style="fill:#EFEFEF;" d="M322.954,126.031c-21.662,0-39.385,17.723-39.385,39.385v212.677H23.631
	C10.634,378.092,0,367.458,0,354.462V23.631C0,10.634,10.634,0,23.631,0h362.338C398.966,0,409.6,10.634,409.6,23.631v102.4
	C409.6,126.031,322.954,126.031,322.954,126.031z"/>
<path style="fill:#FFFFFF;" d="M322.954,126.031c-21.662,0-39.385,17.723-39.385,39.385v181.169H47.262
	c-8.665,0-15.754-7.089-15.754-15.754V118.154c0-8.665,7.089-15.754,15.754-15.754h315.077c8.665,0,15.754,7.089,15.754,15.754
	v7.877H322.954z"/>
<path style="fill:#26A6D1;" d="M70.892,141.785h86.646v74.831H70.892V141.785z"/>
<path style="fill:#E2574C;" d="M283.569,165.415v51.2h-102.4v-74.831h110.277C286.72,148.48,283.569,156.751,283.569,165.415z"/>
<path style="fill:#DCDCDC;" d="M204.8,35.446h157.538c8.665,0,15.754,7.089,15.754,15.754s-7.089,15.754-15.754,15.754H204.8
	c-8.665,0-15.754-7.089-15.754-15.754S196.135,35.446,204.8,35.446z"/>
<path style="fill:#E4E7E7;" d="M283.569,267.815H80.738c-5.514,0-9.846-4.332-9.846-9.846s4.332-9.846,9.846-9.846h202.831V267.815z
	 M80.738,287.508h202.831V307.2H80.738c-5.514,0-9.846-4.332-9.846-9.846S75.225,287.508,80.738,287.508z"/>
<path style="fill:#BFC3C5;" d="M47.262,35.446c-8.665,0-15.754,7.089-15.754,15.754s7.089,15.754,15.754,15.754
	S63.015,59.865,63.015,51.2S55.926,35.446,47.262,35.446z M94.523,35.446c-8.665,0-15.754,7.089-15.754,15.754
	s7.089,15.754,15.754,15.754s15.754-7.089,15.754-15.754S103.188,35.446,94.523,35.446z M141.785,35.446
	c-8.665,0-15.754,7.089-15.754,15.754s7.089,15.754,15.754,15.754s15.754-7.089,15.754-15.754S150.449,35.446,141.785,35.446z"/>
<path style="fill:#EFEFEF;" d="M338.708,141.785h126.031c21.662,0,39.385,17.723,39.385,39.385v283.569
	c0,21.662-17.723,39.385-39.385,39.385H338.708c-21.662,0-39.385-17.723-39.385-39.385v-283.57
	C299.323,159.508,317.046,141.785,338.708,141.785z"/>
<path style="fill:#FFFFFF;" d="M326.892,196.923h149.662c4.332,0,7.877,3.545,7.877,7.877v236.308c0,4.332-3.545,7.877-7.877,7.877
	H326.892c-4.332,0-7.877-3.545-7.877-7.877V204.8C319.015,200.468,322.56,196.923,326.892,196.923z"/>
<path style="fill:#BFC3C5;" d="M401.723,464.738c6.695,0,11.815,5.12,11.815,11.815s-5.12,11.815-11.815,11.815
	s-11.815-5.12-11.815-11.815C389.908,470.252,395.028,464.738,401.723,464.738z"/>
<path style="fill:#26A6D1;" d="M350.523,228.431h102.4v55.138h-102.4V228.431z"/>
<path style="fill:#E2574C;" d="M350.523,303.262h102.4v51.2h-102.4V303.262z"/>
<path style="fill:#E4E7E7;" d="M358.4,389.908h86.646c4.332,0,7.877-3.545,7.877-7.877s-3.545-7.877-7.877-7.877H358.4
	c-4.332,0-7.877,3.545-7.877,7.877S354.068,389.908,358.4,389.908z M445.046,401.723H358.4c-4.332,0-7.877,3.545-7.877,7.877
	s3.545,7.877,7.877,7.877h86.646c4.332,0,7.877-3.545,7.877-7.877S449.378,401.723,445.046,401.723z"/>
<path style="fill:#BFC3C5;" d="M384,165.415h39.385c3.151,0,5.908,2.757,5.908,5.908s-2.757,5.908-5.908,5.908H384
	c-3.151,0-5.908-2.757-5.908-5.908S380.849,165.415,384,165.415z"/>
<g>
</g>
<g>
</g>
<g>
</g>
<g>
</g>
<g>
</g>
<g>
</g>
<g>
</g>
<g>
</g>
<g>
</g>
<g>
</g>
<g>
</g>
<g>
</g>
<g>
</g>
<g>
</g>
<g>
</g>
</svg>
