<?xml version="1.0" encoding="iso-8859-1"?>
<!-- Generator: Adobe Illustrator 19.0.0, SVG Export Plug-In . SVG Version: 6.00 Build 0)  -->
<svg version="1.1" id="Layer_1" xmlns="http://www.w3.org/2000/svg" xmlns:xlink="http://www.w3.org/1999/xlink" x="0px" y="0px"
	 viewBox="0 0 504.124 504.124" style="enable-background:new 0 0 504.124 504.124;" xml:space="preserve">
<path style="fill:#324D5B;" d="M402.111,0h-98.462c-8.665,0-15.754,7.089-15.754,15.754V46.08c0,28.751-23.631,52.382-52.775,52.382
	h-85.071v5.12c0,5.908-5.12,10.634-11.422,10.634H125.63c-6.302,0-11.422-4.726-11.422-10.634v-5.12h-11.815
	c-8.665,0-15.754,7.089-15.754,15.754V488.37c0,8.665,7.089,15.754,15.754,15.754h299.323c8.665,0,15.754-7.089,15.754-15.754
	V15.754C417.865,7.089,410.776,0,402.111,0z M150.05,461.982c0,5.908-5.12,10.634-11.422,10.634h-12.997
	c-6.302,0-11.422-4.726-11.422-10.634v-10.634c0-5.908,5.12-10.634,11.422-10.634h12.997c6.302,0,11.422,4.726,11.422,10.634
	V461.982z M150.05,410.782c0,5.908-5.12,10.634-11.422,10.634h-12.997c-6.302,0-11.422-4.726-11.422-10.634v-10.634
	c0-5.908,5.12-10.634,11.422-10.634h12.997c6.302,0,11.422,4.726,11.422,10.634V410.782z M150.05,359.582
	c0,5.908-5.12,10.634-11.422,10.634h-12.997c-6.302,0-11.422-4.726-11.422-10.634v-10.634c0-5.908,5.12-10.634,11.422-10.634h12.997
	c6.302,0,11.422,4.726,11.422,10.634V359.582z M150.05,308.382c0,5.908-5.12,10.634-11.422,10.634h-12.997
	c-6.302,0-11.422-4.726-11.422-10.634v-10.634c0-5.908,5.12-10.634,11.422-10.634h12.997c6.302,0,11.422,4.726,11.422,10.634
	V308.382z M150.05,257.182c0,5.908-5.12,10.634-11.422,10.634h-12.997c-6.302,0-11.422-4.726-11.422-10.634v-10.634
	c0-5.908,5.12-10.634,11.422-10.634h12.997c6.302,0,11.422,4.726,11.422,10.634V257.182z M150.05,205.982
	c0,5.908-5.12,10.634-11.422,10.634h-12.997c-6.302,0-11.422-4.726-11.422-10.634v-10.634c0-5.908,5.12-10.634,11.422-10.634h12.997
	c6.302,0,11.422,4.726,11.422,10.634V205.982z M150.05,154.782c0,5.908-5.12,10.634-11.422,10.634h-12.997
	c-6.302,0-11.422-4.726-11.422-10.634v-10.634c0-5.908,5.12-10.634,11.422-10.634h12.997c6.302,0,11.422,4.726,11.422,10.634
	V154.782z M390.296,461.982c0,5.908-5.12,10.634-11.422,10.634h-12.997c-6.302,0-11.422-4.726-11.422-10.634v-10.634
	c0-5.908,5.12-10.634,11.422-10.634h12.997c6.302,0,11.422,4.726,11.422,10.634V461.982z M390.296,410.782
	c0,5.908-5.12,10.634-11.422,10.634h-12.997c-6.302,0-11.422-4.726-11.422-10.634v-10.634c0-5.908,5.12-10.634,11.422-10.634h12.997
	c6.302,0,11.422,4.726,11.422,10.634V410.782z M390.296,359.582c0,5.908-5.12,10.634-11.422,10.634h-12.997
	c-6.302,0-11.422-4.726-11.422-10.634v-10.634c0-5.908,5.12-10.634,11.422-10.634h12.997c6.302,0,11.422,4.726,11.422,10.634
	V359.582z M390.296,308.382c0,5.908-5.12,10.634-11.422,10.634h-12.997c-6.302,0-11.422-4.726-11.422-10.634v-10.634
	c0-5.908,5.12-10.634,11.422-10.634h12.997c6.302,0,11.422,4.726,11.422,10.634V308.382z M390.296,257.182
	c0,5.908-5.12,10.634-11.422,10.634h-12.997c-6.302,0-11.422-4.726-11.422-10.634v-10.634c0-5.908,5.12-10.634,11.422-10.634h12.997
	c6.302,0,11.422,4.726,11.422,10.634V257.182z M390.296,205.982c0,5.908-5.12,10.634-11.422,10.634h-12.997
	c-6.302,0-11.422-4.726-11.422-10.634v-10.634c0-5.908,5.12-10.634,11.422-10.634h12.997c6.302,0,11.422,4.726,11.422,10.634
	V205.982z M390.296,154.782c0,5.908-5.12,10.634-11.422,10.634h-12.997c-6.302,0-11.422-4.726-11.422-10.634v-10.634
	c0-5.908,5.12-10.634,11.422-10.634h12.997c6.302,0,11.422,4.726,11.422,10.634V154.782z M390.296,103.582
	c0,5.908-5.12,10.634-11.422,10.634h-12.997c-6.302,0-11.422-4.726-11.422-10.634V92.948c0-5.908,5.12-10.634,11.422-10.634h12.997
	c6.302,0,11.422,4.726,11.422,10.634V103.582z M390.296,52.382c0,5.908-5.12,10.634-11.422,10.634h-12.997
	c-6.302,0-11.422-4.726-11.422-10.634V41.748c0.394-5.514,5.514-10.24,11.815-10.24h12.997c6.302,0,11.422,4.726,11.422,10.634
	v10.24C390.689,52.382,390.296,52.382,390.296,52.382z M402.111,0h-98.462c-8.665,0-15.754,7.089-15.754,15.754V46.08
	c0,28.751-23.631,52.382-52.775,52.382h-85.071v5.12c0,5.908-5.12,10.634-11.422,10.634H125.63c-6.302,0-11.422-4.726-11.422-10.634
	v-5.12h-11.815c-8.665,0-15.754,7.089-15.754,15.754V488.37c0,8.665,7.089,15.754,15.754,15.754h299.323
	c8.665,0,15.754-7.089,15.754-15.754V15.754C417.865,7.089,410.776,0,402.111,0z M150.05,461.982c0,5.908-5.12,10.634-11.422,10.634
	h-12.997c-6.302,0-11.422-4.726-11.422-10.634v-10.634c0-5.908,5.12-10.634,11.422-10.634h12.997
	c6.302,0,11.422,4.726,11.422,10.634V461.982z M150.05,410.782c0,5.908-5.12,10.634-11.422,10.634h-12.997
	c-6.302,0-11.422-4.726-11.422-10.634v-10.634c0-5.908,5.12-10.634,11.422-10.634h12.997c6.302,0,11.422,4.726,11.422,10.634
	V410.782z M150.05,359.582c0,5.908-5.12,10.634-11.422,10.634h-12.997c-6.302,0-11.422-4.726-11.422-10.634v-10.634
	c0-5.908,5.12-10.634,11.422-10.634h12.997c6.302,0,11.422,4.726,11.422,10.634V359.582z M150.05,308.382
	c0,5.908-5.12,10.634-11.422,10.634h-12.997c-6.302,0-11.422-4.726-11.422-10.634v-10.634c0-5.908,5.12-10.634,11.422-10.634h12.997
	c6.302,0,11.422,4.726,11.422,10.634V308.382z M150.05,257.182c0,5.908-5.12,10.634-11.422,10.634h-12.997
	c-6.302,0-11.422-4.726-11.422-10.634v-10.634c0-5.908,5.12-10.634,11.422-10.634h12.997c6.302,0,11.422,4.726,11.422,10.634
	V257.182z M150.05,205.982c0,5.908-5.12,10.634-11.422,10.634h-12.997c-6.302,0-11.422-4.726-11.422-10.634v-10.634
	c0-5.908,5.12-10.634,11.422-10.634h12.997c6.302,0,11.422,4.726,11.422,10.634V205.982z M150.05,154.782
	c0,5.908-5.12,10.634-11.422,10.634h-12.997c-6.302,0-11.422-4.726-11.422-10.634v-10.634c0-5.908,5.12-10.634,11.422-10.634h12.997
	c6.302,0,11.422,4.726,11.422,10.634V154.782z M390.296,461.982c0,5.908-5.12,10.634-11.422,10.634h-12.997
	c-6.302,0-11.422-4.726-11.422-10.634v-10.634c0-5.908,5.12-10.634,11.422-10.634h12.997c6.302,0,11.422,4.726,11.422,10.634
	V461.982z M390.296,410.782c0,5.908-5.12,10.634-11.422,10.634h-12.997c-6.302,0-11.422-4.726-11.422-10.634v-10.634
	c0-5.908,5.12-10.634,11.422-10.634h12.997c6.302,0,11.422,4.726,11.422,10.634V410.782z M390.296,359.582
	c0,5.908-5.12,10.634-11.422,10.634h-12.997c-6.302,0-11.422-4.726-11.422-10.634v-10.634c0-5.908,5.12-10.634,11.422-10.634h12.997
	c6.302,0,11.422,4.726,11.422,10.634V359.582z M390.296,308.382c0,5.908-5.12,10.634-11.422,10.634h-12.997
	c-6.302,0-11.422-4.726-11.422-10.634v-10.634c0-5.908,5.12-10.634,11.422-10.634h12.997c6.302,0,11.422,4.726,11.422,10.634
	V308.382z M390.296,257.182c0,5.908-5.12,10.634-11.422,10.634h-12.997c-6.302,0-11.422-4.726-11.422-10.634v-10.634
	c0-5.908,5.12-10.634,11.422-10.634h12.997c6.302,0,11.422,4.726,11.422,10.634V257.182z M390.296,205.982
	c0,5.908-5.12,10.634-11.422,10.634h-12.997c-6.302,0-11.422-4.726-11.422-10.634v-10.634c0-5.908,5.12-10.634,11.422-10.634h12.997
	c6.302,0,11.422,4.726,11.422,10.634V205.982z M390.296,154.782c0,5.908-5.12,10.634-11.422,10.634h-12.997
	c-6.302,0-11.422-4.726-11.422-10.634v-10.634c0-5.908,5.12-10.634,11.422-10.634h12.997c6.302,0,11.422,4.726,11.422,10.634
	V154.782z M390.296,103.582c0,5.908-5.12,10.634-11.422,10.634h-12.997c-6.302,0-11.422-4.726-11.422-10.634V92.948
	c0-5.908,5.12-10.634,11.422-10.634h12.997c6.302,0,11.422,4.726,11.422,10.634V103.582z M390.296,52.382
	c0,5.908-5.12,10.634-11.422,10.634h-12.997c-6.302,0-11.422-4.726-11.422-10.634V41.748c0.394-5.514,5.514-10.24,11.815-10.24
	h12.997c6.302,0,11.422,4.726,11.422,10.634v10.24C390.689,52.382,390.296,52.382,390.296,52.382z"/>
<path style="fill:#516873;" d="M319.403,133.908H185.496c-4.332,0-7.877,3.545-7.877,7.877v82.708c0,4.332,3.545,7.877,7.877,7.877
	h133.908c4.332,0,7.877-3.545,7.877-7.877v-82.708C327.28,137.452,323.736,133.908,319.403,133.908z M319.403,252.062H185.496
	c-4.332,0-7.877,3.545-7.877,7.877v82.708c0,4.332,3.545,7.877,7.877,7.877h133.908c4.332,0,7.877-3.545,7.877-7.877v-82.708
	C327.28,255.606,323.736,252.062,319.403,252.062z M319.403,370.215H185.496c-4.332,0-7.877,3.545-7.877,7.877V460.8
	c0,4.332,3.545,7.877,7.877,7.877h133.908c4.332,0,7.877-3.545,7.877-7.877v-82.708C327.28,373.76,323.736,370.215,319.403,370.215z
	 M319.403,133.908H185.496c-4.332,0-7.877,3.545-7.877,7.877v82.708c0,4.332,3.545,7.877,7.877,7.877h133.908
	c4.332,0,7.877-3.545,7.877-7.877v-82.708C327.28,137.452,323.736,133.908,319.403,133.908z M319.403,252.062H185.496
	c-4.332,0-7.877,3.545-7.877,7.877v82.708c0,4.332,3.545,7.877,7.877,7.877h133.908c4.332,0,7.877-3.545,7.877-7.877v-82.708
	C327.28,255.606,323.736,252.062,319.403,252.062z M319.403,370.215H185.496c-4.332,0-7.877,3.545-7.877,7.877V460.8
	c0,4.332,3.545,7.877,7.877,7.877h133.908c4.332,0,7.877-3.545,7.877-7.877v-82.708C327.28,373.76,323.736,370.215,319.403,370.215z
	"/>
<g>
</g>
<g>
</g>
<g>
</g>
<g>
</g>
<g>
</g>
<g>
</g>
<g>
</g>
<g>
</g>
<g>
</g>
<g>
</g>
<g>
</g>
<g>
</g>
<g>
</g>
<g>
</g>
<g>
</g>
</svg>
