<?xml version="1.0" encoding="iso-8859-1"?>
<!-- Generator: Adobe Illustrator 19.0.0, SVG Export Plug-In . SVG Version: 6.00 Build 0)  -->
<svg version="1.1" id="Layer_1" xmlns="http://www.w3.org/2000/svg" xmlns:xlink="http://www.w3.org/1999/xlink" x="0px" y="0px"
	 viewBox="0 0 504.127 504.127" style="enable-background:new 0 0 504.127 504.127;" xml:space="preserve">
<path style="fill:#EFC75E;" d="M433.188,480.496c0,12.997-10.634,23.631-23.631,23.631H62.973
	c-12.997,0-23.631-10.634-23.631-23.631v-65.772c0-65.772,53.563-119.335,119.335-119.335h155.175
	c65.772,0,119.335,53.563,119.335,119.335v65.772H433.188z"/>
<path style="fill:#DCB757;" d="M70.456,415.118c0-68.135,54.351-123.274,122.092-123.274v-12.209h-30.72
	c-67.348,0-122.486,55.138-122.486,123.274v101.218H70.85v-89.009H70.456z"/>
<path style="fill:#C45B4B;" d="M344.179,423.388c5.908-1.182,10.24-6.302,10.24-12.209c0-7.089-5.514-12.603-12.603-12.603
	c-3.545,0-7.089,1.575-9.452,4.332c0.394-1.182,0.788-2.757,0.788-3.938c0-7.089-5.514-12.603-12.603-12.603
	c-6.695,0-12.603,5.514-12.603,12.603c0,1.575,0.394,2.757,0.788,3.938c-2.363-2.757-2.757-5.12-5.908-5.12
	c-6.302,0-15.754,6.302-15.754,13.391c0,6.302,4.332,11.422,10.24,12.209c-5.908,1.182-10.24,6.302-10.24,12.209
	c0,7.089,5.514,12.603,12.603,12.603c3.545,0,7.089-1.575,9.452-4.332c-0.394,1.182-0.788,2.757-0.788,3.938
	c0,7.089,5.514,12.603,12.603,12.603c6.695,0,12.603-5.514,12.603-12.603c0-1.575-0.394-2.757-0.788-3.938
	c2.363,2.757,5.514,4.332,9.452,4.332c6.695,0,12.603-5.514,12.603-12.603C354.419,429.69,350.087,424.57,344.179,423.388z
	 M320.942,433.234c-5.514,0-9.846-4.332-9.846-9.846s4.332-9.846,9.846-9.846s9.846,4.332,9.846,9.846
	S326.456,433.234,320.942,433.234z"/>
<path style="fill:#D07C40;" d="M236.265,212.681c58.683,0,106.338,34.265,106.338,76.8s-47.655,76.8-106.338,76.8
	s-106.338-34.265-106.338-76.8S177.582,212.681,236.265,212.681z"/>
<path style="fill:#EFC2B3;" d="M236.265,47.265c65.378,0,118.154,52.775,118.154,118.154v47.262
	c0,65.378-52.775,118.154-118.154,118.154S118.111,278.06,118.111,212.681v-47.262C118.111,100.041,170.887,47.265,236.265,47.265z"
	/>
<path style="fill:#D7AEA1;" d="M236.265,330.834v-70.892c-6.695,0-11.815-5.12-11.815-11.815s5.12-11.815,11.815-11.815V102.404
	H136.228c-11.422,18.117-18.117,39.778-18.117,63.015v47.262C118.111,278.059,170.887,330.834,236.265,330.834z"/>
<path style="fill:#324D5B;" d="M293.767,30.724c5.514-9.846,16.148-24.812,32.295-28.751c28.357-7.483,59.865,7.089,75.225,30.72
	c15.36,23.631,33.477,71.68,59.865,80.738c20.48,7.089-50.806,16.542-84.283-3.545c-22.449-13.391-33.871-40.566-50.412-42.929
	c-5.908-0.788-12.997,0.394-19.692,2.363c0.394,4.332-13.785,2.363-16.935-0.394C276.831,56.718,286.677,46.478,293.767,30.724
	L293.767,30.724z"/>
<path style="fill:#F4B459;" d="M293.373,47.265c11.815,0,21.662,9.846,21.662,21.662s-9.846,21.662-21.662,21.662
	c-11.815,0-21.662-9.846-21.662-21.662S281.557,47.265,293.373,47.265z"/>
<path style="fill:#324D5B;" d="M118.111,149.665c6.695,0,35.84-1.575,64.197-30.326c11.815,11.815,18.117,29.932,53.957,29.932
	c7.483,0,53.957-18.117,65.378-18.117c27.175,0,46.868,12.603,52.775,16.935C345.36,90.981,295.735,47.264,236.264,47.264
	C176.401,47.265,126.776,91.77,118.111,149.665z M293.373,189.05c-7.483,0-13.785,6.302-13.785,13.785s6.302,13.785,13.785,13.785
	s13.785-6.302,13.785-13.785C307.157,195.351,300.856,189.05,293.373,189.05z M179.157,189.05c-7.483,0-13.785,6.302-13.785,13.785
	s6.302,13.785,13.785,13.785s13.785-6.302,13.785-13.785C192.942,195.351,186.641,189.05,179.157,189.05z M293.373,189.05
	c-7.483,0-13.785,6.302-13.785,13.785s6.302,13.785,13.785,13.785s13.785-6.302,13.785-13.785
	C307.157,195.351,300.856,189.05,293.373,189.05z M179.157,189.05c-7.483,0-13.785,6.302-13.785,13.785s6.302,13.785,13.785,13.785
	s13.785-6.302,13.785-13.785C192.942,195.351,186.641,189.05,179.157,189.05z"/>
<g>
</g>
<g>
</g>
<g>
</g>
<g>
</g>
<g>
</g>
<g>
</g>
<g>
</g>
<g>
</g>
<g>
</g>
<g>
</g>
<g>
</g>
<g>
</g>
<g>
</g>
<g>
</g>
<g>
</g>
</svg>
