<?xml version="1.0" encoding="iso-8859-1"?>
<!-- Generator: Adobe Illustrator 19.0.0, SVG Export Plug-In . SVG Version: 6.00 Build 0)  -->
<svg version="1.1" id="Layer_1" xmlns="http://www.w3.org/2000/svg" xmlns:xlink="http://www.w3.org/1999/xlink" x="0px" y="0px"
	 viewBox="0 0 393.847 393.847" style="enable-background:new 0 0 393.847 393.847;" xml:space="preserve">
<path style="fill:#CCD0D2;" d="M147.692,304.641h104.763v49.231H147.692V304.641z"/>
<path style="fill:#E4E7E7;" d="M135.483,353.871h129.182c6.695,0,12.209,5.514,12.209,12.209s-5.514,12.209-12.209,12.209H135.483
	c-6.695,0-12.209-5.514-12.209-12.209S128.788,353.871,135.483,353.871z"/>
<path style="fill:#36434F;" d="M18.511,15.557h356.825c10.24,0,18.511,8.271,18.511,18.511v248.517c0,10.24-393.846,10.24-393.846,0
	V34.068C0,23.828,8.271,15.557,18.511,15.557z"/>
<path style="fill:#465765;" d="M18.511,34.068h356.825V243.2H18.511V34.068z"/>
<path style="fill:#E4E7E7;" d="M153.994,89.6h86.252c3.545,0,6.302,2.757,6.302,6.302v92.16c0,3.545-2.757,6.302-6.302,6.302
	h-86.252c-3.545,0-6.302-2.757-6.302-6.302V95.508C147.692,92.357,150.449,89.6,153.994,89.6z"/>
<path style="fill:#FFFFFF;" d="M172.505,163.249h49.231v12.209h-49.231V163.249z"/>
<path style="fill:#C2C5C5;" d="M196.923,107.717c10.24,0,18.511,8.271,18.511,18.511s-8.271,18.511-18.511,18.511
	s-18.511-8.271-18.511-18.511S186.683,107.717,196.923,107.717z"/>
<path style="fill:#B7BBBD;" d="M147.692,304.641h104.763v18.511H147.692V304.641z"/>
<path style="fill:#E4E7E7;" d="M0,286.523c0,10.24,8.271,18.511,18.511,18.511h356.825c10.24,0,18.511-8.271,18.511-18.511v-24.418
	H0V286.523z"/>
<g>
</g>
<g>
</g>
<g>
</g>
<g>
</g>
<g>
</g>
<g>
</g>
<g>
</g>
<g>
</g>
<g>
</g>
<g>
</g>
<g>
</g>
<g>
</g>
<g>
</g>
<g>
</g>
<g>
</g>
</svg>
