<?xml version="1.0" encoding="iso-8859-1"?>
<!-- Generator: Adobe Illustrator 19.0.0, SVG Export Plug-In . SVG Version: 6.00 Build 0)  -->
<svg version="1.1" id="Layer_1" xmlns="http://www.w3.org/2000/svg" xmlns:xlink="http://www.w3.org/1999/xlink" x="0px" y="0px"
	 viewBox="0 0 504.124 504.124" style="enable-background:new 0 0 504.124 504.124;" xml:space="preserve">
<path style="fill:#324D5B;" d="M78.769,104.36v284.357c4.332,36.628,80.345,66.166,173.292,66.166s168.96-29.145,173.292-66.166
	h0.394V104.36H78.769z"/>
<path style="fill:#2D4552;" d="M78.769,253.628c45.292,17.329,106.338,28.357,173.292,28.357c67.348,0,128-10.634,173.292-28.357
	V104.36H78.769V253.628z"/>
<path style="fill:#3B5562;" d="M225.674,454.095l-1.182-214.646h-78.375v200.862C168.566,447.4,195.742,452.126,225.674,454.095z"/>
<path style="fill:#354C58;" d="M224.886,281.197l-0.394-41.748h-78.375v33.083C170.535,277.258,196.923,280.015,224.886,281.197z"/>
<path style="fill:#465765;" d="M252.062,57.098c139.028,0,252.062,45.686,252.062,102.4s-113.034,102.4-252.062,102.4
	S0,216.212,0,159.498S113.034,57.098,252.062,57.098z"/>
<path style="fill:#2B414D;" d="M252.062,96.483c95.705,0,173.292,26.388,173.292,59.077s-77.588,59.077-173.292,59.077
	S78.769,188.249,78.769,155.56S156.357,96.483,252.062,96.483z"/>
<path style="fill:#EFEFEF;" d="M373.366,51.584c5.514,3.938,6.302,11.422,2.363,16.935L230.4,245.357
	c-3.938,5.12-11.815,6.302-16.935,2.363c-5.514-3.938-6.302-11.422-2.363-16.935L356.037,53.948
	C360.369,48.828,367.852,47.646,373.366,51.584z"/>
<path style="fill:#D07C40;" d="M230.006,207.548l20.48,13.391L357.612,90.575l-20.48-12.997L230.006,207.548z"/>
<g>
</g>
<g>
</g>
<g>
</g>
<g>
</g>
<g>
</g>
<g>
</g>
<g>
</g>
<g>
</g>
<g>
</g>
<g>
</g>
<g>
</g>
<g>
</g>
<g>
</g>
<g>
</g>
<g>
</g>
</svg>
