<?xml version="1.0" encoding="iso-8859-1"?>
<!-- Generator: Adobe Illustrator 19.0.0, SVG Export Plug-In . SVG Version: 6.00 Build 0)  -->
<svg version="1.1" id="Layer_1" xmlns="http://www.w3.org/2000/svg" xmlns:xlink="http://www.w3.org/1999/xlink" x="0px" y="0px"
	 viewBox="0 0 503.731 503.731" style="enable-background:new 0 0 503.731 503.731;" xml:space="preserve">
<path style="fill:#F2F2F2;" d="M464.323,188.258C464.323,84.283,379.646,0,275.277,0c-89.009,0-163.84,61.44-183.532,144.148v0.788
	c-1.182,5.514-2.363,10.634-3.151,16.148c-1.575,7.877-3.938,16.542-6.695,20.874c-14.572,25.206-40.172,69.317-40.172,69.317
	c-4.726,7.877-1.969,18.117,5.908,22.843l39.385,23.631v83.495c0,8.665,7.089,15.754,15.754,15.754h74.043v90.585
	c0,8.665,7.089,16.148,15.754,16.148l169.354-57.895c8.271-2.757,15.754-7.089,15.754-16.148v-84.283
	C428.877,311.926,464.323,254.031,464.323,188.258z"/>
<path style="fill:#415F6F;" d="M294.575,111.458c0.394-3.151,0.394-6.302,0-9.058l-9.058-2.363l-2.363-10.24l6.695-6.695
	c-1.182-2.757-2.757-5.514-4.726-7.877l-9.058,2.363l-7.089-7.483l2.363-9.058c-2.363-1.575-5.12-3.151-7.877-4.726l-6.302,6.695
	l-9.846-2.757L244.95,51.2h-0.788c-2.757-0.394-5.514-0.394-8.665,0l-2.363,9.058l-9.846,2.757l-6.695-6.695
	c-2.757,1.182-5.514,2.757-7.877,4.726l2.363,9.058l-7.483,7.089l-9.058-2.363c-1.575,2.363-3.151,5.12-4.726,7.877l6.695,6.695
	l-2.757,9.846l-9.058,1.969c-0.394,3.151-0.394,6.302,0,9.058l9.058,2.363l2.757,9.846l-6.695,6.695
	c1.182,2.757,2.757,5.514,4.726,7.877l9.058-2.363l7.089,7.483l-2.363,9.058c2.363,1.575,5.12,3.151,7.877,4.726l6.695-6.695
	l9.846,2.757l2.363,9.058h0.788c2.757,0.394,5.514,0.394,8.665,0l2.363-9.058l9.846-2.757l6.695,6.695
	c2.757-1.182,5.514-2.757,7.877-4.332l-2.363-9.058l7.483-7.089l9.058,2.363c1.575-2.363,3.151-5.12,4.726-7.877l-7.089-6.302
	l2.757-9.846L294.575,111.458L294.575,111.458z M246.92,133.12c-14.572,3.938-29.932-4.726-33.871-19.692
	c-3.938-14.572,4.726-29.932,19.692-33.871c14.572-3.938,29.932,4.726,33.871,19.692C270.55,113.822,261.886,129.182,246.92,133.12z
	"/>
<path style="fill:#E2574C;" d="M409.578,198.498L421,194.56c0-3.938,0-7.877-0.788-11.815l-11.815-2.363l-4.332-12.603l7.877-9.058
	c-1.969-3.545-3.938-6.695-6.695-9.846l-11.422,3.938l-9.846-8.665l2.363-11.815c-3.545-1.969-7.089-3.938-10.634-5.12l-7.877,9.058
	l-12.997-2.757l-3.938-11.422c-3.938,0-7.877,0-11.815,0.788l-2.363,11.815l-12.603,4.332l-9.058-7.877
	c-3.545,1.969-6.695,3.938-9.846,6.695l3.938,11.422l-8.665,9.846l-11.815-2.363c-1.969,3.545-3.938,7.089-5.12,10.634l9.058,7.877
	l-2.757,12.997l-11.422,3.938c0,3.938,0,7.877,0.788,11.815l11.815,2.363l4.332,12.603l-7.877,9.058
	c1.969,3.545,3.938,6.695,6.695,9.846l11.422-3.938l9.846,8.665l-2.363,11.815c3.545,1.969,7.089,3.938,10.634,5.12l7.877-9.058
	l12.997,2.757l3.938,11.422c3.938,0,7.877,0,11.815-0.788l2.363-11.815l12.603-4.332l9.058,7.877
	c3.545-1.969,6.695-3.938,9.846-6.695l-3.938-11.422l8.665-9.846l11.815,2.363c1.969-3.545,3.938-7.089,5.12-10.634l-9.058-7.877
	L409.578,198.498L409.578,198.498z M350.107,228.431c-19.692,0-35.446-15.754-35.446-35.446s15.754-35.446,35.446-35.446
	s35.446,15.754,35.446,35.446S369.8,228.431,350.107,228.431z"/>
<path style="fill:#638090;" d="M270.157,239.065c0.788-3.151,1.182-6.302,1.182-9.452l-9.058-3.938l-1.182-10.634l7.877-5.908
	c-0.788-3.151-1.969-5.908-3.545-8.665l-9.846,1.575l-6.302-8.665l3.938-9.058l-0.394-0.394c-2.363-1.969-4.726-3.938-7.089-5.514
	l-7.877,5.908l-9.846-3.938l-1.182-9.452c-3.151-0.788-6.302-1.182-9.452-1.182l-3.545,8.665l-10.634,1.182l-5.908-7.877
	c-3.151,0.788-5.908,1.969-8.665,3.545l1.182,9.452l-8.665,6.302l-9.058-3.938c-2.363,2.363-3.938,4.726-5.908,7.483l5.908,7.877
	l-3.938,10.24l-9.452,1.182c-0.788,3.151-1.182,6.302-1.182,9.452l9.058,3.938l1.182,10.634l-7.877,5.908
	c0.788,3.151,1.969,5.908,3.545,8.665l9.452-1.182l6.302,8.665l-3.938,9.058l0.394,0.394c2.363,1.969,4.726,3.938,7.089,5.514
	l7.877-5.908l9.846,4.332l1.182,9.452c3.151,0.788,6.302,1.182,9.452,1.182l3.545-8.665l10.634-1.182l5.908,7.877
	c3.151-0.788,5.908-1.969,8.665-3.545l-0.788-10.634l8.665-6.302l9.058,3.938c2.363-2.363,3.938-4.726,5.908-7.483l-5.908-7.877
	l4.332-9.846C261.098,240.246,270.157,239.065,270.157,239.065z M242.587,234.338c-4.332,15.754-20.48,25.206-36.234,20.874
	s-25.206-20.48-20.874-36.234s20.48-25.206,36.234-20.874C237.467,202.043,246.92,218.585,242.587,234.338z"/>
<g>
</g>
<g>
</g>
<g>
</g>
<g>
</g>
<g>
</g>
<g>
</g>
<g>
</g>
<g>
</g>
<g>
</g>
<g>
</g>
<g>
</g>
<g>
</g>
<g>
</g>
<g>
</g>
<g>
</g>
</svg>
