<?xml version="1.0" encoding="iso-8859-1"?>
<!-- Generator: Adobe Illustrator 19.0.0, SVG Export Plug-In . SVG Version: 6.00 Build 0)  -->
<svg version="1.1" id="Layer_1" xmlns="http://www.w3.org/2000/svg" xmlns:xlink="http://www.w3.org/1999/xlink" x="0px" y="0px"
	 viewBox="0 0 504.124 504.124" style="enable-background:new 0 0 504.124 504.124;" xml:space="preserve">
<path style="fill:#E4E7E7;" d="M23.631,196.924h456.862c12.997,0,23.631,10.634,23.631,23.631v240.246
	c0,12.997-10.634,23.631-23.631,23.631H23.631C10.634,484.432,0,473.798,0,460.801V220.555C0,207.558,10.634,196.924,23.631,196.924
	z"/>
<path style="fill:#D8DBDB;" d="M0,460.801c0,12.997,10.634,23.631,23.631,23.631h456.862c12.997,0,23.631-10.634,23.631-23.631
	V295.386H0V460.801z"/>
<path style="fill:#324D5B;" d="M66.954,177.232h370.215c12.997,0,23.631,10.634,23.631,23.631v31.508
	c0,12.997-10.634,23.631-23.631,23.631H66.954c-12.997,0-23.631-10.634-23.631-23.631v-31.508
	C43.323,187.866,53.957,177.232,66.954,177.232z"/>
<path style="fill:#283E49;" d="M82.708,204.801h338.708c6.695,0,11.815,5.12,11.815,11.815s-5.12,11.815-11.815,11.815H82.708
	c-6.695,0-11.815-5.12-11.815-11.815C70.892,210.315,76.012,204.801,82.708,204.801z"/>
<path style="fill:#3DB39E;" d="M61.046,334.77c9.846,0,17.723,7.877,17.723,17.723s-7.877,17.723-17.723,17.723
	s-17.723-7.877-17.723-17.723S51.2,334.77,61.046,334.77z"/>
<path style="fill:#324D5B;" d="M120.123,334.77c9.846,0,17.723,7.877,17.723,17.723s-7.877,17.723-17.723,17.723
	s-17.723-7.877-17.723-17.723S110.277,334.77,120.123,334.77z"/>
<path style="fill:#CCD0D2;" d="M409.6,19.693h27.569c12.997,0,23.631,10.634,23.631,23.631v23.631
	c0,12.997-10.634,23.631-23.631,23.631H409.6c-12.997,0-23.631-10.634-23.631-23.631V43.324
	C385.969,30.327,396.603,19.693,409.6,19.693z"/>
<path style="fill:#F3F3F3;" d="M86.646,51.595V217.01h330.831V20.087h-307.2c-12.997,0-23.631,10.634-23.631,23.631
	C86.646,43.718,86.646,51.595,86.646,51.595z M441.108,19.693h-23.631v23.631C417.477,30.327,428.111,19.693,441.108,19.693z"/>
<path style="fill:#D8DADC;" d="M141.785,90.586h220.554c4.332,0,7.877-3.545,7.877-7.877s-3.545-7.877-7.877-7.877H141.785
	c-4.332,0-7.877,3.545-7.877,7.877S137.452,90.586,141.785,90.586z M362.338,110.278H141.785c-4.332,0-7.877,3.545-7.877,7.877
	s3.545,7.877,7.877,7.877h220.554c4.332,0,7.877-3.545,7.877-7.877C370.215,113.823,366.671,110.278,362.338,110.278z
	 M362.338,145.724H141.785c-4.332,0-7.877,3.545-7.877,7.877s3.545,7.877,7.877,7.877h220.554c4.332,0,7.877-3.545,7.877-7.877
	C370.215,149.269,366.671,145.724,362.338,145.724z"/>
<g>
</g>
<g>
</g>
<g>
</g>
<g>
</g>
<g>
</g>
<g>
</g>
<g>
</g>
<g>
</g>
<g>
</g>
<g>
</g>
<g>
</g>
<g>
</g>
<g>
</g>
<g>
</g>
<g>
</g>
</svg>
