<?xml version="1.0" encoding="iso-8859-1"?>
<!-- Generator: Adobe Illustrator 19.0.0, SVG Export Plug-In . SVG Version: 6.00 Build 0)  -->
<svg version="1.1" id="Layer_1" xmlns="http://www.w3.org/2000/svg" xmlns:xlink="http://www.w3.org/1999/xlink" x="0px" y="0px"
	 viewBox="0 0 504.123 504.123" style="enable-background:new 0 0 504.123 504.123;" xml:space="preserve">
<path style="fill:#E4E7E7;" d="M400.148,229.612l-69.711,69.711l-83.102,83.102c-35.446,35.446-92.554,36.234-127.212,1.575
	c-34.658-34.658-33.871-91.766,1.575-127.212l72.862-72.862l79.951-79.951c12.603-12.603,33.083-12.603,45.686,0l79.951,79.951
	C412.751,196.529,412.751,217.009,400.148,229.612z M504.123,328.862l-5.514,5.514l-49.231,49.231l-7.483,7.483L328.862,504.123
	l-5.514-5.514l-5.514-5.514l-60.258-60.258l-5.514-5.514l77.588-77.588L154.388,174.868L76.8,252.062l-11.028-11.028L5.514,180.775
	L0,175.655L164.234,11.028L175.262,0l11.028,11.028L252.062,76.8l-5.514,5.514l-52.382,52.382l-7.877,7.877l-20.086,20.086
	L341.465,337.92l75.225-75.225l11.028-11.028l11.028,11.028L504.123,328.862L504.123,328.862z M76.8,230.4l43.717-43.717
	l-22.055-22.055l-43.717,43.717L76.8,230.4z M43.717,197.317L87.828,153.6l-22.055-22.055l-43.717,44.111
	C22.055,175.655,43.717,197.317,43.717,197.317z M76.8,120.517l22.055,22.055l43.717-43.717L120.517,76.8L76.8,120.517z
	 M175.262,22.055l-43.717,43.717L153.6,87.828l43.717-43.717C197.317,44.111,175.262,22.055,175.262,22.055z M186.289,120.517
	L230.006,76.8l-22.055-22.055l-43.717,44.111C164.234,98.855,186.289,120.517,186.289,120.517z M175.262,131.545L153.6,109.883
	L109.489,153.6l22.055,22.055L175.262,131.545z M482.068,328.862l-22.055-22.055l-43.717,43.717l22.055,22.055L482.068,328.862z
	 M427.323,383.606l-22.055-22.055l-43.717,44.111l22.055,22.055L427.323,383.606z M328.862,482.068l43.717-43.717l-22.055-22.055
	l-43.717,43.717L328.862,482.068z M274.117,427.323l22.055,22.055l43.717-43.717l-22.055-22.055L274.117,427.323z M328.862,372.578
	l22.055,22.055l43.717-44.111l-22.055-22.055L328.862,372.578z M383.606,317.834l22.055,22.055l43.717-43.717l-22.055-22.055
	L383.606,317.834z"/>
<path style="fill:#E2574C;" d="M427.323,51.2c14.178,0,25.6,11.422,25.6,25.6s-11.422,25.6-25.6,25.6s-25.6-11.422-25.6-25.6
	S413.145,51.2,427.323,51.2z"/>
<path id="SVGCleanerId_0" style="fill:#E4E7E7;" d="M496.246,138.634c-32.689,32.689-88.615,29.932-124.849-5.908
	c-36.234-36.234-38.991-91.766-5.908-124.455C365.489,8.271,496.246,138.634,496.246,138.634z"/>
<path style="fill:#3E4E5C;" d="M309.563,194.56c17.723,17.723,17.723,46.474,0,63.803c-17.723,17.723-46.08,17.723-63.803,0
	s-17.723-46.474,0-63.803C263.483,176.837,291.84,176.837,309.563,194.56z"/>
<path style="fill:#CECDCB;" d="M301.292,202.831c12.997,12.997,12.997,34.265,0,47.262c-12.997,12.997-34.265,12.997-47.262,0
	c-12.997-12.997-12.997-34.265,0-47.262C267.028,189.834,288.295,189.834,301.292,202.831z"/>
<path style="fill:#D8DBDB;" d="M263.089,366.671c-35.446,35.446-92.554,36.234-127.212,1.575
	c-34.658-34.658-33.871-91.766,1.575-127.212l-15.754,15.754C86.252,292.234,85.465,349.342,120.123,384
	s91.766,33.871,127.212-1.575L263.089,366.671z"/>
<path style="fill:#E2574C;" d="M133.908,244.579l-12.209,12.209c-1.182,1.182-1.969,2.363-3.151,3.151l125.243,125.243
	c1.182-1.182,2.363-1.969,3.151-3.151l12.209-12.209C259.151,369.822,133.908,244.579,133.908,244.579z"/>
<g>
	<path id="SVGCleanerId_0_1_" style="fill:#E4E7E7;" d="M496.246,138.634c-32.689,32.689-88.615,29.932-124.849-5.908
		c-36.234-36.234-38.991-91.766-5.908-124.455C365.489,8.271,496.246,138.634,496.246,138.634z"/>
</g>
<path style="fill:#D8DBDB;" d="M387.151,116.972C352.492,82.314,337.92,40.566,365.489,8.271
	c-32.689,32.689-29.932,88.615,5.908,124.455c36.234,36.234,91.766,38.991,124.849,5.908
	C463.557,166.203,421.809,151.237,387.151,116.972z"/>
<g>
</g>
<g>
</g>
<g>
</g>
<g>
</g>
<g>
</g>
<g>
</g>
<g>
</g>
<g>
</g>
<g>
</g>
<g>
</g>
<g>
</g>
<g>
</g>
<g>
</g>
<g>
</g>
<g>
</g>
</svg>
