<?xml version="1.0" encoding="iso-8859-1"?>
<!-- Generator: Adobe Illustrator 19.0.0, SVG Export Plug-In . SVG Version: 6.00 Build 0)  -->
<svg version="1.1" id="Layer_1" xmlns="http://www.w3.org/2000/svg" xmlns:xlink="http://www.w3.org/1999/xlink" x="0px" y="0px"
	 viewBox="0 0 504.123 504.123" style="enable-background:new 0 0 504.123 504.123;" xml:space="preserve">
<path style="fill:#C4C8CA;" d="M490.142,114.215v-1.969l-169.748,1.969H13.588v343.434c0,25.6,43.323,46.08,96.886,46.08h268.209
	c61.834,0,111.852-24.025,111.852-53.169V114.609C490.142,114.609,490.142,114.215,490.142,114.215z"/>
<path style="fill:#D0D3D5;" d="M76.603,129.969H13.588v327.68c0,19.692,26.388,36.628,63.015,43.323V129.969z M490.142,118.154
	h-63.015v380.455c37.415-8.665,63.015-26.782,63.015-48.049V118.154L490.142,118.154z"/>
<path style="fill:#DADFE1;" d="M378.289,397.785H110.08c-53.563,0-96.886-20.874-96.886-46.08v-87.04v193.378
	c0,25.6,43.323,46.08,96.886,46.08h268.209c61.834,0,111.852-24.025,111.852-53.169V252.455v92.16
	C490.142,373.76,440.123,397.785,378.289,397.785z M490.142,226.462c0,29.538-52.382,53.169-116.578,53.169H106.142
	c-51.2,0-92.554-20.48-92.554-46.08v-24.812V339.89c0,25.6,43.323,46.08,96.886,46.08h268.209
	c61.834,0,111.852-24.025,111.852-53.169V208.738C490.142,215.04,490.142,220.948,490.142,226.462z M106.142,267.815h267.422
	c64.591,0,116.578-23.631,116.578-53.169V114.215H13.588v107.52C13.588,247.335,54.942,267.815,106.142,267.815z"/>
<path style="fill:#9BCDC6;" d="M277.465,232.369c6.695,0,11.815-5.12,11.815-11.815s-5.12-11.815-11.815-11.815
	s-11.815,5.12-11.815,11.815S270.769,232.369,277.465,232.369z M277.465,326.892c-6.695,0-11.815,5.12-11.815,11.815
	s5.12,11.815,11.815,11.815s11.815-5.12,11.815-11.815S284.16,326.892,277.465,326.892z M277.465,445.046
	c-6.695,0-11.815,5.12-11.815,11.815s5.12,11.815,11.815,11.815s11.815-5.12,11.815-11.815
	C289.28,450.56,284.16,445.046,277.465,445.046z"/>
<path style="fill:#3DB39E;" d="M316.849,208.738c-6.695,0-11.815,5.12-11.815,11.815s5.12,11.815,11.815,11.815
	s11.815-5.12,11.815-11.815S323.545,208.738,316.849,208.738z M356.234,232.369c6.695,0,11.815-5.12,11.815-11.815
	s-5.12-11.815-11.815-11.815s-11.815,5.12-11.815,11.815S349.538,232.369,356.234,232.369z M316.849,326.892
	c-6.695,0-11.815,5.12-11.815,11.815s5.12,11.815,11.815,11.815s11.815-5.12,11.815-11.815S323.545,326.892,316.849,326.892z
	 M356.234,326.892c-6.695,0-11.815,5.12-11.815,11.815s5.12,11.815,11.815,11.815s11.815-5.12,11.815-11.815
	S362.929,326.892,356.234,326.892z M316.849,445.046c-6.695,0-11.815,5.12-11.815,11.815s5.12,11.815,11.815,11.815
	s11.815-5.12,11.815-11.815C328.665,450.56,323.545,445.046,316.849,445.046z M356.234,445.046c-6.695,0-11.815,5.12-11.815,11.815
	s5.12,11.815,11.815,11.815s11.815-5.12,11.815-11.815C368.049,450.56,362.929,445.046,356.234,445.046z"/>
<path style="fill:#C4C8CA;" d="M214.449,192.985h-102.4c-2.363,0-3.938,1.575-3.938,3.938v11.815c0,2.363,1.575,3.938,3.938,3.938
	h102.4c2.363,0,3.938-1.575,3.938-3.938v-11.815C218.388,194.954,216.812,192.985,214.449,192.985z M214.449,224.492h-102.4
	c-2.363,0-3.938,1.575-3.938,3.938v11.815c0,2.363,1.575,3.938,3.938,3.938h102.4c2.363,0,3.938-1.575,3.938-3.938V228.43
	C218.388,226.462,216.812,224.492,214.449,224.492z M214.449,311.138h-102.4c-2.363,0-3.938,1.575-3.938,3.938v11.815
	c0,2.363,1.575,3.938,3.938,3.938h102.4c2.363,0,3.938-1.575,3.938-3.938v-11.815C218.388,313.108,216.812,311.138,214.449,311.138z
	 M214.449,342.646h-102.4c-2.363,0-3.938,1.575-3.938,3.938V358.4c0,2.363,1.575,3.938,3.938,3.938h102.4
	c2.363,0,3.938-1.575,3.938-3.938v-11.815C218.388,344.615,216.812,342.646,214.449,342.646z M214.449,429.292h-102.4
	c-2.363,0-3.938,1.575-3.938,3.938v11.815c0,2.363,1.575,3.938,3.938,3.938h102.4c2.363,0,3.938-1.575,3.938-3.938V433.23
	C218.388,431.262,216.812,429.292,214.449,429.292z M214.449,460.8h-102.4c-2.363,0-3.938,1.575-3.938,3.938v11.815
	c0,2.363,1.575,3.938,3.938,3.938h102.4c2.363,0,3.938-1.575,3.938-3.938v-11.815C218.388,462.769,216.812,460.8,214.449,460.8z"/>
<path style="fill:#E1E5E7;" d="M427.126,392.665v106.338c37.415-8.665,63.015-26.782,63.015-48.049V252.455v92.16
	C490.142,365.489,464.542,384,427.126,392.665z M76.603,395.028c-36.628-6.695-63.015-23.631-63.015-43.323v-87.04v193.378
	c0,19.692,26.388,36.628,63.015,43.323V395.028z M76.603,277.268c-36.628-6.302-63.015-23.237-63.015-43.717v-24.812V339.89
	c0,19.692,26.388,36.628,63.015,43.323V277.268z M490.142,226.462c0,20.48-25.6,38.597-63.015,47.262V380.85
	c37.415-8.665,63.015-26.782,63.015-48.049V209.132V226.462L490.142,226.462z M76.603,129.969H13.588v91.766
	c0,20.48,26.388,37.415,63.015,43.717V129.969z M427.126,118.154v143.754c37.415-8.665,63.015-26.782,63.015-47.262v-96.492H427.126
	z"/>
<path style="fill:#F2F1EF;" d="M399.557,58.683C392.862,25.994,336.542,0,266.831,0c-53.957,0-100.037,14.178-121.305,36.234
	c-6.302-0.788-12.997-1.575-20.086-1.575c-37.022,0-66.954,16.148-66.954,33.871c0,3.545,0.788,9.058,3.151,12.209
	c-28.751,8.271-47.655,20.874-47.655,38.203c0,25.994,43.323,46.868,96.886,46.868h268.209c61.834,0,111.852-24.025,111.852-53.957
	C490.142,85.071,451.151,63.409,399.557,58.683z"/>
<path style="fill:#CECDCB;" d="M249.895,47.262c-37.022,0-66.954,13.391-66.954,33.477s29.932,33.477,66.954,33.477
	s66.954-14.966,66.954-33.477S286.917,47.262,249.895,47.262z M282.978,73.255l-38.597,20.086c-1.575,0.788-3.938,1.182-5.908,1.182
	c-2.363,0.394-5.12,0-6.695-0.788l-15.36-7.877c-2.757-1.575-2.757-3.938,0-5.12c2.757-1.575,7.483-1.575,10.24,0l11.422,5.908
	l35.052-18.117c2.757-1.575,7.483-1.575,10.24,0C285.735,69.711,285.735,72.074,282.978,73.255z"/>
<g>
</g>
<g>
</g>
<g>
</g>
<g>
</g>
<g>
</g>
<g>
</g>
<g>
</g>
<g>
</g>
<g>
</g>
<g>
</g>
<g>
</g>
<g>
</g>
<g>
</g>
<g>
</g>
<g>
</g>
</svg>
