<?xml version="1.0" encoding="iso-8859-1"?>
<!-- Generator: Adobe Illustrator 19.0.0, SVG Export Plug-In . SVG Version: 6.00 Build 0)  -->
<svg version="1.1" id="Layer_1" xmlns="http://www.w3.org/2000/svg" xmlns:xlink="http://www.w3.org/1999/xlink" x="0px" y="0px"
	 viewBox="0 0 504.123 504.123" style="enable-background:new 0 0 504.123 504.123;" xml:space="preserve">
<path style="fill:#3DB39E;" d="M9.846,363.029l21.268-209.132c0-1.575-0.394-11.422-9.846-11.815c-3.938,0-7.089-3.545-6.695-7.483
	c0-3.938,3.545-7.089,7.483-6.695c12.603,0.394,19.298,9.058,22.055,17.329l156.751-46.474c3.545-0.788,7.089,0.788,8.271,3.938
	c0.788,1.969,48.443,194.166,224.886,194.166c31.114,0,58.289,29.145,62.228,54.745v1.182c1.182,11.028-1.969,25.994-9.059,35.84
	c-174.474-0.788-339.102,2.363-479.311,1.182L9.846,363.029z"/>
<path style="fill:#37A18E;" d="M490.338,381.933c2.363-4.726,4.332-10.24,5.12-15.754H9.452L8.27,381.933H490.338z"/>
<path style="fill:#EBEDEE;" d="M126.031,169.256c-30.326,0-55.138,24.812-55.138,55.138s24.812,55.138,55.138,55.138
	s55.138-24.812,55.138-55.138S156.357,169.256,126.031,169.256z"/>
<path style="fill:#C6584E;" d="M94.917,216.518c0.394-1.575,1.969-2.757,3.545-3.151l16.542-2.363l7.089-15.36
	c0.788-1.575,2.363-2.757,3.938-2.757c1.575,0,3.545,1.182,3.938,2.757l7.089,15.36l16.542,2.363
	c1.575,0.394,3.151,1.575,3.545,3.151c0.394,1.575,0,3.545-1.182,4.726l-11.815,12.209l2.757,17.329
	c0.394,1.575-0.394,3.545-1.969,4.332c-0.788,0.788-1.575,0.788-2.363,0.788s-1.575,0-2.363-0.394l-14.178-7.877l-14.178,7.877
	c-0.788,0.394-1.575,0.394-2.363,0.394s-1.969-0.394-2.757-0.788c-1.575-1.182-1.969-2.757-1.969-4.332l2.757-17.329l-11.815-12.209
	C94.523,220.062,94.129,218.093,94.917,216.518z"/>
<path style="fill:#EBEDEE;" d="M241.822,209.822l11.028-11.028l0.788-0.788c-3.545-5.514-7.089-10.634-10.24-16.148
	c-1.575,0.394-3.151,1.182-4.726,2.757l-11.028,11.028c-3.938,3.938-3.938,10.24,0,14.572
	C231.582,213.761,237.883,213.761,241.822,209.822z M262.302,211.792l-11.028,11.028c-3.938,3.938-3.938,10.24,0,14.572
	c3.938,3.938,10.24,3.938,14.178,0l11.028-11.028c-4.726-5.12-9.058-10.24-12.997-15.36
	C263.089,211.004,262.695,211.398,262.302,211.792z M293.022,261.022l9.846-9.846c-5.514-4.332-10.24-8.665-15.36-13.391
	l-8.665,8.665c-3.938,3.938-3.938,10.24,0,14.572C282.782,264.961,289.083,264.961,293.022,261.022z"/>
<path style="fill:#3E4E5C;" d="M369.428,388.235c-1.969-9.452-3.151-19.692-3.151-29.932c0-25.206,6.695-48.443,18.511-67.348h0.394
	l-13.785-3.545c-12.997,19.298-20.874,44.111-20.874,70.892c0,10.24,1.182,20.48,3.545,29.932"/>
<path style="fill:#EBEDEE;" d="M495.852,351.607c-3.545-25.994-31.114-55.138-62.228-55.138c-17.723,0-33.871-1.969-49.231-5.514
	c-11.422,18.905-18.117,42.142-18.117,67.348c0,10.24,1.182,20.48,3.151,29.932c38.597,0,77.588-0.394,117.366-0.394
	c7.089-9.846,10.634-24.812,9.058-35.84C495.852,352.001,495.852,351.607,495.852,351.607z"/>
<path style="fill:#37A18E;" d="M24.812,389.81l23.631-245.76l-4.726,1.575c-2.757-8.665-9.452-16.935-22.055-17.329
	c-3.938,0-7.089,2.757-7.483,6.695c0,3.938,2.757,7.089,6.695,7.483c9.058,0.394,9.846,10.24,9.846,11.815L9.846,363.029
	l-1.969,26.782h16.935V389.81z"/>
<path style="fill:#384653;" d="M352.492,381.933h15.754c-0.788-5.12-1.575-10.24-1.969-15.754h-15.754
	C350.917,371.693,351.705,376.813,352.492,381.933z"/>
<path style="fill:#D3D5D6;" d="M368.246,381.933h122.092c2.363-4.726,4.332-10.24,5.12-15.754H366.277
	C366.671,371.693,367.458,376.813,368.246,381.933z"/>
<path style="fill:#EBEDEE;" d="M491.126,374.056H12.997C5.908,374.056,0,379.57,0,386.659v6.302c0,7.089,5.908,12.603,12.997,12.603
	h478.129c7.089,0,12.997-5.514,12.997-12.603v-6.302C504.123,379.57,498.215,374.056,491.126,374.056z"/>
<path style="fill:#D3D5D6;" d="M185.108,374.056h15.36v31.508h-15.36V374.056z M66.954,374.056h15.36v31.508h-15.36V374.056z
	 M145.723,374.056h15.36v31.508h-15.36V374.056z M106.338,374.056h15.36v31.508h-15.36V374.056z M224.492,374.056h15.36v31.508
	h-15.36V374.056z M27.569,374.056h15.36v31.508h-15.36V374.056z M421.415,374.056h15.36v31.508h-15.36V374.056z M460.8,374.056
	h15.36v31.508H460.8V374.056z M382.031,374.056h15.36v31.508h-15.36V374.056z M303.262,374.056h15.36v31.508h-15.36V374.056z
	 M263.877,374.056h15.36v31.508h-15.36V374.056z M342.646,374.056h15.36v31.508h-15.36V374.056z"/>
<g>
</g>
<g>
</g>
<g>
</g>
<g>
</g>
<g>
</g>
<g>
</g>
<g>
</g>
<g>
</g>
<g>
</g>
<g>
</g>
<g>
</g>
<g>
</g>
<g>
</g>
<g>
</g>
<g>
</g>
</svg>
