<?xml version="1.0" encoding="iso-8859-1"?>
<!-- Generator: Adobe Illustrator 19.0.0, SVG Export Plug-In . SVG Version: 6.00 Build 0)  -->
<svg version="1.1" id="Layer_1" xmlns="http://www.w3.org/2000/svg" xmlns:xlink="http://www.w3.org/1999/xlink" x="0px" y="0px"
	 viewBox="0 0 504.124 504.124" style="enable-background:new 0 0 504.124 504.124;" xml:space="preserve">
<path style="fill:#324D5B;" d="M126.031,126.031h252.062c69.711,0,126.031,56.32,126.031,126.031s-56.32,126.031-126.031,126.031
	H126.031C56.32,378.092,0,321.772,0,252.062S56.32,126.031,126.031,126.031z"/>
<path style="fill:#3DB39E;" d="M126.031,157.538c52.382,0,94.523,42.142,94.523,94.523s-42.142,94.523-94.523,94.523
	s-94.523-42.142-94.523-94.523C31.508,200.074,73.649,157.538,126.031,157.538z"/>
<path style="fill:#369D8B;" d="M98.462,240.246c-8.665,0-15.754,7.089-15.754,15.754c0,8.665,7.089,15.754,15.754,15.754
	s15.754-7.089,15.754-15.754C114.215,247.335,107.126,240.246,98.462,240.246z M145.723,240.246
	c-8.665,0-15.754,7.089-15.754,15.754c0,8.665,7.089,15.754,15.754,15.754s15.754-7.089,15.754-15.754
	C161.477,247.335,154.388,240.246,145.723,240.246z"/>
<path style="fill:#F2F1EF;" d="M319.803,220.554c-16.542,0-28.357,13.785-28.357,31.508s11.422,31.508,28.357,31.508
	s28.357-13.785,28.357-31.508C347.766,234.732,335.951,220.554,319.803,220.554z M319.803,271.754
	c-10.24,0-15.36-9.058-15.36-19.692c0-10.24,5.12-19.692,15.36-19.692s15.36,9.452,15.36,19.692
	C335.163,262.695,330.043,271.754,319.803,271.754z M403.298,220.554c-3.545,0-6.302,2.363-6.302,6.695v33.083l-26.782-36.628
	c-1.575-1.969-3.938-3.151-5.514-3.151c-3.545,0-6.302,2.363-6.302,6.695v49.231c0,4.332,2.757,6.695,6.302,6.695
	s6.302-2.363,6.302-6.695v-32.295l26.782,36.234c1.182,1.575,3.545,2.757,5.514,2.757c3.545,0,6.302-2.363,6.302-6.695v-49.231
	C409.6,222.917,406.843,220.554,403.298,220.554z"/>
<path style="fill:#369D8B;" d="M141.785,330.831c-52.382,0-94.523-42.142-94.523-94.523c0-22.055,7.483-42.535,20.48-58.289
	c-22.055,17.329-36.234,44.111-36.234,74.043c0,52.382,42.142,94.523,94.523,94.523c29.932,0,57.108-14.178,74.043-36.234
	C184.32,323.348,163.84,330.831,141.785,330.831z"/>
<path style="fill:#FFFFFF;" d="M102.4,236.308c-8.665,0-15.754,7.089-15.754,15.754s7.089,15.754,15.754,15.754
	s15.754-7.089,15.754-15.754S111.065,236.308,102.4,236.308z M149.662,236.308c-8.665,0-15.754,7.089-15.754,15.754
	s7.089,15.754,15.754,15.754s15.754-7.089,15.754-15.754S158.326,236.308,149.662,236.308z"/>
<g>
</g>
<g>
</g>
<g>
</g>
<g>
</g>
<g>
</g>
<g>
</g>
<g>
</g>
<g>
</g>
<g>
</g>
<g>
</g>
<g>
</g>
<g>
</g>
<g>
</g>
<g>
</g>
<g>
</g>
</svg>
