<?xml version="1.0" encoding="iso-8859-1"?>
<!-- Generator: Adobe Illustrator 19.0.0, SVG Export Plug-In . SVG Version: 6.00 Build 0)  -->
<svg version="1.1" id="Layer_1" xmlns="http://www.w3.org/2000/svg" xmlns:xlink="http://www.w3.org/1999/xlink" x="0px" y="0px"
	 viewBox="0 0 504.123 504.123" style="enable-background:new 0 0 504.123 504.123;" xml:space="preserve">
<path style="fill:#324D5B;" d="M15.754,78.769h472.615c8.665,0,15.754,7.089,15.754,15.754V409.6
	c0,8.665-7.089,15.754-15.754,15.754H15.754C7.089,425.354,0,418.265,0,409.6V94.523C0,85.858,7.089,78.769,15.754,78.769z"/>
<path style="fill:#2B414D;" d="M86.646,106.338h393.846v291.446H86.646V106.338z"/>
<path style="fill:#839097;" d="M129.969,362.338h-7.877v-7.877c0-2.363-1.575-3.938-3.938-3.938s-3.938,1.575-3.938,3.938v11.815
	c0,2.363,1.575,3.938,3.938,3.938h11.815c2.363,0,3.938-1.575,3.938-3.938C133.908,364.308,132.332,362.338,129.969,362.338z
	 M129.969,133.908h-11.815c-2.363,0-3.938,1.575-3.938,3.938v11.815c0,2.363,1.575,3.938,3.938,3.938s3.938-1.575,3.938-3.938
	v-7.877h7.877c2.363,0,3.938-1.575,3.938-3.938C133.908,135.877,132.332,133.908,129.969,133.908z M448.985,133.908H437.17
	c-2.363,0-3.938,1.575-3.938,3.938s1.575,3.938,3.938,3.938h7.877v7.877c0,2.363,1.575,3.938,3.938,3.938s3.938-1.575,3.938-3.938
	v-11.815C452.923,135.877,451.348,133.908,448.985,133.908z M448.985,350.523c-2.363,0-3.938,1.575-3.938,3.938v7.877h-7.877
	c-2.363,0-3.938,1.575-3.938,3.938s1.575,3.938,3.938,3.938h11.815c2.363,0,3.938-1.575,3.938-3.938v-11.815
	C452.923,352.492,451.348,350.523,448.985,350.523z"/>
<path style="fill:#516873;" d="M43.323,220.554c12.997,0,23.631,10.634,23.631,23.631s-10.634,23.631-23.631,23.631
	s-23.631-10.634-23.631-23.631C19.692,231.188,30.326,220.554,43.323,220.554z"/>
<path style="fill:#2B414D;" d="M43.323,236.308c4.332,0,7.877,3.545,7.877,7.877s-3.545,7.877-7.877,7.877s-7.877-3.545-7.877-7.877
	S38.991,236.308,43.323,236.308z M0,106.338v7.877h90.585v-7.877H0z M0,397.785h90.585v-7.877H0V397.785z"/>
<path style="fill:#516873;" d="M51.2,192.985H35.446c-2.363,0-3.938,1.575-3.938,3.938v7.877c0,2.363,1.575,3.938,3.938,3.938H51.2
	c2.363,0,3.938-1.575,3.938-3.938v-7.877C55.138,194.954,53.563,192.985,51.2,192.985z M51.2,169.354H35.446
	c-2.363,0-3.938,1.575-3.938,3.938v7.877c0,2.363,1.575,3.938,3.938,3.938H51.2c2.363,0,3.938-1.575,3.938-3.938v-7.877
	C55.138,171.323,53.563,169.354,51.2,169.354z M51.2,303.262H35.446c-2.363,0-3.938,1.575-3.938,3.938v7.877
	c0,2.363,1.575,3.938,3.938,3.938H51.2c2.363,0,3.938-1.575,3.938-3.938V307.2C55.138,305.231,53.563,303.262,51.2,303.262z
	 M51.2,279.631H35.446c-2.363,0-3.938,1.575-3.938,3.938v7.877c0,2.363,1.575,3.938,3.938,3.938H51.2
	c2.363,0,3.938-1.575,3.938-3.938v-7.877C55.138,281.6,53.563,279.631,51.2,279.631z"/>
<g>
</g>
<g>
</g>
<g>
</g>
<g>
</g>
<g>
</g>
<g>
</g>
<g>
</g>
<g>
</g>
<g>
</g>
<g>
</g>
<g>
</g>
<g>
</g>
<g>
</g>
<g>
</g>
<g>
</g>
</svg>
