<?xml version="1.0" encoding="iso-8859-1"?>
<!-- Generator: Adobe Illustrator 19.0.0, SVG Export Plug-In . SVG Version: 6.00 Build 0)  -->
<svg version="1.1" id="Layer_1" xmlns="http://www.w3.org/2000/svg" xmlns:xlink="http://www.w3.org/1999/xlink" x="0px" y="0px"
	 viewBox="0 0 504.124 504.124" style="enable-background:new 0 0 504.124 504.124;" xml:space="preserve">
<path style="fill:#2EA9D3;" d="M252.062,0.001c139.028,0,252.062,113.034,252.062,252.062S391.089,504.123,252.062,504.123
	S0,391.484,0,252.063S113.034,0.001,252.062,0.001z"/>
<path style="fill:#FFFFFF;" d="M138.24,249.305h-26.782c12.603-14.966,35.052-34.658,35.052-54.351
	c0-18.117-14.572-29.538-32.689-29.538s-34.265,14.178-34.265,31.902c0,5.514,3.545,10.24,10.634,10.24
	c14.178,0,5.908-22.843,22.843-22.843c5.908,0,10.634,5.12,10.634,11.028c0,5.12-2.363,9.452-5.12,12.997
	c-11.028,15.36-24.418,28.357-36.628,42.142c-1.575,1.575-3.545,4.332-3.545,7.089c0,6.695,5.12,9.452,11.422,9.452h48.837
	c5.514,0,10.634-2.757,10.634-9.452C149.662,252.063,144.542,249.305,138.24,249.305z M217.009,211.89
	c7.089-4.332,11.028-12.209,11.028-19.692c0-16.542-14.572-26.782-31.114-26.782c-16.935,0-31.114,10.24-31.114,26.782
	c0,8.665,4.332,14.966,11.028,19.692c-9.058,4.726-15.36,12.997-15.36,24.418c0,18.511,15.754,31.508,35.446,31.508
	c19.298,0,35.446-12.209,35.446-31.508C232.369,225.281,226.855,216.616,217.009,211.89z M196.923,183.926
	c6.695,0,10.634,4.726,10.634,10.634c0,6.302-3.938,10.634-10.634,10.634s-10.24-4.332-10.24-10.634
	S190.228,183.926,196.923,183.926z M196.923,248.518c-8.665,0-12.997-6.695-12.997-13.785c0-7.877,4.726-13.785,12.997-13.785
	c7.877,0,12.997,5.12,12.997,13.785C209.92,241.823,205.194,248.518,196.923,248.518z M267.815,165.415
	c-12.997,0-23.631,10.634-23.631,23.631s10.634,23.631,23.631,23.631c12.997,0,23.631-10.634,23.631-23.631
	S280.812,165.415,267.815,165.415z M267.815,196.924c-4.332,0-7.877-3.545-7.877-7.877s3.545-7.877,7.877-7.877
	s7.877,3.545,7.877,7.877C275.692,193.379,272.148,196.924,267.815,196.924z"/>
<path style="fill:#EFC75E;" d="M486.794,159.902c-27.569-70.105-85.465-124.85-157.539-148.087
	c-6.695,14.572-10.24,30.326-10.24,47.262c0,63.015,51.2,114.215,114.215,114.215C452.529,173.293,470.646,168.566,486.794,159.902z
	"/>
<path style="fill:#47BFE8;" d="M504.123,256h-0.788c-32.295,0-60.652,15.36-78.375,39.385c-1.575,1.969,19.298,22.843,17.723,44.505
	c-14.572-25.994-42.535-43.717-74.437-43.717c-47.262,0-85.465,38.597-85.465,85.858c0,12.209,2.757,24.025,7.089,34.658
	c-21.662,7.089-37.415,27.963-37.415,51.988c0,13.391,4.726,25.6,12.603,35.052C396.603,497.429,501.76,389.12,504.123,256z"/>
<path style="fill:#FFFFFF;" d="M267.422,503.729c-3.545-37.022-29.932-67.742-64.985-76.406c-2.363-0.788-5.12-1.182-7.877-1.575
	c-2.363-0.394-5.12-0.788-7.877-0.788h-5.908c0,0-23.237,0.394-40.172,14.572c0,0,9.058-18.905,31.114-26.388l-3.151-3.545
	c-4.332-4.726-9.058-9.058-14.572-12.997c-4.332-3.151-9.058-6.302-13.785-9.058c-7.089-3.938-14.572-6.695-22.055-9.058
	l-5.908-1.575l-5.908-1.182c-5.908-1.182-12.209-1.575-18.511-1.575c-7.483,0-14.572,0.788-21.268,1.969
	c-3.545,0.788-7.483,1.969-11.422,3.151c-5.514,1.969-11.028,4.332-16.542,6.695c44.898,71.286,123.668,118.154,213.465,118.154
	C257.182,504.123,262.302,504.123,267.422,503.729L267.422,503.729z"/>
<g>
</g>
<g>
</g>
<g>
</g>
<g>
</g>
<g>
</g>
<g>
</g>
<g>
</g>
<g>
</g>
<g>
</g>
<g>
</g>
<g>
</g>
<g>
</g>
<g>
</g>
<g>
</g>
<g>
</g>
</svg>
