<?xml version="1.0" encoding="iso-8859-1"?>
<!-- Generator: Adobe Illustrator 19.0.0, SVG Export Plug-In . SVG Version: 6.00 Build 0)  -->
<svg version="1.1" id="Layer_1" xmlns="http://www.w3.org/2000/svg" xmlns:xlink="http://www.w3.org/1999/xlink" x="0px" y="0px"
	 viewBox="0 0 504.124 504.124" style="enable-background:new 0 0 504.124 504.124;" xml:space="preserve">
<path style="fill:#B8D9F2;" d="M228.431,41.309H31.508C14.178,41.309,0,55.487,0,72.816v133.908
	c0,17.329,14.178,31.508,31.508,31.508h3.938c4.332,0,19.692,1.969,23.631,6.302c11.815,9.452,3.151,3.938,19.692,17.329
	c-0.394-0.394,19.692,18.117,19.692,0v-23.631H228.43c17.329,0,31.508-14.178,31.508-31.508V72.816
	C259.938,55.487,245.76,41.309,228.431,41.309z"/>
<path style="fill:#55ACEE;" d="M169.354,116.14h303.262c17.329,0,31.508,14.178,31.508,31.508v236.308
	c0,17.329-14.178,31.508-31.508,31.508H311.138c-4.332,0-19.692,1.969-23.631,6.302c-11.815,9.452-26.782,19.692-43.323,33.083
	c0.394-0.394-19.692,18.117-19.692,0v-39.385h-55.138c-17.329,0-31.508-14.178-31.508-31.508V147.647
	C137.846,130.318,152.025,116.14,169.354,116.14z"/>
<path style="fill:#FFFFFF;" d="M409.6,214.207c-6.302,2.757-13.391,4.332-20.48,5.12c7.483-3.938,12.997-10.634,15.754-18.117
	c-6.695,3.938-14.572,6.302-22.449,7.877c-6.302-6.302-15.754-10.24-25.994-10.24c-19.692,0-35.446,14.572-35.446,32.689
	c0,2.757,0.394,5.12,0.788,7.483c-29.538-1.182-55.926-14.572-73.255-34.265c-3.151,4.726-4.726,10.634-4.726,16.542
	c0,11.422,6.302,21.268,15.754,27.175c-5.908,0-11.422-1.575-16.148-3.938v0.394c0,15.754,12.209,29.145,28.357,32.295
	c-3.151,0.788-6.302,1.182-9.452,1.182c-2.363,0-4.332-0.394-6.695-0.788c4.332,12.997,17.723,22.449,33.083,22.843
	c-12.209,8.665-27.569,14.178-44.111,14.178c-2.757,0-5.514,0-8.665-0.394c15.754,9.452,34.265,14.572,54.351,14.572
	c65.378,0,101.218-50.018,101.218-93.342v-4.332C398.966,226.416,404.874,220.903,409.6,214.207z"/>
<g>
</g>
<g>
</g>
<g>
</g>
<g>
</g>
<g>
</g>
<g>
</g>
<g>
</g>
<g>
</g>
<g>
</g>
<g>
</g>
<g>
</g>
<g>
</g>
<g>
</g>
<g>
</g>
<g>
</g>
</svg>
