<?xml version="1.0" encoding="iso-8859-1"?>
<!-- Generator: Adobe Illustrator 19.0.0, SVG Export Plug-In . SVG Version: 6.00 Build 0)  -->
<svg version="1.1" id="Layer_1" xmlns="http://www.w3.org/2000/svg" xmlns:xlink="http://www.w3.org/1999/xlink" x="0px" y="0px"
	 viewBox="0 0 504.123 504.123" style="enable-background:new 0 0 504.123 504.123;" xml:space="preserve">
<path style="fill:#415661;" d="M78.769,0h346.585c43.323,0,78.769,35.446,78.769,78.769v346.585
	c0,43.323-35.446,78.769-78.769,78.769H78.769C35.446,504.123,0,468.677,0,425.354V78.769C0,35.446,35.446,0,78.769,0z"/>
<path style="fill:#2B414D;" d="M78.769,31.508h346.585c25.994,0,47.262,21.268,47.262,47.262v244.185
	c0,25.994-21.268,47.262-47.262,47.262H78.769c-25.994,0-47.262-21.268-47.262-47.262V78.769
	C31.508,52.775,52.775,31.508,78.769,31.508z"/>
<path style="fill:#E2574C;" d="M86.646,55.138h330.831c17.329,0,31.508,14.178,31.508,31.508v228.431
	c0,17.329-14.178,31.508-31.508,31.508H86.646c-17.329,0-31.508-14.178-31.508-31.508V86.646
	C55.138,69.317,69.317,55.138,86.646,55.138z"/>
<path style="fill:#E66B62;" d="M448.985,315.077V86.646c0-17.329-14.178-31.508-31.508-31.508H252.062v291.446h165.415
	C434.806,346.585,448.985,332.406,448.985,315.077z"/>
<path style="fill:#FFFFFF;" d="M320.985,192.197l-96.886-60.258c-7.483-4.726-14.966-0.788-14.966,8.665V261.12
	c0,9.452,7.483,13.391,14.966,8.665l96.886-59.077C330.437,204.8,326.892,195.742,320.985,192.197z"/>
<path style="fill:#2B414D;" d="M189.046,405.662c-4.332,0-7.877,3.545-7.877,7.877v39.385c0,4.332,3.545,7.877,7.877,7.877
	s7.877-3.545,7.877-7.877v-39.385C196.923,409.206,193.378,405.662,189.046,405.662z M220.554,405.662
	c-4.332,0-7.877,3.545-7.877,7.877v39.385c0,4.332,3.545,7.877,7.877,7.877s7.877-3.545,7.877-7.877v-39.385
	C228.431,409.206,224.886,405.662,220.554,405.662z M252.062,405.662c-4.332,0-7.877,3.545-7.877,7.877v39.385
	c0,4.332,3.545,7.877,7.877,7.877c4.332,0,7.877-3.545,7.877-7.877v-39.385C259.938,409.206,256.394,405.662,252.062,405.662z
	 M283.569,405.662c-4.332,0-7.877,3.545-7.877,7.877v39.385c0,4.332,3.545,7.877,7.877,7.877s7.877-3.545,7.877-7.877v-39.385
	C291.446,409.206,287.902,405.662,283.569,405.662z M315.077,405.662c-4.332,0-7.877,3.545-7.877,7.877v39.385
	c0,4.332,3.545,7.877,7.877,7.877s7.877-3.545,7.877-7.877v-39.385C322.954,409.206,319.409,405.662,315.077,405.662z"/>
<path style="fill:#FFFFFF;" d="M389.908,405.662c-15.36,0-27.569,12.209-27.569,27.569s12.209,27.569,27.569,27.569
	c15.36,0,27.569-12.209,27.569-27.569S405.268,405.662,389.908,405.662z M114.215,405.662c-15.36,0-27.569,12.209-27.569,27.569
	S98.855,460.8,114.215,460.8s27.569-12.209,27.569-27.569S129.575,405.662,114.215,405.662z"/>
<path style="fill:#324D5B;" d="M114.215,421.415c-6.695,0-11.815,5.12-11.815,11.815s5.12,11.815,11.815,11.815
	s11.815-5.12,11.815-11.815C126.031,426.929,120.911,421.415,114.215,421.415z M389.908,421.415c-6.695,0-11.815,5.12-11.815,11.815
	s5.12,11.815,11.815,11.815s11.815-5.12,11.815-11.815C401.723,426.929,396.603,421.415,389.908,421.415z"/>
<g>
</g>
<g>
</g>
<g>
</g>
<g>
</g>
<g>
</g>
<g>
</g>
<g>
</g>
<g>
</g>
<g>
</g>
<g>
</g>
<g>
</g>
<g>
</g>
<g>
</g>
<g>
</g>
<g>
</g>
</svg>
