<?xml version="1.0" encoding="iso-8859-1"?>
<!-- Generator: Adobe Illustrator 19.0.0, SVG Export Plug-In . SVG Version: 6.00 Build 0)  -->
<svg version="1.1" id="Layer_1" xmlns="http://www.w3.org/2000/svg" xmlns:xlink="http://www.w3.org/1999/xlink" x="0px" y="0px"
	 viewBox="0 0 504.123 504.123" style="enable-background:new 0 0 504.123 504.123;" xml:space="preserve">
<path style="fill:#349886;" d="M106.338,15.754h330.831c30.326,0,55.138,24.812,55.138,55.138V433.23
	c0,30.326-24.812,55.138-55.138,55.138H106.338c-30.326,0-55.138-24.812-55.138-55.138V70.892
	C51.2,40.566,76.012,15.754,106.338,15.754z"/>
<path style="fill:#EBEDEE;" d="M90.585,15.754h330.831c30.326,0,55.138,24.812,55.138,55.138V433.23
	c0,30.326-24.812,55.138-55.138,55.138H90.585c-30.326,0-55.138-24.812-55.138-55.138V70.892
	C35.446,40.566,60.258,15.754,90.585,15.754z"/>
<path style="fill:#3DB39E;" d="M66.954,7.877h330.831c30.326,0,55.138,24.812,55.138,55.138v378.092
	c0,30.326-24.812,55.138-55.138,55.138H66.954c-30.326,0-55.138-24.812-55.138-55.138V63.015
	C11.815,32.689,36.628,7.877,66.954,7.877z"/>
<path style="fill:#EFC75E;" d="M169.354,149.662h204.8v118.154h-204.8L169.354,149.662L169.354,149.662z"/>
<path style="fill:#324D5B;" d="M66.954,496.246h23.631V7.877H66.954c-30.326,0-55.138,24.812-55.138,55.138v378.092
	C11.815,471.434,36.628,496.246,66.954,496.246z"/>
<path style="fill:#D7B354;" d="M200.862,181.169v15.754h126.031v-15.754H200.862z M200.862,236.308h126.031v-15.754H200.862V236.308
	z"/>
<path style="fill:#2B424D;" d="M74.831,7.877h15.754v488.369H74.831V7.877z"/>
<path style="fill:#E4E7E7;" d="M319.015,0h47.262c4.332,0,7.877,3.545,7.877,7.877v488.369c0,4.332-3.545,7.877-7.877,7.877h-47.262
	c-4.332,0-7.877-3.545-7.877-7.877V7.877C311.138,3.545,314.683,0,319.015,0z"/>
<path style="fill:#CCD0D2;" d="M326.892,504.123h7.877V0h-7.877V504.123z M350.523,0v504.123h7.877V0H350.523z"/>
<g>
</g>
<g>
</g>
<g>
</g>
<g>
</g>
<g>
</g>
<g>
</g>
<g>
</g>
<g>
</g>
<g>
</g>
<g>
</g>
<g>
</g>
<g>
</g>
<g>
</g>
<g>
</g>
<g>
</g>
</svg>
