<?xml version="1.0" encoding="iso-8859-1"?>
<!-- Generator: Adobe Illustrator 19.0.0, SVG Export Plug-In . SVG Version: 6.00 Build 0)  -->
<svg version="1.1" id="Layer_1" xmlns="http://www.w3.org/2000/svg" xmlns:xlink="http://www.w3.org/1999/xlink" x="0px" y="0px"
	 viewBox="0 0 504.124 504.124" style="enable-background:new 0 0 504.124 504.124;" xml:space="preserve">
<path style="fill:#2B414D;" d="M397.785,441.108c-12.997,0-23.631,10.634-23.631,23.631v15.754
	c0,12.997,10.634,23.631,23.631,23.631s23.631-10.634,23.631-23.631v-15.754C421.415,451.742,410.782,441.108,397.785,441.108z
	 M106.338,441.108c-12.997,0-23.631,10.634-23.631,23.631v15.754c0,12.997,10.634,23.631,23.631,23.631s23.631-10.634,23.631-23.631
	v-15.754C129.969,451.742,119.335,441.108,106.338,441.108z"/>
<path style="fill:#465765;" d="M252.062,0c113.034,0,204.8,91.766,204.8,204.8v47.262c0,113.034-91.766,204.8-204.8,204.8
	s-204.8-91.766-204.8-204.8V204.8C47.262,91.766,139.028,0,252.062,0z"/>
<path style="fill:#324D5B;" d="M250.092,269.391c110.277,0,163.84,27.963,163.84,41.354v76.012c0,15.36-12.603,13.785-27.963,13.785
	H118.154c-15.36,0-27.963,1.575-27.963-13.785v-76.012C90.191,297.748,139.815,269.391,250.092,269.391z M468.677,299.323v150.055
	c0,14.966-12.209,27.175-27.569,27.175H63.015c-15.36,0-27.569-12.209-27.569-27.175V299.323H468.677z"/>
<path style="fill:#74868F;" d="M250.092,283.569c110.277,0,163.446,27.569,163.446,40.96v75.225
	c0,14.966-12.603,13.785-27.569,13.785H118.154c-15.36,0-27.569,1.575-27.569-13.785v-75.225
	C90.585,311.926,139.815,283.569,250.092,283.569z"/>
<g>
	<ellipse style="fill:#324D5B;" cx="66.954" cy="287.51" rx="66.954" ry="66.954"/>
	<ellipse style="fill:#324D5B;" cx="437.17" cy="287.51" rx="66.954" ry="66.954"/>
	<path style="fill:#324D5B;" d="M269.785,169.354l10.634-10.634c3.938-3.938,3.938-9.846,0-13.785
		c-3.938-3.938-9.846-3.938-13.785,0L256,155.569l-10.634-10.634c-3.938-3.938-9.846-3.938-13.785,0
		c-3.938,3.938-3.938,9.846,0,13.785l11.028,10.634l-11.028,11.028c-3.938,3.938-3.938,9.846,0,13.785
		c3.938,3.938,9.846,3.938,13.785,0l11.028-11.028l11.028,11.028c3.938,3.938,9.846,3.938,13.785,0
		c3.938-3.938,3.938-9.846,0-13.785L269.785,169.354z M336.738,133.908c7.483,0,13.785-6.302,13.785-13.785
		s-6.302-13.785-13.785-13.785s-13.785,6.302-13.785,13.785C322.954,127.606,329.255,133.908,336.738,133.908z M175.262,204.8
		c-7.483,0-13.785,6.302-13.785,13.785s6.302,13.785,13.785,13.785s13.785-6.302,13.785-13.785
		C189.046,211.102,182.745,204.8,175.262,204.8z M336.738,204.8c-7.483,0-13.785,6.302-13.785,13.785s6.302,13.785,13.785,13.785
		s13.785-6.302,13.785-13.785S344.222,204.8,336.738,204.8z M175.262,106.338c-7.483,0-13.785,6.302-13.785,13.785
		s6.302,13.785,13.785,13.785s13.785-6.302,13.785-13.785S182.745,106.338,175.262,106.338z"/>
</g>
<g>
	<circle style="fill:#516873;" cx="66.954" cy="287.51" r="46.08"/>
	<circle style="fill:#516873;" cx="437.17" cy="287.51" r="46.08"/>
</g>
<path style="fill:#67757D;" d="M90.585,399.754c0,11.422,7.483,13.391,17.723,13.785H396.21c10.24-0.394,17.723-1.969,17.723-13.785
	V358.4H90.585V399.754z"/>
<g>
</g>
<g>
</g>
<g>
</g>
<g>
</g>
<g>
</g>
<g>
</g>
<g>
</g>
<g>
</g>
<g>
</g>
<g>
</g>
<g>
</g>
<g>
</g>
<g>
</g>
<g>
</g>
<g>
</g>
</svg>
