<?xml version="1.0" encoding="iso-8859-1"?>
<!-- Generator: Adobe Illustrator 19.0.0, SVG Export Plug-In . SVG Version: 6.00 Build 0)  -->
<svg version="1.1" id="Layer_1" xmlns="http://www.w3.org/2000/svg" xmlns:xlink="http://www.w3.org/1999/xlink" x="0px" y="0px"
	 viewBox="0 0 504.124 504.124" style="enable-background:new 0 0 504.124 504.124;" xml:space="preserve">
<path style="fill:#EFC75E;" d="M433.231,283.569H70.892C31.902,283.569,0,315.471,0,354.462V409.6
	c0,21.662,17.723,39.385,39.385,39.385h425.354c21.662,0,39.385-17.723,39.385-39.385v-55.138
	C504.123,315.471,472.222,283.569,433.231,283.569z"/>
<path style="fill:#D7B354;" d="M0.394,346.585h503.335c-3.938-35.446-33.871-63.015-70.498-63.015H70.892
	C34.265,283.569,4.332,311.138,0.394,346.585z"/>
<path style="fill:#C19D3D;" d="M0.394,346.585h503.335c-0.788-5.514-1.969-10.634-3.545-15.754H3.938
	C2.363,335.951,1.182,341.071,0.394,346.585z"/>
<path style="fill:#F4F0D3;" d="M456.862,189.046c0-78.375-63.409-141.785-141.785-141.785H189.046
	c-78.375,0-141.785,63.409-141.785,141.785v279.631c0,19.692,15.754,35.446,35.446,35.446h338.708
	c19.692,0,35.446-15.754,35.446-35.446L456.862,189.046L456.862,189.046z"/>
<path style="fill:#E8E4C8;" d="M189.046,47.262c-78.375,0-141.785,63.409-141.785,141.785v279.631
	c0,19.692,15.754,35.446,35.446,35.446h169.354V47.262H189.046z"/>
<path style="fill:#EFC75E;" d="M292.628,47.262c-7.877-14.178-23.237-23.631-40.566-23.631s-32.689,9.452-40.566,23.631h-26.388
	C194.954,19.692,220.948,0,252.062,0s57.108,19.692,66.954,47.262H292.628z M122.092,252.062H382.03
	c11.028,0,19.692,8.665,19.692,19.692v157.538c0,11.028-8.665,19.692-19.692,19.692H122.092c-11.028,0-19.692-8.665-19.692-19.692
	V271.754C102.4,260.726,111.065,252.062,122.092,252.062z"/>
<path style="fill:#4681A0;" d="M302.08,144.935l-37.415-37.415c-6.695-6.695-18.117-6.695-24.812,0l-37.415,37.415
	c-6.695,6.695-6.695,18.117,0,24.812l37.415,37.415c6.695,6.695,18.117,6.695,24.812,0l37.415-37.415
	C308.775,163.052,308.775,152.025,302.08,144.935z M244.185,169.354c0,2.363-1.575,3.938-3.938,3.938h-7.877
	c-2.363,0-3.938-1.575-3.938-3.938v-23.631c0-2.363,1.575-3.938,3.938-3.938h7.877c2.363,0,3.938,1.575,3.938,3.938V169.354z
	 M275.692,169.354c0,2.363-1.575,3.938-3.938,3.938h-7.877c-2.363,0-3.938-1.575-3.938-3.938v-23.631
	c0-2.363,1.575-3.938,3.938-3.938h7.877c2.363,0,3.938,1.575,3.938,3.938V169.354z"/>
<path style="fill:#C19D3D;" d="M145.723,291.446H358.4c2.363,0,3.938,1.575,3.938,3.938v7.877c0,2.363-1.575,3.938-3.938,3.938
	H145.723c-2.363,0-3.938-1.575-3.938-3.938v-7.877C141.785,293.415,143.36,291.446,145.723,291.446z"/>
<path style="fill:#DCB757;" d="M118.154,429.292V271.754c0-11.028,8.665-19.692,19.692-19.692h-15.754
	c-11.028,0-19.692,8.665-19.692,19.692v157.538c0,11.028,8.665,19.692,19.692,19.692h15.754
	C126.818,448.985,118.154,440.32,118.154,429.292z"/>
<g>
</g>
<g>
</g>
<g>
</g>
<g>
</g>
<g>
</g>
<g>
</g>
<g>
</g>
<g>
</g>
<g>
</g>
<g>
</g>
<g>
</g>
<g>
</g>
<g>
</g>
<g>
</g>
<g>
</g>
</svg>
