<?xml version="1.0" encoding="iso-8859-1"?>
<!-- Generator: Adobe Illustrator 19.0.0, SVG Export Plug-In . SVG Version: 6.00 Build 0)  -->
<svg version="1.1" id="Layer_1" xmlns="http://www.w3.org/2000/svg" xmlns:xlink="http://www.w3.org/1999/xlink" x="0px" y="0px"
	 viewBox="0 0 504.123 504.123" style="enable-background:new 0 0 504.123 504.123;" xml:space="preserve">
<path style="fill:#61BFAF;" d="M504.123,133.908h-6.302l-103.975,49.625v170.929l110.277-55.926
	C504.123,298.535,504.123,133.908,504.123,133.908z"/>
<path style="fill:#37A18E;" d="M393.846,183.532l-103.975-49.625h-6.302v164.628l110.277,55.926V183.532z"/>
<path style="fill:#3DB39E;" d="M283.569,133.908L393.846,78.77l110.277,55.138l-110.277,55.138L283.569,133.908z"/>
<path style="fill:#E5766D;" d="M362.338,55.138h-6.302l-103.975,49.625v324.529l110.277-55.926V55.138z"/>
<path style="fill:#CB4E44;" d="M252.062,104.763L148.086,55.138h-6.302v318.228l110.277,55.926
	C252.062,429.292,252.062,104.763,252.062,104.763z"/>
<path style="fill:#E2574C;" d="M141.785,55.138L252.062,0l110.277,55.138l-110.277,55.138L141.785,55.138z"/>
<path style="fill:#EFCF7B;" d="M220.554,189.046h-6.302l-103.975,49.625v265.452l110.277-55.926V189.046z"/>
<path style="fill:#D7B354;" d="M110.277,238.671L6.302,189.046H0v259.151l110.277,55.926V238.671z"/>
<path style="fill:#EFC75E;" d="M0,189.046l110.277-55.138l110.277,55.138l-110.277,55.138L0,189.046z"/>
<g>
</g>
<g>
</g>
<g>
</g>
<g>
</g>
<g>
</g>
<g>
</g>
<g>
</g>
<g>
</g>
<g>
</g>
<g>
</g>
<g>
</g>
<g>
</g>
<g>
</g>
<g>
</g>
<g>
</g>
</svg>
