<?xml version="1.0" encoding="iso-8859-1"?>
<!-- Generator: Adobe Illustrator 19.0.0, SVG Export Plug-In . SVG Version: 6.00 Build 0)  -->
<svg version="1.1" id="Layer_1" xmlns="http://www.w3.org/2000/svg" xmlns:xlink="http://www.w3.org/1999/xlink" x="0px" y="0px"
	 viewBox="0 0 504.124 504.124" style="enable-background:new 0 0 504.124 504.124;" xml:space="preserve">
<path style="fill:#EFEFEF;" d="M23.631,0h456.862c12.997,0,23.631,10.634,23.631,23.631v456.862
	c0,12.997-10.634,23.631-23.631,23.631H23.631C10.634,504.123,0,493.489,0,480.492V23.631C0,10.634,10.634,0,23.631,0z"/>
<path style="fill:#FFFFFF;" d="M47.262,102.4h409.6c8.665,0,15.754,7.089,15.754,15.754v338.708c0,8.665-7.089,15.754-15.754,15.754
	h-409.6c-8.665,0-15.754-7.089-15.754-15.754V118.154C31.508,109.489,38.597,102.4,47.262,102.4z"/>
<path style="fill:#DCDCDC;" d="M204.8,35.446h252.062c8.665,0,15.754,7.089,15.754,15.754s-7.089,15.754-15.754,15.754H204.8
	c-8.665,0-15.754-7.089-15.754-15.754S196.135,35.446,204.8,35.446z"/>
<path style="fill:#324D5B;" d="M86.646,141.785h330.831c8.665,0,15.754,7.089,15.754,15.754v94.523
	c0,8.665-7.089,15.754-15.754,15.754H86.646c-8.665,0-15.754-7.089-15.754-15.754v-94.523
	C70.892,148.874,77.982,141.785,86.646,141.785z"/>
<path style="fill:#EBEBEB;" d="M86.646,311.138h129.969c8.665,0,15.754,7.089,15.754,15.754v86.646
	c0,8.665-7.089,15.754-15.754,15.754H86.646c-8.665,0-15.754-7.089-15.754-15.754v-86.646
	C70.892,318.228,77.982,311.138,86.646,311.138z M421.415,311.138H275.692c-6.695,0-11.815,5.12-11.815,11.815
	s5.12,11.815,11.815,11.815h145.723c6.695,0,11.815-5.12,11.815-11.815C433.231,316.652,428.111,311.138,421.415,311.138z
	 M421.415,358.4H275.692c-6.695,0-11.815,5.12-11.815,11.815s5.12,11.815,11.815,11.815h145.723c6.695,0,11.815-5.12,11.815-11.815
	C433.231,363.914,428.111,358.4,421.415,358.4z M421.415,405.662H275.692c-6.695,0-11.815,5.12-11.815,11.815
	s5.12,11.815,11.815,11.815h145.723c6.695,0,11.815-5.12,11.815-11.815C433.231,411.175,428.111,405.662,421.415,405.662z"/>
<path style="fill:#EFC75E;" d="M261.908,173.292c-2.363,20.086-13.391,31.114-33.477,33.477
	c20.086,2.363,31.114,13.391,33.477,33.477c2.363-20.086,13.391-31.114,33.477-33.477
	C275.298,204.406,264.271,193.378,261.908,173.292z M128,189.046c-1.575,15.36-10.24,24.025-25.6,25.6
	c15.36,1.575,24.025,10.24,25.6,25.6c1.575-15.36,10.24-24.025,25.6-25.6C138.24,213.071,129.575,204.406,128,189.046z"/>
<path style="fill:#5B717C;" d="M181.169,165.415c-1.182,11.815-7.877,18.511-19.692,19.692c11.815,1.182,18.511,7.877,19.692,19.692
	c1.182-11.815,7.877-18.511,19.692-19.692C189.046,183.926,182.351,177.231,181.169,165.415z M344.615,204.8
	c-1.182,10.634-7.089,16.542-17.723,17.723c10.634,1.182,16.542,7.089,17.723,17.723c1.182-10.634,7.089-16.542,17.723-17.723
	C351.705,221.342,345.797,215.434,344.615,204.8z M385.969,165.415c-1.182,11.815-7.877,18.511-19.692,19.692
	c11.815,1.182,18.511,7.877,19.692,19.692c1.182-11.815,7.877-18.511,19.692-19.692
	C393.846,183.926,387.151,177.231,385.969,165.415z"/>
<path style="fill:#BFC3C5;" d="M47.262,35.446c-8.665,0-15.754,7.089-15.754,15.754s7.089,15.754,15.754,15.754
	S63.015,59.865,63.015,51.2S55.926,35.446,47.262,35.446z M94.523,35.446c-8.665,0-15.754,7.089-15.754,15.754
	s7.089,15.754,15.754,15.754s15.754-7.089,15.754-15.754S103.188,35.446,94.523,35.446z M141.785,35.446
	c-8.665,0-15.754,7.089-15.754,15.754s7.089,15.754,15.754,15.754s15.754-7.089,15.754-15.754S150.449,35.446,141.785,35.446z"/>
<g>
</g>
<g>
</g>
<g>
</g>
<g>
</g>
<g>
</g>
<g>
</g>
<g>
</g>
<g>
</g>
<g>
</g>
<g>
</g>
<g>
</g>
<g>
</g>
<g>
</g>
<g>
</g>
<g>
</g>
</svg>
