<?xml version="1.0" encoding="iso-8859-1"?>
<!-- Generator: Adobe Illustrator 19.0.0, SVG Export Plug-In . SVG Version: 6.00 Build 0)  -->
<svg version="1.1" id="Layer_1" xmlns="http://www.w3.org/2000/svg" xmlns:xlink="http://www.w3.org/1999/xlink" x="0px" y="0px"
	 viewBox="0 0 504.124 504.124" style="enable-background:new 0 0 504.124 504.124;" xml:space="preserve">
<path style="fill:#EFEFEF;" d="M23.631,1.97h456.862c12.997,0,23.631,10.634,23.631,23.631v452.923
	c0,12.997-10.634,23.631-23.631,23.631H23.631C10.634,502.154,0,491.52,0,478.523V25.601C0,12.604,10.634,1.97,23.631,1.97z"/>
<path style="fill:#324D5B;" d="M55.138,57.109h393.846v102.4H55.138V57.109z"/>
<path style="fill:#AEB5BA;" d="M330.437,105.946c2.363-1.182,4.332-2.363,5.514-4.332s1.969-4.332,1.969-6.695
	c0-3.938-1.575-7.483-4.332-9.846c-2.757-2.757-7.089-3.938-12.209-3.938c-5.514,0-9.452,1.182-12.603,3.938
	c-2.757,2.757-4.332,5.908-4.332,9.846c0,2.363,0.788,4.332,1.969,6.302s3.151,3.545,5.908,4.726
	c-3.151,1.182-5.514,3.151-7.089,5.514c-1.575,2.363-2.363,5.12-2.363,7.877c0,5.12,1.969,9.452,5.908,12.603
	c3.545,2.757,7.483,3.938,12.603,3.938c5.514,0,9.846-1.575,12.997-4.726s5.12-7.089,5.12-12.209c0-3.151-0.788-5.514-2.363-7.877
	C335.951,108.703,333.588,107.127,330.437,105.946L330.437,105.946z M316.652,90.586c1.182-1.182,2.757-1.575,5.12-1.575
	c1.969,0,3.545,0.394,4.726,1.575c1.182,1.182,1.969,2.757,1.969,4.726s-0.788,3.545-1.969,4.726s-2.757,1.575-4.726,1.575
	c-1.969,0-3.545-0.394-4.726-1.575c-1.182-1.182-1.969-2.757-1.969-4.726S315.471,91.767,316.652,90.586z M327.286,125.243
	c-1.575,1.575-3.151,2.363-5.514,2.363s-4.332-0.788-5.514-2.363c-1.575-1.575-2.363-3.938-2.363-6.695
	c0-1.969,0.788-3.938,1.969-5.514c1.182-1.575,3.151-2.757,5.908-2.757c2.363,0,4.332,0.788,5.514,2.363
	c1.575,1.575,2.363,3.545,2.363,5.908C329.649,121.699,328.862,123.669,327.286,125.243z M373.366,105.946
	c2.363-1.182,4.332-2.363,5.514-4.332s1.969-4.332,1.969-6.695c0-3.938-1.575-7.483-4.332-9.846
	c-2.757-2.757-7.089-3.938-12.209-3.938c-5.514,0-9.452,1.182-12.603,3.938c-2.757,2.757-4.332,5.908-4.332,9.846
	c0,2.363,0.788,4.332,1.969,6.302s3.151,3.545,5.908,4.726c-3.151,1.182-5.514,3.151-7.089,5.514s-2.363,5.12-2.363,7.877
	c0,5.12,1.969,9.452,5.908,12.603c3.545,2.757,7.483,3.938,12.603,3.938c5.514,0,9.846-1.575,12.997-4.726s5.12-7.089,5.12-12.209
	c0-3.151-0.788-5.514-2.363-7.877C378.88,108.703,376.517,107.127,373.366,105.946L373.366,105.946z M359.188,90.586
	c1.182-1.182,2.757-1.575,5.12-1.575c1.969,0,3.545,0.394,4.726,1.575c1.182,1.182,1.969,2.757,1.969,4.726
	s-0.788,3.545-1.969,4.726s-2.757,1.575-4.726,1.575c-1.969,0-3.545-0.394-4.726-1.575c-1.182-1.182-1.969-2.757-1.969-4.726
	S358.006,91.767,359.188,90.586z M369.822,125.243c-1.575,1.575-3.151,2.363-5.514,2.363s-4.332-0.788-5.514-2.363
	c-1.575-1.575-2.363-3.938-2.363-6.695c0-1.969,0.788-3.938,1.969-5.514c1.182-1.575,3.151-2.757,5.908-2.757
	c2.363,0,4.332,0.788,5.514,2.363c1.575,1.575,2.363,3.545,2.363,5.908C372.185,121.699,371.397,123.669,369.822,125.243z
	 M419.84,87.041c-3.545-4.332-8.271-6.302-13.785-6.302c-5.12,0-9.452,1.575-12.997,5.12s-5.12,7.877-5.12,13.391
	c0,5.12,1.575,9.452,4.726,12.603c3.151,3.151,7.089,4.726,11.422,4.726c3.938,0,7.483-1.575,10.24-4.332
	c-0.394,6.302-1.575,10.24-3.151,12.209c-1.575,1.969-3.545,2.757-5.514,2.757c-1.575,0-3.151-0.394-4.332-1.575
	c-1.182-0.788-1.575-2.363-1.969-4.332l-10.24,1.182c0.788,4.332,2.363,7.877,5.12,10.24c2.757,2.363,6.302,3.545,10.634,3.545
	c5.908,0,11.028-2.363,14.966-6.695c3.938-4.332,5.514-11.422,5.514-21.268S423.385,91.373,419.84,87.041z M411.175,106.733
	c-1.575,1.575-3.151,2.363-5.12,2.363s-3.938-0.788-5.514-2.363c-1.575-1.575-1.969-4.332-1.969-7.483
	c0-3.545,0.788-5.908,1.969-7.483s3.151-2.363,5.12-2.363s3.938,0.788,5.514,2.757c1.575,1.969,2.363,4.332,2.363,7.877
	C413.145,102.795,412.751,105.158,411.175,106.733z"/>
<path style="fill:#E2574C;" d="M149.662,198.893h-78.77c-8.665,0-15.754,7.089-15.754,15.754v78.769
	c0,8.665,7.089,15.754,15.754,15.754h78.769c8.665,0,15.754-7.089,15.754-15.754v-78.769
	C165.415,205.982,158.326,198.893,149.662,198.893z M283.569,198.893H204.8c-8.665,0-15.754,7.089-15.754,15.754v78.769
	c0,8.665,7.089,15.754,15.754,15.754h78.769c8.665,0,15.754-7.089,15.754-15.754v-78.769
	C299.323,205.982,292.234,198.893,283.569,198.893z M283.569,332.8H204.8c-8.665,0-15.754,7.089-15.754,15.754v78.769
	c0,8.665,7.089,15.754,15.754,15.754h78.769c8.665,0,15.754-7.089,15.754-15.754v-78.769
	C299.323,339.889,292.234,332.8,283.569,332.8z M149.662,332.8h-78.77c-8.665,0-15.754,7.089-15.754,15.754v78.769
	c0,8.665,7.089,15.754,15.754,15.754h78.769c8.665,0,15.754-7.089,15.754-15.754v-78.769
	C165.415,339.889,158.326,332.8,149.662,332.8z"/>
<path style="fill:#FFFFFF;" d="M86.646,391.878h47.262v-15.754H86.646V391.878z M236.308,364.309c0,4.332,3.545,7.877,7.877,7.877
	s7.877-3.545,7.877-7.877s-3.545-7.877-7.877-7.877S236.308,359.975,236.308,364.309z M220.554,380.063v15.754h47.262v-15.754
	H220.554z M244.185,403.692c-4.332,0-7.877,3.545-7.877,7.877s3.545,7.877,7.877,7.877s7.877-3.545,7.877-7.877
	S248.517,403.692,244.185,403.692z M118.154,230.4H102.4v15.754H86.646v15.754H102.4v15.754h15.754v-15.754h15.754v-15.754h-15.754
	C118.154,246.154,118.154,230.4,118.154,230.4z M233.157,276.48l11.028-11.028l11.028,11.028l11.028-11.028l-11.028-11.028
	l11.028-11.028l-11.028-11.028l-11.028,10.634l-11.028-11.028l-11.028,11.028l11.028,11.028l-11.028,11.028
	C222.129,265.059,233.157,276.48,233.157,276.48z"/>
<path style="fill:#26A6D1;" d="M338.708,198.893h94.523c8.665,0,15.754,7.089,15.754,15.754v212.677
	c0,8.665-7.089,15.754-15.754,15.754h-94.523c-8.665,0-15.754-7.089-15.754-15.754V214.646
	C322.954,205.982,330.043,198.893,338.708,198.893z"/>
<path style="fill:#FFFFFF;" d="M362.338,301.292v15.754H409.6v-15.754H362.338z M362.338,344.615H409.6v-15.754h-47.262V344.615z"/>
<path style="fill:#DCDCDC;" d="M480.492,490.339H23.631C10.634,490.339,0,479.705,0,466.708v11.815
	c0,12.997,10.634,23.631,23.631,23.631h456.862c12.997,0,23.631-10.634,23.631-23.631v-11.815
	C504.123,479.705,493.489,490.339,480.492,490.339z"/>
<path style="fill:#2E4754;" d="M55.138,57.109h393.846v15.754H55.138V57.109z"/>
<g>
</g>
<g>
</g>
<g>
</g>
<g>
</g>
<g>
</g>
<g>
</g>
<g>
</g>
<g>
</g>
<g>
</g>
<g>
</g>
<g>
</g>
<g>
</g>
<g>
</g>
<g>
</g>
<g>
</g>
</svg>
