<?xml version="1.0" encoding="iso-8859-1"?>
<!-- Generator: Adobe Illustrator 19.0.0, SVG Export Plug-In . SVG Version: 6.00 Build 0)  -->
<svg version="1.1" id="Layer_1" xmlns="http://www.w3.org/2000/svg" xmlns:xlink="http://www.w3.org/1999/xlink" x="0px" y="0px"
	 viewBox="0 0 504.124 504.124" style="enable-background:new 0 0 504.124 504.124;" xml:space="preserve">
<path style="fill:#E2574C;" d="M31.508,0h441.108c17.329,0,31.508,14.178,31.508,31.508v441.108
	c0,17.329-14.178,31.508-31.508,31.508H31.508C14.178,504.123,0,489.945,0,472.615V31.508C0,14.178,14.178,0,31.508,0z"/>
<path style="fill:#FFFFFF;" d="M63.015,47.262h378.092c8.665,0,15.754,7.089,15.754,15.754v362.338
	c0,8.665-7.089,15.754-15.754,15.754H63.015c-8.665,0-15.754-7.089-15.754-15.754V63.015C47.262,54.351,54.351,47.262,63.015,47.262
	z"/>
<path style="fill:#F5F5F5;" d="M47.262,425.354c0,8.665,7.089,15.754,15.754,15.754h378.092c8.665,0,15.754-7.089,15.754-15.754
	V252.062h-409.6C47.262,252.062,47.262,425.354,47.262,425.354z"/>
<path style="fill:#E2E0E0;" d="M441.108,425.354H63.015c-8.665,0-15.754-7.089-15.754-15.754v15.754
	c0,8.665,7.089,15.754,15.754,15.754h378.092c8.665,0,15.754-7.089,15.754-15.754V409.6
	C456.862,418.265,449.772,425.354,441.108,425.354z"/>
<path style="fill:#40545E;" d="M227.643,299.717h-38.597c18.117-22.055,50.806-50.412,50.806-79.163
	c0-26.388-20.874-42.929-46.868-42.929s-49.625,20.874-49.625,46.868c0,7.877,5.12,14.966,15.36,14.966
	c20.086,0,8.665-33.477,33.083-33.477c8.665,0,15.36,7.483,15.36,15.754c0,7.483-3.545,13.785-7.483,19.298
	c-16.148,22.843-35.052,41.354-52.382,61.834c-1.969,2.363-4.726,6.302-4.726,10.634c0,9.452,7.089,13.785,16.542,13.785h70.498
	c7.877,0,15.36-3.938,15.36-13.785C244.185,303.655,236.702,299.717,227.643,299.717z M337.92,245.76
	c11.028-7.089,16.542-18.117,16.542-31.114c0-15.754-13.785-37.022-42.929-37.022c-22.449,0-44.111,16.935-44.111,33.083
	c0,7.483,4.726,14.966,12.997,14.966c13.785,0,11.028-20.086,30.326-20.086c9.058,0,14.572,5.908,14.572,13.785
	c0,22.449-28.751,8.271-28.751,29.538c0,24.025,34.265,3.151,34.265,31.508c0,10.634-8.665,18.905-18.905,18.905
	c-22.843,0-19.692-23.631-33.477-23.631c-7.089,0-15.36,5.514-15.36,13.785c0,16.148,18.511,38.203,48.443,38.203
	c28.751-0.788,50.806-21.268,50.806-45.686C362.338,265.846,352.492,252.455,337.92,245.76z"/>
<path style="fill:#2B414D;" d="M47.262,228.431c-4.332,0-7.877,3.545-7.877,7.877v23.631c0,4.332,3.545,7.877,7.877,7.877
	s7.877-3.545,7.877-7.877v-23.631C55.138,231.975,51.594,228.431,47.262,228.431z M456.862,228.431
	c-4.332,0-7.877,3.545-7.877,7.877v23.631c0,4.332,3.545,7.877,7.877,7.877s7.877-3.545,7.877-7.877v-23.631
	C464.738,231.975,461.194,228.431,456.862,228.431z"/>
<path style="fill:#E5E5E5;" d="M55.138,244.185h393.846v7.877H55.138V244.185z"/>
<path style="fill:#3DB39E;" d="M232.369,74.831h39.385c6.695,0,11.815,5.12,11.815,11.815s-5.12,11.815-11.815,11.815h-39.385
	c-6.695,0-11.815-5.12-11.815-11.815C220.554,80.345,225.674,74.831,232.369,74.831z"/>
<path style="fill:#394B54;" d="M196.923,244.185l-5.908,7.877h37.415l4.726-7.877H196.923z M339.495,244.185H296.96
	c-0.394,1.182-0.394,2.757-0.394,4.332s0,2.757,0.394,3.545h51.2c-3.151-2.757-6.695-4.726-10.24-6.695L339.495,244.185z"/>
<g>
</g>
<g>
</g>
<g>
</g>
<g>
</g>
<g>
</g>
<g>
</g>
<g>
</g>
<g>
</g>
<g>
</g>
<g>
</g>
<g>
</g>
<g>
</g>
<g>
</g>
<g>
</g>
<g>
</g>
</svg>
