<?xml version="1.0" encoding="iso-8859-1"?>
<!-- Generator: Adobe Illustrator 19.0.0, SVG Export Plug-In . SVG Version: 6.00 Build 0)  -->
<svg version="1.1" id="Layer_1" xmlns="http://www.w3.org/2000/svg" xmlns:xlink="http://www.w3.org/1999/xlink" x="0px" y="0px"
	 viewBox="0 0 504.124 504.124" style="enable-background:new 0 0 504.124 504.124;" xml:space="preserve">
<path style="fill:#CCD0D2;" d="M470.646,0h-33.477v66.954h33.477c18.511,0,33.477-14.966,33.477-33.477S489.158,0,470.646,0z
	 M470.646,0h-33.477v66.954h33.477c18.511,0,33.477-14.966,33.477-33.477S489.158,0,470.646,0z"/>
<path style="fill:#EFEFEF;" d="M91.373,0C73.65,0,59.078,14.178,59.078,31.902v472.222h346.191h-0.788
	c17.723,0,32.295-14.178,32.295-31.902V32.295C436.776,14.572,451.349,0,469.466,0H91.373z"/>
<path style="fill:#D6D9DB;" d="M175.262,114.215c5.514,0,9.846-4.332,9.846-9.846s-4.332-9.846-9.846-9.846
	s-9.846,4.332-9.846,9.846C165.415,109.883,169.749,114.215,175.262,114.215z M165.415,177.231c28.357,0,51.2-3.938,51.2-9.058
	l-31.114-46.08l-13.391,13.785l3.151,16.542l-25.206-39.385l-35.446,55.138C114.215,173.292,137.059,177.231,165.415,177.231z
	 M374.154,94.523H256c-4.332,0-7.877,3.545-7.877,7.877s3.545,7.877,7.877,7.877h118.154c4.332,0,7.877-3.545,7.877-7.877
	S378.487,94.523,374.154,94.523z M374.154,126.031H256c-4.332,0-7.877,3.545-7.877,7.877s3.545,7.877,7.877,7.877h118.154
	c4.332,0,7.877-3.545,7.877-7.877S378.487,126.031,374.154,126.031z M346.586,173.292c4.332,0,7.877-3.545,7.877-7.877
	s-3.545-7.877-7.877-7.877H256c-4.332,0-7.877,3.545-7.877,7.877s3.545,7.877,7.877,7.877H346.586z M374.154,204.8H122.093
	c-4.332,0-7.877,3.545-7.877,7.877s3.545,7.877,7.877,7.877h252.062c4.332,0,7.877-3.545,7.877-7.877S378.487,204.8,374.154,204.8z
	 M374.154,236.308H122.093c-4.332,0-7.877,3.545-7.877,7.877s3.545,7.877,7.877,7.877h252.062c4.332,0,7.877-3.545,7.877-7.877
	C382.031,239.852,378.487,236.308,374.154,236.308z M374.154,267.815H122.093c-4.332,0-7.877,3.545-7.877,7.877
	s3.545,7.877,7.877,7.877h252.062c4.332,0,7.877-3.545,7.877-7.877S378.487,267.815,374.154,267.815z M374.154,299.323H122.093
	c-4.332,0-7.877,3.545-7.877,7.877s3.545,7.877,7.877,7.877h252.062c4.332,0,7.877-3.545,7.877-7.877
	S378.487,299.323,374.154,299.323z M346.586,330.831H122.093c-4.332,0-7.877,3.545-7.877,7.877s3.545,7.877,7.877,7.877h224.492
	c4.332,0,7.877-3.545,7.877-7.877S350.917,330.831,346.586,330.831z M175.262,114.215c5.514,0,9.846-4.332,9.846-9.846
	s-4.332-9.846-9.846-9.846s-9.846,4.332-9.846,9.846C165.415,109.883,169.749,114.215,175.262,114.215z M165.415,177.231
	c28.357,0,51.2-3.938,51.2-9.058l-31.114-46.08l-13.391,13.785l3.151,16.542l-25.206-39.385l-35.446,55.138
	C114.215,173.292,137.059,177.231,165.415,177.231z M374.154,94.523H256c-4.332,0-7.877,3.545-7.877,7.877s3.545,7.877,7.877,7.877
	h118.154c4.332,0,7.877-3.545,7.877-7.877S378.487,94.523,374.154,94.523z M374.154,126.031H256c-4.332,0-7.877,3.545-7.877,7.877
	s3.545,7.877,7.877,7.877h118.154c4.332,0,7.877-3.545,7.877-7.877S378.487,126.031,374.154,126.031z M346.586,173.292
	c4.332,0,7.877-3.545,7.877-7.877s-3.545-7.877-7.877-7.877H256c-4.332,0-7.877,3.545-7.877,7.877s3.545,7.877,7.877,7.877H346.586z
	 M374.154,204.8H122.093c-4.332,0-7.877,3.545-7.877,7.877s3.545,7.877,7.877,7.877h252.062c4.332,0,7.877-3.545,7.877-7.877
	S378.487,204.8,374.154,204.8z M374.154,236.308H122.093c-4.332,0-7.877,3.545-7.877,7.877s3.545,7.877,7.877,7.877h252.062
	c4.332,0,7.877-3.545,7.877-7.877C382.031,239.852,378.487,236.308,374.154,236.308z M374.154,267.815H122.093
	c-4.332,0-7.877,3.545-7.877,7.877s3.545,7.877,7.877,7.877h252.062c4.332,0,7.877-3.545,7.877-7.877
	S378.487,267.815,374.154,267.815z M374.154,299.323H122.093c-4.332,0-7.877,3.545-7.877,7.877s3.545,7.877,7.877,7.877h252.062
	c4.332,0,7.877-3.545,7.877-7.877S378.487,299.323,374.154,299.323z M346.586,330.831H122.093c-4.332,0-7.877,3.545-7.877,7.877
	s3.545,7.877,7.877,7.877h224.492c4.332,0,7.877-3.545,7.877-7.877S350.917,330.831,346.586,330.831z"/>
<path style="fill:#CCD0D2;" d="M373.367,472.615c0-17.329,14.572-31.508,32.295-31.508H32.296
	c-17.723,0.001-32.295,14.179-32.295,31.508c0,17.329,14.572,31.508,32.295,31.508h373.366
	C387.938,504.123,373.367,489.945,373.367,472.615z"/>
<g>
</g>
<g>
</g>
<g>
</g>
<g>
</g>
<g>
</g>
<g>
</g>
<g>
</g>
<g>
</g>
<g>
</g>
<g>
</g>
<g>
</g>
<g>
</g>
<g>
</g>
<g>
</g>
<g>
</g>
</svg>
