<?xml version="1.0" encoding="iso-8859-1"?>
<!-- Generator: Adobe Illustrator 19.0.0, SVG Export Plug-In . SVG Version: 6.00 Build 0)  -->
<svg version="1.1" id="Layer_1" xmlns="http://www.w3.org/2000/svg" xmlns:xlink="http://www.w3.org/1999/xlink" x="0px" y="0px"
	 viewBox="0 0 504.124 504.124" style="enable-background:new 0 0 504.124 504.124;" xml:space="preserve">
<path style="fill:#EFC75E;" d="M464.738,55.138h-47.262V39.385C417.477,17.723,399.754,0,378.092,0H126.031
	c-21.662,0-39.385,17.723-39.385,39.385v15.754H39.385c-12.997,0-23.631,10.634-23.631,23.631v47.262
	c0,15.36,9.452,33.083,23.631,47.262l52.382,40.566c16.542,64.197,70.105,113.822,136.665,123.274v40.96h-15.754
	c-12.997,0-23.631,10.634-23.631,23.631v7.877h-7.877c-12.997,0-23.631,10.634-23.631,23.631v7.877h189.046v-7.877
	c0-12.997-10.634-23.631-23.631-23.631h-7.877v-7.877c0-12.997-10.634-23.631-23.631-23.631h-15.754v-40.96
	c66.56-9.452,120.123-59.077,136.665-123.274l52.382-40.566c14.178-14.178,23.631-31.902,23.631-47.262V78.769
	C488.369,65.772,477.735,55.138,464.738,55.138z M55.138,155.569c-11.028-11.422-15.754-22.843-15.754-29.538V78.769h47.262v101.218
	L55.138,155.569z M464.738,126.031c0,6.695-4.726,18.117-15.754,29.538l-31.902,24.418V78.769h47.262v47.262H464.738z"/>
<path style="fill:#E4E7E7;" d="M110.277,441.108h283.569c12.997,0,23.631,10.634,23.631,23.631v15.754
	c0,12.997-10.634,23.631-23.631,23.631H110.277c-12.997,0-23.631-10.634-23.631-23.631v-15.754
	C86.646,451.742,97.28,441.108,110.277,441.108z"/>
<path style="fill:#FDE6A9;" d="M307.2,105.551l-27.175,28.357c0,0-27.569-31.508-27.963-31.508s-27.569,31.508-27.569,31.508
	l-27.175-27.963c-3.938-5.12-7.877-4.726-7.877-0.394l7.877,67.348c0,4.332,3.545,7.877,7.877,7.877h94.523
	c4.332,0,7.877-3.545,7.877-7.877l7.877-66.954C315.077,99.249,309.957,102.794,307.2,105.551z M299.323,196.923H204.8
	c-4.332,0-7.877,3.545-7.877,7.877s3.545,7.877,7.877,7.877h94.523c4.332,0,7.877-3.545,7.877-7.877
	S303.655,196.923,299.323,196.923z"/>
<path style="fill:#E3BD59;" d="M190.228,393.846c-0.788,2.363-1.182,5.12-1.182,7.877v7.877h126.031v-7.877
	c0-2.757-0.394-5.514-1.182-7.877H190.228z M158.72,425.354c-0.788,2.363-1.182,5.12-1.182,7.877v7.877h189.046v-7.877
	c0-2.757-0.394-5.514-1.182-7.877C345.403,425.354,158.72,425.354,158.72,425.354z"/>
<path style="fill:#D2D5D5;" d="M86.646,480.492c0,12.997,10.634,23.631,23.631,23.631h283.569c12.997,0,23.631-10.634,23.631-23.631
	v-7.877H86.646V480.492z"/>
<path style="fill:#DCB757;" d="M126.031,172.111V39.385C126.031,17.723,143.754,0,165.415,0H126.03
	c-21.662,0-39.385,17.723-39.385,39.385v132.726c0,92.16,74.043,166.597,165.415,166.597c6.695,0,13.391-0.394,19.692-1.182
	C189.44,327.68,126.031,257.575,126.031,172.111z"/>
<g>
</g>
<g>
</g>
<g>
</g>
<g>
</g>
<g>
</g>
<g>
</g>
<g>
</g>
<g>
</g>
<g>
</g>
<g>
</g>
<g>
</g>
<g>
</g>
<g>
</g>
<g>
</g>
<g>
</g>
</svg>
