<?xml version="1.0" encoding="iso-8859-1"?>
<!-- Generator: Adobe Illustrator 19.0.0, SVG Export Plug-In . SVG Version: 6.00 Build 0)  -->
<svg version="1.1" id="Layer_1" xmlns="http://www.w3.org/2000/svg" xmlns:xlink="http://www.w3.org/1999/xlink" x="0px" y="0px"
	 viewBox="0 0 504.322 504.322" style="enable-background:new 0 0 504.322 504.322;" xml:space="preserve">
<path style="fill:#BF392B;" d="M31.607,157.638l63.015-78.769c24.812-31.508,24.025-31.508,47.262-31.508h220.554
	c23.237,0,22.449,0,47.262,31.508l63.015,78.769c42.535,47.262,41.748,47.262,0,94.523L299.422,425.453
	c-15.36,15.754-23.237,31.508-47.262,31.508s-31.902-15.754-47.262-31.508L31.607,252.161
	C-10.141,204.899-10.929,204.899,31.607,157.638z"/>
<path style="fill:#CC6155;" d="M378.191,236.407H126.13l108.308,216.615c5.12,2.363,10.634,3.938,17.723,3.938
	s12.603-1.182,17.329-3.545L378.191,236.407z M503.828,204.899v-4.332c-2.363-10.634-12.603-22.055-31.114-42.929l-63.015-78.769
	c-24.812-31.508-24.025-31.508-47.262-31.508h-110.67l126.031,189.046C379.373,234.831,503.828,204.899,503.828,204.899z
	 M94.622,78.868l-63.015,78.769c-21.268,23.631-31.508,35.446-31.508,47.262c1.182,0.394,124.455,29.932,126.031,31.508
	L252.161,47.361H141.884C118.647,47.361,119.435,47.361,94.622,78.868z"/>
<path style="fill:#D98880;" d="M126.13,236.407L252.161,47.361l126.031,189.046L126.13,236.407L126.13,236.407z"/>
<path style="fill:#D4796E;" d="M392.764,57.995c-9.452-10.634-14.178-10.634-30.326-10.634H252.161l126.031,189.046
	C378.191,236.407,392.764,57.995,392.764,57.995z M111.558,58.388l14.572,178.018L252.161,47.361H141.884
	C125.736,47.361,121.404,47.361,111.558,58.388z"/>
<g>
</g>
<g>
</g>
<g>
</g>
<g>
</g>
<g>
</g>
<g>
</g>
<g>
</g>
<g>
</g>
<g>
</g>
<g>
</g>
<g>
</g>
<g>
</g>
<g>
</g>
<g>
</g>
<g>
</g>
</svg>
