<?xml version="1.0" encoding="iso-8859-1"?>
<!-- Generator: Adobe Illustrator 19.0.0, SVG Export Plug-In . SVG Version: 6.00 Build 0)  -->
<svg version="1.1" id="Layer_1" xmlns="http://www.w3.org/2000/svg" xmlns:xlink="http://www.w3.org/1999/xlink" x="0px" y="0px"
	 viewBox="0 0 504.123 504.123" style="enable-background:new 0 0 504.123 504.123;" xml:space="preserve">
<path style="fill:#E2574C;" d="M178.018,497.034L7.089,326.105c-9.452-9.452-9.452-24.812,0-34.265L291.84,7.089
	c9.452-9.452,24.812-9.452,34.265,0l170.929,170.929c9.452,9.452,9.452,24.812,0,34.265L212.283,497.034
	C202.831,506.486,187.471,506.486,178.018,497.034z"/>
<path style="fill:#B5463D;" d="M212.283,497.034l46.08-46.08C257.182,448.197,56.32,246.942,53.169,245.76l-46.08,46.08
	c-9.452,9.452-9.452,24.812,0,34.265l170.929,170.929C187.471,506.486,202.831,506.486,212.283,497.034z"/>
<path style="fill:#208DB2;" d="M326.105,7.089c-9.452-9.452-24.812-9.452-34.265,0L166.597,132.332l205.194,205.194l125.243-125.243
	c9.452-9.452,9.452-24.812,0-34.265L326.105,7.089z"/>
<path style="fill:#DCBBB8;" d="M232.145,477.042l-11.138,11.138L16.037,283.211l11.138-11.138L232.145,477.042z"/>
<g>
</g>
<g>
</g>
<g>
</g>
<g>
</g>
<g>
</g>
<g>
</g>
<g>
</g>
<g>
</g>
<g>
</g>
<g>
</g>
<g>
</g>
<g>
</g>
<g>
</g>
<g>
</g>
<g>
</g>
</svg>
