<?xml version="1.0" encoding="iso-8859-1"?>
<!-- Generator: Adobe Illustrator 19.0.0, SVG Export Plug-In . SVG Version: 6.00 Build 0)  -->
<svg version="1.1" id="Layer_1" xmlns="http://www.w3.org/2000/svg" xmlns:xlink="http://www.w3.org/1999/xlink" x="0px" y="0px"
	 viewBox="0 0 504.124 504.124" style="enable-background:new 0 0 504.124 504.124;" xml:space="preserve">
<path style="fill:#F1CD6E;" d="M418.265,57.108h-232.37c-5.908,0-11.815-5.514-11.815-5.514l-15.36-11.815
	c0,0-9.058-6.302-12.997-6.302H85.858c-14.572,0-26.782,11.815-26.782,26.782v112.246c0,14.572,11.815,26.782,26.782,26.782h332.8
	c14.572,0,26.782-11.815,26.782-26.782v-89.01C445.046,68.923,433.231,57.108,418.265,57.108z"/>
<path style="fill:#E8E4C8;" d="M42.535,91.766h419.052v92.948H42.535C42.535,184.715,42.535,91.766,42.535,91.766z"/>
<path style="fill:#EFEFEF;" d="M26.782,112.246H476.16v94.523l-449.378-0.394C26.782,206.375,26.782,112.246,26.782,112.246z"/>
<path style="fill:#EFC75E;" d="M23.631,131.939h456.862c12.997,0,23.631,10.634,23.631,23.631v291.446
	c0,12.997-10.634,23.631-23.631,23.631H23.631C10.634,470.646,0,460.012,0,447.016V155.569C0,142.573,10.634,131.939,23.631,131.939
	z"/>
<path style="fill:#D7B354;" d="M252.062,191.016c-58.683,0-106.338,47.655-106.338,106.338s47.655,106.338,106.338,106.338
	S358.4,356.037,358.4,297.354S310.745,191.016,252.062,191.016z M252.062,384c-47.655,0-86.646-38.597-86.646-86.646
	c0-47.655,38.597-86.646,86.646-86.646c47.655,0,86.646,38.597,86.646,86.646S299.717,384,252.062,384z M258.363,257.969
	c-3.545-5.514-8.665-5.514-12.209,0l-35.84,37.415c-3.545,5.514-0.788,9.846,6.302,9.846h15.754v29.145
	c0,3.545,2.757,6.302,6.302,6.302h27.175c3.545,0,6.302-2.757,6.302-6.302V305.23h16.148c6.695,0,9.452-4.332,6.302-9.846
	L258.363,257.969z"/>
<g>
</g>
<g>
</g>
<g>
</g>
<g>
</g>
<g>
</g>
<g>
</g>
<g>
</g>
<g>
</g>
<g>
</g>
<g>
</g>
<g>
</g>
<g>
</g>
<g>
</g>
<g>
</g>
<g>
</g>
</svg>
