<?xml version="1.0" encoding="iso-8859-1"?>
<!-- Generator: Adobe Illustrator 19.0.0, SVG Export Plug-In . SVG Version: 6.00 Build 0)  -->
<svg version="1.1" id="Layer_1" xmlns="http://www.w3.org/2000/svg" xmlns:xlink="http://www.w3.org/1999/xlink" x="0px" y="0px"
	 viewBox="0 0 504.123 504.123" style="enable-background:new 0 0 504.123 504.123;" xml:space="preserve">
<path style="fill:#EFEFEF;" d="M480.492,0c0,8.665-7.089,15.754-15.754,15.754S448.985,8.665,448.985,0h-23.631
	c0,8.665-7.089,15.754-15.754,15.754S393.846,8.665,393.846,0h-23.631c0,8.665-7.089,15.754-15.754,15.754S338.707,8.665,338.707,0
	h-23.631c0,34.658-28.357,63.015-63.015,63.015S189.046,34.658,189.046,0h-23.631c0,8.665-7.089,15.754-15.754,15.754
	S133.907,8.665,133.907,0h-23.631c0,8.665-7.089,15.754-15.754,15.754S78.769,8.665,78.769,0H55.138
	c0,8.665-7.089,15.754-15.754,15.754S23.631,8.665,23.631,0H0v488.369c0,8.665,7.089,15.754,15.754,15.754h472.615
	c8.665,0,15.754-7.089,15.754-15.754V0H480.492z"/>
<path style="fill:#CCD0D2;" d="M433.231,204.8H70.892c-8.665,0-15.754,7.089-15.754,15.754v283.569h15.754V228.431
	c0-4.332,3.545-7.877,7.877-7.877h346.585c4.332,0,7.877,3.545,7.877,7.877v275.692h15.754V220.554
	C448.985,211.889,441.895,204.8,433.231,204.8z"/>
<path style="fill:#324D5B;" d="M145.723,306.412c5.908-1.969,10.634-5.908,10.634-12.603c0-9.846-9.846-14.178-18.511-14.178
	c-9.058,0-18.511,3.938-18.511,14.178c0,6.695,4.726,10.634,10.634,12.603c-6.302,1.969-11.422,7.089-11.422,13.785
	c0,9.452,9.058,14.572,19.692,14.572c10.24,0,19.692-5.12,19.692-14.572C157.145,313.502,152.025,308.382,145.723,306.412z
	 M128,295.385c0-4.726,3.938-7.089,9.452-7.089s9.452,2.757,9.452,7.089c0,5.12-6.302,6.695-9.452,7.483
	C134.695,302.08,128,300.111,128,295.385z M137.846,326.498c-5.908,0-10.634-2.757-10.634-7.483c0-5.514,7.089-7.877,10.634-8.271
	c3.151,0.394,10.634,2.757,10.634,8.271C148.086,323.742,143.36,326.498,137.846,326.498z M181.957,279.631
	c-11.422,0-18.905,7.877-18.905,17.723c0,11.422,7.877,17.329,16.935,17.329c5.908,0,11.422-3.938,13.785-7.483v1.575
	c0,8.665-4.332,17.723-13.391,17.723c-4.726,0-7.877-1.575-10.634-4.726l-4.332,7.089c3.545,3.545,8.271,5.908,14.572,5.908
	c14.572,0,22.449-12.209,22.449-27.569C203.225,292.234,196.923,279.631,181.957,279.631z M182.745,306.806
	c-5.514,0-10.634-2.757-10.634-9.452c0-4.332,3.545-9.452,10.24-9.452c7.877,0,10.634,6.695,11.422,12.603
	C191.409,304.443,187.077,306.806,182.745,306.806z M228.037,279.631c-11.422,0-18.905,7.877-18.905,17.723
	c0,11.422,7.877,17.329,16.935,17.329c5.908,0,11.422-3.938,13.785-7.483v1.575c0,8.665-4.332,17.723-13.391,17.723
	c-4.726,0-7.877-1.575-10.634-4.726l-4.332,7.089c3.545,3.545,8.271,5.908,14.572,5.908c14.572,0,22.449-12.209,22.449-27.569
	C248.911,292.234,243.003,279.631,228.037,279.631z M228.431,306.806c-5.514,0-10.634-2.757-10.634-9.452
	c0-4.332,3.545-9.452,10.24-9.452c7.877,0,10.634,6.695,11.422,12.603C237.095,304.443,233.157,306.806,228.431,306.806z
	 M273.723,279.631c-11.422,0-18.905,7.877-18.905,17.723c0,11.422,7.877,17.329,16.935,17.329c5.908,0,11.422-3.938,13.785-7.483
	v1.575c0,8.665-4.332,17.723-13.391,17.723c-4.726,0-7.877-1.575-10.634-4.726l-4.332,7.089c3.545,3.545,8.271,5.908,14.572,5.908
	c14.572,0,22.449-12.209,22.449-27.569C294.597,292.234,288.689,279.631,273.723,279.631z M274.511,306.806
	c-5.514,0-10.634-2.757-10.634-9.452c0-4.332,3.545-9.452,10.24-9.452c7.877,0,10.634,6.695,11.422,12.603
	C282.782,304.443,278.843,306.806,274.511,306.806z M328.468,306.412c5.908-1.969,10.634-5.908,10.634-12.603
	c0-9.846-9.846-14.178-18.511-14.178c-9.059,0-18.511,3.938-18.511,14.178c0,6.695,4.726,10.634,10.634,12.603
	c-6.302,1.969-11.422,7.089-11.422,13.785c0,9.452,9.058,14.572,19.692,14.572c10.24,0,19.692-5.12,19.692-14.572
	C339.889,313.502,334.769,308.382,328.468,306.412z M310.745,295.385c0-4.726,3.938-7.089,9.452-7.089s9.452,2.757,9.452,7.089
	c0,5.12-6.302,6.695-9.452,7.483C317.44,302.08,310.745,300.111,310.745,295.385z M320.591,326.498
	c-5.908,0-10.634-2.757-10.634-7.483c0-5.514,7.089-7.877,10.634-8.271c3.151,0.394,10.24,2.757,10.24,8.271
	C330.831,323.742,326.105,326.498,320.591,326.498z M365.095,279.631c-11.422,0-18.905,7.877-18.905,17.723
	c0,11.422,7.877,17.329,16.935,17.329c5.908,0,11.422-3.938,13.785-7.483v1.575c0,8.665-4.332,17.723-13.391,17.723
	c-4.726,0-7.877-1.575-10.634-4.726l-4.332,7.089c3.545,3.545,8.271,5.908,14.572,5.908c14.572,0,22.449-12.209,22.449-27.569
	C385.969,292.234,380.062,279.631,365.095,279.631z M365.489,306.806c-5.514,0-10.634-2.757-10.634-9.452
	c0-4.332,3.545-9.452,10.24-9.452c7.877,0,10.634,6.695,11.422,12.603C374.154,304.443,369.822,306.806,365.489,306.806z"/>
<path style="fill:#EFC75E;" d="M169.748,403.692l-14.178-2.363l-6.302-13.391c-0.788-1.182-1.969-1.969-3.545-1.969
	c-1.575,0-2.757,0.788-3.545,2.363l-6.302,13.391l-14.178,2.363c-1.575,0.394-2.757,1.182-3.151,2.757
	c-0.394,1.575,0,3.151,0.788,3.938l10.634,10.634l-2.363,14.966c-0.394,1.575,0.394,3.151,1.575,3.938
	c0.788,0.394,1.575,0.788,2.363,0.788c0.788,0,1.182,0,1.969-0.394l12.603-7.089l12.603,7.089c0.788,0.394,1.182,0.394,1.969,0.394
	c0.788,0,1.575-0.394,2.363-0.788c1.182-0.788,1.969-2.363,1.575-3.938l-3.151-14.966l10.634-11.028
	c1.182-1.182,1.575-2.757,0.788-3.938C172.505,405.268,171.323,404.086,169.748,403.692z M240.64,403.692l-14.178-2.363
	l-6.302-13.391c-0.788-1.182-1.969-1.969-3.545-1.969s-2.757,0.788-3.545,2.363l-6.302,13.391l-14.178,2.363
	c-1.575,0.394-2.757,1.182-3.151,2.757c-0.394,1.575,0,3.151,0.788,3.938l10.634,10.634l-2.363,14.966
	c-0.394,1.575,0.394,3.151,1.575,3.938c0.788,0.394,1.575,0.788,2.363,0.788s1.182,0,1.969-0.394l12.603-7.089l12.603,7.089
	c0.788,0.394,1.182,0.394,1.969,0.394c0.788,0,1.575-0.394,2.363-0.788c1.182-0.788,1.969-2.363,1.575-3.938l-3.151-14.966
	l10.634-11.028c1.182-1.182,1.575-2.757,0.788-3.938C243.397,405.268,242.215,404.086,240.64,403.692L240.64,403.692z
	 M311.532,403.692l-14.178-2.363l-6.302-13.391c-0.788-1.182-1.969-1.969-3.545-1.969s-2.757,0.788-3.545,2.363l-6.302,13.391
	l-14.178,2.363c-1.575,0.394-2.757,1.182-3.151,2.757c-0.394,1.575,0,3.151,0.788,3.938l10.634,10.634l-2.363,14.966
	c-0.394,1.575,0.394,3.151,1.575,3.938c0.788,0.394,1.575,0.788,2.363,0.788s1.182,0,1.969-0.394l12.603-7.089l12.603,7.089
	c0.788,0.394,1.182,0.394,1.969,0.394c0.788,0,1.575-0.394,2.363-0.788c1.182-0.788,1.969-2.363,1.575-3.938l-3.151-14.966
	l10.634-11.028c1.182-1.182,1.575-2.757,0.788-3.938C314.289,405.268,313.108,404.086,311.532,403.692L311.532,403.692z
	 M385.575,406.449c-0.394-1.575-1.575-2.363-3.151-2.757l-14.178-2.363l-6.302-13.391c-0.788-1.182-1.969-1.969-3.545-1.969
	c-1.575,0-2.757,0.788-3.545,2.363l-6.302,13.391l-14.178,2.363c-1.575,0.394-2.757,1.182-3.151,2.757
	c-0.394,1.575,0,3.151,0.788,3.938l10.634,10.634l-2.363,14.966c-0.394,1.575,0.394,3.151,1.575,3.938
	c0.788,0.394,1.575,0.788,2.363,0.788s1.182,0,1.969-0.394l12.603-7.089l12.603,7.089c0.788,0.394,1.182,0.394,1.969,0.394
	c0.788,0,1.575-0.394,2.363-0.788c1.182-0.788,1.969-2.363,1.575-3.938l-3.151-14.966l10.634-11.028
	C385.969,409.6,386.363,408.025,385.575,406.449L385.575,406.449z"/>
<path style="fill:#CCD0D2;" d="M228.431,126.031h-31.508c-4.332,0-7.877,3.545-7.877,7.877s3.545,7.877,7.877,7.877h31.508
	c4.332,0,7.877-3.545,7.877-7.877C236.308,129.575,232.763,126.031,228.431,126.031z M307.2,126.031h-31.508
	c-4.332,0-7.877,3.545-7.877,7.877s3.545,7.877,7.877,7.877H307.2c4.332,0,7.877-3.545,7.877-7.877
	C315.077,129.575,311.532,126.031,307.2,126.031z M385.969,126.031h-31.508c-4.332,0-7.877,3.545-7.877,7.877
	s3.545,7.877,7.877,7.877h31.508c4.332,0,7.877-3.545,7.877-7.877C393.846,129.575,390.302,126.031,385.969,126.031z
	 M464.738,126.031H433.23c-4.332,0-7.877,3.545-7.877,7.877s3.545,7.877,7.877,7.877h31.508c4.332,0,7.877-3.545,7.877-7.877
	C472.615,129.575,469.071,126.031,464.738,126.031z M149.662,126.031h-31.508c-4.332,0-7.877,3.545-7.877,7.877
	s3.545,7.877,7.877,7.877h31.508c4.332,0,7.877-3.545,7.877-7.877C157.538,129.575,153.994,126.031,149.662,126.031z
	 M70.892,126.031H39.385c-4.332,0-7.877,3.545-7.877,7.877s3.545,7.877,7.877,7.877h31.508c4.332,0,7.877-3.545,7.877-7.877
	C78.769,129.575,75.225,126.031,70.892,126.031z"/>
<g>
</g>
<g>
</g>
<g>
</g>
<g>
</g>
<g>
</g>
<g>
</g>
<g>
</g>
<g>
</g>
<g>
</g>
<g>
</g>
<g>
</g>
<g>
</g>
<g>
</g>
<g>
</g>
<g>
</g>
</svg>
