<?xml version="1.0" encoding="iso-8859-1"?>
<!-- Generator: Adobe Illustrator 19.0.0, SVG Export Plug-In . SVG Version: 6.00 Build 0)  -->
<svg version="1.1" id="Layer_1" xmlns="http://www.w3.org/2000/svg" xmlns:xlink="http://www.w3.org/1999/xlink" x="0px" y="0px"
	 viewBox="0 0 504.123 504.123" style="enable-background:new 0 0 504.123 504.123;" xml:space="preserve">
<path style="fill:#324D5B;" d="M20.086,35.446h463.557c11.028,0,20.086,9.058,20.086,20.086v393.058
	c0,11.028-9.058,20.086-20.086,20.086H20.086C9.058,468.677,0,459.618,0,448.591V55.532C0,44.505,9.058,35.446,20.086,35.446z"/>
<path style="fill:#2B424D;" d="M0,216.615h504.123v47.262H0V216.615z"/>
<path style="fill:#253842;" d="M43.323,232.369H460.8v15.754H43.323V232.369z"/>
<path style="fill:#313D43;" d="M201.649,74.831H440.32c11.422,0,20.48,9.058,20.48,20.48v61.44c0,11.422-9.058,20.48-20.48,20.48
	H201.649c-11.422,0-20.48-9.058-20.48-20.48v-61.44C181.169,84.283,190.228,74.831,201.649,74.831z"/>
<path style="fill:#4BBFAA;" d="M386.757,156.357c-11.422,0-15.754-14.178-20.48-29.145c-3.151-9.846-7.483-23.631-12.603-23.631
	s-9.452,13.391-12.209,23.631c-4.726,14.966-9.058,29.145-20.48,29.145s-15.754-14.178-20.48-29.145
	c-3.151-9.846-7.483-23.631-12.209-23.631c-5.12,0-9.452,13.391-12.209,23.631c-4.726,14.966-9.058,29.145-20.48,29.145
	c-11.422,0-15.754-14.178-20.48-29.145c-3.151-9.846-7.483-23.631-12.209-23.631c-2.363,0-4.332-1.575-4.332-3.938
	c0-2.363,1.969-3.938,4.332-3.938c11.422,0,15.754,14.178,20.48,29.145c3.151,9.846,7.483,23.631,12.209,23.631
	c5.12,0,9.452-13.391,12.209-23.631c4.726-14.966,9.058-29.145,20.48-29.145s15.754,14.178,20.48,29.145
	c3.151,9.846,7.483,23.631,12.209,23.631c5.12,0,9.452-13.391,12.209-23.631c4.726-14.966,9.058-29.145,20.48-29.145
	s15.754,14.178,20.48,29.145c3.151,9.846,7.483,23.631,12.603,23.631s9.452-13.391,12.603-23.631
	c4.726-14.966,9.058-29.145,20.48-29.145c2.363,0,4.332,1.575,4.332,3.938c0,2.363-1.969,3.938-4.332,3.938
	c-5.12,0-9.452,13.391-12.603,23.631C402.511,142.178,398.178,156.357,386.757,156.357z"/>
<path style="fill:#E4E7E7;" d="M259.938,358.4V232.369H228.43v192.985h51.594V358.4H259.938z M185.108,232.369V358.4h-15.754v66.954
	h47.262V232.369H185.108z M78.769,358.4V232.369H43.323c0,0-0.394,192.985,0,192.985h51.2V358.4H78.769z M322.954,358.4V232.369
	h-19.692V358.4h-11.815v66.954h47.262V358.4H322.954z M141.785,358.4V232.369h-19.692V358.4h-15.754v66.954h51.2V358.4H141.785z
	 M385.969,358.4V232.369h-19.692V358.4h-15.754v66.954h51.2V358.4H385.969z M460.8,232.369h-31.508V358.4h-15.754v66.954H460.8
	V232.369z"/>
<path style="fill:#7F8C8D;" d="M90.585,346.585h19.692V232.369H90.585V346.585z M153.6,346.585h19.692V232.369H153.6V346.585z
	 M271.754,346.585h19.692V232.369h-19.692V346.585z M334.769,346.585h19.692V232.369h-19.692V346.585z M397.785,232.369v114.215
	h19.692V232.369H397.785z"/>
<path style="fill:#313D43;" d="M90.585,82.708c28.357,0,51.2,22.843,51.2,51.2s-22.843,51.2-51.2,51.2s-51.2-22.843-51.2-51.2
	S62.228,82.708,90.585,82.708z"/>
<path style="fill:#E4E7E7;" d="M98.462,74.831c28.357,0,51.2,22.843,51.2,51.2s-22.843,51.2-51.2,51.2s-51.2-22.843-51.2-51.2
	S70.105,74.831,98.462,74.831z"/>
<path style="fill:#BDC3C7;" d="M90.978,75.618v35.446c0,2.757,2.363,5.12,5.12,5.12c2.757,0,5.12-2.363,5.12-5.12V74.831h-2.363
	C95.705,74.831,93.342,75.225,90.978,75.618z"/>
<path style="fill:#6C7778;" d="M397.785,232.369h19.692v15.754h-19.692V232.369z M90.585,232.369h19.692v15.754H90.585V232.369z
	 M334.769,232.369h19.692v15.754h-19.692V232.369z M153.6,232.369h19.692v15.754H153.6V232.369z M271.754,232.369h19.692v15.754
	h-19.692V232.369z"/>
<path style="fill:#C2C5C5;" d="M78.769,232.369H43.323v15.754h35.446V232.369z M216.615,232.369h-31.508v15.754h31.508V232.369z
	 M259.938,232.369H228.43v15.754h31.508V232.369z M141.785,232.369h-19.692v15.754h19.692V232.369z M303.262,232.369v15.754h19.692
	v-15.754H303.262z M460.8,232.369h-31.508v15.754h31.114v-15.754H460.8z M385.969,232.369h-19.692v15.754h19.692V232.369z"/>
<g>
</g>
<g>
</g>
<g>
</g>
<g>
</g>
<g>
</g>
<g>
</g>
<g>
</g>
<g>
</g>
<g>
</g>
<g>
</g>
<g>
</g>
<g>
</g>
<g>
</g>
<g>
</g>
<g>
</g>
</svg>
