<?xml version="1.0" encoding="iso-8859-1"?>
<!-- Generator: Adobe Illustrator 19.0.0, SVG Export Plug-In . SVG Version: 6.00 Build 0)  -->
<svg version="1.1" id="Layer_1" xmlns="http://www.w3.org/2000/svg" xmlns:xlink="http://www.w3.org/1999/xlink" x="0px" y="0px"
	 viewBox="0 0 504.123 504.123" style="enable-background:new 0 0 504.123 504.123;" xml:space="preserve">
<path style="fill:#487190;" d="M59.077,0L163.84,325.711l131.151-36.628L202.043,0H59.077z"/>
<path style="fill:#4E80A6;" d="M302.474,0l-93.342,288.689l130.757,36.628L445.046,0H302.474z"/>
<path style="fill:#FAD29A;" d="M252.062,204.8c78.375,0,141.785,63.409,141.785,141.785S330.438,488.37,252.062,488.37
	s-141.785-63.41-141.785-141.785S173.686,204.8,252.062,204.8z"/>
<path style="fill:#D0A15D;" d="M252.062,488.369c-75.618,0-137.452-59.077-141.391-133.908l-0.394,7.877
	c0,78.375,63.409,141.785,141.785,141.785s141.785-63.409,141.785-141.785c0-2.757,0-5.12-0.394-7.877
	C389.514,429.292,327.68,488.369,252.062,488.369z"/>
<path style="fill:#F6C37A;" d="M252.062,219.372c70.498,0,127.212,57.108,127.212,127.212c0,70.498-57.108,127.212-127.212,127.212
	S124.85,417.082,124.85,346.584C124.849,276.48,181.563,219.372,252.062,219.372z"/>
<path style="fill:#E0B270;" d="M291.446,315.077v-39.385h-78.769v39.385h19.692v63.015h-19.692v39.385h78.769v-39.385h-19.692
	v-63.015L291.446,315.077L291.446,315.077z"/>
<g>
</g>
<g>
</g>
<g>
</g>
<g>
</g>
<g>
</g>
<g>
</g>
<g>
</g>
<g>
</g>
<g>
</g>
<g>
</g>
<g>
</g>
<g>
</g>
<g>
</g>
<g>
</g>
<g>
</g>
</svg>
