<?xml version="1.0" encoding="iso-8859-1"?>
<!-- Generator: Adobe Illustrator 19.0.0, SVG Export Plug-In . SVG Version: 6.00 Build 0)  -->
<svg version="1.1" id="Layer_1" xmlns="http://www.w3.org/2000/svg" xmlns:xlink="http://www.w3.org/1999/xlink" x="0px" y="0px"
	 viewBox="0 0 504.123 504.123" style="enable-background:new 0 0 504.123 504.123;" xml:space="preserve">
<path style="fill:#E4E7E7;" d="M78.769,0h346.585c43.323,0,78.769,35.446,78.769,78.769v346.585
	c0,43.323-35.446,78.769-78.769,78.769H78.769C35.446,504.123,0,468.677,0,425.354V78.769C0,35.446,35.446,0,78.769,0z"/>
<path style="fill:#2B414D;" d="M78.769,31.508h346.585c25.994,0,47.262,21.268,47.262,47.262v259.938
	c0,25.994-21.268,47.262-47.262,47.262H78.769c-25.994,0-47.262-21.268-47.262-47.262V78.769
	C31.508,52.775,52.775,31.508,78.769,31.508z"/>
<path style="fill:#324D5B;" d="M86.646,55.138h330.831c17.329,0,31.508,14.178,31.508,31.508v244.185
	c0,17.329-14.178,31.508-31.508,31.508H86.646c-17.329,0-31.508-14.178-31.508-31.508V86.646
	C55.138,69.317,69.317,55.138,86.646,55.138z"/>
<path style="fill:#E2574C;" d="M114.215,417.477c15.36,0,27.569,12.209,27.569,27.569c0,15.36-12.209,27.569-27.569,27.569
	s-27.569-12.209-27.569-27.569C86.646,429.686,98.855,417.477,114.215,417.477z"/>
<path style="fill:#F3B5B0;" d="M114.215,433.231c6.695,0,11.815,5.12,11.815,11.815s-5.12,11.815-11.815,11.815
	s-11.815-5.12-11.815-11.815C102.4,438.745,107.52,433.231,114.215,433.231z"/>
<path style="fill:#CCD0D2;" d="M200.862,425.354c-11.028,0-19.692,8.665-19.692,19.692c0,11.028,8.665,19.692,19.692,19.692
	c11.028,0,19.692-8.665,19.692-19.692C220.554,434.018,211.889,425.354,200.862,425.354z M263.877,425.354
	c-11.028,0-19.692,8.665-19.692,19.692c0,11.028,8.665,19.692,19.692,19.692s19.692-8.665,19.692-19.692
	C283.569,434.018,274.905,425.354,263.877,425.354z M326.892,425.354c-11.028,0-19.692,8.665-19.692,19.692
	c0,11.028,8.665,19.692,19.692,19.692s19.692-8.665,19.692-19.692C346.585,434.018,337.92,425.354,326.892,425.354z
	 M389.908,425.354c-11.028,0-19.692,8.665-19.692,19.692c0,11.028,8.665,19.692,19.692,19.692s19.692-8.665,19.692-19.692
	C409.6,434.018,400.935,425.354,389.908,425.354z"/>
<path style="fill:#26A6D1;" d="M448.985,192.985h-47.262c-3.545,0-6.695,1.969-7.877,5.514l-16.148,47.262l-31.902-102.4
	c-1.182-3.151-3.938-5.514-7.483-5.514c-3.545-0.394-6.695,1.969-7.877,5.12l-29.932,76.8l-12.603-22.449
	c-1.182-2.757-4.332-4.332-7.089-4.332h-55.138c-3.545,0-6.695,2.363-7.877,5.514l-16.148,47.262l-32.295-102.4
	c-1.182-3.151-3.938-5.514-7.483-5.514s-6.695,1.969-7.877,5.12l-29.932,76.8l-12.603-22.843c-1.182-2.757-4.332-3.545-7.089-3.545
	H55.138v15.754h44.111l18.511,33.871c1.575,2.757,4.332,4.332,7.483,4.332c3.151,0,5.908-1.969,7.089-5.12l28.357-72.074
	l32.295,103.975c1.182,3.151,4.332,5.514,7.483,5.514s6.695-1.969,7.877-5.514l22.449-65.772h44.898l18.511,34.265
	c1.575,2.757,4.332,4.332,7.483,4.332s5.908-1.969,7.089-5.12l28.357-72.074l32.295,103.975c1.182,3.151,3.938,5.514,7.483,5.514
	s6.695-1.969,7.877-5.514l22.449-65.378h41.748v-15.361H448.985z"/>
<g>
</g>
<g>
</g>
<g>
</g>
<g>
</g>
<g>
</g>
<g>
</g>
<g>
</g>
<g>
</g>
<g>
</g>
<g>
</g>
<g>
</g>
<g>
</g>
<g>
</g>
<g>
</g>
<g>
</g>
</svg>
