<?xml version="1.0" encoding="iso-8859-1"?>
<!-- Generator: Adobe Illustrator 19.0.0, SVG Export Plug-In . SVG Version: 6.00 Build 0)  -->
<svg version="1.1" id="Layer_1" xmlns="http://www.w3.org/2000/svg" xmlns:xlink="http://www.w3.org/1999/xlink" x="0px" y="0px"
	 viewBox="0 0 504.124 504.124" style="enable-background:new 0 0 504.124 504.124;" xml:space="preserve">
<path style="fill:#ECC45C;" d="M66.954,196.923h370.215c17.329,0,31.508,14.178,31.508,31.508v244.185
	c0,17.329-14.178,31.508-31.508,31.508H66.954c-17.329,0-31.508-14.178-31.508-31.508V228.431
	C35.446,211.102,49.625,196.923,66.954,196.923z"/>
<path style="fill:#F8D578;" d="M66.954,181.169h370.215c17.329,0,31.508,14.178,31.508,31.508v15.754
	c0,17.329-14.178,31.508-31.508,31.508H66.954c-17.329,0-31.508-14.178-31.508-31.508v-15.754
	C35.446,195.348,49.625,181.169,66.954,181.169z"/>
<path style="fill:#D4B053;" d="M114.215,204.8c-19.692,0-35.446,7.089-35.446,15.754s15.754,15.754,35.446,15.754
	s35.446-7.089,35.446-15.754C149.662,211.889,133.908,204.8,114.215,204.8z M389.908,204.8c-19.692,0-35.446,7.089-35.446,15.754
	s15.754,15.754,35.446,15.754s35.446-7.089,35.446-15.754C425.354,211.889,409.6,204.8,389.908,204.8z M252.062,322.954
	c32.689,0,59.077,26.388,59.077,59.077s-26.388,59.077-59.077,59.077s-59.077-26.388-59.077-59.077S219.372,322.954,252.062,322.954
	z"/>
<path style="fill:#E4E7E7;" d="M252.062,338.708c24.025,0,43.323,19.298,43.323,43.323s-19.298,43.323-43.323,43.323
	s-43.323-19.298-43.323-43.323C208.738,358.006,228.037,338.708,252.062,338.708z"/>
<path style="fill:#324D5B;" d="M252.062,362.338c4.332,0,7.877,3.545,7.877,7.877v23.631c0,4.332-3.545,7.877-7.877,7.877
	c-4.332,0-7.877-3.545-7.877-7.877v-23.631C244.185,365.883,247.729,362.338,252.062,362.338z"/>
<path style="fill:#E4E7E7;" d="M252.062,0C160.689,0,86.646,74.043,86.646,165.415v47.262c0,8.665,12.209,15.754,27.569,15.754
	s27.569-7.089,27.569-15.754v-47.262c0-61.046,49.231-110.277,110.277-110.277s110.277,49.231,110.277,110.277v47.262
	c0,8.665,12.209,15.754,27.569,15.754c15.36,0,27.569-7.089,27.569-15.754v-47.262C417.477,74.043,343.434,0,252.062,0z"/>
<path style="fill:#CDCFCF;" d="M252.062,31.508c-74.043,0-133.908,59.865-133.908,133.908v63.015
	c13.391-1.182,23.631-7.483,23.631-15.754v-47.262c0-61.046,49.231-110.277,110.277-110.277s110.277,49.231,110.277,110.277v47.262
	c0,7.877,10.24,14.572,23.631,15.754v-63.015C385.969,91.372,326.105,31.508,252.062,31.508z"/>
<g>
</g>
<g>
</g>
<g>
</g>
<g>
</g>
<g>
</g>
<g>
</g>
<g>
</g>
<g>
</g>
<g>
</g>
<g>
</g>
<g>
</g>
<g>
</g>
<g>
</g>
<g>
</g>
<g>
</g>
</svg>
