<?xml version="1.0" encoding="iso-8859-1"?>
<!-- Generator: Adobe Illustrator 19.0.0, SVG Export Plug-In . SVG Version: 6.00 Build 0)  -->
<svg version="1.1" id="Layer_1" xmlns="http://www.w3.org/2000/svg" xmlns:xlink="http://www.w3.org/1999/xlink" x="0px" y="0px"
	 viewBox="0 0 504.122 504.122" style="enable-background:new 0 0 504.122 504.122;" xml:space="preserve">
<path style="fill:#2B414D;" d="M110.277,7.877h315.077c30.326,0,55.138,24.812,55.138,55.138v378.092
	c0,30.326-24.812,55.138-55.138,55.138H110.277c-30.326,0-55.138-24.812-55.138-55.138V63.015
	C55.138,32.689,79.951,7.877,110.277,7.877z"/>
<path style="fill:#EBEDEE;" d="M94.523,7.877H409.6c30.326,0,55.138,24.812,55.138,55.138v378.092
	c0,30.326-24.812,55.138-55.138,55.138H94.523c-30.326,0-55.138-24.812-55.138-55.138V63.015
	C39.385,32.689,64.197,7.877,94.523,7.877z"/>
<path style="fill:#324D5B;" d="M78.769,0h307.2c30.326,0,55.138,24.812,55.138,55.138v393.846c0,30.326-24.812,55.138-55.138,55.138
	h-307.2c-30.326,0-55.138-24.812-55.138-55.138V55.138C23.631,24.812,48.443,0,78.769,0z"/>
<g>
	<path style="fill:#99A6AD;" d="M273.723,265.846h27.569c-10.634-14.178-27.175-25.6-46.08-29.932
		C262.695,244.185,268.997,254.425,273.723,265.846 M283.569,310.745h34.658c-0.788-12.997-4.332-25.206-10.634-36.234h-30.326
		C280.812,285.932,282.782,298.142,283.569,310.745 M276.874,355.643H307.2c6.302-10.634,9.846-22.843,10.634-36.234h-34.265
		C282.782,332.406,280.812,344.222,276.874,355.643 M273.723,364.702c-4.726,11.028-11.028,21.662-18.511,29.932
		c18.905-4.332,35.446-15.754,46.08-29.932H273.723z M264.271,364.702h-23.237v32.295
		C250.092,388.332,258.363,377.305,264.271,364.702 M274.51,319.409H240.64v36.234h27.175
		C271.754,344.222,274.117,332.406,274.51,319.409 M267.815,274.511h-26.782v36.234h33.871
		C274.117,298.142,271.754,285.932,267.815,274.511 M264.271,265.846c-5.908-12.603-13.785-23.631-23.237-32.295v32.295H264.271z
		 M208.345,265.846h23.237v-32.295C222.523,241.822,214.252,252.849,208.345,265.846 M198.105,310.745h33.871v-36.234H204.8
		C200.862,285.932,198.499,298.142,198.105,310.745 M204.8,355.643h26.782v-36.234h-33.871
		C198.498,332.406,200.862,344.222,204.8,355.643 M208.345,364.702c5.908,12.603,13.785,23.631,23.237,32.295v-32.295
		L208.345,364.702L208.345,364.702z M198.892,364.702h-27.569c10.634,14.178,27.175,25.6,46.08,29.932
		C209.92,385.969,203.618,375.729,198.892,364.702 M189.44,319.409h-34.658c0.788,12.997,4.332,25.206,10.634,36.234h30.326
		C191.803,344.222,189.834,332.406,189.44,319.409 M195.742,274.511h-30.326c-6.302,10.634-9.846,22.843-10.634,36.234h34.658
		C189.834,298.142,191.803,285.932,195.742,274.511 M171.323,265.846h27.569c4.726-11.028,11.028-21.662,18.511-29.932
		C198.498,239.852,181.957,251.274,171.323,265.846 M145.723,315.077c0-50.018,40.566-90.585,90.585-90.585
		s90.585,40.566,90.585,90.585s-40.566,90.585-90.585,90.585S145.723,365.095,145.723,315.077"/>
	<path style="fill:#99A6AD;" d="M374.154,98.462H98.462c-2.363,0-3.938,1.575-3.938,3.938v15.754c0,2.363,1.575,3.938,3.938,3.938
		h275.692c2.363,0,3.938-1.575,3.938-3.938V102.4C378.092,100.431,376.517,98.462,374.154,98.462z M334.769,145.723H137.846
		c-2.363,0-3.938,1.575-3.938,3.938v15.754c0,2.363,1.575,3.938,3.938,3.938h196.923c2.363,0,3.938-1.575,3.938-3.938v-15.754
		C338.708,147.692,337.132,145.723,334.769,145.723z"/>
</g>
<path style="fill:#2D4552;" d="M78.769,0C50.412,0,26.782,21.662,24.025,49.625c-0.394,1.575-0.394,3.545-0.394,5.514v393.846
	c0,18.905,9.452,35.052,23.631,45.292V55.138C47.262,24.812,72.074,0,102.4,0H78.769z"/>
<g>
</g>
<g>
</g>
<g>
</g>
<g>
</g>
<g>
</g>
<g>
</g>
<g>
</g>
<g>
</g>
<g>
</g>
<g>
</g>
<g>
</g>
<g>
</g>
<g>
</g>
<g>
</g>
<g>
</g>
</svg>
