<?xml version="1.0" encoding="iso-8859-1"?>
<!-- Generator: Adobe Illustrator 19.0.0, SVG Export Plug-In . SVG Version: 6.00 Build 0)  -->
<svg version="1.1" id="Layer_1" xmlns="http://www.w3.org/2000/svg" xmlns:xlink="http://www.w3.org/1999/xlink" x="0px" y="0px"
	 viewBox="0 0 504.123 504.123" style="enable-background:new 0 0 504.123 504.123;" xml:space="preserve">
<path style="fill:#324D5B;" d="M393.452,477.341l-123.274-122.88l12.603-12.603c6.302-6.302,6.302-16.148,0-22.055
	c-5.12-5.12-12.997-5.908-18.905-2.363V15.754C263.877,7.089,256.788,0,248.123,0s-15.754,7.089-15.754,15.754v301.292
	c-5.908-3.545-13.785-2.757-18.905,2.363c-6.302,6.302-6.302,16.148,0,22.055l12.603,12.603l-122.88,122.88
	c-6.302,6.302-6.302,16.148,0,22.055c6.302,6.302,16.148,6.302,22.055,0L232.368,392.27v72.468c0,8.665,7.089,15.754,15.754,15.754
	c8.665,0,15.754-7.089,15.754-15.754V392.27l107.126,107.126c6.302,6.302,16.148,6.302,22.055,0
	C399.36,493.489,399.36,483.643,393.452,477.341z"/>
<path style="fill:#F3F3F3;" d="M488.369,55.138v322.954H15.754V55.138H488.369z"/>
<path style="fill:#F4B459;" d="M488.369,378.092H15.754C7.089,378.092,0,385.182,0,393.846S7.089,409.6,15.754,409.6h472.615
	c8.665,0,15.754-7.089,15.754-15.754C504.123,385.181,497.034,378.092,488.369,378.092z M15.754,55.138h472.615
	c8.665,0,15.754-7.089,15.754-15.754s-7.089-15.754-15.754-15.754H15.754C7.089,23.631,0,30.72,0,39.385S7.089,55.138,15.754,55.138
	z"/>
<path style="fill:#476574;" d="M181.169,133.908c-52.382,0-94.523,42.142-94.523,94.523s42.142,94.523,94.523,94.523
	s94.523-42.142,94.523-94.523h-94.523V133.908z"/>
<path style="fill:#E2574C;" d="M196.923,118.154c52.382,0,94.523,42.142,94.523,94.523c0-0.394-94.523,0-94.523,0
	S197.317,118.154,196.923,118.154z"/>
<path style="fill:#3DB39E;" d="M358.4,252.062c11.028,0,19.692,8.665,19.692,19.692c0,11.027-8.665,19.692-19.692,19.692
	s-19.692-8.665-19.692-19.692C338.708,261.12,347.372,252.062,358.4,252.062z"/>
<path style="fill:#D1D6D8;" d="M338.708,181.169v15.754h86.646v-15.754H338.708z M401.723,204.8h-63.015v15.754h63.015
	L401.723,204.8L401.723,204.8z M338.708,322.954h86.646V307.2h-86.646V322.954z"/>
<path style="fill:#E2574C;" d="M358.4,126.031c11.028,0,19.692,8.665,19.692,19.692c0,11.028-8.665,19.692-19.692,19.692
	s-19.692-8.665-19.692-19.692C338.708,135.089,347.372,126.031,358.4,126.031z"/>
<path style="fill:#EFC75E;" d="M15.754,409.6h472.615c8.665,0,15.754-7.089,15.754-15.754H0C0,402.511,7.089,409.6,15.754,409.6z
	 M488.369,23.631H15.754C7.089,23.631,0,30.72,0,39.385h504.123C504.123,30.72,497.034,23.631,488.369,23.631z"/>
<g>
</g>
<g>
</g>
<g>
</g>
<g>
</g>
<g>
</g>
<g>
</g>
<g>
</g>
<g>
</g>
<g>
</g>
<g>
</g>
<g>
</g>
<g>
</g>
<g>
</g>
<g>
</g>
<g>
</g>
</svg>
