<?xml version="1.0" encoding="iso-8859-1"?>
<!-- Generator: Adobe Illustrator 19.0.0, SVG Export Plug-In . SVG Version: 6.00 Build 0)  -->
<svg version="1.1" id="Layer_1" xmlns="http://www.w3.org/2000/svg" xmlns:xlink="http://www.w3.org/1999/xlink" x="0px" y="0px"
	 viewBox="0 0 504.517 504.517" style="enable-background:new 0 0 504.517 504.517;" xml:space="preserve">
<path style="fill:#D7AEA1;" d="M299.521,421.415v44.111c0,8.271,6.695,14.572,14.572,14.572h22.055
	c7.877,0,14.572-6.695,14.572-14.572v-44.111C350.721,421.415,299.521,421.415,299.521,421.415z M153.798,465.92
	c0,8.271,6.695,14.572,14.572,14.572h22.055c7.877,0,14.572-6.695,14.572-14.572v-44.505h-51.2L153.798,465.92L153.798,465.92z"/>
<path style="fill:#EFC2B3;" d="M323.152,315.077v162.265c0,14.966,11.815,27.175,26.782,27.175h13.391
	c14.966,0,26.782-12.209,26.782-27.175V315.077H323.152L323.152,315.077z M114.413,477.342c0,14.966,11.815,27.175,26.782,27.175
	h13.391c14.966,0,26.782-12.209,26.782-27.175V315.077h-66.954L114.413,477.342L114.413,477.342z"/>
<path style="fill:#D7AEA1;" d="M114.413,421.022l66.954,26.388v-85.465l-66.954-33.083
	C114.413,328.862,114.413,421.022,114.413,421.022z M323.152,445.834l66.954-26.388v-92.554l-66.954,33.083V445.834z"/>
<path style="fill:#EFC2B3;" d="M394.044,228.825l-32.295-124.062c-1.575-6.302-9.846-8.271-13.785-3.151l-54.351,63.409
	c-1.182,1.182-0.788,3.151,0.788,4.332l95.705,62.622C392.075,233.157,394.438,231.188,394.044,228.825z M156.555,101.218
	c-4.332-5.12-12.209-3.151-13.785,3.151l-32.295,124.455c-0.788,2.363,1.969,4.332,4.332,3.151l95.705-62.622
	c1.575-0.788,1.575-3.151,0.788-4.332C211.299,165.022,156.555,101.218,156.555,101.218z"/>
<path style="fill:#CBA598;" d="M350.327,133.514c-0.788-3.938-4.726-4.726-7.089-1.969l-27.569,37.415
	c-0.394,0.788-0.394,1.969,0.394,2.363l48.443,37.415c1.182,0.788,2.363-0.394,1.969-1.969L350.327,133.514z M161.281,131.545
	c-1.969-2.757-6.302-1.969-7.089,1.969l-16.148,73.255c-0.394,1.575,1.182,2.757,1.969,1.969l48.443-37.022
	c0.788-0.394,0.788-1.575,0.394-2.363L161.281,131.545z"/>
<path style="fill:#EFC2B3;" d="M252.259,137.846c89.009,0,161.477,72.468,161.477,161.477S341.269,460.8,252.259,460.8
	S90.783,388.332,90.783,299.323S163.25,137.846,252.259,137.846z"/>
<path style="fill:#A7877D;" d="M256.198,390.695c-15.36,0-27.569,1.575-27.569,7.877s12.209,19.298,27.569,19.298
	s27.569-12.997,27.569-19.298C283.767,391.877,271.558,390.695,256.198,390.695z"/>
<path style="fill:#F5DAD1;" d="M252.259,275.692c-32.689,0-59.077,13.785-59.077,38.991c0,24.812,26.388,51.594,59.077,51.594
	s59.077-26.782,59.077-51.594C311.336,289.477,284.949,275.692,252.259,275.692z"/>
<path style="fill:#CBA598;" d="M271.952,307.2c-6.695,0-11.815,5.12-11.815,11.815s5.12,11.815,11.815,11.815
	s11.815-5.12,11.815-11.815S278.647,307.2,271.952,307.2z M232.567,307.2c-6.695,0-11.815,5.12-11.815,11.815
	s5.12,11.815,11.815,11.815s11.815-5.12,11.815-11.815S239.263,307.2,232.567,307.2z"/>
<path style="fill:#324D5B;" d="M309.367,220.554c-9.846,0-17.723,7.877-17.723,17.723c0,9.846,7.877,17.723,17.723,17.723
	c9.846,0,17.723-7.877,17.723-17.723C327.09,228.431,319.213,220.554,309.367,220.554z M199.09,220.554
	c-9.846,0-17.723,7.877-17.723,17.723c0,9.846,7.877,17.723,17.723,17.723s17.723-7.877,17.723-17.723
	C216.813,228.431,208.936,220.554,199.09,220.554z"/>
<path style="fill:#95A3AA;" d="M313.306,228.431c-3.151,0-5.908,2.757-5.908,5.908s2.757,5.908,5.908,5.908s5.908-2.757,5.908-5.908
	C319.213,231.188,316.456,228.431,313.306,228.431z M203.029,228.431c-3.151,0-5.908,2.757-5.908,5.908s2.757,5.908,5.908,5.908
	s5.908-2.757,5.908-5.908C208.936,231.188,206.179,228.431,203.029,228.431z"/>
<path style="fill:#EFC75E;" d="M247.533,0h9.846c3.938,0,7.089,3.151,7.089,7.089v92.16c0,3.938-3.151,7.089-7.089,7.089h-9.846
	c-3.938,0-7.089-3.151-7.089-7.089V7.089C240.444,3.151,243.595,0,247.533,0z"/>
<path style="fill:#D7B355;" d="M240.444,94.523h23.631V82.708h-23.631L240.444,94.523L240.444,94.523z M240.444,70.892h23.631
	V59.077h-23.631L240.444,70.892L240.444,70.892z M240.444,47.262h23.631V35.446h-23.631L240.444,47.262L240.444,47.262z
	 M240.444,11.815V23.63h23.631V11.815H240.444z"/>
<path style="fill:#E1B7A9;" d="M134.106,299.323c0-81.92,61.046-149.268,139.815-159.902c-7.089-0.788-14.178-1.575-21.662-1.575
	c-89.009,0-161.477,72.468-161.477,161.477S163.25,460.8,252.259,460.8c7.483,0,14.572-0.394,21.662-1.575
	C195.152,448.591,134.106,381.243,134.106,299.323z"/>
<path style="fill:#BF9B8F;" d="M252.259,137.846c-3.938,0-7.877,0-11.815,0.394v35.446c0,6.302,5.12,11.028,11.815,11.028
	c6.302,0,11.815-5.12,11.815-11.028V138.24L252.259,137.846z"/>
<g>
</g>
<g>
</g>
<g>
</g>
<g>
</g>
<g>
</g>
<g>
</g>
<g>
</g>
<g>
</g>
<g>
</g>
<g>
</g>
<g>
</g>
<g>
</g>
<g>
</g>
<g>
</g>
<g>
</g>
</svg>
