<?xml version="1.0" encoding="iso-8859-1"?>
<!-- Generator: Adobe Illustrator 19.0.0, SVG Export Plug-In . SVG Version: 6.00 Build 0)  -->
<svg version="1.1" id="Layer_1" xmlns="http://www.w3.org/2000/svg" xmlns:xlink="http://www.w3.org/1999/xlink" x="0px" y="0px"
	 viewBox="0 0 504.124 504.124" style="enable-background:new 0 0 504.124 504.124;" xml:space="preserve">
<path style="fill:#2394BC;" d="M470.646,0h-33.477v66.954h33.477c18.511,0,33.477-14.966,33.477-33.477S489.158,0,470.646,0z"/>
<path style="fill:#26A6D1;" d="M91.373,0C73.65,0,59.078,14.178,59.078,31.902v472.222h346.191h-0.788
	c17.723,0,32.295-14.178,32.295-31.902V32.295C436.776,14.572,451.349,0,469.466,0H91.373z"/>
<path style="fill:#2394BC;" d="M373.367,472.615c0-17.329,14.572-31.508,32.295-31.508H32.296
	c-17.723,0.001-32.295,14.179-32.295,31.508c0,17.329,14.572,31.508,32.295,31.508h373.366
	C387.938,504.123,373.367,489.945,373.367,472.615z"/>
<path style="fill:#FFFFFF;" d="M204.801,169.354h-29.932c-8.665,0-13.391,5.12-13.391,12.997v92.554
	c0,8.271,5.514,12.997,12.603,12.997s12.603-4.726,12.603-12.997V247.73h18.905c23.237,0,38.991-14.572,38.991-37.809
	S229.613,169.354,204.801,169.354z M204.407,226.068h-17.329v-35.052h17.329c10.634,0,17.329,7.483,17.329,17.329
	C221.736,218.585,215.04,226.068,204.407,226.068z M291.052,202.831c0-6.695,6.302-10.24,13.391-10.24
	c9.846,0,15.36,4.726,22.055,4.726s11.028-5.514,11.028-11.815c0-12.603-23.237-16.148-32.295-16.148
	c-22.055,0-40.96,13.785-40.96,36.628c0,37.415,55.138,25.994,55.138,44.898c0,7.877-5.908,13.785-16.935,13.785
	c-10.634,0-20.086-6.302-27.963-6.302c-6.695,0-11.028,5.12-11.028,11.422c0,14.966,27.569,18.117,40.172,18.117
	c23.237-0.394,42.929-14.572,42.929-37.809C346.586,208.738,291.052,219.372,291.052,202.831z"/>
<g>
</g>
<g>
</g>
<g>
</g>
<g>
</g>
<g>
</g>
<g>
</g>
<g>
</g>
<g>
</g>
<g>
</g>
<g>
</g>
<g>
</g>
<g>
</g>
<g>
</g>
<g>
</g>
<g>
</g>
</svg>
