<?xml version="1.0" encoding="iso-8859-1"?>
<!-- Generator: Adobe Illustrator 19.0.0, SVG Export Plug-In . SVG Version: 6.00 Build 0)  -->
<svg version="1.1" id="Layer_1" xmlns="http://www.w3.org/2000/svg" xmlns:xlink="http://www.w3.org/1999/xlink" x="0px" y="0px"
	 viewBox="0 0 505.305 505.305" style="enable-background:new 0 0 505.305 505.305;" xml:space="preserve">
<path style="fill:#D07C3F;" d="M24.025,0.591h456.862v393.452H24.418L24.025,0.591z"/>
<path style="fill:#EEC65D;" d="M0.394,95.114v380.849c0,18.511,14.966,28.751,33.477,28.751H471.04
	c18.511,0,33.477-10.24,33.477-28.751V95.114C504.517,95.508,0.788,95.114,0.394,95.114z M71.286,32.492L24.025,0.591V79.36h47.262
	L71.286,32.492L71.286,32.492z M480.886,0.591l-47.262,31.508V79.36h47.262V0.591z"/>
<path style="fill:#DCA34F;" d="M71.286,95.114V32.098L0,95.114H71.286z M433.625,32.098v63.015h71.68L433.625,32.098z"/>
<path style="fill:#D07C3F;" d="M112.246,185.698c-11.815,0-21.662,9.846-21.662,21.662s9.452,21.662,21.662,21.662
	c11.815,0,21.662-9.846,21.662-21.662C134.302,195.545,124.455,185.698,112.246,185.698z M376.123,185.698
	c-11.815,0-21.662,9.846-21.662,21.662s9.452,21.662,21.662,21.662c11.815,0,21.662-9.846,21.662-21.662
	C398.178,195.545,388.332,185.698,376.123,185.698z"/>
<path style="fill:#CBA94F;" d="M244.578,366.868c-78.375,0-141.785-69.317-141.785-154.782c0-5.908,4.332-10.634,9.846-10.634
	s9.846,4.726,9.846,10.634c0,73.649,54.745,133.12,122.092,133.12s122.092-59.865,122.092-133.12c0-5.908,4.332-10.634,9.846-10.634
	s9.846,4.726,9.846,10.634C386.363,297.551,322.56,366.868,244.578,366.868z"/>
<path style="fill:#FFFFFF;" d="M244.578,354.658c-78.375,0-141.785-64.197-141.785-143.36c0-5.514,4.332-9.846,9.846-9.846
	s9.846,4.332,9.846,9.846c0,68.135,54.745,123.668,122.092,123.668s122.092-55.532,122.092-123.668c0-5.514,4.332-9.846,9.846-9.846
	s9.846,4.332,9.846,9.846C386.363,290.462,322.56,354.658,244.578,354.658z"/>
<g>
</g>
<g>
</g>
<g>
</g>
<g>
</g>
<g>
</g>
<g>
</g>
<g>
</g>
<g>
</g>
<g>
</g>
<g>
</g>
<g>
</g>
<g>
</g>
<g>
</g>
<g>
</g>
<g>
</g>
</svg>
