<?xml version="1.0" encoding="iso-8859-1"?>
<!-- Generator: Adobe Illustrator 19.0.0, SVG Export Plug-In . SVG Version: 6.00 Build 0)  -->
<svg version="1.1" id="Layer_1" xmlns="http://www.w3.org/2000/svg" xmlns:xlink="http://www.w3.org/1999/xlink" x="0px" y="0px"
	 viewBox="0 0 504.519 504.519" style="enable-background:new 0 0 504.519 504.519;" xml:space="preserve">
<path style="fill:#CC9357;" d="M252.26,354.068h137.058c0,0,24.025,74.831,24.025,74.437c0,41.748-72.074,75.618-161.477,75.618
	c-89.009,0-161.477-33.871-161.477-75.618l24.025-74.437H252.26z"/>
<path style="fill:#D49D5E;" d="M327.879,455.286c-26.388-28.751-64.591-52.775-83.102-41.354
	c-7.877,4.726-14.572,18.117-1.182,53.169c3.938,11.028,9.452,23.631,15.36,37.022c2.363,0,4.726,0,7.089-0.394
	c-5.514-11.815-11.028-24.812-16.148-38.991c-9.058-24.025-9.452-40.172-1.575-45.292c12.997-8.271,47.655,10.24,75.225,40.172
	c8.271,9.058,15.754,19.692,22.055,30.72c1.969-0.788,3.938-1.575,5.908-1.969C344.42,475.766,336.544,464.738,327.879,455.286z
	 M366.476,439.926c-22.055-25.6-52.382-38.203-76.406-48.443c-9.846-3.938-18.117-7.483-24.418-11.422
	c-15.754-9.452-25.206-18.117-28.751-25.994h-6.695c3.151,10.634,13.785,20.874,32.295,31.902
	c6.695,3.938,15.36,7.483,25.206,11.815c31.508,12.997,74.043,30.72,92.554,77.194c1.969-1.182,3.938-2.363,5.514-3.545
	C381.048,459.618,374.747,449.378,366.476,439.926z M311.731,364.308c15.36,13.785,35.052,18.117,48.443,11.028
	c7.877-3.938,12.997-11.815,14.572-21.662h-6.302c-1.575,7.483-5.514,12.603-11.028,15.754c-11.422,5.908-27.963,1.575-41.354-10.24
	c-1.969-1.969-3.545-3.545-5.12-5.514h-8.271C305.036,357.218,307.793,360.369,311.731,364.308z M277.86,443.471
	c-5.514-0.394-8.271,2.363-9.452,4.726c-5.908,10.24-2.757,33.477,5.908,55.138l6.695-0.394
	c-8.665-21.268-11.815-43.323-7.089-51.594c0.394-0.394,0.788-1.575,3.545-1.575c11.028,0.394,35.84,19.692,53.957,44.505
	c2.363-0.394,4.332-1.182,6.695-1.969C318.82,465.92,291.645,444.258,277.86,443.471L277.86,443.471z M394.045,430.474
	c-0.394-1.575-1.969-2.757-3.938-2.363c-1.575,0.394-2.757,1.969-2.363,3.938l7.089,32.295c1.969-1.575,3.938-3.545,5.514-5.12
	C396.802,442.683,394.045,430.474,394.045,430.474z M380.26,399.754c-26.388,10.634-92.554-24.418-111.458-45.686h-8.271
	c0.394,0.394,0.394,0.788,0.788,0.788c14.572,20.086,72.074,53.169,107.52,53.169c5.12,0,9.846-0.788,14.178-2.363
	c9.452-3.938,12.997-16.148,12.997-32.689c-3.545-11.028-6.302-18.905-6.302-18.905h-1.575
	C390.894,378.092,389.713,396.209,380.26,399.754z M304.248,495.065c-1.575-0.788-3.545-0.394-4.332,1.182s-0.394,3.545,1.182,4.332
	c3.151-0.394,6.302-0.788,9.058-1.575C307.793,497.428,305.824,495.852,304.248,495.065z M310.156,482.068
	c-6.302-5.514-15.36-11.028-21.268-9.058c-6.695,2.757-8.665,11.422-4.726,24.025c0.394,1.575,1.182,3.545,1.969,5.12l6.695-0.788
	c-1.182-1.969-1.969-4.332-2.757-6.695c-2.757-8.271-2.363-14.966,0.788-16.148c1.182-0.394,6.302,0.394,14.966,7.877
	c3.938,3.151,7.483,7.089,11.028,11.028l7.089-1.575C319.608,490.732,314.882,485.612,310.156,482.068z M203.817,380.062
	c-3.938-9.846-7.089-18.905-10.24-26.388h-7.089c3.151,7.877,7.089,17.723,11.028,28.357
	c16.148,41.748,33.083,84.677,50.412,121.698h7.089C234.931,460.8,216.42,412.751,203.817,380.062z M412.556,426.142
	c-1.575-5.12-5.12-15.754-8.665-27.569c0.788,9.058,1.575,18.511,2.363,27.963c0.394,7.483,1.182,14.572,1.969,21.662
	c2.757-4.726,4.332-9.846,5.12-14.966C413.344,433.231,412.556,426.142,412.556,426.142z M232.962,489.157
	c-12.209-23.237-24.812-47.262-30.326-61.834c-1.575-3.938-2.757-8.271-4.332-12.603c-5.908-18.117-13.785-39.778-26.782-60.258
	h-7.877c14.178,20.874,22.055,43.717,28.357,62.622c1.575,4.726,3.151,8.665,4.332,12.997c5.514,14.966,18.117,39.385,30.326,62.622
	c1.969,3.545,3.938,7.483,5.908,11.422c2.363,0,4.726,0.394,7.483,0.394C238.476,499.397,235.719,494.277,232.962,489.157z
	 M116.384,438.745c-5.908-10.634-12.209-20.48-19.298-29.932l-2.363,7.483c5.514,8.271,11.028,16.542,16.148,25.6
	c7.877,14.178,16.148,26.782,24.418,38.597c3.545,1.969,7.483,3.545,11.815,5.12C136.47,471.828,126.23,456.468,116.384,438.745z
	 M154.193,461.194l-6.695-7.877c-16.935-19.692-27.175-38.991-36.628-57.502l-5.514-10.634l-2.757,8.665
	c0.788,1.575,1.575,3.151,2.757,5.12c9.846,18.905,20.086,38.597,37.809,58.683l6.695,7.877c8.665,9.846,17.329,19.692,25.6,29.145
	l10.634,2.363C175.46,485.612,164.433,473.403,154.193,461.194z M164.433,432.837c0.788,1.575,2.757,1.969,4.332,0.788
	c1.575-0.788,1.969-2.757,0.788-4.332l-37.415-58.289c-2.363-3.938-6.695-10.24-10.24-16.935h-7.089
	c3.545,5.514,7.483,12.209,12.603,20.086C127.411,374.154,164.433,432.837,164.433,432.837z M116.777,386.757
	c11.422,21.662,23.631,44.505,44.898,68.135c30.72,34.265,37.415,34.658,41.354,31.902c3.938-2.363,5.908-8.271-11.815-44.898
	c-9.058-18.511-15.36-35.052-21.268-50.018s-10.634-27.569-16.935-38.203h-7.483c6.695,10.24,11.815,23.631,18.511,40.566
	c5.514,14.572,12.209,31.508,21.268,50.412c12.603,25.994,13.785,33.871,13.785,36.234c-2.363-0.788-10.24-5.514-32.689-30.326
	c-20.874-23.237-32.689-45.292-44.111-66.56c-3.545-6.695-7.089-13.391-10.634-19.692l-2.757,8.271
	C111.657,377.305,114.414,382.031,116.777,386.757z M91.177,428.111l-0.394,0.788c0,14.572,9.058,28.357,24.418,40.172
	C108.113,454.892,100.236,441.501,91.177,428.111z"/>
<path style="fill:#F6C37A;" d="M207.362,437.169c0,0,22.449,5.12,44.898,5.12c22.843,0,45.292-5.12,45.292-5.12
	c5.514,0,9.846,4.726,9.846,10.24v10.24c0,5.514-4.332,10.24-9.846,10.24c0,0-22.843,5.12-45.292,5.12s-44.898-5.12-44.898-5.12
	c-5.514,0-9.846-4.726-9.846-10.24v-10.24C197.122,441.502,201.848,437.169,207.362,437.169z"/>
<path style="fill:#E3B470;" d="M212.876,448.985c-2.363,0-3.938,1.575-3.938,3.938s1.575,3.938,3.938,3.938s3.938-1.575,3.938-3.938
	S215.239,448.985,212.876,448.985z M291.645,448.985c-2.363,0-3.938,1.575-3.938,3.938s1.575,3.938,3.938,3.938
	s3.938-1.575,3.938-3.938S294.008,448.985,291.645,448.985z"/>
<path style="fill:#93D3E8;" d="M252.26,0c113.034,0,204.8,91.766,204.8,204.8s-91.766,204.8-204.8,204.8s-204.8-91.766-204.8-204.8
	S139.227,0,252.26,0z"/>
<path style="fill:#84BDD0;" d="M252.26,370.215c-106.338,0-193.772-81.132-204.012-185.108c-0.788,6.302-0.788,12.997-0.788,19.692
	c0,113.034,91.766,204.8,204.8,204.8s204.8-91.766,204.8-204.8c0-6.695-0.394-13.391-0.788-19.692
	C446.033,289.083,358.599,370.215,252.26,370.215z"/>
<path style="fill:#DFF2F8;" d="M252.26,299.323c-78.375,0-141.785,23.237-141.785,51.988v1.575
	c36.628,35.446,86.646,57.108,141.785,57.108s104.763-21.662,141.785-57.108v-1.575C394.045,322.56,330.636,299.323,252.26,299.323z
	"/>
<path style="fill:#C8D9DF;" d="M394.045,352.492v-1.575c0-8.665-5.908-16.935-16.148-24.025
	c-34.658,27.175-78.375,43.323-125.637,43.323s-90.978-16.148-125.637-42.929c-10.24,7.089-16.148,15.36-16.148,24.025v1.575
	c36.628,35.446,86.646,57.108,141.785,57.108C307.399,409.6,357.024,387.938,394.045,352.492z"/>
<path style="fill:#3DB39E;" d="M338.907,324.135c0,14.178-38.597,34.265-86.646,34.265s-86.646-20.086-86.646-34.265L252.26,204.8
	L338.907,324.135z"/>
<path style="fill:#37A18E;" d="M306.217,279.237L252.26,204.8l-53.957,74.437c11.815,7.089,31.508,13.391,53.957,13.391
	S294.402,286.326,306.217,279.237z"/>
<path style="fill:#3DB39E;" d="M319.214,252.455c0,11.422-29.932,27.175-66.954,27.175s-66.954-15.754-66.954-27.175l66.954-94.917
	L319.214,252.455z"/>
<path style="fill:#37A18E;" d="M290.857,212.677l-38.597-55.138l-38.597,55.138c9.452,4.726,23.237,8.271,38.597,8.271
	S281.405,217.009,290.857,212.677z"/>
<path style="fill:#3DB39E;" d="M303.46,187.865c0,8.665-22.843,20.874-51.2,20.874s-51.2-12.209-51.2-20.874l51.2-73.649
	L303.46,187.865z"/>
<path style="fill:#FFFFFF;" d="M177.43,102.4c-6.695,0-11.815,5.12-11.815,11.815s5.12,11.815,11.815,11.815
	s11.815-5.12,11.815-11.815C189.245,107.914,184.125,102.4,177.43,102.4z M220.753,137.846c-6.695,0-11.815,5.12-11.815,11.815
	s5.12,11.815,11.815,11.815s11.815-5.12,11.815-11.815C232.568,143.36,227.448,137.846,220.753,137.846z M287.707,59.077
	c6.695,0,11.815-5.12,11.815-11.815s-5.12-11.815-11.815-11.815s-11.815,5.12-11.815,11.815S281.011,59.077,287.707,59.077z
	 M342.845,204.8c-6.695,0-11.815,5.12-11.815,11.815s5.12,11.815,11.815,11.815s11.815-5.12,11.815-11.815
	C354.66,210.314,349.54,204.8,342.845,204.8z M307.793,272.148c-5.514,0-9.846,4.332-9.846,10.24c0,5.514,4.332,10.24,9.846,10.24
	s9.846-4.332,9.846-10.24C317.639,276.874,313.307,272.148,307.793,272.148z M157.737,220.554c-6.695,0-11.815,5.12-11.815,11.815
	s5.12,11.815,11.815,11.815s11.815-5.12,11.815-11.815C169.553,226.068,164.433,220.554,157.737,220.554z M141.984,181.169
	c6.695,0,11.815-5.12,11.815-11.815s-5.12-11.815-11.815-11.815s-11.815,5.12-11.815,11.815S135.288,181.169,141.984,181.169z
	 M260.137,224.492c-6.695,0-11.815,5.12-11.815,11.815s5.12,11.815,11.815,11.815s11.815-5.12,11.815-11.815
	C271.953,230.006,266.833,224.492,260.137,224.492z M295.584,102.4c0-6.695-5.12-11.815-11.815-11.815s-11.815,5.12-11.815,11.815
	s5.12,11.815,11.815,11.815S295.584,109.095,295.584,102.4z M311.337,177.231c0-6.695-5.12-11.815-11.815-11.815
	s-11.815,5.12-11.815,11.815s5.12,11.815,11.815,11.815S311.337,183.926,311.337,177.231z M366.476,267.815
	c-6.695,0-11.815,5.12-11.815,11.815s5.12,11.815,11.815,11.815s11.815-5.12,11.815-11.815
	C378.291,273.329,373.171,267.815,366.476,267.815z M401.922,220.554c-6.695,0-11.815,5.12-11.815,11.815s5.12,11.815,11.815,11.815
	s11.815-5.12,11.815-11.815C413.737,226.068,408.617,220.554,401.922,220.554z M260.137,315.077c-6.695,0-11.815,5.12-11.815,11.815
	s5.12,11.815,11.815,11.815s11.815-5.12,11.815-11.815C271.953,320.591,266.833,315.077,260.137,315.077z M212.876,299.323
	c-6.695,0-11.815,5.12-11.815,11.815s5.12,11.815,11.815,11.815s11.815-5.12,11.815-11.815
	C224.691,304.837,219.571,299.323,212.876,299.323z M224.691,39.385c-6.695,0-11.815,5.12-11.815,11.815s5.12,11.815,11.815,11.815
	s11.815-5.12,11.815-11.815C236.507,44.898,231.387,39.385,224.691,39.385z M102.599,208.738c-6.695,0-11.815,5.12-11.815,11.815
	s5.12,11.815,11.815,11.815s11.815-5.12,11.815-11.815C114.414,214.252,109.294,208.738,102.599,208.738z M346.784,133.908
	c0-6.695-5.12-11.815-11.815-11.815s-11.815,5.12-11.815,11.815c0,6.695,5.12,11.815,11.815,11.815S346.784,140.603,346.784,133.908
	z M153.799,82.708c6.695,0,11.815-5.12,11.815-11.815s-5.12-11.815-11.815-11.815s-11.815,5.12-11.815,11.815
	S147.104,82.708,153.799,82.708z M134.107,263.877c-6.695,0-11.815,5.12-11.815,11.815s5.12,11.815,11.815,11.815
	c6.695,0,11.815-5.12,11.815-11.815C145.922,269.391,140.802,263.877,134.107,263.877z M106.537,122.092
	c-6.695,0-11.815,5.12-11.815,11.815c0,6.695,5.12,11.815,11.815,11.815s11.815-5.12,11.815-11.815
	C118.353,127.606,113.233,122.092,106.537,122.092z M390.107,185.108c0,6.695,5.12,11.815,11.815,11.815s11.815-5.12,11.815-11.815
	s-5.12-11.815-11.815-11.815S390.107,178.806,390.107,185.108z M397.984,133.908c0-6.695-5.12-11.815-11.815-11.815
	s-11.815,5.12-11.815,11.815c0,6.695,5.12,11.815,11.815,11.815S397.984,140.603,397.984,133.908z M362.537,94.523
	c6.695,0,11.815-5.12,11.815-11.815s-5.12-11.815-11.815-11.815s-11.815,5.12-11.815,11.815S355.842,94.523,362.537,94.523z
	 M177.43,102.4c-6.695,0-11.815,5.12-11.815,11.815s5.12,11.815,11.815,11.815s11.815-5.12,11.815-11.815
	C189.245,107.914,184.125,102.4,177.43,102.4z M220.753,137.846c-6.695,0-11.815,5.12-11.815,11.815s5.12,11.815,11.815,11.815
	s11.815-5.12,11.815-11.815C232.568,143.36,227.448,137.846,220.753,137.846z M287.707,59.077c6.695,0,11.815-5.12,11.815-11.815
	s-5.12-11.815-11.815-11.815s-11.815,5.12-11.815,11.815S281.011,59.077,287.707,59.077z M342.845,204.8
	c-6.695,0-11.815,5.12-11.815,11.815s5.12,11.815,11.815,11.815s11.815-5.12,11.815-11.815
	C354.66,210.314,349.54,204.8,342.845,204.8z M307.793,272.148c-5.514,0-9.846,4.332-9.846,10.24c0,5.514,4.332,10.24,9.846,10.24
	s9.846-4.332,9.846-10.24C317.639,276.874,313.307,272.148,307.793,272.148z M157.737,220.554c-6.695,0-11.815,5.12-11.815,11.815
	s5.12,11.815,11.815,11.815s11.815-5.12,11.815-11.815C169.553,226.068,164.433,220.554,157.737,220.554z M141.984,181.169
	c6.695,0,11.815-5.12,11.815-11.815s-5.12-11.815-11.815-11.815s-11.815,5.12-11.815,11.815S135.288,181.169,141.984,181.169z
	 M260.137,224.492c-6.695,0-11.815,5.12-11.815,11.815s5.12,11.815,11.815,11.815s11.815-5.12,11.815-11.815
	C271.953,230.006,266.833,224.492,260.137,224.492z M295.584,102.4c0-6.695-5.12-11.815-11.815-11.815s-11.815,5.12-11.815,11.815
	s5.12,11.815,11.815,11.815S295.584,109.095,295.584,102.4z M311.337,177.231c0-6.695-5.12-11.815-11.815-11.815
	s-11.815,5.12-11.815,11.815s5.12,11.815,11.815,11.815S311.337,183.926,311.337,177.231z M366.476,267.815
	c-6.695,0-11.815,5.12-11.815,11.815s5.12,11.815,11.815,11.815s11.815-5.12,11.815-11.815
	C378.291,273.329,373.171,267.815,366.476,267.815z M401.922,220.554c-6.695,0-11.815,5.12-11.815,11.815s5.12,11.815,11.815,11.815
	s11.815-5.12,11.815-11.815C413.737,226.068,408.617,220.554,401.922,220.554z M260.137,315.077c-6.695,0-11.815,5.12-11.815,11.815
	s5.12,11.815,11.815,11.815s11.815-5.12,11.815-11.815C271.953,320.591,266.833,315.077,260.137,315.077z M212.876,299.323
	c-6.695,0-11.815,5.12-11.815,11.815s5.12,11.815,11.815,11.815s11.815-5.12,11.815-11.815
	C224.691,304.837,219.571,299.323,212.876,299.323z M224.691,39.385c-6.695,0-11.815,5.12-11.815,11.815s5.12,11.815,11.815,11.815
	s11.815-5.12,11.815-11.815C236.507,44.898,231.387,39.385,224.691,39.385z M102.599,208.738c-6.695,0-11.815,5.12-11.815,11.815
	s5.12,11.815,11.815,11.815s11.815-5.12,11.815-11.815C114.414,214.252,109.294,208.738,102.599,208.738z M346.784,133.908
	c0-6.695-5.12-11.815-11.815-11.815s-11.815,5.12-11.815,11.815c0,6.695,5.12,11.815,11.815,11.815S346.784,140.603,346.784,133.908
	z M153.799,82.708c6.695,0,11.815-5.12,11.815-11.815s-5.12-11.815-11.815-11.815s-11.815,5.12-11.815,11.815
	S147.104,82.708,153.799,82.708z M134.107,263.877c-6.695,0-11.815,5.12-11.815,11.815s5.12,11.815,11.815,11.815
	c6.695,0,11.815-5.12,11.815-11.815C145.922,269.391,140.802,263.877,134.107,263.877z M106.537,122.092
	c-6.695,0-11.815,5.12-11.815,11.815c0,6.695,5.12,11.815,11.815,11.815s11.815-5.12,11.815-11.815
	C118.353,127.606,113.233,122.092,106.537,122.092z M390.107,185.108c0,6.695,5.12,11.815,11.815,11.815s11.815-5.12,11.815-11.815
	s-5.12-11.815-11.815-11.815S390.107,178.806,390.107,185.108z M397.984,133.908c0-6.695-5.12-11.815-11.815-11.815
	s-11.815,5.12-11.815,11.815c0,6.695,5.12,11.815,11.815,11.815S397.984,140.603,397.984,133.908z M362.537,94.523
	c6.695,0,11.815-5.12,11.815-11.815s-5.12-11.815-11.815-11.815s-11.815,5.12-11.815,11.815S355.842,94.523,362.537,94.523z"/>
<g>
</g>
<g>
</g>
<g>
</g>
<g>
</g>
<g>
</g>
<g>
</g>
<g>
</g>
<g>
</g>
<g>
</g>
<g>
</g>
<g>
</g>
<g>
</g>
<g>
</g>
<g>
</g>
<g>
</g>
</svg>
