<?xml version="1.0" encoding="iso-8859-1"?>
<!-- Generator: Adobe Illustrator 19.0.0, SVG Export Plug-In . SVG Version: 6.00 Build 0)  -->
<svg version="1.1" id="Layer_1" xmlns="http://www.w3.org/2000/svg" xmlns:xlink="http://www.w3.org/1999/xlink" x="0px" y="0px"
	 viewBox="0 0 504.124 504.124" style="enable-background:new 0 0 504.124 504.124;" xml:space="preserve">
<path style="fill:#3DB39E;" d="M393.846,472.615c0,17.329-14.178,31.508-31.508,31.508H141.786
	c-17.329,0-31.508-14.178-31.508-31.508V212.677h283.569V472.615z"/>
<path style="fill:#3AAA96;" d="M110.277,228.431v244.185c0,17.329,14.178,31.508,31.508,31.508h110.277V228.431H110.277z"/>
<path style="fill:#EDEDED;" d="M195.743,0h112.64c12.209,0,22.449,10.24,22.449,22.449v112.64c0,12.603-10.24,22.449-22.449,22.449
	h-112.64c-12.603,0-22.449-10.24-22.449-22.449V22.449C173.293,10.24,183.533,0,195.743,0z"/>
<path style="fill:#FFFFFF;" d="M235.127,39.385h33.871c12.603,0,22.449,10.24,22.449,22.843v68.529
	c0,12.603-10.24,22.843-22.449,22.843h-33.871c-12.603,0-22.449-10.24-22.449-22.843V62.228
	C212.678,49.625,222.918,39.385,235.127,39.385z"/>
<path style="fill:#CCD0D2;" d="M252.063,55.138c6.695,0,11.815,5.12,11.815,11.815s-5.12,11.815-11.815,11.815
	c-6.695,0-11.815-5.12-11.815-11.815C240.247,60.652,245.367,55.138,252.063,55.138z"/>
<path style="fill:#EDEDED;" d="M223.706,98.462h56.714c62.622,0,113.428,51.2,113.428,114.215h-283.57
	C110.277,149.662,161.083,98.462,223.706,98.462z"/>
<path style="fill:#E1E1E1;" d="M252.063,98.462h-28.357c-62.622,0-113.428,51.2-113.428,114.215h141.785L252.063,98.462
	L252.063,98.462z"/>
<path style="fill:#EFC75E;" d="M278.449,307.2c0,0-7.483,8.665-14.572,19.298c11.422,15.754,22.449,33.871,22.449,46.08
	c0,4.726-0.788,9.058-1.969,13.391c12.997-2.757,22.843-14.966,22.843-29.145C307.201,340.283,278.449,307.2,278.449,307.2z
	 M200.863,371.397c0,21.268,16.935,38.597,37.415,38.597c20.874,0,37.415-17.329,37.415-38.597S238.277,307.2,238.277,307.2
	S200.863,350.129,200.863,371.397z"/>
<path style="fill:#CECDCB;" d="M394.24,204.8H109.883c-6.302,0-11.422,5.12-11.422,11.815s5.12,11.815,11.422,11.815H394.24
	c6.302,0,11.422-5.12,11.422-11.815S400.542,204.8,394.24,204.8z M165.023,122.092h173.686c6.302,0,11.422-5.12,11.422-11.815
	s-5.12-11.815-11.422-11.815H165.023c-6.302,0-11.422,5.12-11.422,11.815S158.721,122.092,165.023,122.092z"/>
<path style="fill:#C3C3C1;" d="M165.023,122.092h87.04v-23.63h-87.04c-6.302,0-11.422,5.12-11.422,11.815
	S158.721,122.092,165.023,122.092z M109.49,228.431h142.572V204.8H109.883c-6.302,0-11.422,5.12-11.422,11.815
	C98.462,222.917,103.583,228.431,109.49,228.431z"/>
<g>
</g>
<g>
</g>
<g>
</g>
<g>
</g>
<g>
</g>
<g>
</g>
<g>
</g>
<g>
</g>
<g>
</g>
<g>
</g>
<g>
</g>
<g>
</g>
<g>
</g>
<g>
</g>
<g>
</g>
</svg>
