<?xml version="1.0" encoding="iso-8859-1"?>
<!-- Generator: Adobe Illustrator 19.0.0, SVG Export Plug-In . SVG Version: 6.00 Build 0)  -->
<svg version="1.1" id="Layer_1" xmlns="http://www.w3.org/2000/svg" xmlns:xlink="http://www.w3.org/1999/xlink" x="0px" y="0px"
	 viewBox="0 0 504.123 504.123" style="enable-background:new 0 0 504.123 504.123;" xml:space="preserve">
<path style="fill:#2D4552;" d="M220.554,338.708v118.154c0,8.665,7.089,15.754,15.754,15.754H307.2
	c8.665,0,15.754-7.089,15.754-15.754V338.708H220.554z M220.554,338.708h-31.508c17.329,0,31.508,14.178,31.508,31.508V338.708z"/>
<path style="fill:#324D5B;" d="M378.092,299.323v23.631c0,8.665-7.089,15.754-15.754,15.754H118.154
	c-8.665,0-15.754-7.089-15.754-15.754v-23.631H378.092z"/>
<path style="fill:#2D4552;" d="M15.754,78.769h47.262c8.665,0,15.754,7.089,15.754,15.754v39.385
	c0,8.665-7.089,15.754-15.754,15.754H15.754C7.089,149.662,0,142.572,0,133.908V94.523C0,85.858,7.089,78.769,15.754,78.769z"/>
<path style="fill:#3F5E6D;" d="M55.138,31.508h322.954c12.997,0,23.631,10.634,23.631,23.631v244.185H55.138
	c-12.997,0-23.631-10.634-23.631-23.631V55.138C31.508,42.142,42.142,31.508,55.138,31.508z"/>
<path style="fill:#3DB39E;" d="M342.646,220.554c11.028,0,19.692,8.665,19.692,19.692s-8.665,19.692-19.692,19.692
	s-19.692-8.665-19.692-19.692S331.618,220.554,342.646,220.554z"/>
<path style="fill:#2D4552;" d="M334.769,74.831c15.36,0,27.569,12.209,27.569,27.569s-12.209,27.569-27.569,27.569
	S307.2,117.76,307.2,102.4S319.409,74.831,334.769,74.831z"/>
<path style="fill:#EFC75E;" d="M279.631,220.554c11.028,0,19.692,8.665,19.692,19.692s-8.665,19.692-19.692,19.692
	s-19.692-8.665-19.692-19.692S268.603,220.554,279.631,220.554z"/>
<path style="fill:#E4E7E7;" d="M334.769,70.892c15.36,0,27.569,12.209,27.569,27.569s-12.209,27.569-27.569,27.569
	S307.2,113.822,307.2,98.462S319.409,70.892,334.769,70.892z"/>
<path style="fill:#2D4552;" d="M401.723,118.154h31.508v110.277h-31.508V118.154z"/>
<path style="fill:#3F5E6D;" d="M472.615,94.523h7.877c12.997,0,23.631,10.634,23.631,23.631v110.277
	c0,12.997-10.634,23.631-23.631,23.631h-7.877c-12.997,0-39.385-23.631-39.385-23.631V118.154
	C433.231,118.154,459.618,94.523,472.615,94.523z"/>
<path style="fill:#B6B9B9;" d="M334.769,70.892c-1.182,0-2.757,0-3.938,0.394v19.298c0,2.363,1.575,3.938,3.938,3.938
	s3.938-1.575,3.938-3.938V71.286C337.526,70.892,335.951,70.892,334.769,70.892z"/>
<path style="fill:#263A45;" d="M220.554,401.723h102.4v15.754h-102.4L220.554,401.723L220.554,401.723z M220.554,433.23h102.4
	v15.754h-102.4L220.554,433.23L220.554,433.23z M220.554,338.708h102.4v15.754h-102.4L220.554,338.708L220.554,338.708z
	 M216.222,354.462h4.332v-15.754h-31.508C200.862,338.708,210.708,345.009,216.222,354.462z M220.554,370.215h102.4v15.754h-102.4
	L220.554,370.215L220.554,370.215z"/>
<path style="fill:#2D4552;" d="M102.4,299.323h275.692v15.754H102.4V299.323z"/>
<path style="fill:#E4E7E7;" d="M31.508,252.062h177.231c6.695,0,11.815-5.12,11.815-11.815s-5.12-11.815-11.815-11.815H31.508
	V252.062z"/>
<g>
</g>
<g>
</g>
<g>
</g>
<g>
</g>
<g>
</g>
<g>
</g>
<g>
</g>
<g>
</g>
<g>
</g>
<g>
</g>
<g>
</g>
<g>
</g>
<g>
</g>
<g>
</g>
<g>
</g>
</svg>
