<?xml version="1.0" encoding="iso-8859-1"?>
<!-- Generator: Adobe Illustrator 19.0.0, SVG Export Plug-In . SVG Version: 6.00 Build 0)  -->
<svg version="1.1" id="Layer_1" xmlns="http://www.w3.org/2000/svg" xmlns:xlink="http://www.w3.org/1999/xlink" x="0px" y="0px"
	 viewBox="0 0 504.123 504.123" style="enable-background:new 0 0 504.123 504.123;" xml:space="preserve">
<path style="fill:#EFC75E;" d="M495.852,291.249L310.351,103.778c-1.182-1.182-14.572-11.028-28.751-11.028
	c-38.597,0.394-116.578,0-157.538,0c-18.905,0-25.6,6.302-25.6,25.994v156.751c0,12.209,9.846,27.569,11.028,28.751l187.47,185.502
	c11.028,11.028,28.751,11.028,39.778,0l159.114-159.114C506.88,320,506.88,302.277,495.852,291.249z M183.138,203.027
	c-14.178,0-25.6-11.422-25.6-25.6c0-14.178,11.422-25.6,25.6-25.6c14.178,0,25.6,11.422,25.6,25.6S197.317,203.027,183.138,203.027z
	"/>
<path style="fill:#D07C40;" d="M183.138,140.011c-20.48,0-37.415,16.935-37.415,37.415s16.935,37.415,37.415,37.415
	s37.415-16.935,37.415-37.415S204.012,140.011,183.138,140.011z M183.138,195.15c-9.846,0-17.723-7.877-17.723-17.723
	s7.877-17.723,17.723-17.723s17.723,7.877,17.723,17.723C200.862,187.273,192.985,195.15,183.138,195.15z"/>
<path style="fill:#E4E7E7;" d="M194.56,92.751c-9.452-40.566-45.292-70.892-87.828-70.892c-50.412,0-90.978,41.354-90.978,92.554
	s40.566,92.554,90.585,92.554c33.871,0,63.409-18.905,78.769-47.262c5.514,0.788,10.634,3.938,13.391,8.665
	c-18.511,32.295-52.775,54.351-92.16,54.351C47.655,222.719,0,174.276,0,114.412S47.655,6.105,106.338,6.105
	c51.594,0,94.523,37.022,104.369,86.646C210.707,92.751,194.56,92.751,194.56,92.751z"/>
<path style="fill:#D07C40;" d="M319.015,281.797c16.148,0,29.538-13.391,29.538-29.538s-13.391-29.538-29.538-29.538
	c-16.148,0-29.538,13.391-29.538,29.538C289.477,268.406,302.868,281.797,319.015,281.797z M319.015,238.473
	c7.483,0,13.785,6.302,13.785,13.785c0,7.483-6.302,13.785-13.785,13.785s-13.785-6.302-13.785-13.785
	C305.231,244.382,311.532,238.473,319.015,238.473z M319.015,344.812c-16.148,0-29.538,13.391-29.538,29.538
	s13.391,29.538,29.538,29.538c16.148,0,29.538-13.391,29.538-29.538C348.554,357.809,335.163,344.812,319.015,344.812z
	 M319.015,388.135c-7.483,0-13.785-6.302-13.785-13.785s6.302-13.785,13.785-13.785s13.785,6.302,13.785,13.785
	S326.498,388.135,319.015,388.135z M399.36,305.428H238.277c-4.332,0-7.877,3.545-7.877,7.877s3.545,7.877,7.877,7.877H399.36
	c4.332,0,7.877-3.545,7.877-7.877C407.631,308.971,404.086,305.428,399.36,305.428z"/>
<g>
</g>
<g>
</g>
<g>
</g>
<g>
</g>
<g>
</g>
<g>
</g>
<g>
</g>
<g>
</g>
<g>
</g>
<g>
</g>
<g>
</g>
<g>
</g>
<g>
</g>
<g>
</g>
<g>
</g>
</svg>
