<?xml version="1.0" encoding="iso-8859-1"?>
<!-- Generator: Adobe Illustrator 19.0.0, SVG Export Plug-In . SVG Version: 6.00 Build 0)  -->
<svg version="1.1" id="Layer_1" xmlns="http://www.w3.org/2000/svg" xmlns:xlink="http://www.w3.org/1999/xlink" x="0px" y="0px"
	 viewBox="0 0 504.265 504.265" style="enable-background:new 0 0 504.265 504.265;" xml:space="preserve">
<path style="fill:#2394BC;" d="M252.062,0.142C112.64,0.142,0,113.176,0,252.203s112.64,252.062,252.062,252.062
	c139.028,0,252.062-113.034,252.062-252.062S391.089,0.142,252.062,0.142z"/>
<path style="fill:#1F85A9;" d="M263.089,249.053c-3.938-3.938-10.634-3.938-14.572,0s-3.938,10.634,0,14.572l174.08,174.08
	c5.12-4.726,9.846-9.452,14.572-14.572C437.169,423.133,263.089,249.053,263.089,249.053z"/>
<path style="fill:#26A6D1;" d="M252.062,153.742c-54.351,0-98.462,44.111-98.462,98.462s44.111,98.462,98.462,98.462
	s98.462-44.111,98.462-98.462S306.412,153.742,252.062,153.742z M252.062,303.403c-28.357,0-51.2-22.843-51.2-51.2
	s22.843-51.2,51.2-51.2s51.2,22.843,51.2,51.2S280.418,303.403,252.062,303.403z M252.062,51.342
	C140.997,51.342,51.2,141.139,51.2,252.203s89.797,200.862,200.862,200.862s200.862-89.797,200.862-200.862
	S363.126,51.342,252.062,51.342z M252.062,401.865c-82.708,0-149.662-66.954-149.662-149.662s66.954-149.662,149.662-149.662
	s149.662,66.954,149.662,149.662S334.769,401.865,252.062,401.865z"/>
<path style="fill:#EFC75E;" d="M454.498,49.766c20.48,20.48,64.985,9.058,44.505,29.538l-55.138,55.138
	c-20.086,20.48-53.563,20.48-74.043,0s-20.48-53.563,0-74.043L424.96,5.262C445.046-15.218,434.019,29.286,454.498,49.766z"/>
<path style="fill:#E3BD59;" d="M454.498,50.16c-5.908-5.908-9.058-13.391-11.028-21.268l-86.252,85.858
	c2.363,7.089,6.695,14.178,12.209,19.692c5.908,5.908,12.603,9.846,20.086,12.209l85.858-85.858
	C467.889,58.825,460.012,55.674,454.498,50.16z"/>
<path style="fill:#EFEFEF;" d="M473.403,30.862c3.938,3.938,3.938,10.634,0,14.572L261.514,256.93
	c-3.938,3.938-10.634,3.938-14.572,0c-3.938-3.938-3.938-10.634,0-14.572l211.889-211.89
	C463.163,26.529,469.465,26.529,473.403,30.862z"/>
<path style="fill:#2295BC;" d="M294.597,280.56c-3.938,5.908-8.665,10.634-14.572,14.572l33.871,33.871
	c5.514-4.332,10.24-9.058,14.572-14.572L294.597,280.56z M364.702,350.665c-4.332,5.12-9.452,9.846-14.572,14.572l36.234,36.234
	c5.12-4.726,9.846-9.452,14.572-14.572L364.702,350.665z"/>
<g>
</g>
<g>
</g>
<g>
</g>
<g>
</g>
<g>
</g>
<g>
</g>
<g>
</g>
<g>
</g>
<g>
</g>
<g>
</g>
<g>
</g>
<g>
</g>
<g>
</g>
<g>
</g>
<g>
</g>
</svg>
