<?xml version="1.0" encoding="iso-8859-1"?>
<!-- Generator: Adobe Illustrator 19.0.0, SVG Export Plug-In . SVG Version: 6.00 Build 0)  -->
<svg version="1.1" id="Layer_1" xmlns="http://www.w3.org/2000/svg" xmlns:xlink="http://www.w3.org/1999/xlink" x="0px" y="0px"
	 viewBox="0 0 504.516 504.516" style="enable-background:new 0 0 504.516 504.516;" xml:space="preserve">
<path style="fill:#4681A0;" d="M146.811,411.089l-20.874-19.298L82.22,435.114c-14.966,14.966-34.658,18.905-49.625,3.545
	c-10.24-10.24-5.514-29.932,9.058-45.292c5.12-5.514,6.302-13.785,1.575-19.692c-5.514-7.089-15.36-7.483-21.662-1.182
	c0,0-10.634,12.997-14.178,21.268c-10.24,23.237-11.422,45.292,6.695,63.803c12.997,12.997,29.932,18.511,47.262,16.935
	c14.572-1.182,27.569-8.271,38.203-18.117C99.55,456.381,146.811,411.089,146.811,411.089z M442.984,91.679
	c-3.151-3.151-7.877-3.545-11.422-0.788l-41.748,32.689c-0.394,0-0.394,0.394,0,0.788l20.48,20.874c0.394,0.394,0.394,0,0.788,0
	l32.295-42.142C446.134,99.556,445.741,94.83,442.984,91.679z"/>
<path style="fill:#DADFE1;" d="M146.811,411.089l-20.874-19.298l170.535-171.717l20.086,20.086
	C316.559,240.159,146.811,411.089,146.811,411.089z"/>
<path style="fill:#C4C8CA;" d="M260.633,256.701l20.086,20.086l27.963-28.751L288.99,227.95L260.633,256.701z"/>
<path style="fill:#E2574C;" d="M413.445,366.978c28.751,28.751,41.748,63.409,30.72,80.345c2.757-2.363,5.908-5.12,8.665-7.877
	c80.345-80.345,65.378-225.674-33.477-324.529S175.168,1.095,94.824,81.439c-2.757,2.757-5.12,5.514-7.877,8.665
	c16.935-11.028,51.594,1.969,80.345,30.72c27.963,27.963,40.566,61.046,31.902,78.769c-1.575,3.545-1.575,7.483,1.182,10.24
	l1.182,1.182c2.757,2.757,6.695,3.151,10.24,1.182c17.723-9.058,50.806,3.938,78.769,31.902
	c27.963,27.963,40.566,61.046,31.902,78.769c-1.575,3.545-1.575,7.483,1.182,10.24l1.182,1.182c2.757,2.757,6.695,3.151,10.24,1.182
	C352.399,326.018,385.876,339.015,413.445,366.978z"/>
<path style="fill:#C74C43;" d="M436.288,396.122c11.815,20.086,15.36,39.778,7.877,51.2c2.757-2.363,5.908-5.12,8.665-7.877
	c78.769-78.769,65.772-220.554-28.357-319.015h-2.363C485.519,208.652,489.458,322.867,436.288,396.122z"/>
<path style="fill:#F2F1EF;" d="M407.538,103.889c-60.258-1.969-136.665,32.689-200.862,96.886l-7.089,7.483l1.182,1.575l1.182,1.182
	c2.757,2.757,6.695,3.151,10.24,1.182c17.723-9.058,50.806,3.938,78.769,31.902s40.566,61.046,31.902,78.769
	c-1.575,3.545-1.575,7.483,1.182,10.24l1.182,1.182c0.394,0.394,0.788,0.788,1.575,1.182l7.483-7.089
	c64.197-64.197,98.855-140.997,96.492-200.862c-3.545-3.938-7.089-7.877-11.028-11.815
	C415.415,111.372,411.476,107.827,407.538,103.889z"/>
<g>
</g>
<g>
</g>
<g>
</g>
<g>
</g>
<g>
</g>
<g>
</g>
<g>
</g>
<g>
</g>
<g>
</g>
<g>
</g>
<g>
</g>
<g>
</g>
<g>
</g>
<g>
</g>
<g>
</g>
</svg>
