<?xml version="1.0" encoding="iso-8859-1"?>
<!-- Generator: Adobe Illustrator 19.0.0, SVG Export Plug-In . SVG Version: 6.00 Build 0)  -->
<svg version="1.1" id="Layer_1" xmlns="http://www.w3.org/2000/svg" xmlns:xlink="http://www.w3.org/1999/xlink" x="0px" y="0px"
	 viewBox="0 0 504.305 504.305" style="enable-background:new 0 0 504.305 504.305;" xml:space="preserve">
<path style="fill:#CC6D41;" d="M139.709,43.504c18.511,0,33.477,14.966,33.477,33.083v39.778c0,18.511-14.966,33.083-33.477,33.083
	s-33.477-14.572-33.477-32.689V76.588C106.232,58.471,121.198,43.504,139.709,43.504z"/>
<path style="fill:#324D5B;" d="M460.694,464.92v15.754c0,12.997-10.634,23.631-23.631,23.631H66.848
	c-12.997,0-23.631-10.634-23.631-23.631V372.366c0-48.837,39.385-88.222,87.828-88.222H373.26c48.443,0,87.828,39.385,87.828,88.222
	C461.088,372.366,460.694,464.92,460.694,464.92z"/>
<path style="fill:#2B424D;" d="M64.091,504.304h10.24V369.215c0.394-42.142,31.114-77.588,71.68-85.071h-14.966
	c-48.443,0-87.828,39.385-87.828,88.222v108.308C43.217,492.883,52.275,502.729,64.091,504.304z"/>
<path style="fill:#5B717C;" d="M200.361,189.228h102.794c43.717,0,78.769,35.446,78.769,78.769s-35.052,78.769-78.375,78.769
	H200.361c-43.323,0-78.375-35.446-78.375-78.769S157.038,189.228,200.361,189.228z"/>
<path style="fill:#E9AD9A;" d="M209.814,23.812h84.677c41.748,0,75.618,33.871,75.618,76.012v151.631
	c0,41.748-33.871,75.618-76.012,75.618h-84.283c-42.142,0-76.012-33.871-76.012-75.618V99.824
	C133.801,57.683,167.672,23.812,209.814,23.812z"/>
<path style="fill:#EFC75E;" d="M359.869,446.015c-1.182,0-2.363-0.394-3.151-1.182l-14.966-11.422l-14.966,11.815
	c-0.788,0.788-1.969,1.182-3.151,1.182s-1.969-0.394-3.151-1.182c-1.969-1.575-2.757-3.938-1.969-6.302l5.908-18.511l-14.966-8.665
	c-1.969-1.575-2.757-3.938-1.969-6.302c0.788-2.363,2.757-3.938,5.12-3.938h18.511L336.632,383c0.788-2.363,2.757-3.938,5.12-3.938
	s4.332,1.575,5.12,3.938l5.514,18.511h18.511c2.363,0,4.332,1.575,5.12,3.938c0.788,2.363,0,4.726-1.969,6.302l-14.966,8.665
	l5.908,18.511c0.788,2.363,0,4.726-1.969,6.302C361.838,445.621,361.051,446.015,359.869,446.015L359.869,446.015z"/>
<path style="fill:#D49F8F;" d="M239.352,250.667c-5.908,0-12.603-2.757-12.603-12.603c0-8.271,25.206-29.538,25.206-38.203v-97.28
	H133.801v148.874c0,41.748,33.871,75.618,76.012,75.618h42.142v-76.406L239.352,250.667L239.352,250.667z"/>
<path style="fill:#828282;" d="M328.755,138.028h-35.446c-5.514,0-9.846,4.332-9.846,9.846s4.332,9.846,9.846,9.846h35.446
	c5.514,0,9.846-4.332,9.846-9.846S334.269,138.028,328.755,138.028z M210.601,138.028h-35.446c-5.514,0-9.846,4.332-9.846,9.846
	s4.332,9.846,9.846,9.846h35.446c5.514,0,9.846-4.332,9.846-9.846S216.115,138.028,210.601,138.028z"/>
<path style="fill:#324D5B;" d="M192.878,177.412c-8.665,0-15.754,7.089-15.754,15.754s7.089,15.754,15.754,15.754
	s15.754-7.089,15.754-15.754S201.543,177.412,192.878,177.412z M311.032,177.412c-8.665,0-15.754,7.089-15.754,15.754
	s7.089,15.754,15.754,15.754s15.754-7.089,15.754-15.754S319.697,177.412,311.032,177.412z"/>
<path style="fill:#E37948;" d="M137.74,26.175c87.434-32.295,260.726-25.6,260.726-25.6c13.391,0,18.905,8.271,18.905,18.905
	c0,55.138-35.84,82.708-50.412,82.708h-235.52c-16.542,0-25.206-14.178-25.206-31.902C106.232,57.683,113.715,35.628,137.74,26.175z
	"/>
<path style="fill:#CC6D41;" d="M378.774,90.766h-235.52c-16.542,0-25.206-14.178-25.206-31.902c0-7.483,2.363-17.723,8.665-26.782
	c-15.36,10.634-20.48,27.569-20.48,38.597c0,17.723,8.665,31.902,25.206,31.902h235.52c7.089,0,19.692-6.695,30.326-20.086
	C390.195,88.009,383.5,90.766,378.774,90.766z"/>
<g>
</g>
<g>
</g>
<g>
</g>
<g>
</g>
<g>
</g>
<g>
</g>
<g>
</g>
<g>
</g>
<g>
</g>
<g>
</g>
<g>
</g>
<g>
</g>
<g>
</g>
<g>
</g>
<g>
</g>
</svg>
