<?xml version="1.0" encoding="iso-8859-1"?>
<!-- Generator: Adobe Illustrator 19.0.0, SVG Export Plug-In . SVG Version: 6.00 Build 0)  -->
<svg version="1.1" id="Layer_1" xmlns="http://www.w3.org/2000/svg" xmlns:xlink="http://www.w3.org/1999/xlink" x="0px" y="0px"
	 viewBox="0 0 512 512" style="enable-background:new 0 0 512 512;" xml:space="preserve">
<circle style="fill:#324A5E;" cx="256" cy="256" r="256"/>
<path style="fill:#2B3B4E;" d="M437.019,437.019c47.199-47.199,72.102-108.244,74.735-170.06L393.23,147.232L188.983,308.758
	l-68.979,57.12l145.913,145.913C328.09,509.397,389.554,484.483,437.019,437.019z"/>
<path style="fill:#E6F3FF;" d="M381.128,369.778H130.874c-9.442,0-17.094-7.654-17.094-17.096V159.318
	c0-9.442,7.654-17.094,17.094-17.094h250.254c9.442,0,17.094,7.654,17.094,17.094v193.365
	C398.222,362.124,390.568,369.778,381.128,369.778z"/>
<path style="fill:#CFDBE6;" d="M381.128,142.222h-124.84v227.556h124.84c9.442,0,17.096-7.654,17.096-17.096V159.318
	C398.222,149.876,390.568,142.222,381.128,142.222z"/>
<path style="fill:#B5F1F4;" d="M398.222,159.318c0-9.442-7.654-17.096-17.096-17.096H130.874c-9.442,0-17.096,7.654-17.096,17.096
	v7.901h284.444V159.318z"/>
<path style="fill:#84DBFF;" d="M398.222,159.318c0-9.442-7.654-17.096-17.096-17.096h-124.84v24.997h141.936V159.318z"/>
<path style="fill:#B5F1F4;" d="M113.778,350.815v1.867c0,9.442,7.654,17.096,17.096,17.096h250.254
	c9.442,0,17.096-7.654,17.096-17.096v-1.867H113.778z"/>
<path style="fill:#84DBFF;" d="M256.288,350.815v18.963h124.84c9.442,0,17.096-7.654,17.096-17.096v-1.867H256.288z"/>
<g>
	<circle style="fill:#00A49A;" cx="136.826" cy="156.444" r="6.034"/>
	<circle style="fill:#00A49A;" cx="161.185" cy="156.444" r="6.034"/>
	<circle style="fill:#00A49A;" cx="185.527" cy="156.444" r="6.034"/>
</g>
<path style="fill:#FC6F58;" d="M356.848,216.49c0-17.613-14.279-31.892-31.892-31.892c-17.613,0-31.892,14.279-31.892,31.892
	c0,12.65,7.365,23.578,18.041,28.734v72.121l12.886,13.505l12.886-13.503l-4.865-13.51l4.865-13.505l-4.865-13.505l4.865-13.505
	V246.07C348.582,241.349,356.848,229.888,356.848,216.49z M324.956,196.194c4.27,0,7.732,3.462,7.732,7.732
	s-3.462,7.732-7.732,7.732c-4.27,0-7.732-3.462-7.732-7.732S320.686,196.194,324.956,196.194z"/>
<g>
	<path style="fill:#2C9984;" d="M256,220.229H142.222c-1.903,0-3.448-1.545-3.448-3.448s1.545-3.448,3.448-3.448H256
		c1.903,0,3.448,1.545,3.448,3.448S257.903,220.229,256,220.229z"/>
	<path style="fill:#2C9984;" d="M227.556,248.673h-85.333c-1.903,0-3.448-1.545-3.448-3.448s1.545-3.448,3.448-3.448h85.333
		c1.903,0,3.448,1.545,3.448,3.448S229.459,248.673,227.556,248.673z"/>
	<path style="fill:#2C9984;" d="M256,277.118H142.222c-1.903,0-3.448-1.545-3.448-3.448s1.545-3.448,3.448-3.448H256
		c1.903,0,3.448,1.545,3.448,3.448S257.903,277.118,256,277.118z"/>
	<path style="fill:#2C9984;" d="M199.111,305.562h-56.889c-1.903,0-3.448-1.545-3.448-3.448s1.545-3.448,3.448-3.448h56.889
		c1.903,0,3.448,1.545,3.448,3.448S201.014,305.562,199.111,305.562z"/>
</g>
<g>
</g>
<g>
</g>
<g>
</g>
<g>
</g>
<g>
</g>
<g>
</g>
<g>
</g>
<g>
</g>
<g>
</g>
<g>
</g>
<g>
</g>
<g>
</g>
<g>
</g>
<g>
</g>
<g>
</g>
</svg>
