<?xml version="1.0" encoding="iso-8859-1"?>
<!-- Generator: Adobe Illustrator 19.0.0, SVG Export Plug-In . SVG Version: 6.00 Build 0)  -->
<svg version="1.1" id="Layer_1" xmlns="http://www.w3.org/2000/svg" xmlns:xlink="http://www.w3.org/1999/xlink" x="0px" y="0px"
	 viewBox="0 0 512 512" style="enable-background:new 0 0 512 512;" xml:space="preserve">
<g>
	<path style="fill:#625143;" d="M87.149,152.511C39.095,152.511,0,191.606,0,239.66s39.095,87.149,87.149,87.149
		s87.149-39.095,87.149-87.149S135.203,152.511,87.149,152.511z"/>
	<path style="fill:#625143;" d="M424.851,152.511c-48.054,0-87.149,39.095-87.149,87.149s39.095,87.149,87.149,87.149
		S512,287.714,512,239.66S472.905,152.511,424.851,152.511z"/>
</g>
<path style="fill:#63684D;" d="M361.128,440.966c-4.275-15.774-11.982-30.136-22.305-42.207
	c-5.709-6.677-12.21-12.655-19.359-17.788c-17.871-12.833-39.785-20.392-63.464-20.392l-43.574,68.939L256,491.302
	c22.614,0,44.522-3.014,65.362-8.631l9.178-33.761L361.128,440.966L361.128,440.966z"/>
<path style="fill:#707F51;" d="M192.536,380.97c-7.149,5.134-13.651,11.112-19.359,17.788
	c-10.322,12.07-18.029,26.432-22.304,42.206c0,0,0,0.001,0,0.002l0,0l31.084,7.943l8.682,33.761c1.154,0.31,2.312,0.611,3.472,0.905
	l0,0c19.795,5.033,40.526,7.726,61.889,7.726V360.579C232.321,360.579,210.407,368.138,192.536,380.97z"/>
<g>
	<path style="fill:#C98A2E;" d="M190.638,457.184l-16.34-17.217l-16.34,4.57v26.848c7.099,3.022,14.37,5.716,21.787,8.083
		c3.179,1.014,6.386,1.966,9.618,2.856c0.425,0.117,0.85,0.231,1.276,0.345V457.184z"/>
	<path style="fill:#C98A2E;" d="M321.541,457.189c0,0-0.18,4.572-0.18,6.879v18.603c0.425-0.114,0.851-0.228,1.276-0.345
		c3.233-0.89,6.439-1.841,9.618-2.856c7.417-2.367,14.688-5.061,21.787-8.083v-1.871v-24.977l-16.34-4.533L321.541,457.189z"/>
</g>
<path style="fill:#63684D;" d="M354.043,444.538c2.381-1.148,4.744-2.338,7.085-3.571c-4.275-15.774-11.982-30.137-22.305-42.208
	c-3.021,5.228-5.685,10.688-7.971,16.34c-5.301,13.109-8.538,27.273-9.307,42.09c8.36-2.52,16.55-5.533,24.543-9.007
	C348.762,447.02,351.414,445.805,354.043,444.538z"/>
<path style="fill:#7C9554;" d="M190.442,457.184c-1.101-21.204-7.24-41.077-17.265-58.426
	c-10.322,12.071-18.029,26.433-22.305,42.208c2.341,1.233,4.704,2.423,7.085,3.571C168.437,449.589,179.289,453.823,190.442,457.184
	z"/>
<path style="fill:#63684D;" d="M283.877,424.857c-3.625-0.06-7.137,0.387-10.47,1.275c-11.422,3.041-23.392,3.041-34.814,0
	c-3.332-0.888-6.843-1.334-10.47-1.275c-20.628,0.34-37.485,18.275-37.485,38.907v0.305v18.603
	c20.839,5.617,42.748,8.631,65.362,8.631s44.522-3.014,65.362-8.631v-18.603v-0.306
	C321.362,443.132,304.505,425.196,283.877,424.857z"/>
<path style="opacity:0.3;fill:#AB5034;enable-background:new    ;" d="M361.128,440.967L361.128,440.967L361.128,440.967z"/>
<path style="fill:#707F51;" d="M299.844,417.736l-3.9-3.9L256,372.562l-14.162,53.379L256,480.409l43.844-43.844
	C305.043,431.365,305.043,422.936,299.844,417.736z"/>
<path style="fill:#7C9554;" d="M216.056,413.837c-0.961,0.989-3.9,3.9-3.9,3.9c-5.2,5.2-5.2,13.63,0,18.83L256,480.409V372.562
	C256,372.562,226.197,403.393,216.056,413.837z"/>
<g>
	<polygon style="fill:#C98A2E;" points="285.957,388.667 256,418.624 226.043,388.667 	"/>
	<path style="fill:#C98A2E;" d="M424.851,191.728c-7.99,0-15.528,1.924-22.194,5.316c-7.953-30.087-23.621-58.775-44.541-81.561
		L113.37,320.495c4.084,16.648,9.465,30.771,16.21,37.294c24.842,24.029,84.116,35.471,126.686,35.471
		s101.313-11.442,126.155-35.471c11.207-10.84,18.658-42.656,22.63-72.196c6.057,2.679,12.752,4.178,19.8,4.178
		c27.074,0,49.021-21.947,49.021-49.021S451.925,191.728,424.851,191.728z"/>
</g>
<path style="fill:#D5A150;" d="M113.37,320.495c29.171,16.03,75.297,23.744,110.215,23.744c42.57,0,101.313-11.442,126.155-35.471
	c17.762-17.18,26.09-87.052,26.09-117.04c0-25.787-6.414-52.115-17.712-76.244C331.083,86.038,295.277,66.451,256,66.451
	c-69.67,0-128.426,61.623-146.657,130.593c-6.666-3.392-14.203-5.316-22.194-5.316c-27.074,0-49.021,21.947-49.021,49.021
	s21.947,49.021,49.021,49.021c7.048,0,13.743-1.499,19.8-4.178C108.532,297.357,110.667,309.477,113.37,320.495z"/>
<circle style="fill:#AD712C;" cx="424.851" cy="240.749" r="16.34"/>
<g>
	<circle style="fill:#C98A2E;" cx="87.149" cy="240.749" r="16.34"/>
	<path style="fill:#C98A2E;" d="M383.917,216.156c-4.182,0-8.364-1.595-11.554-4.787l-43.072-43.072
		c-40.215-40.215-105.75-40.316-146.088-0.225l-43.601,43.333c-6.401,6.363-16.748,6.33-23.109-0.071
		c-6.362-6.401-6.33-16.748,0.071-23.109l43.601-43.333c53.08-52.756,139.315-52.622,192.233,0.296l43.072,43.072
		c6.381,6.381,6.381,16.727,0,23.109C392.281,214.56,388.099,216.156,383.917,216.156z"/>
</g>
<g>
	<path style="fill:#625143;" d="M219.205,186.372c-11.547-3.759-23.767-3.759-35.34,0.001c-4.291,1.394-6.641,6.003-5.245,10.294
		c1.122,3.452,4.325,5.648,7.768,5.648c0.837,0,1.687-0.13,2.526-0.402c8.267-2.685,16.992-2.686,25.233-0.004
		c4.292,1.399,8.902-0.949,10.298-5.24C225.841,192.38,223.496,187.769,219.205,186.372z"/>
	<path style="fill:#625143;" d="M326.809,199.898h-32.681c-4.512,0-8.17,3.658-8.17,8.17c0,4.512,3.658,8.17,8.17,8.17h32.681
		c4.512,0,8.17-3.658,8.17-8.17C334.979,203.556,331.321,199.898,326.809,199.898z"/>
</g>
<g>
	<circle style="fill:#5B5751;" cx="201.532" cy="240.749" r="16.34"/>
	<circle style="fill:#5B5751;" cx="310.468" cy="240.749" r="16.34"/>
</g>
<path style="fill:#8D472E;" d="M272.34,248.919H239.66c-4.512,0-8.17,3.658-8.17,8.17c0,13.516,10.995,24.511,24.511,24.511
	s24.511-10.995,24.511-24.511C280.511,252.577,276.853,248.919,272.34,248.919z"/>
<path style="fill:#625143;" d="M402.658,197.044L402.658,197.044c-0.454-1.718-0.941-3.43-1.444-5.139
	C401.717,193.613,402.203,195.325,402.658,197.044L402.658,197.044z"/>
<path style="fill:#6D5B4D;" d="M387.22,55.992c-22.796-16.007-50.58-27.888-81.433-34.126c-3.83-0.775-7.761-1.168-11.679-1.168
	c-14.508,0-27.875,5.213-38.108,13.714l-43.574,45.474L256,121.669c24.138-0.025,48.279,7.187,68.88,21.654
	c5.607,3.938,10.954,8.408,15.964,13.419l21.88,21.88l13.106,13.106l8.087,8.087c2.666,2.666,6.743,3.315,10.105,1.61l6.164-3.126
	l2.473-1.254l0,0c0.066-0.034,0.133-0.068,0.2-0.101c13.353-6.72,21.992-20.159,21.992-35.108v-9.325v-23.664
	C424.851,99.9,410.91,72.627,387.22,55.992z"/>
<g>
	<path style="fill:#625143;" d="M219.205,186.372c-11.547-3.759-23.767-3.759-35.34,0.001c-4.291,1.394-6.641,6.003-5.245,10.294
		c1.122,3.452,4.325,5.648,7.768,5.648c0.837,0,1.687-0.13,2.526-0.402c8.267-2.685,16.992-2.686,25.233-0.004
		c4.292,1.399,8.902-0.949,10.298-5.24C225.841,192.38,223.496,187.769,219.205,186.372z"/>
	<path style="fill:#625143;" d="M326.809,199.898h-32.681c-4.512,0-8.17,3.658-8.17,8.17c0,4.512,3.658,8.17,8.17,8.17h32.681
		c4.512,0,8.17-3.658,8.17-8.17C334.979,203.556,331.321,199.898,326.809,199.898z"/>
</g>
<path style="fill:#827061;" d="M217.892,20.698c-3.918,0-7.85,0.393-11.679,1.167c-30.854,6.239-58.638,18.12-81.434,34.128
	c-23.69,16.635-37.63,43.908-37.63,72.854v23.664v9.325c0,14.949,8.639,28.388,21.993,35.107c0.066,0.034,0.134,0.068,0.2,0.101l0,0
	l2.475,1.256l6.161,3.125c3.362,1.706,7.439,1.056,10.105-1.61l21.256-21.125l22.345-22.208
	c23.332-23.189,53.821-34.78,84.317-34.813V34.412C245.767,25.91,232.401,20.698,217.892,20.698z"/>
<path style="fill:#625143;" d="M389.991,58.029v64.819c0,13.553-16.405,20.429-25.983,10.84
	c-15.619-15.635-34.065-27.451-54.204-34.983c-17.528-6.555-37.383-4.043-52.19,7.399c-0.546,0.422-1.084,0.853-1.613,1.293
	c-0.54-0.449-1.09-0.889-1.648-1.319c-14.79-11.412-34.617-13.859-52.104-7.287c-19.887,7.473-38.122,19.126-53.601,34.51l0,0
	c-14.225,14.137-36.795,15.343-52.445,2.8l-9.053-7.255v23.664v9.325c0,10.582,4.343,20.393,11.608,27.613
	c0.041,0.041,0.084,0.081,0.125,0.122c0.7,0.69,1.427,1.354,2.18,1.994c0.188,0.161,0.377,0.324,0.569,0.482
	c0.336,0.275,0.674,0.545,1.02,0.809c0.385,0.296,0.778,0.583,1.174,0.866c0.307,0.218,0.613,0.435,0.927,0.645
	c0.532,0.357,1.074,0.703,1.625,1.037c0.207,0.125,0.415,0.248,0.625,0.37c0.7,0.407,1.41,0.802,2.14,1.169
	c0.066,0.034,0.134,0.068,0.2,0.101l0,0l2.475,1.256l6.161,3.125c3.362,1.706,7.439,1.056,10.105-1.61l21.256-21.125l22.345-22.208
	c23.332-23.189,53.821-34.78,84.317-34.813c24.138-0.025,48.279,7.187,68.88,21.654c5.607,3.938,10.954,8.408,15.964,13.419
	l21.88,21.88l13.105,13.105l8.087,8.087c1.651,1.651,3.845,2.525,6.074,2.548l0,0c0.115,0.001,0.23-0.013,0.345-0.016
	c0.292-0.009,0.583-0.027,0.874-0.065c0.15-0.02,0.3-0.048,0.45-0.075c0.273-0.05,0.544-0.114,0.813-0.191
	c0.131-0.037,0.26-0.071,0.39-0.114c0.392-0.132,0.781-0.284,1.159-0.476l6.164-3.126l2.473-1.254l0,0
	c0.066-0.034,0.133-0.068,0.2-0.101c0.73-0.367,1.439-0.761,2.138-1.169c0.21-0.122,0.418-0.246,0.626-0.371
	c0.552-0.334,1.095-0.68,1.626-1.037c0.313-0.209,0.618-0.425,0.924-0.643c0.398-0.283,0.791-0.571,1.177-0.868
	c0.345-0.265,0.684-0.535,1.02-0.809c0.192-0.158,0.378-0.319,0.566-0.48c0.753-0.641,1.48-1.304,2.18-1.994
	c0.042-0.041,0.085-0.082,0.126-0.123c7.265-7.22,11.608-17.032,11.608-27.613v-9.325v-23.664
	C424.851,101.049,411.991,74.802,389.991,58.029z"/>
<g>
</g>
<g>
</g>
<g>
</g>
<g>
</g>
<g>
</g>
<g>
</g>
<g>
</g>
<g>
</g>
<g>
</g>
<g>
</g>
<g>
</g>
<g>
</g>
<g>
</g>
<g>
</g>
<g>
</g>
</svg>
