<?xml version="1.0" encoding="iso-8859-1"?>
<!-- Generator: Adobe Illustrator 19.0.0, SVG Export Plug-In . SVG Version: 6.00 Build 0)  -->
<svg version="1.1" id="Layer_1" xmlns="http://www.w3.org/2000/svg" xmlns:xlink="http://www.w3.org/1999/xlink" x="0px" y="0px"
	 viewBox="0 0 512 512" style="enable-background:new 0 0 512 512;" xml:space="preserve">
<path style="fill:#A0B7CB;" d="M182.326,385.604c-32.8,19.16-57.462,50.721-67.575,88.251
	c40.169,23.474,86.694,37.255,136.374,38.104L256,512l58.514-60.952l-63.39-65.443H182.326z"/>
<path style="fill:#83A1C1;" d="M329.675,385.604H256V512c51.511,0,99.769-13.904,141.25-38.145
	C387.137,436.325,362.474,404.764,329.675,385.604z"/>
<path style="fill:#668BB7;" d="M334.019,500.987c10.113-2.926,19.991-6.409,29.6-10.407c-4.254-21.489-14.782-40.724-29.6-55.709
	V500.987z"/>
<path style="fill:#83A1C1;" d="M148.381,490.58c9.609,4,19.485,7.481,29.6,10.407V434.87
	C163.165,449.857,152.637,469.09,148.381,490.58z"/>
<path style="fill:#668BB7;" d="M319.962,384.978l-19.263-19.263H256l-37.79,60.952L256,499.81l49.063-49.062
	c5.819-5.819,5.819-15.253,0-21.071l-4.364-4.364l19.263-19.263C325.781,400.23,325.781,390.796,319.962,384.978z"/>
<path style="fill:#83A1C1;" d="M211.301,365.714l-19.263,19.263c-5.819,5.819-5.819,15.253,0,21.071l19.263,19.263l-4.364,4.364
	c-5.819,5.819-5.819,15.253,0,21.071L256,499.81V365.714H211.301z"/>
<polygon style="fill:#A0917E;" points="289.524,397.146 256,430.67 222.476,397.146 "/>
<path style="fill:#978574;" d="M444.953,176.762c-8.942,0-27.277-2.69-28.702-6.962c-19.016-56.967-62.419-107.403-116.3-125.808
	c-14.024-4.79-28.754-7.42-43.95-7.42c-73.993,0-136.978,62.114-160.645,134.418v60.629l71.052,145.276
	c26.04,16.096,56.73,25.39,89.593,25.39c77.35,0,142.67-51.463,163.618-122.013c7.58,3.955,16.193,6.204,25.334,6.204
	c30.297,0,54.857-24.56,54.857-54.857S475.25,176.762,444.953,176.762z"/>
<path style="fill:#B0A18D;" d="M390.095,213.333c0-1.808-0.03-3.618-0.088-5.431c-0.113-3.55-1.603-6.919-4.137-9.407l0,0
	l-48.2-48.2c-17.092-17.092-38.677-28.251-62.418-32.272c-0.073-0.012-0.147-0.026-0.221-0.038c-12.84-2.238-25.916-2.238-38.756,0
	c-0.073,0.012-0.146,0.026-0.221,0.038c-23.741,4.02-45.325,15.181-62.418,32.272l-48.198,48.2
	c-0.378,0.378-0.803,0.745-1.268,1.098c-8.26,6.301-20.33,1.991-23.237-7.984c-1.662-5.7-3.611-12.737-5.58-20.62
	c-1.27,3.88-19.365,5.772-28.308,5.772c-1.286,0-2.583,0.045-3.889,0.135c-27.761,1.926-49.907,24.841-50.931,52.651
	c-1.15,31.241,23.835,56.928,54.819,56.928c9.142,0,17.754-2.249,25.334-6.204c12.048,40.576,38.775,74.834,74.025,96.623
	c18.069,4.614,36.047,7.105,53.021,7.105C313.686,384,390.095,307.59,390.095,213.333z"/>
<circle style="fill:#978574;" cx="67.048" cy="231.619" r="18.286"/>
<circle style="fill:#827061;" cx="444.953" cy="231.619" r="18.286"/>
<g>
	<path style="fill:#474641;" d="M256,277.333c-5.049,0-9.143-4.094-9.143-9.143s4.094-9.143,9.143-9.143
		c5.042,0,9.143-4.101,9.143-9.143c0-5.049,4.094-9.143,9.143-9.143c5.049,0,9.143,4.094,9.143,9.143
		C283.429,265.029,271.125,277.333,256,277.333z"/>
	<circle style="fill:#474641;" cx="195.048" cy="231.619" r="18.286"/>
	<circle style="fill:#474641;" cx="316.953" cy="231.619" r="18.286"/>
</g>
<g>
	<path style="fill:#5B5751;" d="M178.101,188.611c-3.855,0-7.439-2.456-8.693-6.321c-1.56-4.802,1.068-9.96,5.87-11.52
		c12.951-4.208,26.626-4.208,39.547-0.001c4.802,1.563,7.426,6.723,5.864,11.524c-1.563,4.802-6.721,7.429-11.524,5.864
		c-9.222-3.003-18.985-3-28.237,0.005C179.988,188.466,179.037,188.611,178.101,188.611z"/>
	<path style="fill:#5B5751;" d="M335.238,204.19h-36.571c-5.049,0-9.143-4.094-9.143-9.143c0-5.049,4.094-9.143,9.143-9.143h36.571
		c5.049,0,9.143,4.094,9.143,9.143C344.381,200.097,340.288,204.19,335.238,204.19z"/>
	<path style="fill:#5B5751;" d="M444.953,176.762C444.953,79.139,360.356,0,256,0S67.048,79.139,67.048,176.762
		c8.942,0,17.376,2.153,24.836,5.949l8.688,4.408v19.736c0,5.007,3.857,9.372,8.861,9.522c5.177,0.156,9.424-3.996,9.424-9.139
		v-12.177c0-9.739,3.884-19.074,10.791-25.939l31.998-31.801c52.401-52.079,137.059-51.948,189.299,0.291l31.487,31.487
		c6.858,6.858,10.712,16.161,10.712,25.86v11.897c0,5.007,3.857,9.372,8.861,9.522c5.177,0.156,9.424-3.996,9.424-9.139v-20.12
		l8.688-4.408C427.576,178.915,436.011,176.762,444.953,176.762z"/>
</g>
<path style="fill:#706B63;" d="M95.149,161.391c1.92,2.425,3.724,4.359,5.007,5.013c3.552,1.802,7.913,0.736,10.172-2.544
	c1.894-2.751,4.045-5.336,6.43-7.707l31.999-31.801c28.737-28.561,66.876-44.29,107.392-44.29c5.609,0,11.17,0.301,16.668,0.896
	c38.164,4.13,75.251-13.898,94.933-46.73C336.451,12.716,297.816,0,256,0C174.579,0,105.189,48.178,78.621,115.721l3.662,17.755
	C84.38,143.643,88.705,153.251,95.149,161.391z"/>
<g>
	<circle style="fill:#5B5751;" cx="185.905" cy="73.143" r="9.143"/>
	<circle style="fill:#5B5751;" cx="148.114" cy="98.133" r="9.143"/>
	<circle style="fill:#5B5751;" cx="109.714" cy="133.486" r="9.143"/>
	<circle style="fill:#5B5751;" cx="148.114" cy="61.562" r="9.143"/>
	<circle style="fill:#5B5751;" cx="233.448" cy="24.99" r="9.143"/>
	<circle style="fill:#5B5751;" cx="282.21" cy="61.562" r="9.143"/>
	<circle style="fill:#5B5751;" cx="306.591" cy="37.181" r="9.143"/>
</g>
<g>
</g>
<g>
</g>
<g>
</g>
<g>
</g>
<g>
</g>
<g>
</g>
<g>
</g>
<g>
</g>
<g>
</g>
<g>
</g>
<g>
</g>
<g>
</g>
<g>
</g>
<g>
</g>
<g>
</g>
</svg>
