<?xml version="1.0" encoding="iso-8859-1"?>
<!-- Generator: Adobe Illustrator 19.0.0, SVG Export Plug-In . SVG Version: 6.00 Build 0)  -->
<svg version="1.1" id="Layer_1" xmlns="http://www.w3.org/2000/svg" xmlns:xlink="http://www.w3.org/1999/xlink" x="0px" y="0px"
	 viewBox="0 0 512 512" style="enable-background:new 0 0 512 512;" xml:space="preserve">
<g>
	<path style="fill:#D5A150;" d="M58.442,229.747l0.475,62.302l0,0c0.005,0.667,0.035,1.328,0.048,1.992
		c0.015,0.603,0.022,1.208,0.043,1.81c1.738,56.053,32.289,104.743,77.27,131.876l0.228-0.001
		c24.395,14.721,53.011,23.099,83.567,22.866l37.454-0.286l195.697-223.573L58.442,229.747z"/>
	<path style="fill:#D5A150;" d="M255.835,228.24l1.695,222.066l37.454-0.286c30.555-0.233,59.04-9.048,83.208-24.139l0.228-0.001
		c44.561-27.817,74.366-76.967,75.249-133.041c0.011-0.602,0.011-1.207,0.016-1.81c0.004-0.665,0.023-1.326,0.019-1.994l0,0
		l-0.475-62.302L255.835,228.24z"/>
</g>
<path style="fill:#706B63;" d="M349.212,406.47c-6.524-7.512-13.938-14.226-22.079-19.978
	c-20.35-14.378-45.231-22.749-72.049-22.544l-53.369,78.962l54.499,69.082c25.611-0.195,50.394-3.797,73.948-10.339
	c0.481-0.133,0.962-0.265,1.441-0.402c3.653-1.035,7.277-2.141,10.868-3.318c6.254-2.049,12.4-4.332,18.454-6.792
	c3.695-1.501,7.364-3.055,10.979-4.708c2.49-1.139,4.963-2.306,7.415-3.514C378.292,453.688,367.109,427.078,349.212,406.47z"/>
<path style="fill:#848075;" d="M255.085,363.947c-26.818,0.205-51.568,8.954-71.696,23.642
	c-8.053,5.875-15.364,12.703-21.772,20.312c-17.579,20.879-28.355,47.655-28.937,76.9c11.924,5.652,24.31,10.482,37.072,14.45
	c3.609,1.121,7.248,2.171,10.917,3.151c0.481,0.128,0.965,0.254,1.447,0.38c23.649,6.181,48.486,9.405,74.097,9.21L255.085,363.947z
	"/>
<path style="opacity:0.3;fill:#5B5751;enable-background:new    ;" d="M287.258,442.669c-4.107-0.037-8.08,0.5-11.845,1.534
	c-12.909,3.543-26.465,3.647-39.426,0.301c-3.781-0.976-7.761-1.452-11.867-1.353c-23.358,0.563-42.294,21.02-42.116,44.385
	l0.002,0.345l0.114,14.9c23.649,6.181,48.486,9.405,74.097,9.21c25.611-0.195,50.396-3.799,73.948-10.339l-0.114-14.9l-0.002-0.347
	C329.867,463.042,310.622,442.875,287.258,442.669z"/>
<path style="fill:#989487;" d="M161.618,407.902c-17.579,20.879-28.355,47.655-28.937,76.9c11.924,5.652,24.31,10.482,37.073,14.45
	c3.609,1.121,7.248,2.171,10.917,3.151c0.481,0.128,0.965,0.254,1.447,0.38l-0.16-21.068
	C181.751,454.772,174.36,429.568,161.618,407.902z"/>
<g>
	<path style="fill:#5B5751;" d="M349.212,406.47c-3.377,5.947-6.346,12.152-8.885,18.574c-6.795,17.182-10.474,35.928-10.325,55.539
		l0.16,21.068c0.481-0.133,0.962-0.265,1.441-0.402c3.653-1.035,7.277-2.142,10.868-3.318c6.254-2.049,12.4-4.33,18.454-6.792
		c3.695-1.501,7.364-3.055,10.979-4.708c2.49-1.139,4.963-2.306,7.415-3.514C378.292,453.688,367.109,427.078,349.212,406.47z"/>
	<path style="fill:#5B5751;" d="M305.654,428.684l-4.417-4.417L256,377.522l-16.039,60.453L256,499.662l49.654-49.654
		C311.543,444.119,311.543,434.572,305.654,428.684z"/>
</g>
<path style="fill:#989487;" d="M210.763,424.267c-1.088,1.12-4.417,4.417-4.417,4.417c-5.889,5.889-5.889,15.436,0,21.325
	L256,499.662v-122.14C256,377.522,222.248,412.439,210.763,424.267z"/>
<path style="fill:#E7E4CD;" d="M256,400.963l-24.076-24.076c-9.327-9.327-25.273-2.722-25.273,10.468v27.215
	c0,13.19,15.947,19.795,25.273,10.468L256,400.963z"/>
<path style="fill:#ADA999;" d="M256,400.963l24.076-24.076c9.327-9.327,25.273-2.722,25.273,10.468v27.215
	c0,13.19-15.947,19.795-25.273,10.468L256,400.963z"/>
<circle style="fill:#D5D2BD;" cx="256" cy="400.963" r="18.506"/>
<path style="fill:#D5A150;" d="M444.448,122.806c-8.693-20.015-25.442-39.508-57.334-47.853c0,0,23.467-24.333-9.558-45.39
	C302.448-18.339,205.93,1.457,155.654,22.892C70.316,59.281,69.706,143.173,69.706,147.031c0,4.428,0,81.209,0,81.209h382.458
	v-67.041C452.164,148.025,449.689,134.912,444.448,122.806z"/>
<path style="fill:#E2C35A;" d="M502.711,226.203c-1.007-28.166-23.452-51.407-51.57-53.347c-10.5-0.724-20.418,1.495-29.046,5.885
	c-0.012,0.006-0.023,0.014-0.036,0.02l-0.016-0.062c-1.092-4.092-4.768-6.993-9.004-7.034c-21.942-0.215-43.79,3.274-64.655,10.271
	c-29.409,9.862-60.147,14.843-91.768,14.843c-31.654,0-62.416-4.988-91.84-14.864c-21.202-7.116-43.408-10.655-65.703-10.355
	c-4.288,0.058-8.004,2.997-9.116,7.138l-0.017,0.063l-0.001,0.007l4.528,139.785c4.625,18.854,10.72,34.849,18.358,42.237
	c28.134,27.214,95.264,40.172,143.476,40.172s114.74-12.958,142.874-40.172c12.693-12.277,21.13-48.309,25.63-81.765
	c6.86,3.034,14.442,4.731,22.424,4.731C478.567,283.758,503.84,257.794,502.711,226.203z"/>
<path style="fill:#EBD37A;" d="M362.163,305.273c13.148-12.717,21.73-50.922,26.098-85.349c0.817-6.439-5.586-11.333-11.619-8.937
	c-38.131,15.139-78.403,22.804-120.025,22.804c-47.1,0-92.467-9.803-134.947-29.147c-1.377,1.645-3.04,3.033-4.903,4.116
	c-2.4-6.403-5.954-12.235-10.402-17.261c-0.106-0.12-0.208-0.242-0.316-0.36c-0.463-0.514-0.939-1.017-1.42-1.513
	c-0.132-0.136-0.263-0.273-0.396-0.408c-0.474-0.479-0.959-0.946-1.448-1.408c-0.153-0.143-0.306-0.286-0.46-0.428
	c-0.487-0.448-0.983-0.887-1.485-1.318c-0.167-0.143-0.336-0.283-0.503-0.423c-0.503-0.421-1.014-0.835-1.532-1.237
	c-0.176-0.137-0.355-0.269-0.533-0.403c-0.526-0.398-1.055-0.791-1.595-1.171c-0.167-0.117-0.336-0.228-0.503-0.343
	c-0.565-0.389-1.133-0.772-1.712-1.14c-0.097-0.062-0.199-0.12-0.297-0.181c-1.369-0.856-2.776-1.659-4.223-2.397l0.001-0.007
	c-0.012-0.006-0.023-0.014-0.036-0.02c-8.628-4.39-18.546-6.609-29.046-5.885c-28.118,1.939-50.562,25.179-51.57,53.347
	c-1.129,31.591,24.144,57.555,55.482,57.555c7.982,0,15.565-1.698,22.424-4.731c1.793,13.323,4.211,27.05,7.272,39.526
	c33.037,18.156,85.276,26.892,124.822,26.892C267.502,345.445,334.029,332.487,362.163,305.273z"/>
<circle style="fill:#E2C35A;" cx="64.771" cy="228.24" r="18.506"/>
<circle style="fill:#D9B43A;" cx="447.229" cy="228.24" r="18.506"/>
<path style="fill:#D5A150;" d="M419.217,168.859C395.775,94.843,331.558,30.843,256,30.843c-75.339,0-139.401,63.63-163.01,137.375
	c-1.117,3.489-2.152,6.997-3.084,10.525c6.776,3.447,12.754,8.234,17.571,14.028c0.012-0.046,0.026-0.093,0.038-0.138
	c1.973-7.025,9.881-10.479,16.463-7.331c40.167,19.213,85.143,29.985,132.639,29.985c47.274,0,92.05-10.673,132.074-29.719
	c6.323-3.009,13.903,0.329,15.796,7.071l0.037,0.132c4.816-5.794,10.795-10.579,17.571-14.028
	C421.219,175.43,420.255,172.136,419.217,168.859z"/>
<path style="fill:#8D472E;" d="M256.112,281.776c-7.415,0.057-14.408-2.778-19.69-7.981c-3.641-3.586-3.685-9.444-0.099-13.086
	c3.585-3.64,9.444-3.684,13.085-0.099c1.761,1.735,4.091,2.68,6.562,2.66c2.471-0.019,4.788-0.999,6.522-2.76
	c3.586-3.641,9.445-3.686,13.085-0.1c3.642,3.586,3.686,9.444,0.101,13.086C270.475,278.778,263.526,281.719,256.112,281.776z"/>
<g>
	<circle style="fill:#5B5751;" cx="194.313" cy="228.24" r="18.506"/>
	<circle style="fill:#5B5751;" cx="317.687" cy="228.24" r="18.506"/>
</g>
<path style="fill:#E1B872;" d="M360.375,81.684c-0.507-0.502-1.028-0.999-1.564-1.492c11.798-18.417,9.086-42.666-1.911-61.913
	c-71.378-33.051-155.475-14.904-201.248,4.61c-47.828,20.397-69.041,55.713-78.448,83.498l3.034,3.773
	c14.714,18.299,34.318,31.791,56.223,40.246c1.179,0.455,2.344,0.957,3.49,1.506c36.568,17.492,75.82,26.361,116.667,26.361
	c28.428,0,56.089-4.298,82.615-12.814C375.196,153.916,387.208,108.269,360.375,81.684z"/>
<g>
</g>
<g>
</g>
<g>
</g>
<g>
</g>
<g>
</g>
<g>
</g>
<g>
</g>
<g>
</g>
<g>
</g>
<g>
</g>
<g>
</g>
<g>
</g>
<g>
</g>
<g>
</g>
<g>
</g>
</svg>
