<?xml version="1.0" encoding="iso-8859-1"?>
<!-- Generator: Adobe Illustrator 19.0.0, SVG Export Plug-In . SVG Version: 6.00 Build 0)  -->
<svg version="1.1" id="Layer_1" xmlns="http://www.w3.org/2000/svg" xmlns:xlink="http://www.w3.org/1999/xlink" x="0px" y="0px"
	 viewBox="0 0 512 512" style="enable-background:new 0 0 512 512;" xml:space="preserve">
<path style="fill:#B0A18D;" d="M371.398,420.595c-26.981-34.085-68.683-55.957-115.532-55.957l-57.665,80.495L255.999,512
	c51.843,0,100.412-13.994,142.16-38.391C392.882,454.019,383.655,436.051,371.398,420.595z"/>
<path style="fill:#C8BDA5;" d="M255.867,389.719v-25.08c-46.847,0-88.286,21.871-115.267,55.957l0,0
	c-12.257,15.455-21.483,33.423-26.761,53.013c40.428,23.625,87.253,37.495,137.253,38.349l4.908,0.042L255.867,389.719z"/>
<path style="fill:#978574;" d="M334.521,500.916c10.178-2.945,20.12-6.45,29.791-10.474c-4.282-21.628-14.877-40.986-29.791-56.068
	V500.916z"/>
<path style="fill:#B0A18D;" d="M147.688,490.442c9.67,4.025,19.611,7.53,29.791,10.474v-66.542
	C162.566,449.456,151.97,468.814,147.688,490.442z"/>
<path style="fill:#978574;" d="M320.374,384.159l-19.388-19.388h-44.987l-38.034,61.345l38.034,73.614l49.379-49.379
	c5.856-5.856,5.856-15.351,0-21.207l-4.392-4.392l19.388-19.388C326.23,399.51,326.23,390.015,320.374,384.159z"/>
<path style="fill:#B0A18D;" d="M211.012,364.771l-19.388,19.388c-5.856,5.856-5.856,15.351,0,21.207l19.388,19.388l-4.392,4.392
	c-5.856,5.856-5.856,15.351,0,21.207l49.378,49.379v-134.96h-44.986V364.771z"/>
<polygon style="fill:#6D5B4D;" points="206.923,383.175 255.999,432.251 305.076,383.175 "/>
<path style="fill:#827061;" d="M446.17,174.601c-9.003,0-17.494,2.169-25.003,5.991c-19.837-75.038-82.26-142.351-157.219-146.835
	l-56.375,355.539c14.761,8.004,31.39,12.284,48.428,12.284c24.944,0,49.019-9.161,67.625-25.775
	c27.984-24.988,68.265-64.473,89.6-101.687c9.197,6.85,20.597,10.906,32.946,10.906c30.492,0,55.211-24.718,55.211-55.211
	C501.382,199.32,476.662,174.601,446.17,174.601z"/>
<path style="fill:#978574;" d="M263.947,33.757c-2.635-0.158-5.283-0.249-7.948-0.249c-78.467,0-144.641,69.404-165.175,147.081
	c-7.506-3.819-15.995-5.987-24.996-5.987c-30.492,0-55.211,24.718-55.211,55.211s24.718,55.211,55.211,55.211
	c12.349,0,23.749-4.056,32.946-10.906c21.335,37.215,61.615,76.699,89.6,101.687c5.898,5.266,12.348,9.777,19.196,13.491
	c24.712-0.158,48.533-9.29,66.977-25.76c39.698-35.447,104.142-100.064,104.142-145.992
	C378.69,142.671,330.779,63.716,263.947,33.757z"/>
<circle style="fill:#6D5B4D;" cx="446.164" cy="229.812" r="18.404"/>
<g>
	<circle style="fill:#827061;" cx="65.829" cy="229.812" r="18.404"/>
	<path style="fill:#827061;" d="M411.202,180.343c-10.144-0.253-20.138,2.48-28.743,7.858l-0.094,0.059
		c-1.854,1.156-3.71,2.205-5.566,3.183c-31.754,16.735-63.328,8.239-79.485,1.579c-1.099-42.936-8.74-66.138-27.477-84.471
		c-19.439-19.016-50.865-27.371-80.062-21.292c-23.489,4.894-54.945,20.515-79.219,65.627
		c-5.395,10.025-11.965,19.374-19.726,27.704l0,0c5.932,3.019,11.246,7.076,15.701,11.933c8.022,8.745,22.522,7.276,27.685-3.41
		c0.175-0.363,0.339-0.73,0.49-1.102c14.99-36.934,36.629-59.312,62.577-64.719c19.925-4.151,37.871,2.819,46.814,11.57
		c10.079,9.862,16.012,23.526,16.517,64.183c0.133,10.7,6.487,20.569,16.185,25.144c11.546,5.446,33.751,13.879,60.502,13.878
		c12.431,0,25.845-1.823,39.628-6.611c4.704-1.634,9.451-3.626,14.216-5.996c1.531-19.63,13.32-36.37,30.021-44.87L411.202,180.343z
		"/>
</g>
<g>
	<path style="fill:#474641;" d="M176.25,248.215h36.807c5.082,0,9.202-4.12,9.202-9.202c0-5.082-4.12-9.202-9.202-9.202
		c0-10.164-8.24-18.404-18.404-18.404s-18.404,8.24-18.404,18.404c-5.082,0-9.202,4.12-9.202,9.202
		C167.049,244.095,171.169,248.215,176.25,248.215z"/>
	<path style="fill:#474641;" d="M298.941,248.215h36.807c5.082,0,9.202-4.12,9.202-9.202c0-5.082-4.12-9.202-9.202-9.202
		c0-10.164-8.24-18.404-18.404-18.404s-18.404,8.24-18.404,18.404c-5.082,0-9.202,4.12-9.202,9.202
		C289.739,244.095,293.859,248.215,298.941,248.215z"/>
	<path style="fill:#474641;" d="M274.403,247.602h-36.807c-5.082,0-9.202,4.12-9.202,9.202c0,5.082,4.12,9.202,9.202,9.202h36.807
		c5.083,0,9.202-4.12,9.202-9.202C283.605,251.722,279.486,247.602,274.403,247.602z"/>
</g>
<g>
	<path style="fill:#989487;" d="M218.482,196.987c-5.416-3.935-10.207-8.723-14.224-14.258c-2.985-4.113-2.07-9.867,2.043-12.852
		c4.113-2.984,9.869-2.071,12.852,2.044c5.732,7.899,13.684,13.674,22.995,16.699c4.833,1.569,7.479,6.761,5.909,11.594
		c-1.57,4.834-6.761,7.478-11.594,5.909C229.944,204.005,223.9,200.924,218.482,196.987z"/>
	<path style="fill:#989487;" d="M293.517,196.987c5.417-3.936,10.208-8.723,14.224-14.259c2.985-4.113,2.07-9.867-2.043-12.852
		c-4.114-2.986-9.872-2.069-12.853,2.044c-5.731,7.898-13.682,13.673-22.993,16.699c-4.828,1.568-7.478,6.76-5.908,11.594
		s6.761,7.479,11.595,5.908C282.056,204.005,288.099,200.923,293.517,196.987z"/>
</g>
<g>
	<path style="fill:#ADA999;" d="M215.862,0.67C130.109,17.904,65.829,89.23,65.829,174.601c9.976,0,19.326,2.66,27.403,7.288
		c8.792,4.811,19.643,10.981,24.422-0.797c38.283-94.32,110.538-86.065,138.346-60.296V33.507
		C255.999,12.341,236.613-3.502,215.862,0.67z"/>
	<path style="fill:#ADA999;" d="M296.136,0.67c-20.751-4.17-40.137,11.673-40.137,32.838v87.288
		c0.328,0.303,0.654,0.606,0.969,0.914c14.697,14.379,21.506,33.434,22.049,77.11c0.047,3.749,2.244,7.128,5.635,8.728
		c15.715,7.414,62.049,24.634,107.447-3.667c5.049-3.147,9.484-7.153,13.521-11.523c10.085-10.916,24.515-17.756,40.548-17.756
		C446.17,89.23,381.89,17.904,296.136,0.67z"/>
</g>
<path style="fill:#989487;" d="M443.904,147.06c-23.968,0.665-46.643,11.798-61.824,30.319
	c-23.304,16.676-47.664,16.203-65.02,12.312c-6.285-1.408-10.834-6.854-11.318-13.276c-2.336-30.997-9.782-55.178-29.468-74.439
	c-2.954-2.891-6.157-5.558-9.565-7.993c-6.641-4.747-10.71-12.297-10.71-20.461V33.507c0-18.753-15.223-33.317-33.126-33.493V0.38
	l-1.009-0.368c-1.977,0.04-3.983,0.252-6.002,0.658c-4.705,0.946-9.342,2.064-13.911,3.329l12.917,12.917
	c5.125,5.125,8.004,12.075,8.004,19.324l0,0c0,20.295-14.275,37.828-34.168,41.85c-0.269,0.054-0.537,0.109-0.806,0.166
	c-19.756,4.116-37.864,13.706-53.824,28.502c-6.234,5.779-12.075,12.318-17.507,19.588c-10.694,14.314-27.926,21.903-45.761,20.832
	c-0.902-0.054-1.806-0.093-2.71-0.119c-1.492,8.977-2.267,18.177-2.267,27.545c9.976,0,19.326,2.66,27.403,7.288
	c8.792,4.811,19.643,10.981,24.422-0.797c38.733-95.429,112.25-85.859,139.315-59.382c14.697,14.379,21.506,33.434,22.049,77.11
	c0.047,3.749,2.244,7.128,5.635,8.728c15.715,7.414,62.05,24.634,107.448-3.667c5.049-3.147,9.484-7.153,13.52-11.523
	c10.085-10.916,24.515-17.756,40.548-17.756C446.17,165.233,445.396,156.036,443.904,147.06z"/>
<g>
</g>
<g>
</g>
<g>
</g>
<g>
</g>
<g>
</g>
<g>
</g>
<g>
</g>
<g>
</g>
<g>
</g>
<g>
</g>
<g>
</g>
<g>
</g>
<g>
</g>
<g>
</g>
<g>
</g>
</svg>
