<?xml version="1.0" encoding="iso-8859-1"?>
<!-- Generator: Adobe Illustrator 19.0.0, SVG Export Plug-In . SVG Version: 6.00 Build 0)  -->
<svg version="1.1" id="Layer_1" xmlns="http://www.w3.org/2000/svg" xmlns:xlink="http://www.w3.org/1999/xlink" x="0px" y="0px"
	 viewBox="0 0 512.001 512.001" style="enable-background:new 0 0 512.001 512.001;" xml:space="preserve">
<path style="fill:#848075;" d="M348.105,407.732c-6.446-7.423-13.772-14.057-21.816-19.74
	c-20.108-14.207-44.693-22.478-71.192-22.276c-0.318,0.002-0.634,0.022-0.952,0.026l-60.953,73.73l60.953,72.526
	c0.69,0,1.378,0.006,2.068,0.001c25.307-0.193,49.796-3.752,73.068-10.216c0.475-0.132,0.951-0.262,1.424-0.397
	c3.61-1.023,7.19-2.115,10.739-3.278c6.179-2.025,12.253-4.28,18.235-6.711c3.651-1.484,7.277-3.018,10.848-4.652
	c2.46-1.125,4.904-2.278,7.327-3.472C376.838,454.388,365.787,428.094,348.105,407.732z"/>
<path style="fill:#989487;" d="M184.253,389.078c-7.957,5.805-15.181,12.551-21.513,20.071
	c-17.37,20.63-28.018,47.089-28.593,75.985c11.782,5.585,24.02,10.357,36.632,14.278c3.566,1.108,7.162,2.146,10.787,3.113
	c0.475,0.127,0.953,0.251,1.43,0.375c22.731,5.94,46.573,9.108,71.147,9.099V365.744
	C228.014,366.145,203.903,374.741,184.253,389.078z"/>
<path style="fill:#ADA999;" d="M162.74,409.146c-17.37,20.63-28.018,47.089-28.593,75.985c11.782,5.585,24.02,10.357,36.632,14.278
	c3.566,1.108,7.162,2.146,10.787,3.113c0.475,0.127,0.953,0.251,1.43,0.375l-0.158-20.818
	C182.635,455.46,175.331,430.556,162.74,409.146z"/>
<path style="fill:#706B63;" d="M348.105,407.732c-3.337,5.876-6.271,12.008-8.78,18.353c-6.715,16.978-10.35,35.5-10.202,54.879
	l0.158,20.818c0.475-0.132,0.951-0.262,1.424-0.397c3.61-1.023,7.19-2.116,10.739-3.278c6.179-2.025,12.253-4.279,18.235-6.711
	c3.651-1.484,7.277-3.018,10.848-4.652c2.46-1.125,4.904-2.278,7.327-3.472C376.838,454.388,365.787,428.094,348.105,407.732z"/>
<path style="opacity:0.3;fill:#5B5751;enable-background:new    ;" d="M329.168,487.059l-0.002-0.343
	c-0.176-23.087-19.193-43.012-42.28-43.217c-4.058-0.035-7.984,0.494-11.704,1.515c-6.89,1.891-13.967,2.782-21.037,2.688
	c-6.019-0.079-12.032-0.87-17.921-2.391c-3.736-0.964-7.669-1.435-11.726-1.337c-23.081,0.556-41.791,20.77-41.615,43.857
	l0.002,0.343l0.112,14.723c22.731,5.94,46.573,9.108,71.147,9.099c0.69,0,1.378,0.006,2.068,0.001
	c25.307-0.193,49.796-3.752,73.068-10.216L329.168,487.059z"/>
<path style="fill:#706B63;" d="M318.107,384.982l-19.264-19.264h-44.699l-37.791,60.953l37.791,73.144l49.062-49.062
	c5.819-5.819,5.819-15.253,0-21.072l-4.364-4.364l19.264-19.264C323.926,400.235,323.926,390.801,318.107,384.982z"/>
<path style="fill:#848075;" d="M209.446,365.719l-19.264,19.264c-5.819,5.819-5.819,15.253,0,21.072l19.264,19.264l-4.364,4.364
	c-5.819,5.819-5.819,15.253,0,21.072l49.062,49.062V365.719H209.446z"/>
<polygon style="fill:#CE9276;" points="205.382,390.37 254.009,438.862 302.907,390.1 "/>
<path style="fill:#706B63;" d="M444.956,231.622L444.956,231.622H67.046l0,0c0,34.02-6.223,67.592-18.207,99.105
	c-9.081,23.88,8.674,49.441,34.223,49.441H428.94c25.549,0,43.304-25.561,34.223-49.441
	C451.179,299.214,444.956,265.642,444.956,231.622z"/>
<path style="fill:#DFB296;" d="M444.956,176.764c-8.945,0-17.383,2.155-24.843,5.953c-19.71-74.558-81.734-141.44-156.214-145.896
	l-56.015,353.266c14.665,7.951,31.189,12.204,48.118,12.204c24.785,0,48.705-9.103,67.192-25.61
	c27.806-24.829,67.829-64.061,89.027-101.037c9.138,6.806,20.466,10.836,32.735,10.836c30.297,0,54.858-24.56,54.858-54.858
	S475.252,176.764,444.956,176.764z"/>
<path style="fill:#E8C6B3;" d="M263.897,36.819c-2.619-0.157-5.249-0.247-7.897-0.247c-77.964,0-143.716,68.96-164.119,146.141
	c-7.458-3.795-15.893-5.949-24.836-5.949c-30.297,0-54.858,24.56-54.858,54.858s24.56,54.858,54.858,54.858
	c12.27,0,23.597-4.03,32.735-10.836c21.198,36.977,61.221,76.208,89.027,101.037c5.86,5.232,12.269,9.715,19.073,13.405
	c24.554-0.157,48.222-9.231,66.549-25.595c39.444-35.22,103.476-99.424,103.476-145.059
	C377.907,145.037,330.302,66.586,263.897,36.819z"/>
<g>
	<path style="fill:#DFB296;" d="M168.228,265.146h-12.191c-5.051,0-9.143-4.094-9.143-9.143c0-5.049,4.092-9.143,9.143-9.143h12.191
		c5.051,0,9.143,4.094,9.143,9.143C177.371,261.052,173.278,265.146,168.228,265.146z"/>
	<path style="fill:#DFB296;" d="M355.964,265.146h-12.191c-5.051,0-9.143-4.094-9.143-9.143c0-5.049,4.092-9.143,9.143-9.143h12.191
		c5.051,0,9.143,4.094,9.143,9.143C365.107,261.052,361.013,265.146,355.964,265.146z"/>
</g>
<circle style="fill:#CE9276;" cx="444.958" cy="231.622" r="18.286"/>
<g>
	<circle style="fill:#DFB296;" cx="67.046" cy="231.622" r="18.286"/>
	<path style="fill:#DFB296;" d="M393.312,179.825l-0.474,0.475c-20.981,21.304-48.481,33.037-77.432,33.037h-4.548
		c-55.934,0-103.837-39.861-113.904-94.78l-5.147-28.082l-23.356,16.421c-40.596,28.539-64.832,75.167-64.832,124.726v50.413
		c9.901,15.828,22.888,31.891,36.572,46.905v-97.318c0-24.398,7.733-47.865,21.57-67.268c3.229-4.528,10.08-4.018,12.55,0.964
		c25.166,50.762,77.451,84.589,136.548,84.589h4.548c38.826,0,75.578-15.608,103.468-43.924l0.222-0.222
		c1.575-1.575,3.272-2.979,5.063-4.224L393.312,179.825z"/>
</g>
<g>
	<path style="fill:#5B5751;" d="M335.24,231.622c5.049,0,9.143-4.094,9.143-9.143c0-5.049-4.094-9.143-9.143-9.143h-36.572
		c-5.049,0-9.143,4.094-9.143,9.143c0,5.049,4.094,9.143,9.143,9.143c-5.049,0-9.143,4.094-9.143,9.143
		c0,5.049,4.094,9.143,9.143,9.143h36.572c5.049,0,9.143-4.094,9.143-9.143C344.383,235.715,340.289,231.622,335.24,231.622z"/>
	<path style="fill:#5B5751;" d="M222.477,222.479c0-5.049-4.094-9.143-9.143-9.143h-36.572c-5.049,0-9.143,4.094-9.143,9.143
		c0,5.049,4.094,9.143,9.143,9.143c-5.049,0-9.143,4.094-9.143,9.143c0,5.049,4.094,9.143,9.143,9.143h36.572
		c5.049,0,9.143-4.094,9.143-9.143c0-5.049-4.094-9.143-9.143-9.143C218.383,231.622,222.477,227.528,222.477,222.479z"/>
</g>
<path style="fill:#BD7155;" d="M256.111,284.521c-7.327,0.056-14.236-2.745-19.456-7.886c-3.597-3.544-3.641-9.332-0.098-12.931
	c3.543-3.596,9.332-3.64,12.929-0.098c1.74,1.714,4.042,2.648,6.484,2.628c2.442-0.018,4.731-0.987,6.444-2.727
	c3.544-3.597,9.333-3.643,12.929-0.099c3.599,3.544,3.643,9.332,0.1,12.931C270.303,281.558,263.437,284.464,256.111,284.521z"/>
<g>
	<path style="fill:#706B63;" d="M213.334,176.764h-36.572c-5.049,0-9.143,4.094-9.143,9.143c0,5.049,4.094,9.143,9.143,9.143h36.572
		c5.049,0,9.143-4.094,9.143-9.143C222.477,180.858,218.383,176.764,213.334,176.764z"/>
	<path style="fill:#706B63;" d="M256.001,0C151.644,0,67.046,79.14,67.046,176.764c5.511,0,10.829,0.822,15.848,2.334v140.296h39.01
		v-87.772c0-45.389,22.555-85.507,57.066-109.769c11.445,62.444,66.137,109.769,131.889,109.769h4.55
		c34.133,0,66.51-14.173,90.46-38.492c0.099-0.1,0.197-0.2,0.296-0.299c9.927-9.927,23.641-16.067,38.791-16.067
		C444.956,79.14,360.358,0,256.001,0z"/>
</g>
<path style="fill:#848075;" d="M355.207,26.298C326.374,9.623,292.389,0,256.001,0C173.363,0,103.128,49.63,77.467,118.762
	c14.589,14.476,38.213,13.619,51.992-1.63c8.364-9.256,17.795-17.654,28.187-24.993c21.724-15.339,52.081-2.957,57.296,23.12v0.001
	c0.177,0.963,0.367,1.921,0.571,2.873c13.082,61.057,89.204,82.923,133.852,39.271l52.47-51.298
	C401.381,74.488,385.034,43.545,355.207,26.298z"/>
<g>
</g>
<g>
</g>
<g>
</g>
<g>
</g>
<g>
</g>
<g>
</g>
<g>
</g>
<g>
</g>
<g>
</g>
<g>
</g>
<g>
</g>
<g>
</g>
<g>
</g>
<g>
</g>
<g>
</g>
</svg>
