<?xml version="1.0" encoding="iso-8859-1"?>
<!-- Generator: Adobe Illustrator 19.0.0, SVG Export Plug-In . SVG Version: 6.00 Build 0)  -->
<svg version="1.1" id="Layer_1" xmlns="http://www.w3.org/2000/svg" xmlns:xlink="http://www.w3.org/1999/xlink" x="0px" y="0px"
	 viewBox="0 0 512.001 512.001" style="enable-background:new 0 0 512.001 512.001;" xml:space="preserve">
<path style="fill:#EFE388;" d="M256.001,385.557h-73.702c-21.208,12.389-39.016,29.961-51.69,50.978l17.821,54.083
	c33.127,13.774,69.459,21.384,107.573,21.384l60.975-65.853L256.001,385.557z"/>
<g>
	<polygon style="fill:#6A9093;" points="176.216,389.313 176.216,389.313 176.219,389.312 	"/>
	<path style="fill:#6A9093;" d="M176.219,389.312c1.994-1.299,4.021-2.551,6.08-3.755
		C180.239,386.759,178.212,388.012,176.219,389.312z"/>
</g>
<path style="fill:#DFCE4E;" d="M364.41,413.726c-8.44-9.306-18.056-17.527-28.624-24.413c-0.001,0-0.001-0.001-0.002-0.001
	c-1.994-1.299-4.021-2.551-6.08-3.755H182.299c-2.06,1.204-4.087,2.455-6.08,3.755c-0.001,0-0.001,0.001-0.002,0.001
	c-9.569,6.237-18.357,13.568-26.201,21.807c23.233,8.51,49.717,14.015,74.957,16.733c16.776,1.806,30.205,15.4,30.989,32.255
	c0.027,0.579,0.04,1.162,0.04,1.746V512c38.101,0,74.424-7.605,107.542-21.371l17.844-54.095
	C376.466,428.38,370.774,420.742,364.41,413.726z"/>
<path style="fill:#C9AD80;" d="M162.689,463.516c-9.327-10.451-20.127-19.554-32.082-26.982
	c-6.977,11.535-12.415,24.106-16.007,37.436c10.777,6.298,22.197,11.805,33.828,16.646L162.689,463.516z"/>
<path style="fill:#B69362;" d="M352.447,459.909c5.152,9.507,8.93,19.783,11.096,30.721c0.7-0.291,1.42-0.511,2.117-0.807
	c10.884-4.635,21.419-9.933,31.547-15.851c-3.593-13.33-8.844-25.901-15.821-37.436C370.83,443.094,360.985,450.961,352.447,459.909
	z"/>
<path style="fill:#BFA93D;" d="M334.049,435.033v65.95c10.106-2.923,19.976-6.402,29.577-10.398
	C359.347,469.16,348.831,449.984,334.049,435.033z"/>
<path style="fill:#E7D96B;" d="M148.376,490.585c9.601,3.995,19.471,7.473,29.577,10.398v-65.95
	C163.171,449.984,152.655,469.16,148.376,490.585z"/>
<g>
	<circle style="fill:#B69362;" cx="256" cy="396.34" r="36.585"/>
	<path style="fill:#B69362;" d="M445.025,174.389c-8.945,0-17.383,2.154-24.845,5.951c-8.904-33.682-26.443-65.797-49.862-91.304
		l-212.567-3.29l-66.473,94.421l5.052,138.374c4.572,18.637,10.596,34.447,18.146,41.75c27.811,26.899,94.167,39.707,141.822,39.707
		s113.417-12.808,141.226-39.708c12.546-12.135,20.886-47.752,25.334-80.822c6.78,2.999,14.276,4.677,22.166,4.677
		c30.308,0,54.878-24.569,54.878-54.878S475.333,174.389,445.025,174.389z"/>
</g>
<path style="fill:#C9AD80;" d="M372.865,185.211c-15.155-15.018-35.472-35.262-35.472-35.262c-4.679-4.605-12.129-5.433-18.122-2.02
	c-19.195,10.928-41.074,16.704-63.27,16.704s-44.075-5.776-63.268-16.704c-5.998-3.416-13.447-2.584-18.117,2.013l-0.645,0.639
	l-48.234,48.233c-0.032,0.032-0.063,0.063-0.095,0.095c-4.434,4.372-11.728,3.701-15.588-1.185
	c-6.373-8.069-14.963-14.305-24.856-17.787h-0.001c-1.068-0.376-2.154-0.716-3.251-1.027c-0.13-0.037-0.26-0.074-0.391-0.111
	c-2.211-0.607-4.474-1.084-6.788-1.412c-0.259-0.037-0.52-0.066-0.779-0.099c-0.915-0.12-1.833-0.207-2.752-0.28
	c-0.274-0.022-0.549-0.045-0.826-0.062c-1.137-0.071-2.279-0.118-3.433-0.118l0,0c-0.75,0-1.502,0.015-2.26,0.045
	c-27.543,1.112-50.288,22.919-52.444,50.4c-2.534,32.308,22.932,59.311,54.705,59.311c7.89,0,15.385-1.678,22.166-4.677
	c1.771,13.169,4.162,26.738,7.188,39.071c32.656,17.946,84.292,26.582,123.382,26.582c47.656,0,113.417-12.808,141.226-39.708
	c12.777-12.358,21.193-49.069,25.577-82.641C388.441,210.469,383.424,195.676,372.865,185.211z"/>
<path style="opacity:0.2;fill:#516F7F;enable-background:new    ;" d="M422.859,279.471c-19.265-8.516-32.712-27.779-32.712-50.197
	l0,0v-0.006c0.172-3.274-1.496-6.449-4.412-7.949c-6.95-3.576-13.88,1.377-13.88,7.949c0,0.002,0,0.004,0,0.006l0,0
	c0,20.208-16.383,36.579-36.591,36.579h-15.244c-10.1,0-18.286,8.188-18.286,18.286l0,0c0,15.154-12.285,27.439-27.439,27.439
	h-36.597c-15.147,0-27.427-12.279-27.427-27.427v-0.012c0-10.1-8.187-18.286-18.286-18.286h-15.244
	c-20.208,0-36.591-16.371-36.591-36.579l0,0v-0.006c0.172-3.274-1.496-6.449-4.412-7.949c-6.95-3.576-13.88,1.377-13.88,7.949
	c0,0.002,0,0.004,0,0.006l0,0c0,22.418-13.447,41.682-32.712,50.197c1.772,13.168,4.162,26.736,7.188,39.069
	c4.572,18.637,10.596,34.447,18.146,41.75c27.81,26.9,94.165,39.708,141.821,39.708s113.417-12.808,141.226-39.708
	C410.071,348.154,418.41,312.539,422.859,279.471z"/>
<circle style="fill:#A57D48;" cx="443.804" cy="228.048" r="18.293"/>
<circle style="fill:#B69362;" cx="66.978" cy="231.706" r="18.293"/>
<path style="fill:#46565E;" d="M440.883,139.853C428.014,83.265,386.205,36.697,330.641,14.332L97.046,81.096
	c-12.18,17.662-21.089,37.485-25.923,58.718c-3.945,17.328,4.622,34.867,20.494,42.862c0.074,0.038,0.15,0.076,0.224,0.113
	l9.646,4.894c3.763,1.91,8.328,1.182,11.312-1.802c0,0,36.163-36.163,48.218-48.218c0.254-0.254,0.507-0.505,0.762-0.756
	c10.665-10.498,26.997-12.279,40.002-4.876c15.993,9.107,34.496,14.31,54.217,14.31s38.224-5.202,54.217-14.308
	c13.005-7.404,29.336-5.622,40.002,4.876c0.255,0.251,0.509,0.502,0.762,0.756c12.055,12.055,48.218,48.218,48.218,48.218
	c2.984,2.984,7.549,3.711,11.312,1.802l9.668-4.904c0.074-0.038,0.149-0.076,0.224-0.113
	C436.262,174.686,444.82,157.165,440.883,139.853z"/>
<path style="fill:#516F7F;" d="M96.886,96.231c-0.249,23.746,27.633,36.684,45.605,21.161l0,0
	c19.227-18.927,49.174-22.693,72.866-9.204c12.311,7.009,26.365,10.713,40.641,10.713s28.423-3.546,40.64-10.713
	c2.867-1.682,7.279-4.277,12.506-7.356c30.125-17.741,39.8-56.751,21.495-86.502C307.741,5.113,282.509,0,255.999,0
	C189.314,0,130.694,32.305,97.046,81.096L96.886,96.231z"/>
<g>
	<path style="fill:#474641;" d="M176.733,249.999h36.585c5.051,0,9.146-4.095,9.146-9.146s-4.095-9.146-9.146-9.146
		c0-10.102-8.19-18.293-18.293-18.293s-18.293,8.19-18.293,18.293c-5.051,0-9.146,4.095-9.146,9.146
		S171.682,249.999,176.733,249.999z"/>
	<path style="fill:#474641;" d="M298.684,249.999h36.585c5.051,0,9.146-4.095,9.146-9.146s-4.095-9.146-9.146-9.146
		c0-10.102-8.19-18.293-18.293-18.293s-18.293,8.19-18.293,18.293c-5.051,0-9.146,4.095-9.146,9.146
		S293.633,249.999,298.684,249.999z"/>
</g>
<g>
	<path style="fill:#516F7F;" d="M316.961,188.691c-6.655,0-13.305-1.051-19.768-3.156c-4.802-1.563-7.429-6.726-5.866-11.528
		c1.565-4.805,6.727-7.43,11.529-5.866c9.223,3.004,18.991,3.001,28.246-0.005c4.798-1.561,9.965,1.067,11.524,5.872
		c1.561,4.804-1.068,9.963-5.872,11.524C330.278,187.638,323.617,188.691,316.961,188.691z"/>
	<path style="fill:#516F7F;" d="M195.01,188.691c-6.655,0-13.305-1.051-19.768-3.156c-4.802-1.563-7.429-6.726-5.866-11.528
		c1.565-4.805,6.733-7.43,11.529-5.866c9.223,3.004,18.991,3.001,28.246-0.005c4.799-1.561,9.965,1.067,11.524,5.872
		c1.561,4.804-1.068,9.963-5.872,11.524C208.327,187.638,201.666,188.691,195.01,188.691z"/>
</g>
<g>
	<circle style="fill:#46565E;" cx="186.695" cy="73.17" r="9.146"/>
	<circle style="fill:#46565E;" cx="119.622" cy="85.365" r="9.146"/>
	<circle style="fill:#46565E;" cx="234.256" cy="73.17" r="9.146"/>
	<circle style="fill:#46565E;" cx="258.646" cy="98.78" r="9.146"/>
	<circle style="fill:#46565E;" cx="148.891" cy="98.17" r="9.146"/>
	<circle style="fill:#46565E;" cx="148.891" cy="61.585" r="9.146"/>
	<circle style="fill:#46565E;" cx="234.256" cy="25" r="9.146"/>
	<circle style="fill:#46565E;" cx="283.036" cy="61.585" r="9.146"/>
	<circle style="fill:#46565E;" cx="319.621" cy="37.195" r="9.146"/>
</g>
<path style="fill:#474641;" d="M236.599,263.654c-3.572,3.572-3.572,9.363,0,12.934c3.572,3.572,9.363,3.572,12.934,0
	c1.728-1.728,4.024-2.679,6.467-2.679s4.74,0.951,6.467,2.679c1.785,1.785,4.127,2.679,6.467,2.679c2.34,0,4.682-0.893,6.467-2.679
	c3.572-3.572,3.572-9.363,0-12.934C264.705,252.955,247.297,252.955,236.599,263.654z"/>
<g>
</g>
<g>
</g>
<g>
</g>
<g>
</g>
<g>
</g>
<g>
</g>
<g>
</g>
<g>
</g>
<g>
</g>
<g>
</g>
<g>
</g>
<g>
</g>
<g>
</g>
<g>
</g>
<g>
</g>
</svg>
