<?xml version="1.0" encoding="iso-8859-1"?>
<!-- Generator: Adobe Illustrator 19.0.0, SVG Export Plug-In . SVG Version: 6.00 Build 0)  -->
<svg version="1.1" id="Layer_1" xmlns="http://www.w3.org/2000/svg" xmlns:xlink="http://www.w3.org/1999/xlink" x="0px" y="0px"
	 viewBox="0 0 512 512" style="enable-background:new 0 0 512 512;" xml:space="preserve">
<path style="fill:#E8E4CD;" d="M323.119,401.489l-144.477-28.604c-2.021,1.181-4.012,2.41-5.972,3.68
	c-8.202,5.308-15.862,11.379-22.888,18.108l24.298,99.364C200.086,501.56,227.57,505.6,256,505.6c21.98,0,43.396-2.411,64-6.982
	c6.047-1.341,12.02-2.874,17.92-4.581c8.512-2.463,16.863-5.3,25.038-8.493c2.025-0.79,4.038-1.603,6.04-2.436
	c0.735-0.306,1.469-0.612,2.2-0.924c11.424-4.865,22.482-10.426,33.112-16.637L323.119,401.489z"/>
<path style="fill:#C1BDAB;" d="M393.59,437.274c-10.591-21.286-25.974-39.768-44.739-54.031c-2.985-2.268-6.056-4.43-9.206-6.479
	c-2.062-1.341-4.157-2.635-6.286-3.878H178.642c-2.129,1.243-4.224,2.537-6.286,3.878C191.223,402.487,221.654,419.2,256,419.2
	c16.879,0,32.812-4.04,46.894-11.197c5.033-2.557,11.068-2.118,15.8,0.96c0.097,0.063,0.195,0.127,0.292,0.191
	c11.812,7.734,18.934,20.899,18.934,35.017v49.867c10.619-3.072,20.989-6.729,31.078-10.927l0,0l0,0
	c4.554-1.896,9.052-3.901,13.487-6.015c0.028-0.014,0.058-0.027,0.086-0.04c1.394-0.664,2.78-1.341,4.161-2.026
	c0.105-0.052,0.211-0.102,0.316-0.155c1.297-0.645,2.586-1.303,3.871-1.966c0.182-0.093,0.365-0.184,0.547-0.279
	c1.201-0.622,2.392-1.257,3.583-1.896c0.257-0.138,0.516-0.273,0.773-0.411c1.135-0.613,2.263-1.24,3.391-1.868
	c0.297-0.166,0.598-0.328,0.895-0.494c1.38-0.776,2.752-1.563,4.118-2.36c0.028-0.017,0.058-0.033,0.087-0.05
	C401.658,455.695,398.048,446.236,393.59,437.274z"/>
<path style="fill:#DFB296;" d="M149.782,394.673c-19.914,19.076-34.706,43.455-42.094,70.875
	c11.311,6.61,23.107,12.481,35.314,17.562l31.078-58.496C167.252,413.629,159.075,403.574,149.782,394.673z"/>
<path style="fill:#D5D2BD;" d="M143,483.109c10.089,4.2,20.46,7.855,31.08,10.927v-69.423
	C158.523,440.349,147.469,460.544,143,483.109z"/>
<g>
	<path style="fill:#CE9276;" d="M371.2,404.028c-2.862-3.244-5.859-6.364-8.982-9.356c-9.293,8.901-17.471,18.957-24.298,29.94
		c15.558,15.736,26.611,35.931,31.08,58.495c0.735-0.306,1.469-0.612,2.2-0.924c11.424-4.865,22.482-10.426,33.112-16.637
		C398.083,442.427,386.588,421.469,371.2,404.028z"/>
	<path style="fill:#CE9276;" d="M454.4,153.6c-9.389,0-18.245,2.26-26.077,6.246C411.076,94.604,362.963,34.967,302.148,14.193
		L161.929,363.74C189.27,380.641,221.494,390.4,256,390.4c81.217,0,149.803-54.036,171.799-128.114
		c7.959,4.152,17.002,6.514,26.601,6.514c31.812,0,57.6-25.788,57.6-57.6S486.212,153.6,454.4,153.6z"/>
</g>
<path style="fill:#DFB296;" d="M396.8,192c0-68.392-38.318-140.051-94.652-177.809C287.423,9.162,271.956,6.4,256,6.4
	c-81.862,0-150.9,72.407-172.323,153.446C75.845,155.86,66.989,153.6,57.6,153.6C25.788,153.6,0,179.388,0,211.2
	s25.788,57.6,57.6,57.6c9.599,0,18.642-2.362,26.601-6.514c12.65,42.605,40.714,78.575,77.727,101.454
	c18.972,4.845,37.85,7.46,55.672,7.46C316.57,371.2,396.8,290.97,396.8,192z"/>
<path style="opacity:0.2;fill:#5B341A;enable-background:new    ;" d="M93.824,164.993c3.95,2.004,8.741,1.24,11.873-1.892
	c0,0,37.957-37.957,50.61-50.61c0.266-0.266,0.532-0.53,0.8-0.794c11.194-11.018,28.337-12.888,41.987-5.117
	C215.88,116.14,235.301,121.6,256,121.6s40.12-5.46,56.906-15.018c13.65-7.771,30.792-5.901,41.987,5.117
	c0.268,0.264,0.534,0.527,0.799,0.794c12.653,12.653,50.61,50.61,50.61,50.61c3.132,3.132,7.923,3.895,11.873,1.892l10.148-5.147
	l0,0C406.9,78.807,337.862,6.4,256,6.4S105.1,78.807,83.677,159.846c-1.05-0.534-2.12-1.032-3.205-1.501
	c1.093,0.474,2.171,0.975,3.227,1.513L93.824,164.993z"/>
<g>
	<path style="fill:#915729;" d="M238.596,186.952c-2.97,0-5.9-1.375-7.777-3.963c-5.889-8.115-14.41-14.304-23.997-17.425
		c-5.041-1.641-7.798-7.059-6.157-12.1c1.641-5.043,7.064-7.798,12.101-6.157c13.606,4.43,25.222,12.869,33.592,24.406
		c3.114,4.292,2.159,10.294-2.132,13.408C242.523,186.356,240.55,186.952,238.596,186.952z"/>
	<path style="fill:#915729;" d="M273.407,186.954c-1.955,0-3.927-0.595-5.631-1.832c-4.292-3.114-5.245-9.117-2.131-13.408
		c8.381-11.548,19.999-19.988,33.596-24.406c5.037-1.638,10.458,1.12,12.096,6.163c1.638,5.042-1.121,10.459-6.163,12.097
		c-9.713,3.156-18.007,9.181-23.988,17.423C279.306,185.58,276.378,186.954,273.407,186.954z"/>
</g>
<g style="opacity:0.2;">
	<circle style="fill:#47423F;" cx="252.8" cy="35.2" r="9.6"/>
	<circle style="fill:#47423F;" cx="224" cy="67.2" r="9.6"/>
	<circle style="fill:#47423F;" cx="198.4" cy="35.2" r="9.6"/>
	<circle style="fill:#47423F;" cx="160" cy="73.6" r="9.6"/>
	<circle style="fill:#47423F;" cx="256" cy="105.6" r="9.6"/>
	<circle style="fill:#47423F;" cx="300.8" cy="80" r="9.6"/>
	<circle style="fill:#47423F;" cx="313.6" cy="41.6" r="9.6"/>
	<circle style="fill:#47423F;" cx="352" cy="92.8" r="9.6"/>
</g>
<g>
	<circle style="fill:#474641;" cx="192" cy="211.2" r="19.2"/>
	<circle style="fill:#474641;" cx="320" cy="211.2" r="19.2"/>
</g>
<circle style="fill:#CE9276;" cx="57.6" cy="211.2" r="19.2"/>
<circle style="fill:#BD7155;" cx="454.4" cy="211.2" r="19.2"/>
<path style="fill:#474641;" d="M275.2,220.8h-38.4c-5.302,0-9.6,4.298-9.6,9.6s4.298,9.6,9.6,9.6h38.4c5.303,0,9.6-4.298,9.6-9.6
	S280.503,220.8,275.2,220.8z"/>
<g>
</g>
<g>
</g>
<g>
</g>
<g>
</g>
<g>
</g>
<g>
</g>
<g>
</g>
<g>
</g>
<g>
</g>
<g>
</g>
<g>
</g>
<g>
</g>
<g>
</g>
<g>
</g>
<g>
</g>
</svg>
