<?xml version="1.0" encoding="iso-8859-1"?>
<!-- Generator: Adobe Illustrator 19.0.0, SVG Export Plug-In . SVG Version: 6.00 Build 0)  -->
<svg version="1.1" id="Layer_1" xmlns="http://www.w3.org/2000/svg" xmlns:xlink="http://www.w3.org/1999/xlink" x="0px" y="0px"
	 viewBox="0 0 512 512" style="enable-background:new 0 0 512 512;" xml:space="preserve">
<path style="fill:#827061;" d="M156.964,458.667h198.073c45.435,0,83.393-35.828,84.629-81.247c0.025-0.93,0.038-1.863,0.038-2.798
	V237.503L72.296,237.7v136.923c0,0.934,0.013,1.867,0.038,2.798C73.57,422.839,111.528,458.667,156.964,458.667z"/>
<path style="fill:#C98A2E;" d="M370.375,457.236c-4.651-17.161-13.036-32.787-24.267-45.92
	c-6.212-7.264-13.284-13.768-21.062-19.353c-19.443-13.961-43.284-22.185-69.047-22.185l-47.407,75.003L256,512
	c24.603,0,48.439-3.279,71.111-9.39l9.985-36.731L370.375,457.236L370.375,457.236z"/>
<path style="fill:#D5A150;" d="M186.953,391.963c-7.778,5.586-14.852,12.089-21.062,19.353
	c-11.23,13.132-19.615,28.757-24.265,45.919c0,0,0,0.001,0,0.002l0,0l33.818,8.641l9.446,36.731
	c1.255,0.338,2.515,0.665,3.777,0.985l0,0C210.203,509.07,232.759,512,256,512V369.778
	C230.238,369.778,206.396,378.002,186.953,391.963z"/>
<g>
	<path style="fill:#E2C35A;" d="M184.889,474.881l-17.778-18.732l-17.778,4.972v29.21c7.724,3.288,15.634,6.219,23.704,8.794
		c3.458,1.103,6.948,2.139,10.464,3.108c0.462,0.127,0.924,0.251,1.388,0.376V474.881z"/>
	<path style="fill:#E2C35A;" d="M327.307,474.886c0,0-0.196,4.974-0.196,7.484v20.239c0.462-0.124,0.926-0.248,1.388-0.376
		c3.518-0.968,7.006-2.003,10.464-3.108c8.07-2.575,15.98-5.506,23.704-8.794v-2.036v-27.174l-17.778-4.932L327.307,474.886z"/>
</g>
<path style="fill:#AD712C;" d="M362.667,461.122c2.591-1.249,5.161-2.543,7.708-3.885c-4.651-17.161-13.036-32.788-24.267-45.921
	c-3.287,5.688-6.185,11.628-8.672,17.778c-5.767,14.263-9.29,29.672-10.126,45.792c9.095-2.741,18.005-6.02,26.702-9.799
	C356.922,463.822,359.807,462.501,362.667,461.122z"/>
<path style="fill:#C98A2E;" d="M184.676,474.881c-1.198-23.07-7.877-44.69-18.784-63.565c-11.23,13.133-19.615,28.758-24.267,45.921
	c2.547,1.342,5.118,2.636,7.708,3.885C160.735,466.618,172.542,471.224,184.676,474.881z"/>
<path style="opacity:0.3;fill:#AD712C;enable-background:new    ;" d="M286.329,439.71c-3.944-0.065-7.765,0.421-11.391,1.387
	c-12.427,3.309-25.449,3.309-37.876,0c-3.625-0.966-7.445-1.452-11.391-1.387c-22.443,0.37-40.782,19.883-40.782,42.329v0.332
	v20.239C207.561,508.721,231.397,512,256,512s48.439-3.279,71.111-9.39V482.37v-0.333
	C327.111,459.592,308.772,440.079,286.329,439.71z"/>
<path style="opacity:0.3;fill:#AB5034;enable-background:new    ;" d="M370.375,457.237L370.375,457.237L370.375,457.237z"/>
<g>
	<circle style="fill:#AD712C;" cx="256.296" cy="432" r="8.889"/>
	<circle style="fill:#AD712C;" cx="255.704" cy="467.556" r="8.889"/>
	<circle style="fill:#AD712C;" cx="256" cy="503.111" r="8.889"/>
</g>
<path style="fill:#D9B43A;" d="M439.704,186.074c-8.697,0-16.9,2.095-24.153,5.787c-19.162-72.486-79.463-137.51-151.873-141.842
	L209.22,393.468c14.258,7.73,30.322,11.865,46.78,11.865c24.096,0,47.352-8.85,65.325-24.898
	c27.033-24.139,65.944-62.28,86.553-98.229c8.884,6.617,19.897,10.535,31.826,10.535c29.455,0,53.333-23.878,53.333-53.333
	S469.159,186.074,439.704,186.074z"/>
<path style="fill:#E2C35A;" d="M263.678,50.018c-2.546-0.152-5.103-0.241-7.678-0.241c-75.799,0-139.723,67.044-159.558,142.08
	c-7.252-3.691-15.452-5.784-24.146-5.784c-29.455,0-53.333,23.878-53.333,53.333s23.878,53.333,53.333,53.333
	c11.929,0,22.942-3.918,31.826-10.535c20.609,35.949,59.52,74.091,86.553,98.229c5.697,5.087,11.928,9.445,18.543,13.032
	c23.872-0.153,46.882-8.974,64.699-24.884c38.348-34.241,100.601-96.661,100.601-141.028
	C374.519,155.228,328.237,78.958,263.678,50.018z"/>
<circle style="opacity:0.5;fill:#BB9430;enable-background:new    ;" cx="439.704" cy="239.407" r="17.778"/>
<g>
	<circle style="fill:#D9B43A;" cx="72.296" cy="239.407" r="17.778"/>
	<path style="fill:#D9B43A;" d="M107.852,199.689v88.724c12.801,20.466,30.907,41.335,48.855,59.671h0.923V228.71L107.852,199.689z"
		/>
	<path style="fill:#D9B43A;" d="M410.232,174.789c-0.859,0.396-1.72,0.792-2.567,1.223c-3.15,1.602-6.151,3.417-8.996,5.436
		c-7.317-2.822-15.458-2.527-22.591,0.872c-27.372,13.037-56.555,21.434-86.719,24.947l-15.916-80.921
		C271.803,118.01,264.495,112,256,112c-8.495,0-15.803,6.01-17.444,14.347l-15.89,80.741c-22.355-2.731-44.147-8.136-65.037-16.116
		c-6.977-2.665-13.855-5.618-20.619-8.853c-7.419-3.547-15.896-3.807-23.48-0.766c-1.826-1.291-3.725-2.488-5.679-3.609
		c-1.045-0.6-2.101-1.183-3.182-1.733c-0.94-0.479-1.901-0.915-2.862-1.351c-2.041,5.668-3.829,11.41-5.358,17.199
		c4.146,2.111,7.97,4.756,11.403,7.829c6.375,5.707,11.377,12.914,14.424,21.082c0.019-0.011,0.037-0.021,0.056-0.032
		c3.662-2.103,8.047-2.51,11.935-0.858c7.675,3.262,15.469,6.199,23.364,8.827c19.673,6.552,39.982,11.137,60.724,13.672
		c16.459,2.005,31.973-7.762,37.631-22.863c5.114,13.864,18.546,23.316,33.404,23.315c1.349-0.001,2.712-0.078,4.078-0.238
		c31.931-3.729,62.872-12.29,92.073-25.471c1.221,1.377,2.652,2.558,4.242,3.501c4.705-12.5,13.97-22.757,25.767-28.763
		C414.028,186.116,412.254,180.416,410.232,174.789z"/>
</g>
<g>
	<path style="fill:#474641;" d="M333.037,221.63h-35.556c-4.909,0-8.889,3.98-8.889,8.889c0,4.909,3.98,8.889,8.889,8.889
		c0,9.818,7.96,17.778,17.778,17.778c9.818,0,17.778-7.96,17.778-17.778c4.909,0,8.889-3.98,8.889-8.889
		C341.926,225.609,337.946,221.63,333.037,221.63z"/>
	<path style="fill:#474641;" d="M214.519,221.63h-35.556c-4.909,0-8.889,3.98-8.889,8.889c0,4.909,3.98,8.889,8.889,8.889
		c0,9.818,7.96,17.778,17.778,17.778s17.778-7.96,17.778-17.778c4.909,0,8.889-3.98,8.889-8.889
		C223.407,225.609,219.428,221.63,214.519,221.63z"/>
</g>
<path style="fill:#AB5034;" d="M237.144,270.456c-3.471,3.471-3.471,9.1,0,12.57c3.471,3.471,9.1,3.471,12.57,0
	c1.679-1.679,3.911-2.604,6.285-2.604c2.374,0,4.607,0.924,6.285,2.604c1.735,1.735,4.011,2.604,6.285,2.604
	c2.274,0,4.55-0.868,6.285-2.604c3.471-3.471,3.471-9.1,0-12.57C264.459,260.058,247.541,260.058,237.144,270.456z"/>
<g>
	<path style="fill:#D9B43A;" d="M170.667,272h-11.852c-4.91,0-8.889-3.98-8.889-8.889s3.979-8.889,8.889-8.889h11.852
		c4.91,0,8.889,3.98,8.889,8.889S175.577,272,170.667,272z"/>
	<path style="fill:#D9B43A;" d="M353.185,272h-11.852c-4.91,0-8.889-3.98-8.889-8.889s3.979-8.889,8.889-8.889h11.852
		c4.91,0,8.889,3.98,8.889,8.889S358.095,272,353.185,272z"/>
</g>
<g>
	<rect x="90.074" y="163.556" style="fill:#827061;" width="49.778" height="177.778"/>
	<rect x="372.148" y="163.556" style="fill:#827061;" width="49.778" height="177.778"/>
	<path style="fill:#827061;" d="M395.303,36.021c-24.132-16.216-53.115-28.276-85.137-34.752C305.999,0.427,301.723,0,297.46,0
		C281.675,0,267.134,5.671,256,14.92C244.866,5.671,230.325,0,214.54,0c-4.263,0-8.54,0.427-12.706,1.269
		c-32.023,6.476-61.005,18.536-85.137,34.752c-27.915,18.758-44.401,50.413-44.401,84.045v66.008h0.167
		c8.693,0,16.894,2.093,24.146,5.784c6.509,3.311,12.252,7.91,16.879,13.476l0,0c1.832-6.837,9.487-10.22,15.852-7.175
		c28.206,13.492,58.885,22.632,91.17,26.578c9.253,1.131,17.812-5.077,19.611-14.223L256,129.778l15.916,80.922
		c1.79,9.1,10.278,15.314,19.489,14.238c32.699-3.819,63.77-12.968,92.318-26.565c6.065-2.888,13.265,0.367,15.086,6.834
		l0.036,0.127c4.627-5.566,10.37-10.163,16.879-13.476c7.205-3.666,15.347-5.752,23.979-5.778v-0.201v-65.812
		C439.704,86.434,423.218,54.779,395.303,36.021z"/>
</g>
<g>
	<path style="opacity:0.5;fill:#978574;enable-background:new    ;" d="M394.786,35.675c-20.619-13.765-44.75-24.507-71.273-31.341
		c-0.122-0.031-0.257-0.064-0.405-0.098c-12.151-2.828-22.945,8.345-19.891,20.441l9.374,37.127
		c9.972,39.499,35.403,73.33,70.573,93.888l0,0c12.614,7.373,27.575,9.632,41.803,6.311l0.22-0.051l0,0
		c8.495-1.947,14.519-9.508,14.519-18.223v-23.662C439.704,86.215,422.94,54.471,394.786,35.675z"/>
	<path style="opacity:0.5;fill:#978574;enable-background:new    ;" d="M214.54,0c-4.263,0-8.54,0.427-12.706,1.269
		c-32.021,6.476-61.005,18.536-85.137,34.752c-27.915,18.757-44.401,50.413-44.401,84.045l0.081,19.059
		c0.05,11.844,8.337,22.055,19.916,24.543l0,0c25.679,5.517,50.884,12.96,75.68,21.621c2.45,0.856,4.911,1.675,7.384,2.458
		c21.235,6.727,43.673-6.169,48.497-27.915c7.618-34.345,18.76-84.575,25.727-115.973c4.937-22.255-11.757-43.691-34.553-43.859
		C214.865,0.001,214.702,0,214.54,0z"/>
</g>
<g>
</g>
<g>
</g>
<g>
</g>
<g>
</g>
<g>
</g>
<g>
</g>
<g>
</g>
<g>
</g>
<g>
</g>
<g>
</g>
<g>
</g>
<g>
</g>
<g>
</g>
<g>
</g>
<g>
</g>
</svg>
