<?xml version="1.0" encoding="iso-8859-1"?>
<!-- Generator: Adobe Illustrator 19.0.0, SVG Export Plug-In . SVG Version: 6.00 Build 0)  -->
<svg version="1.1" id="Layer_1" xmlns="http://www.w3.org/2000/svg" xmlns:xlink="http://www.w3.org/1999/xlink" x="0px" y="0px"
	 viewBox="0 0 512.001 512.001" style="enable-background:new 0 0 512.001 512.001;" xml:space="preserve">
<path style="fill:#5B5751;" d="M256.371,0L60.245,150.915c-4.72,17.195-7.243,35.249-7.243,53.821v66.487
	c0,74.742,60.59,135.332,135.332,135.332h135.332c74.742,0,135.332-60.59,135.332-135.332v-68.226
	C458.998,91.008,368.313,0.201,256.371,0z"/>
<path style="fill:#ADA999;" d="M341.206,415.541c-5.964-6.867-12.74-13.004-20.182-18.262
	c-18.603-13.143-41.346-20.795-65.86-20.608c-0.294,0.002-0.586,0.02-0.881,0.024l-56.388,68.208l56.388,67.094
	c0.638,0,1.274,0.006,1.913,0.001c23.411-0.178,46.067-3.471,67.596-9.451c0.44-0.122,0.88-0.242,1.317-0.368
	c3.339-0.946,6.652-1.957,9.934-3.033c5.717-1.873,11.335-3.96,16.869-6.208c3.378-1.372,6.732-2.792,10.036-4.304
	c2.276-1.041,4.537-2.108,6.778-3.212C367.788,458.703,357.565,434.378,341.206,415.541z"/>
<path style="fill:#E7E4CD;" d="M189.626,398.284c-7.361,5.37-14.044,11.611-19.902,18.568
	c-16.07,19.085-25.919,43.562-26.452,70.295c10.9,5.166,22.221,9.581,33.888,13.208c3.299,1.025,6.626,1.985,9.98,2.88
	c0.44,0.117,0.882,0.232,1.323,0.347c21.028,5.496,43.085,8.426,65.819,8.418V376.697
	C230.109,377.067,207.804,385.02,189.626,398.284z"/>
<path style="fill:#D5D2BD;" d="M169.724,416.849c-16.07,19.085-25.919,43.562-26.452,70.295c10.9,5.166,22.221,9.582,33.888,13.208
	c3.299,1.025,6.626,1.985,9.98,2.88c0.44,0.117,0.882,0.232,1.323,0.347l-0.147-19.259
	C188.129,459.694,181.372,436.655,169.724,416.849z"/>
<path style="fill:#989487;" d="M341.206,415.541c-3.087,5.436-5.801,11.108-8.122,16.979c-6.212,15.706-9.575,32.842-9.438,50.769
	l0.147,19.259c0.44-0.122,0.88-0.242,1.317-0.368c3.339-0.946,6.652-1.957,9.934-3.033c5.717-1.873,11.335-3.96,16.869-6.208
	c3.378-1.372,6.732-2.792,10.036-4.304c2.276-1.041,4.537-2.108,6.778-3.212C367.788,458.703,357.565,434.378,341.206,415.541z"/>
<path style="opacity:0.3;fill:#848075;enable-background:new    ;" d="M323.688,488.927l-0.002-0.317
	c-0.162-21.358-17.756-39.791-39.113-39.98c-3.754-0.033-7.386,0.457-10.828,1.402c-6.374,1.749-12.921,2.574-19.462,2.487
	c-5.568-0.073-11.131-0.805-16.579-2.212c-3.457-0.892-7.095-1.327-10.848-1.237c-21.352,0.514-38.661,19.215-38.499,40.573
	l0.002,0.317l0.104,13.62c21.028,5.496,43.085,8.426,65.819,8.418c0.638,0,1.274,0.006,1.913,0.001
	c23.411-0.178,46.067-3.471,67.596-9.451L323.688,488.927z"/>
<path style="fill:#989487;" d="M313.455,394.495l-17.821-17.821h-41.352l-34.961,56.388l34.961,67.666l45.389-45.388
	c5.383-5.383,5.383-14.111,0-19.493l-4.037-4.037l17.821-17.821C318.838,408.605,318.838,399.878,313.455,394.495z"/>
<path style="fill:#ADA999;" d="M212.932,376.674l-17.821,17.821c-5.383,5.383-5.383,14.111,0,19.493l17.821,17.821l-4.037,4.037
	c-5.383,5.383-5.383,14.111,0,19.493l45.388,45.388V376.674H212.932z"/>
<g>
	<polygon style="fill:#A57D48;" points="209.172,399.479 254.158,444.34 299.393,399.229 	"/>
	<path style="fill:#A57D48;" d="M430.804,201.87c-8.272,0-16.075,1.992-22.976,5.504c-8.234-31.148-24.453-60.847-46.111-84.436
		L108.342,335.177c4.228,17.235,9.799,31.856,16.781,38.609c25.716,24.876,87.082,36.721,131.152,36.721
		s104.884-11.845,130.602-36.721c11.602-11.222,19.315-44.16,23.428-74.742c6.27,2.773,13.202,4.325,20.498,4.325
		c28.028,0,50.749-22.721,50.749-50.749S458.831,201.87,430.804,201.87z"/>
</g>
<path style="fill:#B69362;" d="M108.342,335.177c30.198,16.595,77.95,24.581,114.101,24.581c44.071,0,104.884-11.845,130.602-36.721
	c18.388-17.786,27.01-90.121,27.01-121.166c0-26.696-6.64-53.952-18.336-78.932C333.73,92.454,296.661,72.177,256,72.177
	c-72.126,0-132.953,63.795-151.828,135.197c-6.9-3.511-14.703-5.504-22.976-5.504c-28.028,0-50.749,22.721-50.749,50.749
	s22.721,50.749,50.749,50.749c7.297,0,14.228-1.552,20.498-4.325C103.332,311.223,105.544,323.77,108.342,335.177z"/>
<path style="fill:#A57D48;" d="M374.624,159.164c-18.087-22.652-38.014-32.263-53.772-36.128
	c-32.282-7.918-61.533,4.381-76.772,17.32c-25.846,21.945-63.111,48.562-88.086,58.55c-4.981,1.988-10.232,2.999-15.605,3.002
	c-0.015,0-0.028,0-0.043,0c-10.192,0-18.844-2.61-25.719-7.757c-1.683-1.26-3.547-2.172-5.489-2.751
	c-1.884,5.267-3.548,10.599-4.969,15.975l-0.001,0.003c8.612,4.379,15.811,11.134,20.718,19.416
	c3.227,5.446,9.013,8.938,15.343,8.945c0.039,0,0.079,0,0.118,0c0.021,0,0.044,0,0.065,0c9.68-0.007,19.142-1.828,28.134-5.418
	c30.48-12.191,71.535-42.191,97.431-64.178c9.886-8.393,28.193-14.82,46.816-10.253c22.418,5.498,41.265,25.628,54.503,58.215
	c2.475,6.093,6.452,10.725,11.46,13.595c5.057-1.025,9.191-18.921,9.191-25.836C387.949,187.65,384.941,174.804,374.624,159.164z"/>
<circle style="fill:#8D663D;" cx="430.806" cy="252.62" r="16.916"/>
<circle style="fill:#A57D48;" cx="81.197" cy="252.62" r="16.916"/>
<g>
	<circle style="fill:#474641;" cx="199.614" cy="252.62" r="16.916"/>
	<circle style="fill:#474641;" cx="312.391" cy="252.62" r="16.916"/>
</g>
<g>
	<path style="fill:#5B5751;" d="M312.374,212.84c-6.154,0-12.304-0.972-18.281-2.919c-4.441-1.446-6.87-6.22-5.425-10.661
		c1.447-4.443,6.221-6.871,10.662-5.425c8.529,2.778,17.563,2.775,26.121-0.005c4.437-1.444,9.215,0.987,10.657,5.43
		c1.444,4.442-0.988,9.214-5.43,10.657C324.688,211.867,318.529,212.84,312.374,212.84z"/>
	<path style="fill:#5B5751;" d="M199.597,212.84c-6.154,0-12.304-0.972-18.281-2.919c-4.441-1.446-6.87-6.22-5.425-10.661
		c1.447-4.443,6.226-6.871,10.662-5.425c8.529,2.778,17.563,2.775,26.121-0.005c4.438-1.444,9.215,0.987,10.657,5.43
		c1.444,4.442-0.988,9.214-5.43,10.657C211.911,211.867,205.753,212.84,199.597,212.84z"/>
</g>
<path style="fill:#8D472E;" d="M256.102,301.556c-6.778,0.052-13.17-2.54-17.999-7.296c-3.328-3.278-3.369-8.633-0.09-11.962
	c3.277-3.327,8.633-3.367,11.961-0.09c1.609,1.586,3.74,2.449,5.999,2.431c2.259-0.017,4.377-0.913,5.961-2.523
	c3.278-3.328,8.634-3.37,11.961-0.091c3.329,3.278,3.37,8.633,0.092,11.962C269.231,298.816,262.88,301.505,256.102,301.556z"/>
<g>
	<path style="fill:#A57D48;" d="M174.801,283.633h-11.278c-4.672,0-8.458-3.787-8.458-8.458s3.786-8.458,8.458-8.458h11.278
		c4.672,0,8.458,3.787,8.458,8.458S179.472,283.633,174.801,283.633z"/>
	<path style="fill:#A57D48;" d="M348.477,283.633h-11.278c-4.672,0-8.458-3.787-8.458-8.458s3.786-8.458,8.458-8.458h11.278
		c4.672,0,8.458,3.787,8.458,8.458S353.148,283.633,348.477,283.633z"/>
</g>
<path style="fill:#5B5751;" d="M427.933,179.617c0.336-3.373,0.161-6.781-0.546-10.096c-3.496-16.394-9.684-31.939-18.012-46.148
	C379.679,72.701,322.13,38.344,256,38.344c-13.389,0-26.425,1.409-38.95,4.075l-0.027,0.011
	c-63.056,13.436-113.139,58.763-129.839,116.887c-3.815,13.281-1.208,27.743,7.373,38.574c10.109,12.76,25.531,20.855,45.804,20.855
	c7.727,0,15.101-1.498,21.867-4.193c30.4-12.134,71.252-43.027,92.807-61.302c26.525-22.489,92.34-33.136,127.901,54.582
	c1.817,4.479,4.72,6.211,8.128,6.371c2.078,0.098,4.137-0.451,5.994-1.389l10.768-5.44l5.228-3.382
	C421.465,198.553,426.94,189.582,427.933,179.617L427.933,179.617z"/>
<path style="fill:#706B63;" d="M268.833,0.4c-4.122-0.257-8.277-0.392-12.462-0.399C163.354-0.166,84.416,64.178,60.465,150.179
	c-3.736,13.417,6.472,26.499,20.4,26.439c0.092,0,0.186-0.001,0.279-0.001c0.018,0,0.037,0,0.055,0
	c11.675,0,23.337,2.74,33.783,7.92c0.089,0.044,0.18,0.087,0.27,0.132c0.126,0.063,0.255,0.122,0.38,0.186
	c0.529,0.268,1.04,0.559,1.542,0.859c0.104,0.062,0.205,0.124,0.308,0.187c0.662,0.411,1.313,0.85,1.947,1.33
	c0.019,0.015,0.039,0.025,0.058,0.039c5.402,4.102,12.4,6.181,20.799,6.181c0.012,0,0.024,0,0.036,0
	c4.297-0.003,8.494-0.811,12.476-2.4c24.082-9.632,60.423-35.642,85.747-57.143c9.613-8.163,23.362-15.706,39.634-19.44
	c26.177-6.008,44.627-29.469,44.627-56.325l0,0C322.805,27.695,299.222,2.3,268.833,0.4z"/>
<g>
</g>
<g>
</g>
<g>
</g>
<g>
</g>
<g>
</g>
<g>
</g>
<g>
</g>
<g>
</g>
<g>
</g>
<g>
</g>
<g>
</g>
<g>
</g>
<g>
</g>
<g>
</g>
<g>
</g>
</svg>
