<?xml version="1.0" encoding="iso-8859-1"?>
<!-- Generator: Adobe Illustrator 19.0.0, SVG Export Plug-In . SVG Version: 6.00 Build 0)  -->
<svg version="1.1" id="Layer_1" xmlns="http://www.w3.org/2000/svg" xmlns:xlink="http://www.w3.org/1999/xlink" x="0px" y="0px"
	 viewBox="0 0 511.998 511.998" style="enable-background:new 0 0 511.998 511.998;" xml:space="preserve">
<path style="fill:#7F8383;" d="M369.589,457.612c-4.619-17.043-12.946-32.561-24.098-45.603
	c-6.169-7.214-13.192-13.673-20.918-19.219c-19.309-13.865-42.984-22.032-68.57-22.032s-49.26,8.167-68.57,22.032
	c-7.725,5.547-14.749,12.006-20.918,19.219c-11.152,13.041-19.48,28.559-24.098,45.602c0,0.001,0,0.001-0.001,0.002l0,0L176,466.195
	l9.381,36.478c1.246,0.335,2.498,0.66,3.751,0.978l0,0c21.39,5.438,43.788,8.347,66.87,8.347c24.434,0,48.104-3.257,70.621-9.325
	l9.916-36.478L369.589,457.612C369.589,457.613,369.589,457.612,369.589,457.612z"/>
<path style="fill:#E1B872;" d="M185.382,475.135l-17.655-18.603l-17.655,4.938v29.009c7.671,3.265,15.526,6.176,23.54,8.733
	c3.435,1.096,6.9,2.125,10.392,3.086c0.459,0.126,0.918,0.25,1.378,0.373V475.135z"/>
<path style="fill:#D5A150;" d="M326.818,475.14c0,0-0.194,4.94-0.194,7.433v20.1c0.459-0.124,0.919-0.246,1.378-0.373
	c3.493-0.962,6.957-1.989,10.392-3.086c8.014-2.558,15.87-5.468,23.54-8.733v-2.022v-26.987l-17.655-4.898L326.818,475.14z"/>
<path style="fill:#5F6568;" d="M361.934,461.471c2.573-1.241,5.126-2.526,7.655-3.858c-4.619-17.043-12.946-32.562-24.099-45.604
	c-3.264,5.648-6.143,11.548-8.612,17.655c-5.727,14.164-9.225,29.468-10.056,45.476c9.032-2.722,17.881-5.978,26.518-9.732
	C356.229,464.153,359.094,462.84,361.934,461.471z"/>
<path style="fill:#6F7475;" d="M185.17,475.135c-1.19-22.911-7.822-44.382-18.654-63.127c-11.152,13.042-19.48,28.56-24.099,45.604
	c2.529,1.332,5.082,2.618,7.655,3.858C161.395,466.929,173.12,471.503,185.17,475.135z"/>
<path style="opacity:0.3;fill:#5F6568;enable-background:new    ;" d="M286.122,440.206c-3.917-0.065-7.712,0.418-11.312,1.377
	c-12.341,3.286-25.274,3.286-37.615,0c-3.6-0.959-7.394-1.442-11.312-1.377c-22.288,0.367-40.501,19.746-40.501,42.037v0.33v20.1
	c22.516,6.069,46.187,9.325,70.621,9.325c24.434,0,48.104-3.257,70.621-9.325v-20.1v-0.331
	C326.623,459.952,308.41,440.574,286.122,440.206z"/>
<path style="opacity:0.3;fill:#AB5034;enable-background:new    ;" d="M369.589,457.613L369.589,457.613L369.589,457.613z"/>
<path style="fill:#E1B872;" d="M442.166,188.448c-10.018-0.691-19.48,1.428-27.71,5.616l0,0
	c-7.401-8.556-15.108-16.841-23.107-24.84l-27.813-27.812l-3.377-3.377c-25.048-25.048-57.005-39.149-89.832-42.296
	c-42.105-4.037-85.643,9.947-117.869,41.976l-54.915,56.346l99.53,221.564c18.298,8.902,38.161,13.982,58.926,13.982
	c75.276,0,138.759-66.581,158.458-141.1c7.201,3.664,15.345,5.744,23.979,5.744c29.897,0,54.01-24.771,52.93-54.91
	C490.406,212.47,468.991,190.299,442.166,188.448z"/>
<path style="fill:#ECCE93;" d="M385.471,229.345c-0.012-10.413-4.303-20.366-11.667-27.728l-2.454-2.454l-36.159-36.159
	c-20.194-20.194-46.298-31.013-72.831-32.475c-30.556-1.683-61.682,9.047-85.011,32.232L130.24,209.58
	c-2.932,2.932-6.422,5.046-10.16,6.356c-5.121-9.376-12.999-17.022-22.539-21.875v0.001c-14.782-7.521-33.533-8.364-52.349,1.744
	c-7.62,4.094-13.776,10.478-17.718,18.177c-20.594,40.211,8.07,80.268,46.087,80.268c8.639,0,16.787-2.081,23.991-5.75
	c14.265,53.96,51.48,103.756,99.519,127.124c7.714,1.441,15.597,2.212,23.617,2.212c91.007,0,164.782-97.315,164.782-188.322
	C385.471,229.459,385.471,229.401,385.471,229.345z"/>
<g>
	<path style="fill:#E1B872;" d="M171.258,273.653h-11.77c-4.876,0-8.828-3.952-8.828-8.828s3.951-8.828,8.828-8.828h11.77
		c4.876,0,8.828,3.952,8.828,8.828S176.134,273.653,171.258,273.653z"/>
	<path style="fill:#E1B872;" d="M352.518,273.653h-11.77c-4.876,0-8.828-3.952-8.828-8.828s3.951-8.828,8.828-8.828h11.77
		c4.876,0,8.828,3.952,8.828,8.828S357.394,273.653,352.518,273.653z"/>
</g>
<path style="fill:#8D472E;" d="M256.11,292.36c-7.074,0.054-13.745-2.651-18.785-7.614c-3.473-3.422-3.516-9.01-0.094-12.485
	c3.42-3.472,9.01-3.515,12.483-0.094c1.68,1.655,3.903,2.556,6.261,2.538c2.358-0.018,4.568-0.953,6.222-2.633
	c3.422-3.473,9.011-3.517,12.483-0.095c3.475,3.422,3.517,9.01,0.097,12.485C269.813,289.5,263.184,292.306,256.11,292.36z"/>
<g>
	<path style="fill:#474641;" d="M214.807,250.113c-4.876,0-8.828-3.951-8.828-8.828c0-4.868-3.959-8.828-8.828-8.828
		s-8.828,3.959-8.828,8.828c0,4.876-3.951,8.828-8.828,8.828c-4.876,0-8.828-3.951-8.828-8.828
		c0-14.602,11.881-26.483,26.483-26.483c14.602,0,26.483,11.881,26.483,26.483C223.635,246.162,219.684,250.113,214.807,250.113z"/>
	<path style="fill:#474641;" d="M332.509,250.113c-4.876,0-8.828-3.951-8.828-8.828c0-4.868-3.96-8.828-8.828-8.828
		s-8.828,3.959-8.828,8.828c0,4.876-3.951,8.828-8.828,8.828c-4.876,0-8.828-3.951-8.828-8.828
		c0-14.602,11.881-26.483,26.483-26.483c14.602,0,26.483,11.881,26.483,26.483C341.336,246.162,337.385,250.113,332.509,250.113z"/>
</g>
<g>
	<path style="fill:#625143;" d="M332.509,188.32h-35.31c-4.876,0-8.828,3.952-8.828,8.828c0,4.875,3.951,8.828,8.828,8.828h35.31
		c4.876,0,8.828-3.952,8.828-8.828C341.336,192.272,337.385,188.32,332.509,188.32z"/>
	<path style="fill:#625143;" d="M214.807,188.32h-35.31c-4.875,0-8.828,3.952-8.828,8.828c0,4.875,3.952,8.828,8.828,8.828h35.31
		c4.875,0,8.828-3.952,8.828-8.828C223.635,192.272,219.683,188.32,214.807,188.32z"/>
</g>
<path style="fill:#B69362;" d="M70.558,188.404c8.978-0.497,17.505,1.244,25.072,4.716c1.561,0.716,3.079,1.508,4.551,2.369
	c2.153,1.257,4.384,2.372,6.695,3.309c3.632,1.843,8.038,1.141,10.918-1.74l47.109-46.819
	c50.594-50.283,132.333-50.157,182.771,0.281l46.538,46.538c2.88,2.88,7.286,3.582,10.918,1.74c2.318-0.939,4.555-2.061,6.716-3.318
	c8.442-4.913,18.361-7.563,28.934-7.108c6.211,0.268,12.151,1.636,17.643,3.897c17.118-40.344,15.672-107.631-20.216-143.705
	c-64.419-64.752-299.99-64.752-364.409,0c-35.882,36.067-37.334,103.34-20.222,143.687
	C58.869,190.075,64.584,188.733,70.558,188.404z"/>
<path style="fill:#C9AD80;" d="M69.092,161.961c0.807-0.045,1.664-0.054,2.56-0.033c26.959,0.631,53.119-9.141,72.246-28.151
	l2.336-2.322c30.321-30.135,70.086-45.2,109.853-45.211c44.013-0.013,79.952-35.05,79.952-79.063V6.479
	C241.449-9.653,117.765,4.368,73.799,48.563C44.715,77.798,38.256,127.527,45.96,166.808
	C53.392,164.036,61.158,162.4,69.092,161.961z"/>
<g>
	<circle style="fill:#B69362;" cx="74.151" cy="82.978" r="8.828"/>
	<circle style="fill:#B69362;" cx="74.151" cy="138.297" r="8.828"/>
	<circle style="fill:#B69362;" cx="123.585" cy="47.667" r="8.828"/>
	<circle style="fill:#B69362;" cx="180.082" cy="32.366" r="8.828"/>
	<circle style="fill:#B69362;" cx="127.116" cy="85.332" r="8.828"/>
	<circle style="fill:#B69362;" cx="91.806" cy="120.642" r="8.828"/>
	<circle style="fill:#B69362;" cx="109.461" cy="138.297" r="8.828"/>
	<circle style="fill:#B69362;" cx="180.082" cy="85.332" r="8.828"/>
	<circle style="fill:#B69362;" cx="233.048" cy="12.357" r="8.828"/>
	<circle style="fill:#B69362;" cx="268.358" cy="47.667" r="8.828"/>
	<circle style="fill:#B69362;" cx="215.392" cy="65.322" r="8.828"/>
	<circle style="fill:#B69362;" cx="321.323" cy="30.012" r="8.828"/>
	<circle style="fill:#B69362;" cx="286.013" cy="65.322" r="8.828"/>
</g>
<g>
	<circle style="fill:#91928F;" cx="73.562" cy="294.251" r="17.655"/>
	<circle style="fill:#91928F;" cx="438.436" cy="294.251" r="17.655"/>
</g>
<circle style="fill:#D5A150;" cx="438.436" cy="241.286" r="17.655"/>
<circle style="fill:#E1B872;" cx="73.562" cy="241.286" r="17.655"/>
<g>
</g>
<g>
</g>
<g>
</g>
<g>
</g>
<g>
</g>
<g>
</g>
<g>
</g>
<g>
</g>
<g>
</g>
<g>
</g>
<g>
</g>
<g>
</g>
<g>
</g>
<g>
</g>
<g>
</g>
</svg>
