<?xml version="1.0" encoding="iso-8859-1"?>
<!-- Generator: Adobe Illustrator 19.0.0, SVG Export Plug-In . SVG Version: 6.00 Build 0)  -->
<svg version="1.1" id="Layer_1" xmlns="http://www.w3.org/2000/svg" xmlns:xlink="http://www.w3.org/1999/xlink" x="0px" y="0px"
	 viewBox="0 0 512.001 512.001" style="enable-background:new 0 0 512.001 512.001;" xml:space="preserve">
<path style="fill:#6F7475;" d="M256.001,285.02l-85.884,93.245l85.884,107.819c42.622,0.282,85.311-16.12,117.4-49.154
	l27.233-28.034c29.399-30.264,45.846-70.797,45.846-112.99V285.02H256.001z"/>
<path style="fill:#7F8383;" d="M65.523,285.02v9.513c0,43.007,17.085,84.252,47.495,114.663l29.407,29.407
	c31.413,31.413,72.463,47.208,113.577,47.48V285.02H65.523z"/>
<path style="fill:#BD7155;" d="M374.403,455.308c-4.814-17.766-13.495-33.941-25.121-47.537c-6.43-7.52-13.751-14.253-21.803-20.034
	c-20.128-14.452-44.808-22.967-71.478-22.967l-49.077,77.644L256.001,512c25.47,0,50.144-3.395,73.615-9.721l10.337-38.025
	L374.403,455.308L374.403,455.308z"/>
<path style="fill:#DFB296;" d="M184.525,387.735c-8.052,5.782-15.374,12.515-21.803,20.034
	c-11.625,13.594-20.305,29.77-25.12,47.536c0,0,0,0.001,0,0.002l0,0l35.009,8.945l9.779,38.025c1.299,0.35,2.604,0.688,3.91,1.02
	l0,0c22.297,5.668,45.645,8.701,69.705,8.701v-147.23C229.332,364.77,204.652,373.283,184.525,387.735z"/>
<path style="fill:#D4CBB2;" d="M182.386,473.574l-18.404-19.391l-18.404,5.147v30.239c7.996,3.403,16.184,6.438,24.538,9.104
	c3.58,1.142,7.192,2.215,10.832,3.217c0.479,0.131,0.957,0.26,1.437,0.389V473.574z"/>
<path style="fill:#B0A18D;" d="M329.818,473.579c0,0-0.202,5.149-0.202,7.748v20.952c0.479-0.129,0.958-0.256,1.437-0.389
	c3.641-1.002,7.252-2.073,10.832-3.217c8.354-2.666,16.542-5.7,24.538-9.104v-2.108v-28.131l-18.404-5.105L329.818,473.579z"/>
<path style="fill:#AB5034;" d="M366.423,459.331c2.682-1.293,5.343-2.633,7.98-4.022c-4.814-17.766-13.495-33.943-25.121-47.538
	c-3.402,5.888-6.403,12.037-8.977,18.404c-5.97,14.765-9.617,30.717-10.483,47.404c9.415-2.838,18.639-6.232,27.642-10.144
	C360.476,462.126,363.464,460.758,366.423,459.331z"/>
<path style="fill:#CE9276;" d="M182.165,473.574c-1.24-23.882-8.154-46.263-19.445-65.803
	c-11.625,13.595-20.305,29.771-25.121,47.538c2.637,1.389,5.298,2.729,7.98,4.022C157.382,465.02,169.604,469.788,182.165,473.574z"
	/>
<g>
	<path style="opacity:0.3;fill:#AB5034;enable-background:new    ;" d="M287.398,437.164c-4.083-0.067-8.039,0.436-11.792,1.435
		c-12.864,3.426-26.346,3.426-39.21,0c-3.753-1-7.707-1.503-11.792-1.435c-23.233,0.383-42.218,20.583-42.218,43.819v0.345v20.952
		c23.471,6.326,48.145,9.721,73.615,9.721c25.47,0,50.144-3.395,73.615-9.721v-20.952v-0.345
		C329.616,457.747,310.631,437.547,287.398,437.164z"/>
	<path style="opacity:0.3;fill:#AB5034;enable-background:new    ;" d="M374.403,455.309L374.403,455.309L374.403,455.309z"/>
	<path style="fill:#AB5034;" d="M320.376,384.158l-19.388-19.388h-44.987l-38.034,61.346l38.034,73.615l49.38-49.38
		c5.856-5.856,5.856-15.351,0-21.207l-4.392-4.392l19.388-19.388C326.232,399.509,326.232,390.014,320.376,384.158z"/>
</g>
<path style="fill:#BD7155;" d="M211.015,364.77l-19.388,19.388c-5.856,5.856-5.856,15.351,0,21.207l19.388,19.388l-4.392,4.392
	c-5.856,5.856-5.856,15.351,0,21.207l49.38,49.38V364.771h-44.987V364.77z"/>
<polygon style="fill:#B0A18D;" points="289.741,396.405 256.001,430.145 222.261,396.405 "/>
<path style="fill:#B0A18D;" d="M368.351,120.011c-0.005-0.004-0.009-0.007-0.012-0.011c-23.933-15.604-58.831-20.265-91.052-12.161
	c-3.434,0.863-11.172,2.861-16.184,4.158l-16.177-4.164l-0.125-0.032c-24.684-6.17-51.089-1.739-72.443,12.159
	c-21.046,13.695-35.785,35.994-40.438,61.18c-5.087,27.533-17.653,91.279-25.83,132.547c8.055,14.367,18.119,27.453,29.804,38.891
	c9.062,8.869,19.099,16.744,29.94,23.445c26.208,16.2,57.094,25.554,90.17,25.554c77.849,0,143.591-51.795,164.674-122.801
	l0.503-98.191L368.351,120.011z"/>
<path style="fill:#C8BDA5;" d="M390.962,211.406c0-2.74-0.071-5.487-0.199-8.235l0,0c-8.23,1.52-16.134-3.919-17.654-12.149
	l-0.59-3.196c-2.827-15.307-11.689-28.797-24.315-37.012c-11.686-7.604-34.922-14.073-61.944-7.277
	c-5.14,1.292-20.521,5.283-20.521,5.283l-4.605,1.195l-25.321-6.517c-14.778-3.677-30.586-1.011-43.381,7.316
	c-12.627,8.217-21.491,21.708-24.319,37.015c-6.831,36.984-27.003,138.527-32.222,164.753c9.062,8.869,19.099,16.744,29.94,23.445
	c18.185,4.644,36.279,7.15,53.362,7.15C314.059,383.174,390.962,306.271,390.962,211.406z"/>
<g>
	<circle style="fill:#474641;" cx="194.652" cy="229.813" r="18.404"/>
	<circle style="fill:#474641;" cx="317.343" cy="229.813" r="18.404"/>
</g>
<g>
	<path style="fill:#6F7475;" d="M317.332,186.531c-6.695,0-13.386-1.058-19.888-3.175c-4.832-1.573-7.474-6.766-5.901-11.598
		c1.574-4.834,6.768-7.476,11.599-5.901c9.279,3.022,19.107,3.019,28.418-0.005c4.827-1.57,10.025,1.074,11.594,5.908
		c1.57,4.833-1.075,10.024-5.908,11.594C330.73,185.474,324.029,186.531,317.332,186.531z"/>
	<path style="fill:#6F7475;" d="M194.641,186.531c-6.695,0-13.386-1.058-19.888-3.175c-4.832-1.573-7.474-6.766-5.901-11.598
		c1.574-4.834,6.774-7.476,11.599-5.901c9.279,3.022,19.107,3.019,28.418-0.005c4.828-1.57,10.025,1.074,11.594,5.908
		c1.57,4.833-1.075,10.024-5.908,11.594C208.038,185.474,201.337,186.531,194.641,186.531z"/>
</g>
<path style="fill:#6F3D28;" d="M269.497,275.819h-26.992c-5.083,0-9.202-4.12-9.202-9.202s4.119-9.202,9.202-9.202h26.992
	c5.083,0,9.202,4.12,9.202,9.202S274.58,275.819,269.497,275.819z"/>
<g>
	<path style="fill:#B0A18D;" d="M167.663,263.549h-12.269c-5.083,0-9.202-4.12-9.202-9.202c0-5.082,4.119-9.202,9.202-9.202h12.269
		c5.083,0,9.202,4.12,9.202,9.202C176.865,259.429,172.746,263.549,167.663,263.549z"/>
	<path style="fill:#B0A18D;" d="M356.608,263.549h-12.269c-5.083,0-9.202-4.12-9.202-9.202c0-5.082,4.119-9.202,9.202-9.202h12.269
		c5.083,0,9.202,4.12,9.202,9.202C365.81,259.429,361.691,263.549,356.608,263.549z"/>
</g>
<path style="fill:#6F7475;" d="M446.124,165.595c-2.115-38.638-18.183-76.336-45.246-106.149
	c-27.046-29.793-64.17-50.669-104.533-58.781c-9.901-1.99-20.061,0.537-27.869,6.933c-7.796,6.386-12.268,15.828-12.268,25.904
	l-37.012,49.077l37.012,48.425l20.656-5.317c19.815-4.954,40.978-1.42,58.065,9.7c17.086,11.117,28.675,29.051,32.378,49.096
	c7.901,42.773,33.416,170.745,33.416,170.745l33.091,3.408c8.233-19.626,12.565-40.87,12.565-62.728v-10.321l0.202-111.612
	L446.124,165.595z"/>
<g>
	<path style="fill:#7F8383;" d="M243.939,7.599c-7.808-6.397-17.966-8.925-27.869-6.933c-40.364,8.112-77.487,28.988-104.533,58.781
		C84.473,89.26,68.406,126.958,66.291,165.596l-0.458,8.38l-0.411,111.61v8.949c0,22.408,4.526,44.119,13.124,64.101l33.145-3.408
		c0,0,25.515-127.972,33.416-170.744c3.703-20.047,15.292-37.979,32.378-49.097c17.085-11.118,38.226-14.659,57.943-9.731
		l20.779,5.348V33.503C256.207,23.426,251.735,13.985,243.939,7.599z"/>
	<path style="fill:#7F8383;" d="M313.621,98.575L340.396,71.8c11.945-11.945,8.58-32.21-6.681-39.455
		c-12.971-6.159-26.758-10.775-40.999-13.636c-1.002-0.202-2.023-0.304-3.033-0.304c-3.628,0-7.038,1.271-9.832,3.671
		c-3.417,2.934-5.24,7.322-5.24,11.826v62.906c0,5.872,5.076,10.473,10.917,9.864c3.634-0.378,7.726-0.718,11.529-0.837
		C303.296,105.638,309.206,102.989,313.621,98.575z"/>
</g>
<path style="fill:#6F7475;" d="M235.428,107.441c-19.717-4.929-40.859-1.388-57.943,9.731c-8.543,5.559-15.593,13.371-20.972,22.298
	c-7.358,12.214-10.934,26.336-10.934,40.595v2.18c4.13-19.136,15.462-36.157,31.906-46.858
	c17.085-11.118,38.226-14.659,57.943-9.731l20.779,5.348l8.588-9.165l-8.588-9.051L235.428,107.441z"/>
<path style="fill:#D4CBB2;" d="M90.825,180.584c-7.506-3.819-15.995-5.987-24.996-5.987c-30.493,0-55.211,24.719-55.211,55.211
	s24.719,55.211,55.211,55.211c9.201,0,17.869-2.264,25.498-6.244L90.825,180.584z"/>
<path style="fill:#C8BDA5;" d="M446.173,174.598c-8.999,0-17.488,2.167-24.996,5.987l-0.503,98.191
	c7.629,3.981,16.297,6.244,25.498,6.244c30.492,0,55.211-24.719,55.211-55.211S476.665,174.598,446.173,174.598z"/>
<g>
	<circle style="fill:#B0A18D;" cx="65.829" cy="229.813" r="18.404"/>
	<circle style="fill:#B0A18D;" cx="446.169" cy="229.813" r="18.404"/>
</g>
<g>
</g>
<g>
</g>
<g>
</g>
<g>
</g>
<g>
</g>
<g>
</g>
<g>
</g>
<g>
</g>
<g>
</g>
<g>
</g>
<g>
</g>
<g>
</g>
<g>
</g>
<g>
</g>
<g>
</g>
</svg>
