<?xml version="1.0" encoding="iso-8859-1"?>
<!-- Generator: Adobe Illustrator 19.0.0, SVG Export Plug-In . SVG Version: 6.00 Build 0)  -->
<svg version="1.1" id="Layer_1" xmlns="http://www.w3.org/2000/svg" xmlns:xlink="http://www.w3.org/1999/xlink" x="0px" y="0px"
	 viewBox="0 0 512.003 512.003" style="enable-background:new 0 0 512.003 512.003;" xml:space="preserve">
<path style="fill:#ACB958;" d="M331.472,395.947c-0.001,0-0.001-0.001-0.002-0.001c-1.886-1.229-3.803-2.413-5.752-3.552
	c-20.532-12.04-44.323-18.95-69.845-18.95s-49.058,6.91-69.59,18.95c-1.948,1.137-3.866,2.322-5.752,3.552
	c-0.001,0-0.001,0.001-0.002,0.001l0,0c-0.001,0.001-0.003,0.002-0.005,0.003c-1.148,0.749-2.281,1.518-3.404,2.299
	c-0.3,0.209-0.598,0.42-0.896,0.631c-0.9,0.636-1.791,1.283-2.676,1.939c-0.238,0.177-0.479,0.352-0.715,0.53
	c-2.266,1.705-4.474,3.48-6.628,5.319c-0.166,0.142-0.331,0.284-0.496,0.427c-1.046,0.901-2.081,1.816-3.1,2.748
	c-0.017,0.016-0.035,0.031-0.052,0.047c-2.207,2.02-4.344,4.114-6.416,6.272c-0.042,0.044-0.084,0.088-0.126,0.132
	c-15.798,16.501-27.557,36.898-33.678,59.613c39.252,22.939,84.918,36.096,133.662,36.096s94.41-13.158,133.662-36.096
	C380.694,442.621,359.632,414.298,331.472,395.947z"/>
<g>
	<path style="fill:#949C53;" d="M154.195,491.745c9.082,3.779,18.418,7.069,27.977,9.835v-62.384
		C168.191,453.338,158.243,471.477,154.195,491.745z"/>
	<path style="fill:#949C53;" d="M329.829,439.197v62.384c9.56-2.765,18.895-6.056,27.977-9.835
		C353.759,471.477,343.811,453.338,329.829,439.197z"/>
	<circle style="fill:#949C53;" cx="221.104" cy="451.621" r="8.652"/>
	<circle style="fill:#949C53;" cx="221.393" cy="486.228" r="8.652"/>
	<path style="fill:#949C53;" d="M339.191,401.36l-0.494-0.166c-2.383-1.78-4.815-3.496-7.314-5.122
		c-1.858-1.209-3.747-2.375-5.665-3.495c-20.326-11.907-43.924-18.785-69.145-18.937l-0.572-0.193v0.182
		c-0.095,0-0.188-0.005-0.283-0.005c-25.543,0-48.879,6.91-69.435,18.952c-0.914,0.533-1.819,1.077-2.718,1.632
		c-0.87,0.535-1.732,1.082-2.587,1.636c-0.025,0.016-0.052,0.032-0.077,0.048c-0.001,0-0.002,0.001-0.002,0.002
		c-0.092,0.06-0.187,0.118-0.28,0.178c0.002,0.003,0.005,0.006,0.007,0.009c-2.636,1.714-5.185,3.545-7.693,5.43
		c0.735,0.661,1.483,1.339,2.199,1.977c6.98,6.233,14.707,11.664,22.965,16.142c17.722,9.609,37.746,14.687,57.905,14.687
		c21.62,0,42.622-5.745,61.018-16.445c5.094-2.964,11.516-2.274,16.017,1.53c19.702,16.646,33.992,39.504,39.789,65.536
		c5.731-2.816,11.35-5.825,16.84-9.032C381.534,445.736,363.47,419.645,339.191,401.36z"/>
</g>
<path style="fill:#E1B872;" d="M486.68,244.961c-0.941-26.338-21.929-48.07-48.222-49.882c-9.819-0.677-19.094,1.399-27.162,5.506
	c-0.025-0.093-0.053-0.187-0.077-0.281l-53.152-54.647l-0.803-0.795c-4.467-4.397-9.666-7.765-15.256-10.076
	c-13.69-5.659-29.748-4.949-43.283,2.758c-12.946,7.371-27.72,11.268-42.725,11.268c-15.003,0-29.777-3.897-42.725-11.268
	c-19.064-10.852-43.135-7.844-58.534,7.312l-54.038,55.73l109.763,196.228c13.879,7.525,29.514,11.548,45.533,11.548
	c23.453,0,46.088-8.614,63.582-24.234c26.312-23.495,64.184-60.619,84.244-95.608c8.647,6.44,19.366,10.254,30.977,10.254
	C464.104,298.774,487.735,274.497,486.68,244.961z"/>
<path style="fill:#ECCE93;" d="M100.7,200.582c-8.067-4.104-17.34-6.18-27.158-5.503c-26.291,1.813-47.277,23.543-48.219,49.879
	c-1.057,29.537,22.574,53.815,51.876,53.815c11.611,0,22.33-3.814,30.977-10.254c20.059,34.99,57.932,72.114,84.244,95.608
	c5.545,4.951,11.609,9.193,18.049,12.685c23.235-0.149,45.632-8.735,62.973-24.22c37.325-33.328,97.917-94.082,97.917-137.265
	c0-0.1,0-0.2,0-0.3c-0.032-17.601-7.284-34.422-19.729-46.867l-18.621-18.62c-4.439-4.369-11.487-5.154-17.158-1.925
	c-18.156,10.338-38.851,15.802-59.848,15.802s-41.692-5.463-59.847-15.8c-5.672-3.23-12.72-2.444-17.138,1.906l-0.638,0.633
	l-45.596,45.596c-0.029,0.029-0.058,0.058-0.087,0.087c-4.168,4.13-11.07,3.532-14.703-1.075
	c-4.645-5.89-10.542-10.747-17.286-14.178"/>
<circle style="fill:#D5A150;" cx="434.802" cy="246.863" r="17.303"/>
<circle style="fill:#E1B872;" cx="77.199" cy="246.863" r="17.303"/>
<g>
	<path style="fill:#474641;" d="M215.626,255.515c-4.779,0-8.652-3.874-8.652-8.652c0-4.771-3.881-8.652-8.652-8.652
		c-4.771,0-8.652,3.881-8.652,8.652c0,4.778-3.872,8.652-8.652,8.652s-8.652-3.874-8.652-8.652
		c0-14.312,11.644-25.955,25.955-25.955c14.311,0,25.955,11.643,25.955,25.955C224.278,251.641,220.405,255.515,215.626,255.515z"/>
	<path style="fill:#474641;" d="M330.983,255.515c-4.779,0-8.652-3.874-8.652-8.652c0-4.771-3.881-8.652-8.652-8.652
		s-8.652,3.881-8.652,8.652c0,4.778-3.872,8.652-8.652,8.652c-4.779,0-8.652-3.874-8.652-8.652
		c0-14.312,11.644-25.955,25.955-25.955s25.955,11.643,25.955,25.955C339.634,251.641,335.762,255.515,330.983,255.515z"/>
</g>
<g>
	<path style="fill:#BB9430;" d="M156.343,225.02c-1.767,0-3.551-0.54-5.088-1.66c-3.862-2.814-4.711-8.225-1.898-12.087
		c7.483-10.271,18.225-18.084,30.245-22c4.545-1.48,9.426,1.004,10.906,5.546c1.48,4.543-1.002,9.426-5.546,10.907
		c-8.585,2.796-16.264,8.385-21.62,15.737C161.65,223.787,159.015,225.02,156.343,225.02z"/>
	<path style="fill:#BB9430;" d="M355.658,225.02c-2.671,0-5.306-1.233-6.999-3.558c-5.357-7.352-13.035-12.94-21.62-15.737
		c-4.543-1.48-7.026-6.363-5.546-10.907c1.48-4.543,6.358-7.026,10.906-5.546c12.02,3.916,22.761,11.728,30.245,22
		c2.814,3.862,1.965,9.273-1.898,12.087C359.209,224.482,357.426,225.02,355.658,225.02z"/>
</g>
<path style="fill:#474641;" d="M256.001,290.122c-14.312,0-25.955-11.643-25.955-25.955c0-4.778,3.874-8.652,8.652-8.652
	s8.652,3.874,8.652,8.652c0,4.771,3.881,8.652,8.652,8.652c4.771,0,8.652-3.881,8.652-8.652c0-4.778,3.874-8.652,8.652-8.652
	c4.778,0,8.652,3.874,8.652,8.652C281.956,278.479,270.313,290.122,256.001,290.122z"/>
<path style="fill:#BB9430;" d="M434.802,194.953c-0.039-41.239-16.548-78.567-43.229-105.59
	c-26.702-27.067-63.597-43.804-104.353-43.804c0-30.103-28.358-51.995-56.966-43.839C145.484,25.863,77.272,102.587,77.201,194.953
	H77.2l0,0c8.461,0,16.443,2.037,23.502,5.629l9.145,4.638c3.56,1.806,7.878,1.118,10.7-1.705c0,0,34.208-34.208,45.611-45.611
	c0.24-0.24,0.48-0.478,0.72-0.715c10.088-9.93,25.538-11.615,37.839-4.612c15.127,8.615,32.631,13.536,51.284,13.536
	c18.654,0,36.157-4.921,51.286-13.535c12.302-7.003,27.75-5.318,37.839,4.612c0.241,0.238,0.481,0.475,0.721,0.715
	c11.403,11.403,45.611,45.611,45.611,45.611c2.823,2.823,7.141,3.51,10.7,1.705l9.125-4.629c7.063-3.598,15.052-5.639,23.521-5.639
	l0,0h-0.002V194.953z"/>
<g>
	<path style="fill:#D9B43A;" d="M287.221,45.558l-47.368,43.939c-10.717,9.941-5.062,28.011,9.442,29.838
		c3.33,0.42,6.723,0.636,10.167,0.636c32.265,0,60.102-18.927,73.031-46.281c4.682-9.906-0.909-21.685-11.57-24.21
		C310.098,46.916,298.817,45.558,287.221,45.558z"/>
	<path style="fill:#D9B43A;" d="M212.47,7.654c0.61,0.031,1.211,0.073,1.801,0.126c22.03,1.956,31.077,29.44,14.981,44.608
		l-103.851,97.864c-8.488,7.999-19.485,12.999-31.135,13.559c-5.115,0.246-10.166-0.361-13.948-2.682
		C93.422,90.472,146.411,32.92,212.47,7.654z"/>
</g>
<path style="opacity:0.2;fill:#80531A;enable-background:new    ;" d="M382.889,246.869L382.889,246.869v-0.006
	c0.163-3.097-1.415-6.1-4.174-7.519c-6.574-3.382-13.13,1.302-13.13,7.519c0,0.002,0,0.003,0,0.006l0,0
	c0,19.116-15.497,34.601-34.613,34.601h-23.06c-9.556,0-17.303-7.747-17.303-17.303v-0.006c0-9.556-7.746-17.293-17.303-17.293
	H238.7c-9.556,0-17.303,7.737-17.303,17.293v0.006c0,9.556-7.747,17.303-17.303,17.303H181.02
	c-19.116,0-34.613-15.485-34.613-34.601l0,0v-0.006c0.163-3.097-1.415-6.1-4.174-7.519c-6.574-3.382-13.13,1.302-13.13,7.519
	c0,0.002,0,0.003,0,0.006l0,0c0,17.064-8.225,32.186-20.934,41.641c20.058,34.993,57.934,72.122,84.249,95.619
	c5.545,4.951,11.609,9.193,18.049,12.685c13.88,7.525,29.515,11.548,45.535,11.548c23.453,0,46.088-8.614,63.582-24.234
	c26.313-23.495,64.185-60.62,84.245-95.611C391.114,279.065,382.889,263.941,382.889,246.869z"/>
<g>
</g>
<g>
</g>
<g>
</g>
<g>
</g>
<g>
</g>
<g>
</g>
<g>
</g>
<g>
</g>
<g>
</g>
<g>
</g>
<g>
</g>
<g>
</g>
<g>
</g>
<g>
</g>
<g>
</g>
</svg>
