<?xml version="1.0" encoding="iso-8859-1"?>
<!-- Generator: Adobe Illustrator 19.0.0, SVG Export Plug-In . SVG Version: 6.00 Build 0)  -->
<svg version="1.1" id="Layer_1" xmlns="http://www.w3.org/2000/svg" xmlns:xlink="http://www.w3.org/1999/xlink" x="0px" y="0px"
	 viewBox="0 0 511.999 511.999" style="enable-background:new 0 0 511.999 511.999;" xml:space="preserve">
<path style="fill:#937EA3;" d="M186.283,392.393c-31.038,18.131-54.376,47.996-63.945,83.51
	c39.252,22.939,84.918,36.096,133.662,36.096l57.678-62.292L256,392.393H186.283z"/>
<path style="fill:#796093;" d="M389.662,475.903c-8.969-33.284-30.032-61.606-58.192-79.957l0,0c-0.001,0-0.001-0.001-0.002-0.001
	c-1.886-1.229-3.803-2.413-5.752-3.552H256h-69.717c-1.948,1.139-3.867,2.323-5.754,3.553c12.216,16.714,29.84,29.223,50.302,34.938
	C245.821,435.07,256,449.001,256,464.565v47.435C304.744,511.999,350.41,498.842,389.662,475.903z"/>
<path style="fill:#E8C6B3;" d="M167.826,466.196c-8.822-9.886-19.038-18.496-30.347-25.523c-6.6,10.912-11.743,22.802-15.142,35.412
	c10.194,5.957,20.824,11.248,31.826,15.827L167.826,466.196z"/>
<path style="fill:#684C77;" d="M329.828,439.196v62.384c9.56-2.765,18.895-6.056,27.977-9.835
	C353.758,471.476,343.81,453.337,329.828,439.196z"/>
<path style="fill:#796093;" d="M154.194,491.744c9.082,3.779,18.418,7.069,27.977,9.835v-62.384
	C168.189,453.337,158.242,471.476,154.194,491.744z"/>
<path style="fill:#DFB296;" d="M434.802,194.952c-2.375,0-4.708,0.178-6.998,0.488c-5.867,0.796-11.427,2.559-16.503,5.141
	c-1.468-5.556-3.2-11.062-5.152-16.501c-9.24-25.759-23.723-49.945-42.013-69.866C335.508,83.033,297.592,62.292,256,62.292
	c-68.164,0-126.459,55.706-150.162,121.784c-1.952,5.44-3.672,10.95-5.14,16.505l4.266,130.726
	c4.325,17.629,10.023,32.585,17.165,39.492c26.306,25.445,89.074,37.561,134.153,37.561s107.284-12.116,133.59-37.561
	c11.868-11.479,19.757-45.17,23.964-76.451c6.414,2.837,13.504,4.424,20.967,4.424c28.669,0,51.91-23.241,51.91-51.91
	S463.472,194.952,434.802,194.952z"/>
<path style="fill:#E8C6B3;" d="M371.424,207.955l-37.815-37.815c-5.726-5.726-11.949-10.658-18.515-14.848
	c-42.263-26.969-98.593-21.504-136.183,14.609c-6.909,6.638-20.954,19.68-33.266,31.056c-10.793,9.974-27.078,11.293-39.213,3.005
	c-9.007-6.151-20.05-9.539-31.91-8.945c-26.643,1.337-48.184,23.162-49.197,49.819c-1.124,29.594,22.531,53.936,51.872,53.936
	c7.464,0,14.553-1.587,20.967-4.424c1.676,12.457,3.937,25.292,6.799,36.958c30.89,16.976,79.734,25.144,116.711,25.144
	c45.079,0,107.284-12.116,133.59-37.561c13.053-12.625,21.292-52.116,25.114-85.719c1.061-9.328-2.267-18.623-8.952-25.213
	C371.425,207.956,371.424,207.955,371.424,207.955z"/>
<circle style="fill:#CE9276;" cx="434.801" cy="246.862" r="17.303"/>
<circle style="fill:#DFB296;" cx="77.198" cy="246.862" r="17.303"/>
<path style="fill:#9E7325;" d="M424.704,142.745c-3.674-16.625-10.014-32.614-18.995-47.233
	c-27.718-45.125-73.062-79.141-124.506-93.793c-28.608-8.156-56.966,13.734-56.966,43.839L89.683,135.901
	c-7.913,21.863-3.751,46.287,10.472,64.68l9.145,4.64c3.56,1.806,7.878,1.118,10.7-1.705l46.17-45.886
	c48.424-48.127,125.959-49.137,175.606-3.118l0.001,0.001l0,0c1.19,1.104,2.365,2.234,3.523,3.393l45.611,45.611
	c2.823,2.823,7.141,3.51,10.7,1.705l9.145-4.64l1.139-1.472C424.253,183.123,429.063,162.474,424.704,142.745z"/>
<g>
	<path style="fill:#BB9430;" d="M86.514,168.844c14.616,7.75,32.574,5.083,44.308-6.579l20.102-19.979
		c30.924-30.733,72.163-45.003,112.672-42.838c6.736,0.36,10.191-7.962,5.244-12.547l-44.604-41.346
		c-40.755,0-77.651,16.737-104.353,43.804c-5.826,5.9-11.165,12.292-15.955,19.109c-5.982,8.516-10.742,17.749-14.247,27.431
		C85.808,146.605,84.835,157.921,86.514,168.844L86.514,168.844z"/>
	<path style="fill:#BB9430;" d="M365.038,80.95c-22.453-36.553-57.747-65.364-98.45-80.864c-16.52,0.924-31.215,11.194-38.14,26.194
		l29.101,26.975c29.813,27.635,60.916,53.811,92.321,79.625c3.695,3.037,7.276,6.28,10.725,9.73
		c8.248,8.248,22.513,2.478,22.463-9.186c-0.015-3.525-0.403-7.066-1.177-10.567C378.563,107.84,372.896,93.74,365.038,80.95z"/>
</g>
<g>
	<path style="fill:#9E7325;" d="M271.685,188.855c2.676,0,5.317,1.239,7.009,3.571c5.308,7.314,12.987,12.891,21.627,15.703
		c4.543,1.479,7.028,6.362,5.549,10.905c-1.479,4.545-6.367,7.028-10.906,5.549c-12.262-3.992-22.731-11.598-30.274-21.995
		c-2.807-3.868-1.946-9.277,1.922-12.084C268.146,189.392,269.923,188.855,271.685,188.855z"/>
	<path style="fill:#9E7325;" d="M240.313,188.853c1.761,0,3.539,0.536,5.075,1.651c3.868,2.807,4.727,8.217,1.921,12.084
		c-7.554,10.407-18.023,18.014-30.278,21.995c-4.539,1.477-9.425-1.009-10.901-5.554c-1.477-4.544,1.011-9.426,5.554-10.902
		c8.753-2.845,16.228-8.275,21.619-15.702C234.996,190.092,237.636,188.853,240.313,188.853z"/>
</g>
<g>
	<circle style="fill:#474641;" cx="198.321" cy="246.862" r="17.303"/>
	<circle style="fill:#474641;" cx="313.677" cy="246.862" r="17.303"/>
	<path style="fill:#474641;" d="M256,290.121c-14.312,0-25.955-11.643-25.955-25.955c0-4.778,3.874-8.652,8.652-8.652
		s8.652,3.874,8.652,8.652c0,4.771,3.881,8.652,8.652,8.652c4.771,0,8.652-3.881,8.652-8.652c0-4.778,3.874-8.652,8.652-8.652
		c4.778,0,8.652,3.874,8.652,8.652C281.955,278.478,270.312,290.121,256,290.121z"/>
</g>
<path style="fill:#CE9276;" d="M347.322,462.784c4.874,8.993,8.466,18.782,10.515,29.129c0.662-0.276,1.324-0.551,1.983-0.833
	c10.296-4.385,20.261-9.396,29.842-14.994c-3.398-12.61-8.543-24.499-15.143-35.411C364.533,446.88,355.398,454.32,347.322,462.784z
	"/>
<g>
</g>
<g>
</g>
<g>
</g>
<g>
</g>
<g>
</g>
<g>
</g>
<g>
</g>
<g>
</g>
<g>
</g>
<g>
</g>
<g>
</g>
<g>
</g>
<g>
</g>
<g>
</g>
<g>
</g>
</svg>
