<?xml version="1.0" encoding="iso-8859-1"?>
<!-- Generator: Adobe Illustrator 19.0.0, SVG Export Plug-In . SVG Version: 6.00 Build 0)  -->
<svg version="1.1" id="Layer_1" xmlns="http://www.w3.org/2000/svg" xmlns:xlink="http://www.w3.org/1999/xlink" x="0px" y="0px"
	 viewBox="0 0 512.001 512.001" style="enable-background:new 0 0 512.001 512.001;" xml:space="preserve">
<path style="fill:#6D5B4D;" d="M182.298,385.557c-32.812,19.167-57.484,50.74-67.601,88.284C156.194,498.09,204.47,512,256.001,512
	l60.975-65.853l-60.975-60.59H182.298z"/>
<path style="fill:#625143;" d="M397.304,473.84c-9.482-35.186-31.749-65.128-61.518-84.528l0,0c-0.001,0-0.001-0.001-0.002-0.001
	c-1.994-1.299-4.021-2.551-6.08-3.755h-73.702h-73.702c-2.06,1.204-4.088,2.456-6.083,3.756c0.035,0.049,0.074,0.095,0.11,0.144
	c-10.769,7.007-20.568,15.38-29.129,24.895c11.258,8.929,23.236,16.578,35.746,22.663c21.145,10.287,43.138,16.008,65.481,17.063
	c4.162,0.196,7.567,3.532,7.577,7.699c0,0.026,0,0.051,0,0.078v50.146C307.531,512,355.807,498.09,397.304,473.84z"/>
<path style="fill:#E2C35A;" d="M162.786,463.578c-9.327-10.451-20.127-19.554-32.082-26.982
	c-6.977,11.535-12.415,24.106-16.007,37.436c10.777,6.298,22.015,11.891,33.645,16.732L162.786,463.578z"/>
<path style="fill:#D9B43A;" d="M352.543,459.971c5.152,9.507,8.95,19.856,11.116,30.794c0.7-0.291,1.4-0.583,2.096-0.88
	c10.884-4.635,21.419-9.933,31.547-15.851c-3.593-13.33-9.032-25.9-16.008-37.435C370.738,443.158,361.081,451.023,352.543,459.971z
	"/>
<path style="fill:#584639;" d="M334.049,435.033v65.95c10.106-2.923,19.975-6.402,29.577-10.398
	C359.346,469.16,348.831,449.984,334.049,435.033z"/>
<path style="fill:#625143;" d="M148.375,490.585c9.601,3.995,19.471,7.473,29.577,10.398v-65.95
	C163.171,449.984,152.655,469.16,148.375,490.585z"/>
<g>
	<circle style="fill:#827061;" cx="219.109" cy="448.169" r="9.146"/>
	<circle style="fill:#827061;" cx="219.414" cy="484.754" r="9.146"/>
	<circle style="fill:#827061;" cx="292.889" cy="448.169" r="9.146"/>
	<circle style="fill:#827061;" cx="292.585" cy="484.754" r="9.146"/>
</g>
<path style="fill:#D9B43A;" d="M445.024,176.828c-8.946,0-17.384,2.155-24.846,5.952c-18.237-68.979-72.686-131.386-139.707-143.904
	l-85.524,373.464c18.958,9.223,39.539,14.487,61.053,14.487c77.994,0,143.769-68.985,164.178-146.194
	c7.461,3.796,15.899,5.951,24.845,5.951c30.308,0,54.878-24.569,54.878-54.878S475.332,176.828,445.024,176.828z"/>
<path style="fill:#E2C35A;" d="M280.47,38.877c-7.993-1.493-16.16-2.291-24.469-2.291c-77.994,0-143.769,68.985-164.178,146.194
	c-7.461-3.796-15.899-5.951-24.845-5.951c-30.308,0-54.878,24.569-54.878,54.878s24.569,54.878,54.878,54.878
	c8.951,0,17.393-2.156,24.857-5.957c14.78,55.908,53.339,107.502,103.112,131.714c7.993,1.493,16.16,2.291,24.469,2.291
	c94.292,0,170.731-100.829,170.731-195.121C390.146,146.735,344.605,70.076,280.47,38.877z"/>
<path style="fill:#D9B43A;" d="M402.712,190.349c-7.661-27.163-22.695-51.568-43.695-70.84c-7.235-6.64-18.447-6.187-25.389,0.76
	c-20.734,20.746-48.295,32.169-77.628,32.169s-56.894-11.423-77.626-32.168c-6.941-6.946-18.154-7.4-25.389-0.76
	c-21,19.272-36.034,43.675-43.695,70.84c-1.396,0.565-2.7,1.305-3.9,2.178c4.338,4.254,7.969,9.219,10.708,14.711
	c6.035,12.101,23.702,10.615,27.218-2.443c0.056-0.21,0.111-0.421,0.162-0.632c3.104-12.672,8.302-24.618,15.355-35.438
	c3.718-5.704,11.43-7.212,17.123-3.478c23.585,15.474,51.17,23.774,80.045,23.774c28.874,0,56.459-8.3,80.045-23.774
	c5.693-3.735,13.406-2.226,17.123,3.478c7.052,10.818,12.25,22.765,15.355,35.436c2.662,10.871,11.369,18.901,22.034,20.93
	l16.055-32.566C405.412,191.654,404.108,190.914,402.712,190.349z"/>
<path style="opacity:0.2;fill:#463540;enable-background:new    ;" d="M91.834,280.627c14.78,55.908,53.339,107.502,103.112,131.714
	c18.96,9.223,39.54,14.487,61.055,14.487c77.994,0,143.769-68.985,164.178-146.194c0.052,0.027,0.109,0.05,0.162,0.077
	c-17.907-9.034-30.195-27.572-30.195-48.997l0,0v-0.006c0.172-3.274-1.496-6.449-4.412-7.949c-6.95-3.576-13.88,1.377-13.88,7.949
	c0,0.002,0,0.004,0,0.006l0,0c0,20.208-16.383,36.579-36.591,36.579h-24.384c-10.102,0-18.293-8.19-18.293-18.293v-0.006
	c0-10.102-8.189-18.282-18.293-18.282h-36.585c-10.102,0-18.293,8.179-18.293,18.282v0.006c0,10.102-8.19,18.293-18.293,18.293
	h-24.384c-20.208,0-36.591-16.371-36.591-36.579l0,0v-0.006c0.172-3.274-1.496-6.449-4.412-7.949
	c-6.95-3.576-13.88,1.377-13.88,7.949c0,0.002,0,0.004,0,0.006l0,0c0,21.422-12.283,39.955-30.183,48.991
	C91.726,280.677,91.782,280.654,91.834,280.627z"/>
<circle style="fill:#D9B43A;" cx="66.977" cy="231.706" r="18.293"/>
<circle style="opacity:0.5;fill:#BB9430;enable-background:new    ;" cx="445.023" cy="231.706" r="18.293"/>
<g>
	<circle style="fill:#474641;" cx="195.024" cy="231.706" r="18.293"/>
	<path style="fill:#474641;" d="M298.683,249.999h36.585c5.051,0,9.146-4.095,9.146-9.146s-4.095-9.146-9.146-9.146
		c0-10.102-8.19-18.293-18.293-18.293s-18.293,8.19-18.293,18.293c-5.051,0-9.146,4.095-9.146,9.146
		S293.632,249.999,298.683,249.999z"/>
</g>
<path style="fill:#8D472E;" d="M237.708,277.438h36.585c5.051,0,9.146-4.095,9.146-9.146c0-15.13-12.309-27.439-27.439-27.439
	c-15.13,0-27.439,12.308-27.439,27.439C228.562,273.343,232.657,277.438,237.708,277.438z"/>
<g>
	<path style="fill:#6D5B4D;" d="M213.318,185.975h-36.585c-5.051,0-9.146,4.095-9.146,9.146s4.095,9.146,9.146,9.146h36.585
		c5.051,0,9.146-4.095,9.146-9.146S218.369,185.975,213.318,185.975z"/>
	<path style="fill:#6D5B4D;" d="M331.103,168.136c-9.255,3.006-19.023,3.009-28.246,0.005c-4.802-1.565-9.965,1.061-11.529,5.866
		c-1.563,4.802,1.062,9.965,5.866,11.528c6.463,2.105,13.113,3.156,19.768,3.156c6.656,0,13.317-1.052,19.794-3.157
		c4.804-1.561,7.434-6.721,5.872-11.524C341.067,169.204,335.9,166.575,331.103,168.136z"/>
</g>
<path style="fill:#827061;" d="M395.865,207.316c5.284-10.63,13.911-19.306,24.506-24.647c15.976-8.054,24.413-25.957,20.384-43.388
	C422.351,59.657,346.623,0,256.001,0S89.651,59.657,71.247,139.281c-4.029,17.43,4.409,35.334,20.384,43.388
	c10.595,5.341,19.222,14.017,24.506,24.647h0.004c4.538,0,8.49-3.098,9.569-7.505c6.391-26.088,20.424-49.164,39.574-66.761
	c23.186,23.274,55.268,37.68,90.717,37.68s67.53-14.406,90.715-37.68c19.15,17.596,33.183,40.673,39.574,66.761
	c1.079,4.407,5.032,7.505,9.569,7.505H395.865z"/>
<path style="fill:#6D5B4D;" d="M440.755,139.281L440.755,139.281c-10.945-47.355-42.167-87.645-84.737-112.525
	c0.718,8.845,0.695,16.972,0.21,24.293c-1.545,23.276-11.556,45.174-28.018,61.701l0,0c-19.133,19.207-45.018,30.522-72.129,30.541
	c-26.973,0.021-52.317-10.496-71.355-29.607l0,0c-10.391-10.432-27.163-10.802-38.005-0.839l0,0
	c-5.317,4.885-10.273,10.083-14.846,15.557c-15.204,18.194-43.618,17.254-56.895-2.582c-0.005,0.001-0.002,0-0.009,0.001
	c-1.388,4.316-2.612,8.696-3.65,13.144c-4.076,17.469,4.093,35.599,20.139,43.617c10.673,5.334,19.365,14.045,24.678,24.733h0.004
	c4.538,0,8.49-3.098,9.569-7.505c6.391-26.088,20.424-49.164,39.574-66.761c23.185,23.276,55.267,37.682,90.715,37.682
	s67.53-14.406,90.715-37.68c19.15,17.596,33.183,40.673,39.574,66.761c1.079,4.407,5.032,7.505,9.569,7.505h0.004
	c5.629-11.326,15.052-20.432,26.608-25.651C438.536,174.409,446.329,156.004,440.755,139.281z"/>
<g>
</g>
<g>
</g>
<g>
</g>
<g>
</g>
<g>
</g>
<g>
</g>
<g>
</g>
<g>
</g>
<g>
</g>
<g>
</g>
<g>
</g>
<g>
</g>
<g>
</g>
<g>
</g>
<g>
</g>
</svg>
