<?xml version="1.0" encoding="iso-8859-1"?>
<!-- Generator: Adobe Illustrator 19.0.0, SVG Export Plug-In . SVG Version: 6.00 Build 0)  -->
<svg version="1.1" id="Layer_1" xmlns="http://www.w3.org/2000/svg" xmlns:xlink="http://www.w3.org/1999/xlink" x="0px" y="0px"
	 viewBox="0 0 512.001 512.001" style="enable-background:new 0 0 512.001 512.001;" xml:space="preserve">
<path style="fill:#6D5B4D;" d="M462.178,357.76c-10.387-41.776-16.322-86.452-16.322-128.708l0,0H256l-85.742,100.44L256,437.282
	c62.522,0,125.044-12.222,184.393-36.666C457.267,393.666,466.582,375.47,462.178,357.76z"/>
<path style="fill:#827061;" d="M66.144,229.052L66.144,229.052c0,42.256-5.935,86.932-16.322,128.708
	c-4.403,17.709,4.912,35.906,21.784,42.856C130.956,425.06,193.479,437.282,256,437.282v-208.23H66.144z"/>
<path style="fill:#6F7475;" d="M349.127,407.944c-6.42-7.507-13.728-14.229-21.769-20.001
	c-20.094-14.429-44.731-22.929-71.358-22.929s-51.264,8.499-71.359,22.929c-8.039,5.773-15.349,12.494-21.769,20.001
	c-17.611,20.595-28.512,47.098-29.311,76.126c11.796,5.702,24.054,10.59,36.696,14.626c3.574,1.14,7.18,2.211,10.814,3.212
	c0.478,0.131,0.955,0.26,1.434,0.388c23.432,6.315,48.066,9.705,73.493,9.705c25.427,0,50.061-3.389,73.493-9.705
	c0.478-0.129,0.957-0.256,1.434-0.388c3.635-1.001,7.24-2.07,10.814-3.212c6.225-1.987,12.344-4.206,18.373-6.603
	c3.68-1.464,7.335-2.978,10.936-4.591c2.48-1.111,4.945-2.251,7.387-3.432C377.64,455.04,366.738,428.539,349.127,407.944z"/>
<path style="fill:#7F8383;" d="M182.508,487.168c0-23.66,19.352-43.836,43.012-43.76c3.771,0.012,7.428,0.512,10.909,1.439
	c1.29,0.343,2.585,0.652,3.885,0.926c7.762,1.635,15.075-4.243,15.075-12.175l0,0c0-6.227-4.593-11.567-10.774-12.331
	c-24.146-2.986-45.383-15.346-59.971-33.323c-8.039,5.773-15.349,12.494-21.769,20.001c-17.611,20.595-28.512,47.098-29.311,76.126
	c11.796,5.702,24.054,10.59,36.696,14.626c4.043,1.291,8.126,2.49,12.246,3.601c0.001-0.001,0.001-0.001,0.002-0.002v-14.794
	V487.168z"/>
<path style="fill:#6F7475;" d="M162.874,407.944c-17.611,20.595-28.512,47.098-29.311,76.126
	c11.796,5.702,24.054,10.59,36.696,14.626c3.574,1.14,7.18,2.211,10.814,3.212c0.478,0.131,0.955,0.26,1.434,0.388v-20.919
	C182.508,454.629,175.359,429.55,162.874,407.944z"/>
<path style="fill:#5F6568;" d="M349.127,407.944c-3.397,5.878-6.393,12.017-8.962,18.373c-6.876,17.006-10.671,35.589-10.671,55.061
	v20.917c0.478-0.129,0.957-0.256,1.434-0.388c3.635-1.001,7.24-2.07,10.814-3.212c6.225-1.987,12.344-4.206,18.373-6.603
	c3.68-1.464,7.335-2.978,10.936-4.591c2.48-1.111,4.945-2.251,7.387-3.432C377.64,455.04,366.738,428.539,349.127,407.944z"/>
<path style="fill:#CE9276;" d="M445.857,175.158c-8.988,0-17.464,2.166-24.961,5.98C403.426,115.06,352.874,54.986,289.83,38.664
	L115.365,362.147c1.143,0.741,2.292,1.477,3.476,2.179l0,0c84.201,49.914,190.12,49.914,274.321,0l0,0
	c29.732-17.625,46.501-47.666,48.018-79.14c1.543,0.13,3.1,0.212,4.678,0.212c30.442,0,55.12-24.678,55.12-55.12
	S476.299,175.158,445.857,175.158z"/>
<path style="fill:#DFB296;" d="M382.722,219.334c-3.999-9.929-6.507-20.398-7.538-31.052
	c-5.625-58.089-38.548-116.146-85.352-149.618c-8.426-2.182-17.072-3.591-25.896-4.119c-2.631-0.157-5.274-0.249-7.935-0.249
	c-78.337,0-144.402,69.289-164.902,146.839c-7.495-3.814-15.97-5.977-24.954-5.977c-30.442,0-55.12,24.678-55.12,55.12
	s24.678,55.12,55.12,55.12c1.58,0,3.139-0.082,4.685-0.212c1.463,30.214,16.983,59.107,44.534,76.962
	c74.142,25.927,157.505,18.493,226.352-22.319l0,0C384.5,314.464,400.47,263.391,382.722,219.334z"/>
<circle style="fill:#CE9276;" cx="66.144" cy="230.277" r="18.373"/>
<circle style="fill:#BD7155;" cx="445.857" cy="230.277" r="18.373"/>
<path style="fill:#CE9276;" d="M410.79,170.099c-8.773-9.583-22.791-12.692-34.561-7.19c-0.082,0.038-0.163,0.077-0.245,0.115
	c-37.415,17.805-77.548,26.832-119.285,26.832c-41.937,0-82.242-9.109-119.796-27.074c-0.085-0.04-0.169-0.081-0.254-0.12
	c-12.12-5.692-26.573-2.509-35.556,7.42l-9.996,11.048c14.964,7.618,25.988,21.862,29.196,38.874
	c0.015-0.007,0.029-0.013,0.043-0.021c2.84-1.333,6.085-1.448,8.983-0.245c40.351,16.755,83.117,25.236,127.379,25.236
	c45.774,0,89.959-9.075,131.535-26.996c1.104,0.737,2.279,1.372,3.488,1.946c3.226-16.973,14.237-31.183,29.172-38.79
	L410.79,170.099z M135.2,202.376L135.2,202.376L135.2,202.376L135.2,202.376z"/>
<g>
	<path style="fill:#474641;" d="M335.618,211.904h-36.746c-5.073,0-9.187,4.113-9.187,9.187c0,5.073,4.113,9.187,9.187,9.187
		c0,10.147,8.226,18.373,18.373,18.373s18.373-8.226,18.373-18.373c5.073,0,9.187-4.113,9.187-9.187
		C344.804,216.017,340.691,211.904,335.618,211.904z"/>
	<path style="fill:#474641;" d="M213.13,211.904h-36.746c-5.073,0-9.187,4.113-9.187,9.187c0,5.073,4.113,9.187,9.187,9.187
		c0,10.147,8.226,18.373,18.373,18.373c10.147,0,18.373-8.226,18.373-18.373c5.073,0,9.187-4.113,9.187-9.187
		C222.316,216.017,218.203,211.904,213.13,211.904z"/>
	<path style="fill:#474641;" d="M274.374,239.464h-36.746c-5.073,0-9.187,4.113-9.187,9.187c0,15.197,12.363,27.56,27.56,27.56
		s27.56-12.363,27.56-27.56C283.56,243.577,279.447,239.464,274.374,239.464z"/>
</g>
<path style="fill:#BB9430;" d="M445.771,174.954c0,0.065,0,0.141,0,0.208c0.058,0,0.114-0.005,0.173-0.005c0-0.065,0-0.14,0-0.203
	H445.771z"/>
<path style="fill:#6D5B4D;" d="M295.985,0.671c-20.716-4.179-40.071,11.696-40.071,32.904c0-21.208-19.354-37.083-40.071-32.904
	C130.232,17.94,66.058,89.411,66.058,174.954c0,0.064,0,0.138,0,0.203h0.173c8.984,0,17.459,2.163,24.954,5.977
	c6.727,3.422,12.663,8.175,17.445,13.927c0.012-0.045,0.026-0.092,0.038-0.137c1.959-6.974,9.81-10.404,16.345-7.278
	c39.878,19.076,84.531,29.769,131.687,29.769c46.935,0,91.39-10.596,131.126-29.506c6.277-2.987,13.803,0.327,15.682,7.02
	l0.037,0.131c4.782-5.752,10.718-10.503,17.445-13.927c7.446-3.789,15.861-5.944,24.782-5.971c0-0.066,0-0.142,0-0.208
	C445.771,89.411,381.596,17.94,295.985,0.671z"/>
<g style="opacity:0.8;">
	<path style="fill:#827061;" d="M343.748,146.929c-14.309-81.816-87.834-113.354-87.834-113.354
		c0-21.208-19.354-37.083-40.071-32.904c-51.809,10.451-95.748,40.76-122.378,82.019c-8.386,12.992-6.58,30.074,4.354,41.009l0,0
		c40.875,40.875,95.848,65.061,153.645,66.109c1.742,0.032,3.486,0.048,5.234,0.048c21.554,0,42.679-2.415,63.223-7.201
		C336.05,178.898,346.601,163.241,343.748,146.929z"/>
</g>
<g>
</g>
<g>
</g>
<g>
</g>
<g>
</g>
<g>
</g>
<g>
</g>
<g>
</g>
<g>
</g>
<g>
</g>
<g>
</g>
<g>
</g>
<g>
</g>
<g>
</g>
<g>
</g>
<g>
</g>
</svg>
