<?xml version="1.0" encoding="iso-8859-1"?>
<!-- Generator: Adobe Illustrator 19.0.0, SVG Export Plug-In . SVG Version: 6.00 Build 0)  -->
<svg version="1.1" id="Layer_1" xmlns="http://www.w3.org/2000/svg" xmlns:xlink="http://www.w3.org/1999/xlink" x="0px" y="0px"
	 viewBox="0 0 512.001 512.001" style="enable-background:new 0 0 512.001 512.001;" xml:space="preserve">
<path style="fill:#CF8575;" d="M257.827,232.229H60.953v120.686c0,26.93,87.326,48.762,195.048,48.762l195.048-169.448H257.827z"/>
<path style="fill:#BE6054;" d="M256.61,232.229c0,71.741,0,132.72,0,169.445c107.441-0.082,194.438-21.879,194.438-48.759V232.229
	H256.61z"/>
<path style="fill:#F2CDB7;" d="M348.684,408.439c-6.389-7.472-13.663-14.162-21.665-19.906
	c-19.998-14.36-44.52-22.819-71.018-22.819s-51.02,8.459-71.019,22.819c-8.001,5.745-15.276,12.434-21.665,19.906
	c-17.527,20.497-28.376,46.874-29.172,75.764c11.739,5.675,23.94,10.54,36.521,14.557c3.557,1.135,7.146,2.2,10.763,3.196
	c0.475,0.13,0.951,0.258,1.428,0.386c23.32,6.285,47.837,9.659,73.143,9.659s49.822-3.373,73.143-9.659
	c0.475-0.128,0.952-0.255,1.428-0.386c3.618-0.996,7.206-2.06,10.763-3.196c6.195-1.977,12.286-4.186,18.286-6.572
	c3.662-1.457,7.3-2.964,10.884-4.569c2.469-1.106,4.921-2.241,7.352-3.416C377.061,455.312,366.211,428.937,348.684,408.439z"/>
<path style="fill:#E1A996;" d="M287.196,443.739c-4.057-0.067-7.987,0.433-11.716,1.426c-12.782,3.404-26.177,3.404-38.958,0
	c-3.729-0.993-7.658-1.493-11.716-1.426c-23.084,0.38-41.947,20.451-41.947,43.538v-5.754v20.818
	c23.32,6.285,47.837,9.659,73.143,9.659s49.822-3.373,73.143-9.659v-20.818v5.753C329.143,464.19,310.28,444.12,287.196,443.739z"/>
<path style="fill:#F2CDB7;" d="M163.318,408.439c-17.527,20.497-28.376,46.874-29.172,75.764
	c11.739,5.675,23.94,10.54,36.521,14.557c3.557,1.135,7.146,2.2,10.763,3.196c0.475,0.13,0.951,0.258,1.428,0.386v-20.819
	C182.858,454.902,175.743,429.943,163.318,408.439z"/>
<g>
	<path style="fill:#E1A996;" d="M348.684,408.439c-3.38,5.85-6.362,11.96-8.92,18.286c-6.844,16.925-10.62,35.419-10.62,54.799
		v20.818c0.475-0.128,0.952-0.255,1.427-0.386c3.618-0.996,7.206-2.06,10.763-3.196c6.195-1.977,12.286-4.186,18.286-6.572
		c3.662-1.457,7.3-2.964,10.884-4.569c2.469-1.106,4.921-2.241,7.352-3.416C377.061,455.312,366.211,428.937,348.684,408.439z"/>
	<path style="fill:#E1A996;" d="M353.524,487.619v6.907c2.041-0.761,4.075-1.536,6.095-2.339c3.662-1.457,7.3-2.964,10.884-4.569
		c2.469-1.106,4.921-2.241,7.352-3.416c-0.795-28.891-11.644-55.267-29.172-75.764c-6.389-7.472-13.663-14.162-21.665-19.906
		c-19.999-14.359-44.52-22.818-71.018-22.818s-51.02,8.459-71.019,22.819c-1.653,1.186-3.267,2.423-4.855,3.689l0.123,0.151
		c18.628,22.956,46.24,36.122,75.752,36.122c16.205,0,32.132-4.074,46.264-11.681c8.137-4.38,18.265-2.832,24.603,3.895
		c2.843,3.017,5.503,6.222,7.97,9.607C347.064,447.085,353.524,466.899,353.524,487.619z"/>
</g>
<path style="fill:#E1A996;" d="M367.63,122.526c-0.005-0.004-0.009-0.007-0.012-0.011c-23.78-15.504-58.453-20.135-90.468-12.083
	c-3.412,0.857-11.101,2.843-16.08,4.131l-16.073-4.137l-0.124-0.032c-24.526-6.131-50.761-1.727-71.979,12.081
	c-20.912,13.607-35.556,35.763-40.179,60.788c-5.054,27.357-17.54,90.693-25.665,131.697c8.003,14.275,18.003,27.277,29.613,38.641
	c9.004,8.813,18.977,16.636,29.748,23.295c26.036,16.095,56.726,25.389,89.589,25.389c77.35,0,142.67-51.463,163.618-122.013
	l0.5-97.562L367.63,122.526z"/>
<path style="fill:#F2CDB7;" d="M390.096,213.333c0-2.722-0.071-5.452-0.197-8.182l0,0c-8.177,1.51-16.03-3.894-17.542-12.071
	l-0.586-3.176c-2.809-15.209-11.614-28.612-24.159-36.775c-11.611-7.556-34.698-13.982-61.547-7.23
	c-5.107,1.284-20.39,5.249-20.39,5.249l-4.575,1.187l-25.159-6.476c-14.683-3.653-30.39-1.004-43.103,7.269
	c-12.546,8.164-21.353,21.569-24.163,36.777c-6.788,36.747-26.83,137.638-32.016,163.695c9.004,8.813,18.977,16.636,29.748,23.295
	c18.07,4.613,36.048,7.103,53.022,7.103C313.686,384,390.096,307.59,390.096,213.333z"/>
<g>
	<circle style="fill:#474641;" cx="195.048" cy="231.619" r="18.286"/>
	<circle style="fill:#474641;" cx="316.953" cy="231.619" r="18.286"/>
</g>
<g>
	<path style="fill:#BE6054;" d="M316.937,188.62c-6.652,0-13.3-1.051-19.761-3.155c-4.801-1.563-7.426-6.723-5.864-11.524
		c1.564-4.803,6.724-7.428,11.525-5.864c9.22,3.003,18.984,3,28.236-0.005c4.796-1.56,9.961,1.067,11.52,5.87
		c1.56,4.802-1.068,9.96-5.87,11.52C330.249,187.568,323.591,188.62,316.937,188.62z"/>
	<path style="fill:#BE6054;" d="M195.032,188.62c-6.652,0-13.3-1.051-19.761-3.155c-4.801-1.563-7.426-6.723-5.864-11.524
		c1.564-4.803,6.73-7.428,11.525-5.864c9.22,3.003,18.984,3,28.236-0.005c4.797-1.56,9.961,1.067,11.52,5.87
		c1.56,4.802-1.068,9.96-5.87,11.52C208.344,187.568,201.686,188.62,195.032,188.62z"/>
</g>
<g>
	<path style="fill:#E1A996;" d="M168.229,265.143h-12.19c-5.051,0-9.143-4.094-9.143-9.143c0-5.049,4.092-9.143,9.143-9.143h12.19
		c5.051,0,9.143,4.094,9.143,9.143C177.372,261.049,173.28,265.143,168.229,265.143z"/>
	<path style="fill:#E1A996;" d="M355.963,265.143h-12.19c-5.051,0-9.143-4.094-9.143-9.143c0-5.049,4.092-9.143,9.143-9.143h12.19
		c5.051,0,9.143,4.094,9.143,9.143C365.105,261.049,361.013,265.143,355.963,265.143z"/>
</g>
<path style="fill:#BE6054;" d="M444.903,167.817c-2.102-38.39-18.066-75.847-44.956-105.468
	C371.639,31.165,332.219,9.813,289.629,2.761c0,0-21.438-2.761-33.629-2.761l-36.571,85.333l36.775,48.115l20.524-5.283
	c19.688-4.923,40.715-1.41,57.693,9.638c16.976,11.046,28.492,28.863,32.171,48.781c7.851,42.498,33.202,169.65,33.202,169.65
	l32.879,3.385c8.18-19.5,12.484-40.608,12.484-62.326v-10.255l0.201-110.897L444.903,167.817z"/>
<g>
	<path style="fill:#CF8575;" d="M216.325,3.944c23.828-5.163,39.675-3.657,39.675-3.657l0.204,30.107v103.055l-20.646-5.314
		c-19.59-4.897-40.597-1.379-57.572,9.668c-16.976,11.047-28.492,28.865-32.171,48.783c-7.851,42.498-33.202,169.649-33.202,169.649
		l-32.93,3.385c-8.543-19.853-13.04-41.424-13.04-63.69v-8.892l0.408-110.894l0.455-8.326c2.102-38.39,18.066-75.847,44.956-105.468
		C139.334,32.746,176.219,12.005,216.325,3.944"/>
	<path style="fill:#CF8575;" d="M333.388,68.158l-26.603,26.603c-2.807,2.807-6.457,4.419-10.279,4.54
		c-3.513,0.11-7.589,0.406-12.115,0.875l-0.084,0.005c-0.319,0-0.674-0.293-0.674-0.712V36.966c0-1.929,0.755-3.728,2.019-4.813
		c1.115-0.958,2.398-1.442,3.814-1.442c0.397,0,0.805,0.041,1.208,0.123c13.307,2.675,26.299,6.996,38.619,12.845
		c4.459,2.117,7.502,6.142,8.349,11.041C338.503,59.697,336.953,64.595,333.388,68.158z"/>
</g>
<path style="fill:#BE6054;" d="M237.777,101.165c-6.457-1.614-13.125-2.432-19.819-2.432c-16.033,0-31.579,4.601-44.956,13.307
	c-9.211,5.994-17.401,14.674-23.682,25.1c-7.965,13.223-8.825,58.058-8.825,74.311v2.166v1.463
	c3.83-19.608,25.611-66.373,42.369-77.278c16.975-11.047,37.981-14.565,57.572-9.668l15.565,4.006l10.971-14.502l-10.971-11.782
	L237.777,101.165z"/>
<path style="fill:#F2CDB7;" d="M91.884,182.711c-7.459-3.796-15.894-5.949-24.836-5.949c-30.297,0-54.857,24.56-54.857,54.857
	s24.56,54.857,54.857,54.857c9.142,0,17.754-2.249,25.334-6.204L91.884,182.711z"/>
<g>
	<path style="fill:#E1A996;" d="M444.953,176.762c-8.942,0-17.376,2.153-24.836,5.949l-0.5,97.562
		c7.581,3.955,16.193,6.204,25.335,6.204c30.297,0,54.857-24.56,54.857-54.857S475.25,176.762,444.953,176.762z"/>
	<circle style="fill:#E1A996;" cx="67.048" cy="231.619" r="18.286"/>
</g>
<circle style="fill:#CF8575;" cx="444.953" cy="231.619" r="18.286"/>
<g>
	<circle style="fill:#5B5751;" cx="195.048" cy="231.619" r="18.286"/>
	<circle style="fill:#5B5751;" cx="316.953" cy="231.619" r="18.286"/>
</g>
<path style="fill:#BE6054;" d="M256.001,284.518c-7.326,0-14.214-2.854-19.395-8.034c-3.571-3.571-3.571-9.36,0.001-12.93
	c3.571-3.569,9.36-3.569,12.929,0c1.726,1.727,4.023,2.678,6.465,2.678c2.442,0,4.738-0.951,6.465-2.678
	c3.572-3.571,9.361-3.571,12.929,0c3.572,3.571,3.572,9.36,0.001,12.93C270.215,281.665,263.327,284.518,256.001,284.518z"/>
<g>
</g>
<g>
</g>
<g>
</g>
<g>
</g>
<g>
</g>
<g>
</g>
<g>
</g>
<g>
</g>
<g>
</g>
<g>
</g>
<g>
</g>
<g>
</g>
<g>
</g>
<g>
</g>
<g>
</g>
</svg>
