<?xml version="1.0" encoding="iso-8859-1"?>
<!-- Generator: Adobe Illustrator 19.0.0, SVG Export Plug-In . SVG Version: 6.00 Build 0)  -->
<svg version="1.1" id="Layer_1" xmlns="http://www.w3.org/2000/svg" xmlns:xlink="http://www.w3.org/1999/xlink" x="0px" y="0px"
	 viewBox="0 0 512 512" style="enable-background:new 0 0 512 512;" xml:space="preserve">
<path style="fill:#706B63;" d="M35.785,209.204c0,27.321,22.227,49.548,49.548,49.548h49.548H256l99.097-122.219L256,0
	C134.573,0,35.785,93.848,35.785,209.204z"/>
<path style="fill:#5B5751;" d="M256,0v258.753h121.118h49.548c27.321,0,49.548-22.227,49.548-49.548C476.215,93.848,377.427,0,256,0
	z"/>
<path style="fill:#84B3C8;" d="M443.183,225.72h-33.032v-16.516c0-78.927-69.152-143.14-154.151-143.14
	s-154.151,64.213-154.151,143.14v16.516H68.817v-16.516c0-97.141,83.97-176.172,187.183-176.172s187.183,79.031,187.183,176.172
	V225.72z"/>
<path style="fill:#ACB958;" d="M339.714,418.461c-5.771-6.748-12.341-12.791-19.568-17.979
	c-18.063-12.971-40.21-20.611-64.145-20.611c-0.184,0-0.367,0.01-0.551,0.011l-44.043,71.559l44.043,60.555
	c0.184,0,0.367,0.004,0.551,0.004c22.858,0,45.001-3.047,66.065-8.724c0.429-0.116,0.86-0.23,1.289-0.349
	c3.268-0.9,6.508-1.861,9.721-2.887c5.596-1.786,11.097-3.781,16.516-5.936c3.308-1.316,6.593-2.677,9.83-4.127
	c2.23-0.999,4.445-2.024,6.641-3.085C365.344,460.798,355.545,436.975,339.714,418.461z"/>
<path style="fill:#BDC772;" d="M191.854,400.482c-7.226,5.189-13.798,11.231-19.568,17.979
	c-15.831,18.513-25.63,42.337-26.349,68.432c10.603,5.126,21.623,9.52,32.987,13.148c3.213,1.025,6.454,1.987,9.721,2.887
	c0.429,0.118,0.859,0.233,1.289,0.349c20.894,5.632,42.852,8.671,65.514,8.719V379.882
	C231.727,379.999,209.778,387.612,191.854,400.482z"/>
<path style="opacity:0.3;fill:#636147;enable-background:new    ;" d="M284.177,450.345c-3.664-0.061-7.214,0.391-10.582,1.288
	c-11.545,3.074-23.643,3.074-35.188,0c-3.368-0.897-6.917-1.349-10.582-1.288c-20.85,0.344-37.888,18.472-37.888,39.325v0.308
	v13.298C210.999,508.953,233.143,512,256,512s45.001-3.047,66.065-8.724v-13.298v-0.309
	C322.065,468.817,305.026,450.689,284.177,450.345z"/>
<path style="fill:#CED58C;" d="M172.286,418.461c-15.831,18.513-25.63,42.337-26.349,68.432c10.603,5.126,21.623,9.52,32.987,13.148
	c3.213,1.025,6.455,1.987,9.721,2.887c0.429,0.118,0.859,0.233,1.289,0.349v-18.804C189.935,460.428,183.51,437.884,172.286,418.461
	z"/>
<path style="fill:#BDC772;" d="M339.714,418.461c-3.053,5.284-5.746,10.803-8.057,16.516c-6.181,15.288-9.593,31.992-9.593,49.496
	v18.803c0.429-0.116,0.86-0.23,1.289-0.349c3.268-0.9,6.508-1.861,9.721-2.887c5.596-1.786,11.097-3.781,16.516-5.936
	c3.308-1.316,6.593-2.677,9.83-4.127c2.23-0.999,4.445-2.024,6.641-3.085C365.344,460.798,355.545,436.975,339.714,418.461z"/>
<path style="opacity:0.3;fill:#636147;enable-background:new    ;" d="M339.714,418.461c-5.771-6.748-12.341-12.791-19.568-17.979
	c-18.063-12.971-40.211-20.611-64.145-20.611s-46.082,7.64-64.146,20.611c15.141,18.658,38.246,30.59,64.146,30.59
	c14.645,0,28.399-3.815,40.324-10.503c8.547-4.793,19.314-3.321,26.197,3.654c3.304,3.348,6.36,6.944,9.137,10.755
	c11.265,15.451,17.934,34.457,17.934,55v4.127c3.308-1.316,6.593-2.677,9.83-4.127c2.23-0.999,4.445-2.024,6.641-3.085
	C365.344,460.798,355.545,436.975,339.714,418.461z"/>
<g>
	<circle style="fill:#7B7E4D;" cx="256.275" cy="437.677" r="8.258"/>
	<circle style="fill:#7B7E4D;" cx="255.725" cy="470.71" r="8.258"/>
	<circle style="fill:#7B7E4D;" cx="256" cy="503.742" r="8.258"/>
</g>
<path style="fill:#978574;" d="M108.06,214.575c0.001,0,0.002,0.001,0.003,0.001C108.159,214.214,108.109,214.395,108.06,214.575z"
	/>
<path style="fill:#827061;" d="M426.667,209.204c-8.076,0-15.695,1.945-22.432,5.373l-42.723-44.336l-8.076-8.076
	c-53.485-53.486-140.648-53.621-194.301-0.299l-28.901,28.724c-7.233,7.189-12.05,16.547-13.836,26.518v64.843l58.681,108.02
	c23.52,14.538,51.24,22.932,80.922,22.932c69.864,0,128.863-46.483,147.784-110.206c6.846,3.573,14.626,5.603,22.883,5.603
	c27.365,0,49.548-22.183,49.548-49.548S454.032,209.204,426.667,209.204z"/>
<path style="fill:#978574;" d="M363.355,236.385V225.64c0-4.411-1.719-8.559-4.838-11.678l-28.439-28.44
	c-40.648-40.647-106.886-40.749-147.659-0.228l-28.901,28.724c-3.097,3.079-4.874,7.349-4.874,11.714v10.999
	c0,9.121-7.395,16.516-16.516,16.516c-9.121,0-16.516-7.395-16.516-16.516v-10.999c0-2.902,0.276-5.787,0.784-8.625
	c-3.009-0.194-5.587-1.099-8.334-2.53c-0.1,0.362-0.052,0.181-0.003-0.001c-6.735-3.428-14.65-5.372-22.725-5.372
	c-27.365,0-49.548,22.183-49.548,49.548s22.183,49.548,49.548,49.548c8.257,0,16.036-2.031,22.883-5.603
	c10.882,36.649,35.023,67.592,66.862,87.272c16.32,4.168,32.559,6.417,47.89,6.417c81.651,0,148.465-63.487,153.796-143.788
	C369.129,251.144,363.355,244.443,363.355,236.385z"/>
<g>
	<path style="fill:#827061;" d="M176.723,289.032h-11.011c-4.562,0-8.258-3.697-8.258-8.258s3.696-8.258,8.258-8.258h11.011
		c4.562,0,8.258,3.697,8.258,8.258S181.284,289.032,176.723,289.032z"/>
	<path style="fill:#827061;" d="M346.288,289.032h-11.011c-4.562,0-8.258-3.697-8.258-8.258s3.696-8.258,8.258-8.258h11.011
		c4.562,0,8.258,3.697,8.258,8.258S350.85,289.032,346.288,289.032z"/>
</g>
<path style="fill:#6F3D28;" d="M256,306.533c-6.617,0-12.839-2.578-17.518-7.256c-3.225-3.225-3.225-8.454,0.001-11.679
	c3.225-3.224,8.454-3.224,11.678,0c1.559,1.56,3.634,2.419,5.839,2.419c2.205,0,4.28-0.859,5.839-2.419
	c3.226-3.225,8.455-3.225,11.678,0c3.226,3.225,3.226,8.454,0.001,11.679C268.839,303.955,262.617,306.533,256,306.533z"/>
<g>
	<path id="SVGID_1_" style="fill:#5B5751;" d="M426.667,209.204c0-88.175-76.41-159.656-170.667-159.656
		S85.333,121.029,85.333,209.204c8.076,0,15.695,1.945,22.432,5.373l7.847,3.981v17.826c0,4.522,3.484,8.465,8.004,8.601
		c4.676,0.141,8.512-3.609,8.512-8.255v-10.999c0-8.796,3.508-17.229,9.747-23.429l28.901-28.724
		c47.33-47.039,123.795-46.921,170.979,0.263l28.44,28.44c6.195,6.195,9.675,14.597,9.675,23.357v10.745
		c0,4.522,3.484,8.465,8.004,8.601c4.676,0.141,8.512-3.609,8.512-8.255v-18.173l7.847-3.981
		C410.972,211.149,418.59,209.204,426.667,209.204z"/>
</g>
<g>
	<path style="fill:#706B63;" d="M356.934,80.463C328.665,61.034,293.769,49.548,256,49.548
		c-73.542,0-136.216,43.516-160.213,104.522l3.308,16.037c1.894,9.183,5.8,17.863,11.621,25.214c1.734,2.19,3.364,3.937,4.522,4.528
		c3.209,1.627,7.147,0.665,9.187-2.298c1.711-2.485,3.653-4.819,5.808-6.961l28.902-28.724
		c25.956-25.797,60.404-40.004,96.999-40.004c5.066,0,10.089,0.272,15.055,0.809C305.658,126.401,339.158,110.117,356.934,80.463z"
		/>
</g>
<g>
	<circle style="fill:#5B5751;" cx="192.688" cy="115.613" r="8.258"/>
	<circle style="fill:#5B5751;" cx="158.555" cy="138.185" r="8.258"/>
	<circle style="fill:#5B5751;" cx="123.871" cy="170.116" r="8.258"/>
	<circle style="fill:#5B5751;" cx="158.555" cy="105.153" r="8.258"/>
	<circle style="fill:#5B5751;" cx="235.63" cy="72.12" r="8.258"/>
	<circle style="fill:#5B5751;" cx="279.673" cy="105.153" r="8.258"/>
	<circle style="fill:#5B5751;" cx="301.695" cy="83.131" r="8.258"/>
</g>
<g>
	<circle style="fill:#474641;" cx="200.946" cy="258.753" r="16.516"/>
	<circle style="fill:#474641;" cx="311.054" cy="258.753" r="16.516"/>
</g>
<g>
	<path style="fill:#5B5751;" d="M184.43,233.979h33.032c4.561,0,8.258-3.697,8.258-8.258c0-4.561-3.697-8.258-8.258-8.258H184.43
		c-4.561,0-8.258,3.697-8.258,8.258C176.172,230.281,179.869,233.979,184.43,233.979z"/>
	<path style="fill:#5B5751;" d="M311.039,219.914c-6.009,0-12.013-0.949-17.848-2.85c-4.336-1.412-6.708-6.072-5.296-10.408
		c1.413-4.338,6.074-6.709,10.41-5.296c8.327,2.712,17.147,2.71,25.503-0.004c4.332-1.409,8.997,0.963,10.405,5.302
		c1.409,4.337-0.965,8.996-5.302,10.405C323.063,218.964,317.049,219.914,311.039,219.914z"/>
</g>
<circle style="fill:#827061;" cx="85.333" cy="258.753" r="16.516"/>
<circle style="fill:#6D5B4D;" cx="426.667" cy="258.753" r="16.516"/>
<circle style="fill:#D5D2BD;" cx="85.333" cy="308.301" r="16.516"/>
<circle style="fill:#C1BDAB;" cx="426.667" cy="308.301" r="16.516"/>
<g>
</g>
<g>
</g>
<g>
</g>
<g>
</g>
<g>
</g>
<g>
</g>
<g>
</g>
<g>
</g>
<g>
</g>
<g>
</g>
<g>
</g>
<g>
</g>
<g>
</g>
<g>
</g>
<g>
</g>
</svg>
