<?xml version="1.0" encoding="iso-8859-1"?>
<!-- Generator: Adobe Illustrator 19.0.0, SVG Export Plug-In . SVG Version: 6.00 Build 0)  -->
<svg version="1.1" id="Layer_1" xmlns="http://www.w3.org/2000/svg" xmlns:xlink="http://www.w3.org/1999/xlink" x="0px" y="0px"
	 viewBox="0 0 512.001 512.001" style="enable-background:new 0 0 512.001 512.001;" xml:space="preserve">
<path style="fill:#EFE388;" d="M181.973,385c-32.957,19.251-57.737,50.964-67.899,88.673
	c40.361,23.586,87.109,37.434,137.026,38.286l4.9,0.042l58.794-61.244L251.101,385H181.973z"/>
<path style="fill:#DFCE4E;" d="M397.926,473.673c-10.162-37.709-34.942-69.421-67.899-88.673l0,0l0,0H181.973
	c-13.204,7.713-25.092,17.431-35.256,28.728c11.308,8.969,23.339,16.651,35.904,22.763c23.634,11.498,48.322,17.327,73.379,17.327
	v58.182C307.758,512.001,356.247,498.03,397.926,473.673z"/>
<path style="fill:#BFA93D;" d="M334.393,500.935c10.162-2.94,20.087-6.439,29.741-10.457c-4.275-21.592-14.853-40.918-29.741-55.976
	V500.935z"/>
<path style="fill:#DFCE4E;" d="M147.867,490.478c9.655,4.019,19.578,7.517,29.741,10.457v-66.433
	C162.721,449.56,152.143,468.885,147.867,490.478z"/>
<g style="opacity:0.8;">
	<path style="fill:#9F832C;" d="M305.298,397.436l-4.385-4.385L256,346.642l-15.923,60.019L256,467.905l49.298-49.298
		C311.144,412.761,311.144,403.283,305.298,397.436z"/>
</g>
<path style="fill:#BFA93D;" d="M211.088,393.051c-1.08,1.112-4.385,4.385-4.385,4.385c-5.846,5.846-5.846,15.326,0,21.172
	L256,467.905V346.642C256,346.642,222.49,381.31,211.088,393.051z"/>
<path style="fill:#E1A996;" d="M445.857,175.158c-8.988,0-17.464,2.166-24.961,5.98c-17.47-66.077-68.022-126.152-131.066-142.473
	L115.364,362.147c1.143,0.741,2.292,1.477,3.476,2.179l0,0c84.201,49.914,190.12,49.914,274.321,0l0,0
	c29.732-17.625,46.501-47.666,48.018-79.14c1.543,0.13,3.1,0.212,4.678,0.212c30.442,0,55.12-24.678,55.12-55.12
	S476.299,175.158,445.857,175.158z"/>
<path style="fill:#F2CDB7;" d="M382.721,219.335c-3.999-9.929-6.507-20.398-7.538-31.052
	c-5.625-58.089-38.548-116.146-85.352-149.618c-8.426-2.182-17.072-3.591-25.896-4.119c-2.631-0.157-5.274-0.249-7.935-0.249
	c-78.337,0-144.402,69.289-164.902,146.839c-7.495-3.814-15.97-5.977-24.954-5.977c-30.442,0-55.12,24.678-55.12,55.12
	s24.678,55.12,55.12,55.12c1.58,0,3.139-0.082,4.685-0.212c1.463,30.214,16.983,59.107,44.534,76.962
	c74.142,25.927,157.505,18.493,226.352-22.319l0,0C384.5,314.465,400.47,263.391,382.721,219.335z"/>
<circle style="fill:#E1A996;" cx="66.144" cy="230.278" r="18.373"/>
<circle style="opacity:0.8;fill:#CF8575;enable-background:new    ;" cx="445.857" cy="230.278" r="18.373"/>
<path style="fill:#E1A996;" d="M420.891,181.141c-2.637-9.775-14.574-13.727-22.33-7.192l-0.154,0.13
	c-8.449-21.373-21.66-40.612-38.862-56.42c-7.261-6.671-18.493-6.421-25.448,0.562c-20.838,20.921-48.573,32.441-78.097,32.441
	s-57.259-11.52-78.098-32.44c-6.957-6.985-18.189-7.233-25.448-0.562c-17.203,15.808-30.413,35.045-38.862,56.42h-0.001
	c-7.751-6.717-19.83-2.778-22.486,7.06c10.509,5.349,19.07,13.966,24.348,24.514c6.074,12.14,24.058,10.469,27.44-2.678
	c0.028-0.109,0.055-0.217,0.082-0.326c4.144-16.935,12.008-32.582,23.031-45.987c25.64,19.941,56.979,30.745,89.994,30.745
	s64.354-10.803,89.996-30.746c11.024,13.405,18.889,29.052,23.031,45.989c2.668,10.898,11.41,18.945,22.124,20.98
	C393.387,205.033,404.878,189.294,420.891,181.141z"/>
<g>
	<path style="fill:#474641;" d="M335.617,211.905h-36.746c-5.073,0-9.187,4.113-9.187,9.187s4.113,9.187,9.187,9.187
		c0,10.147,8.226,18.373,18.373,18.373s18.373-8.226,18.373-18.373c5.073,0,9.187-4.113,9.187-9.187
		S340.691,211.905,335.617,211.905z"/>
	<path style="fill:#474641;" d="M213.129,211.905h-36.746c-5.073,0-9.187,4.113-9.187,9.187s4.113,9.187,9.187,9.187
		c0,10.147,8.226,18.373,18.373,18.373c10.147,0,18.373-8.226,18.373-18.373c5.073,0,9.187-4.113,9.187-9.187
		S218.203,211.905,213.129,211.905z"/>
	<path style="fill:#474641;" d="M256,276.211c-15.197,0-27.56-12.363-27.56-27.56c0-5.073,4.113-9.187,9.187-9.187
		c5.073,0,9.187,4.113,9.187,9.187c0,5.066,4.12,9.187,9.187,9.187c5.066,0,9.187-4.12,9.187-9.187c0-5.073,4.113-9.187,9.187-9.187
		s9.187,4.113,9.187,9.187C283.56,263.848,271.197,276.211,256,276.211z"/>
</g>
<g>
	<path style="fill:#625143;" d="M177.728,187.064c-3.873,0-7.474-2.468-8.735-6.351c-1.568-4.825,1.073-10.007,5.898-11.575
		c13.013-4.228,26.754-4.228,39.736-0.001c4.825,1.57,7.462,6.755,5.892,11.579c-1.569,4.825-6.753,7.464-11.579,5.892
		c-9.266-3.017-19.076-3.014-28.372,0.005C179.624,186.919,178.669,187.064,177.728,187.064z"/>
	<path style="fill:#625143;" d="M300.216,187.064c-3.873,0-7.474-2.468-8.735-6.351c-1.568-4.825,1.073-10.007,5.898-11.575
		c13.013-4.228,26.754-4.228,39.736-0.001c4.825,1.57,7.462,6.755,5.892,11.579c-1.569,4.825-6.753,7.464-11.579,5.892
		c-9.266-3.017-19.076-3.014-28.372,0.005C302.112,186.919,301.157,187.064,300.216,187.064z"/>
</g>
<path style="opacity:0.2;fill:#463540;enable-background:new    ;" d="M115.361,362.147c1.143,0.741,2.292,1.477,3.476,2.179l0,0
	c84.201,49.914,190.12,49.914,274.321,0l0,0c29.729-17.624,46.499-47.663,48.018-79.135c-26.231-2.206-47.23-22.775-50.098-48.813
	l0.01,0.176c-0.011-0.098-0.015-0.197-0.026-0.295c-0.071-0.658-0.121-1.322-0.169-1.987c-0.023-0.328-0.056-0.654-0.075-0.984
	c-0.053-0.979-0.082-1.965-0.083-2.957c0-0.016-0.001-0.032-0.001-0.048l0,0v-0.006c0.173-3.289-1.503-6.477-4.432-7.984
	c-6.981-3.591-13.942,1.383-13.942,7.984v0.006l0,0c0,20.297-16.455,36.74-36.753,36.74h-24.491
	c-10.147,0-18.373-8.226-18.373-18.373v-0.006c0-10.147-8.225-18.362-18.373-18.362h-36.746c-10.147,0-18.373,8.215-18.373,18.362
	v0.005c0,10.147-8.226,18.373-18.373,18.373h-24.491c-20.297,0-36.753-16.443-36.753-36.74l0,0v-0.006
	c0.173-3.289-1.503-6.477-4.432-7.984c-6.981-3.591-13.942,7.987-13.942,7.987v0.002c-0.002,28.859-22.189,52.522-50.434,54.902
	C72.288,315.4,87.81,344.292,115.361,362.147z"/>
<path style="fill:#625143;" d="M396.481,205.78c9.021-18.145,27.737-30.622,49.376-30.622c0-0.065,0-0.14,0-0.203
	c0-85.543-64.174-157.014-149.786-174.285C275.355-3.507,256,12.367,256,33.576c0-21.208-19.354-37.083-40.071-32.904
	c-85.612,17.27-149.786,88.74-149.786,174.283c0,0.064,0,0.138,0,0.203c21.64,0,40.356,12.477,49.376,30.622h0.004
	c4.542,0,8.523-3.085,9.602-7.497c6.415-26.219,20.514-49.412,39.758-67.095c23.289,23.377,55.512,37.846,91.116,37.846
	s67.828-14.47,91.115-37.846c19.244,17.684,33.344,40.877,39.758,67.095c1.079,4.412,5.06,7.497,9.602,7.497H396.481z"/>
<path style="fill:#827061;" d="M215.93,0.672C146.785,14.62,91.624,63.923,72.963,127.442c-3.059,10.411,3.045,21.27,13.553,23.979
	c0.179,0.047,0.359,0.093,0.538,0.14c13.359,3.48,27.44-1.878,35.288-13.235c6.859-9.926,14.858-19.128,23.896-27.432
	c10.89-10.007,27.737-9.634,38.172,0.843c0.191,0.192,0.382,0.382,0.574,0.573C211.304,138.321,256,119.393,256,82.39V33.576
	C256,12.367,236.646-3.507,215.93,0.672z"/>
<path style="fill:#6D5B4D;" d="M297.003,0.862c-0.31-0.064-0.621-0.127-0.932-0.19C275.355-3.507,256,12.367,256,33.576v48.815
	c0,37.004,44.85,56.086,71.015,29.92c6.867-6.868,17.424-27.843,19.15-36.004C353.122,43.414,332.901,8.282,297.003,0.862z"/>
<g>
</g>
<g>
</g>
<g>
</g>
<g>
</g>
<g>
</g>
<g>
</g>
<g>
</g>
<g>
</g>
<g>
</g>
<g>
</g>
<g>
</g>
<g>
</g>
<g>
</g>
<g>
</g>
<g>
</g>
</svg>
