<?xml version="1.0" encoding="iso-8859-1"?>
<!-- Generator: Adobe Illustrator 19.0.0, SVG Export Plug-In . SVG Version: 6.00 Build 0)  -->
<svg version="1.1" id="Layer_1" xmlns="http://www.w3.org/2000/svg" xmlns:xlink="http://www.w3.org/1999/xlink" x="0px" y="0px"
	 viewBox="0 0 512.001 512.001" style="enable-background:new 0 0 512.001 512.001;" xml:space="preserve">
<path style="fill:#535572;" d="M71.642,248.604l0.443,58.14l0,0c0.005,0.623,0.032,1.239,0.045,1.859
	c0.014,0.563,0.021,1.127,0.04,1.689c1.622,52.309,30.132,97.745,72.108,123.066l0.213-0.001
	c22.765,13.737,49.47,21.556,77.984,21.338l34.952-0.267L440.05,245.792L71.642,248.604z"/>
<path style="fill:#46475A;" d="M255.847,247.198l1.582,207.23l34.952-0.267c28.513-0.218,55.096-8.444,77.649-22.527l0.213-0.001
	c41.584-25.959,69.398-71.825,70.222-124.153c0.01-0.562,0.01-1.126,0.015-1.689c0.003-0.621,0.022-1.238,0.017-1.861l0,0
	l-0.443-58.14L255.847,247.198z"/>
<path style="fill:#E8C6B3;" d="M343.054,413.52c-6.088-7.01-13.006-13.276-20.604-18.643
	c-18.991-13.417-42.209-21.229-67.235-21.038s-48.123,8.356-66.906,22.063c-7.515,5.483-14.337,11.854-20.317,18.955
	c-16.405,19.484-26.461,44.472-27.004,71.762c11.127,5.274,22.685,9.782,34.596,13.484c3.368,1.047,6.764,2.026,10.188,2.94
	c0.449,0.12,0.9,0.237,1.35,0.355c22.07,5.768,45.247,8.776,69.147,8.595s47.029-3.545,69.007-9.648
	c0.449-0.124,0.898-0.248,1.345-0.375c3.409-0.966,6.79-1.999,10.142-3.096c5.836-1.912,11.572-4.041,17.221-6.338
	c3.448-1.401,6.872-2.851,10.246-4.393c2.323-1.063,4.632-2.152,6.919-3.279C370.191,457.583,359.754,432.752,343.054,413.52z"/>
<path style="opacity:0.3;fill:#AB5034;enable-background:new    ;" d="M285.238,447.301c-3.833-0.035-7.54,0.466-11.054,1.431
	c-12.046,3.307-24.697,3.403-36.792,0.281c-3.529-0.911-7.243-1.355-11.074-1.263c-21.798,0.525-39.468,19.616-39.302,41.42
	l0.002,0.322l0.106,13.904c22.07,5.768,45.247,8.776,69.147,8.595s47.029-3.545,69.007-9.648l-0.106-13.904l-0.002-0.322
	C325.002,466.313,307.041,447.494,285.238,447.301z"/>
<g>
	<path style="fill:#CE9276;" d="M167.992,414.857c-16.405,19.484-26.461,44.472-27.004,71.762
		c11.127,5.274,22.685,9.782,34.596,13.484c3.368,1.047,6.764,2.026,10.188,2.94c0.449,0.12,0.9,0.237,1.35,0.355l-0.15-19.661
		C186.781,458.595,179.882,435.075,167.992,414.857z"/>
	<path style="fill:#CE9276;" d="M343.054,413.52c-3.151,5.549-5.922,11.34-8.292,17.333c-6.341,16.034-9.775,33.527-9.635,51.829
		l0.15,19.661c0.449-0.124,0.898-0.248,1.345-0.375c3.409-0.966,6.79-1.999,10.142-3.096c5.836-1.912,11.572-4.041,17.221-6.338
		c3.448-1.401,6.872-2.851,10.246-4.393c2.323-1.063,4.632-2.152,6.919-3.279C370.191,457.583,359.754,432.752,343.054,413.52z"/>
</g>
<path style="opacity:0.3;fill:#AB5034;enable-background:new    ;" d="M343.054,413.52c-6.088-7.01-13.006-13.276-20.604-18.643
	c-18.991-13.417-42.209-21.229-67.235-21.038s-48.123,8.356-66.906,22.063c15.98,19.387,40.234,31.68,67.315,31.472
	c15.314-0.117,29.662-4.216,42.078-11.304c8.898-5.08,20.168-3.625,27.42,3.612c3.482,3.475,6.705,7.211,9.64,11.172
	c11.901,16.067,19.027,35.886,19.19,57.365l0.033,4.315c3.448-1.401,6.872-2.851,10.246-4.393c2.323-1.063,4.632-2.152,6.919-3.279
	C370.191,457.583,359.754,432.752,343.054,413.52z"/>
<path style="fill:#E1B872;" d="M109.981,206.857l62.463,178.189c24.707,15.012,53.754,23.569,84.787,23.331
	c73.048-0.557,134.363-49.635,153.645-116.41c7.19,3.686,15.334,5.744,23.968,5.677c29.242-0.223,52.647-24.638,51.363-54.102
	c-0.885-20.355-13.754-37.847-31.713-45.447c-4.707-1.992-9.757-3.315-15.04-3.819c-0.576-0.064-1.164-0.106-1.751-0.147
	l-75.532-74.387c-43.105-42.452-112.464-41.923-154.916,1.182l0,0l-12.739,0.097C147.471,121.378,109.621,159.809,109.981,206.857
	L109.981,206.857"/>
<path style="fill:#ECCE93;" d="M382.51,228.963c0-0.021,0-0.041,0-0.061c-0.026-3.312-2.838-5.894-6.149-5.784
	c-1.204,0.04-2.407,0.064-3.611,0.074c-35.701,0.273-70.976-12.55-98.098-36.383c-0.442-0.381-0.875-0.773-1.319-1.179
	c-1.622-1.456-3.194-2.932-4.672-4.388c-8.202-8.018-17.472-17.067-23.689-23.057c-8.451-8.149-25.325-14.561-43.986-10.53
	c-24.211,5.232-44.291,26.228-58.092,60.732c-3.559,8.898-13.899,13.693-22.77,10.065c-5.209-2.13-8.808-6.528-10.145-11.593
	c-3.264-1.38-6.512-3.211-9.328-4.665c-7.074-3.526-15.044-5.503-23.495-5.439c-1.209,0.009-2.418,0.064-3.649,0.154
	c-26.223,2.008-47,23.857-47.744,50.149c-0.835,29.48,22.94,53.535,52.183,53.313c8.635-0.066,16.747-2.246,23.879-6.042
	c11.675,38.234,37.168,70.397,70.617,90.721c17.095,4.226,34.088,6.447,50.117,6.325
	C311.578,390.692,383.189,317.979,382.51,228.963z"/>
<circle style="fill:#E1B872;" cx="77.554" cy="248.557" r="17.27"/>
<circle style="fill:#D5A150;" cx="434.449" cy="245.84" r="17.27"/>
<path style="fill:#46475A;" d="M283.118,1.628c-29.074-7.942-57.666,14.188-57.437,44.316
	c-41.331,0.315-78.62,17.351-105.491,44.648c-26.883,27.285-43.349,64.829-43.034,106.16c8.451-0.064,16.421,1.912,23.495,5.439
	c8.589,4.436,21.199,12.4,26.01,0.274c35.663-89.824,104.715-81.382,130.291-56.719c5.858,5.643,14.441,14.017,23.825,23.191
	c1.357,1.337,2.748,2.639,4.163,3.905c0.336,0.309,0.684,0.617,1.032,0.924c30.241,26.618,71.082,37.498,110.307,29.761
	c6.611-1.306,13.006-3.472,19.286-5.938c6.796-2.665,14.281-3.943,22.137-3.462c0.587,0.041,1.175,0.083,1.751,0.147l0.032-0.288
	C433.855,101.508,369.315,25.148,283.118,1.628z"/>
<path style="fill:#535572;" d="M410.712,181.24c12.801-3.551,22.126-3.969,27.118-3.792
	C425.989,92.495,364.119,23.731,283.118,1.628C265.26-3.25,247.597,3.227,236.67,15.924c-0.358,1.478-0.607,2.999-0.723,4.557
	l27.028,84.461l0.123,0.466c5.108,19.372,15.408,37.079,29.799,51.223c1.119,1.102,2.321,2.229,3.569,3.349l0.147,0.132
	c0.266,0.245,0.542,0.489,0.77,0.691c20.672,18.195,47.233,28.1,74.79,27.889c6.955-0.053,14.108-0.093,20.762-2.108
	C400.264,184.367,405.849,182.589,410.712,181.24z"/>
<path style="fill:#656890;" d="M99.709,183.127c7.935,2.719,16.676-0.7,20.652-8.086c9.823-18.246,21.763-32.805,35.653-43.44
	c16.645-12.745,35.927-19.562,55.763-19.714c9.609-0.074,19.146,1.461,28.016,4.369c3.949,1.294,7.698-2.322,6.635-6.339
	c-0.009-0.036-0.018-0.07-0.028-0.106l-20.718-63.867c-41.331,0.315-78.62,17.351-105.491,44.648
	c-20.879,21.191-35.464,48.573-40.792,79.108c-0.877,5.029,2.559,9.749,7.617,10.438c4.29,0.584,8.497,1.57,12.601,2.958
	L99.709,183.127z"/>
<g>
	<path style="fill:#46475A;" d="M216.677,190.028c-12.234-3.88-25.149-3.781-37.349,0.287c-4.525,1.508-6.969,6.398-5.461,10.923
		c1.212,3.639,4.616,5.934,8.255,5.906c0.885-0.007,1.783-0.15,2.666-0.446c8.714-2.905,17.935-2.977,26.666-0.208
		c4.54,1.441,9.399-1.073,10.842-5.621C223.738,196.323,221.223,191.469,216.677,190.028z"/>
	<path style="fill:#46475A;" d="M331.805,189.149c-12.236-3.88-25.149-3.782-37.349,0.287c-4.525,1.508-6.969,6.399-5.461,10.923
		c1.212,3.639,4.616,5.934,8.255,5.906c0.885-0.007,1.783-0.15,2.666-0.446c8.717-2.906,17.937-2.976,26.666-0.208
		c4.54,1.441,9.399-1.073,10.842-5.621C338.866,195.444,336.35,190.591,331.805,189.149z"/>
</g>
<g>
	<circle style="fill:#474641;" cx="198.442" cy="247.636" r="17.27"/>
	<circle style="fill:#474641;" cx="313.561" cy="246.761" r="17.27"/>
</g>
<path style="fill:#8D472E;" d="M256.383,297.156c-6.919,0.053-13.445-2.593-18.375-7.448c-3.398-3.347-3.439-8.813-0.092-12.212
	c3.346-3.396,8.813-3.438,12.211-0.092c1.643,1.619,3.818,2.501,6.124,2.482c2.306-0.017,4.468-0.933,6.086-2.575
	c3.347-3.398,8.814-3.44,12.211-0.093c3.399,3.347,3.44,8.813,0.094,12.212C269.786,294.358,263.302,297.103,256.383,297.156z"/>
<g>
	<path style="fill:#E1B872;" d="M173.351,279.49l-11.513,0.088c-4.769,0.037-8.664-3.8-8.7-8.569s3.799-8.664,8.569-8.7
		l11.513-0.088c4.769-0.037,8.664,3.8,8.7,8.569C181.956,275.559,178.12,279.455,173.351,279.49z"/>
	<path style="fill:#E1B872;" d="M350.647,278.137l-11.513,0.087c-4.769,0.037-8.664-3.8-8.7-8.569
		c-0.037-4.769,3.799-8.664,8.569-8.7l11.513-0.087c4.769-0.037,8.664,3.8,8.7,8.569S355.417,278.102,350.647,278.137z"/>
</g>
<g>
</g>
<g>
</g>
<g>
</g>
<g>
</g>
<g>
</g>
<g>
</g>
<g>
</g>
<g>
</g>
<g>
</g>
<g>
</g>
<g>
</g>
<g>
</g>
<g>
</g>
<g>
</g>
<g>
</g>
</svg>
