<?xml version="1.0" encoding="iso-8859-1"?>
<!-- Generator: Adobe Illustrator 19.0.0, SVG Export Plug-In . SVG Version: 6.00 Build 0)  -->
<svg version="1.1" id="Layer_1" xmlns="http://www.w3.org/2000/svg" xmlns:xlink="http://www.w3.org/1999/xlink" x="0px" y="0px"
	 viewBox="0 0 512.001 512.001" style="enable-background:new 0 0 512.001 512.001;" xml:space="preserve">
<path style="fill:#C98A2E;" d="M262.126,230.891H64.31v121.263c0,27.059,87.744,48.995,195.981,48.995l195.981-170.258H262.126z"/>
<path style="fill:#AD712C;" d="M260.904,230.891c0,72.084,0,133.355,0,170.256c107.955-0.083,195.368-21.985,195.368-48.993V230.891
	H260.904z"/>
<path style="fill:#656890;" d="M348.62,407.229c-3.352,5.904-6.301,12.065-8.822,18.441c-6.747,17.059-10.399,35.67-10.251,55.14
	l0.159,20.917c0.478-0.132,0.955-0.263,1.431-0.399c3.627-1.028,7.224-2.125,10.79-3.294c6.209-2.035,12.311-4.299,18.322-6.743
	c3.668-1.491,7.311-3.033,10.9-4.674c2.472-1.131,4.928-2.289,7.362-3.488C377.49,454.108,366.388,427.689,348.62,407.229z"/>
<path style="fill:#959BC9;" d="M256,419.466l-101.287,0.299l-0.45-0.299c-12.604,18.829-20.142,41.321-20.623,65.532
	c11.838,5.611,24.135,10.407,36.806,14.346c3.583,1.113,7.196,2.156,10.839,3.128c0.478,0.127,0.958,0.252,1.437,0.377
	c23.392,6.113,47.954,9.311,73.28,9.144l36.746-92.526H256V419.466z"/>
<path style="fill:#656890;" d="M162.372,408.65c-17.453,20.729-28.151,47.313-28.73,76.348
	c11.838,5.611,24.135,10.407,36.806,14.346c3.583,1.113,7.196,2.156,10.839,3.128c0.478,0.127,0.958,0.252,1.437,0.377
	l-0.159-20.917C182.36,455.185,175.022,430.162,162.372,408.65z"/>
<path style="fill:#535572;" d="M348.62,407.229c-6.477-7.458-13.837-14.124-21.92-19.834
	c-20.204-14.275-44.907-22.586-71.532-22.382s-51.198,8.89-71.181,23.471c-7.995,5.834-15.253,12.611-21.615,20.166
	c-2.899,3.444-5.594,7.064-8.105,10.816l0.45,0.299c2.423,1.738,4.877,3.414,7.357,5.034c3.65,2.385,7.362,4.635,11.127,6.747
	c3.106,1.743,6.246,3.399,9.423,4.945c6.399,3.112,12.876,5.795,19.416,8.074c14.872,5.182,30.072,8.204,45.443,9.019
	c2.836,0.151,5.676,0.235,8.521,0.235c0.001,0,0.002,0,0.004,0v58.173c0.096,0,0.19,0.001,0.285,0
	c25.427-0.194,50.034-3.77,73.417-10.264c0.478-0.132,0.955-0.263,1.431-0.399c3.627-1.028,7.224-2.125,10.79-3.294
	c6.209-2.035,12.311-4.299,18.322-6.743c3.669-1.491,7.311-3.033,10.9-4.674c2.472-1.131,4.928-2.289,7.362-3.488
	C377.49,454.108,366.388,427.689,348.62,407.229z"/>
<path style="fill:#656890;" d="M287.11,443.169c-4.078-0.037-8.022,0.496-11.76,1.523c-12.816,3.518-26.275,3.621-39.144,0.299
	c-3.754-0.969-7.706-1.442-11.782-1.344c-23.191,0.559-41.99,20.87-41.814,44.066l0.002,0.343l0.113,14.793
	c23.48,6.137,48.138,9.337,73.565,9.144c25.427-0.194,50.034-3.771,73.417-10.264l-0.113-14.793l-0.002-0.343
	C329.413,463.395,310.307,443.373,287.11,443.169z"/>
<path style="fill:#DFB296;" d="M445.857,175.159c-8.986,0-17.461,2.164-24.957,5.979c-18.317-69.283-73.007-131.965-140.322-144.538
	l-85.901,375.11c19.043,9.264,39.714,14.55,61.324,14.55c78.337,0,144.402-69.289,164.902-146.839
	c7.494,3.813,15.969,5.977,24.954,5.977c30.442,0,55.12-24.678,55.12-55.12S476.299,175.159,445.857,175.159z"/>
<path style="fill:#E8C6B3;" d="M280.578,36.599C272.55,35.1,264.347,34.298,256,34.298c-78.337,0-144.402,69.289-164.902,146.839
	c-7.495-3.814-15.969-5.977-24.954-5.977c-30.442,0-55.12,24.678-55.12,55.12s24.678,55.12,55.12,55.12
	c8.991,0,17.469-2.166,24.967-5.984c14.846,56.155,53.574,107.976,103.566,132.294c8.028,1.499,16.231,2.302,24.577,2.302
	c94.708,0,171.483-101.273,171.483-195.981C390.737,144.932,344.995,67.936,280.578,36.599z"/>
<circle style="fill:#CE9276;" cx="445.857" cy="230.278" r="18.373"/>
<g>
	<circle style="fill:#DFB296;" cx="66.144" cy="230.278" r="18.373"/>
	<path style="fill:#DFB296;" d="M407.279,190.928c-1.205-0.878-2.515-1.621-3.917-2.188c-7.673-27.211-22.712-51.663-43.716-70.995
		c-3.395-3.164-7.869-4.93-12.526-4.93c-0.005,0-0.012,0-0.018,0c-4.879,0.005-9.555,1.95-12.998,5.407
		c-20.84,20.92-48.575,32.44-78.1,32.44s-57.259-11.52-78.098-32.44c-3.443-3.457-8.123-5.398-13.002-5.403
		c-0.006,0-0.012,0-0.018,0c-4.614,0-9.052,1.739-12.436,4.849c-21.05,19.345-36.119,43.827-43.802,71.072
		c-1.402,0.567-2.712,1.309-3.917,2.188c8.713,8.544,14.592,19.956,16.126,32.709c10.713-2.035,19.455-10.087,22.123-20.988
		c4.143-16.935,12.009-32.582,23.03-45.986c25.643,19.94,56.98,30.745,89.996,30.745s64.354-10.803,89.996-30.744
		c11.023,13.404,18.888,29.052,23.031,45.988c2.668,10.899,11.41,18.951,22.123,20.986
		C392.686,210.884,398.567,199.471,407.279,190.928z"/>
	<path style="fill:#DFB296;" d="M167.813,263.963h-12.249c-5.075,0-9.187-4.113-9.187-9.187c0-5.073,4.112-9.187,9.187-9.187h12.249
		c5.075,0,9.187,4.113,9.187,9.187C176.999,259.849,172.887,263.963,167.813,263.963z"/>
	<path style="fill:#DFB296;" d="M356.444,263.963h-12.249c-5.075,0-9.187-4.113-9.187-9.187c0-5.073,4.112-9.187,9.187-9.187h12.249
		c5.075,0,9.187,4.113,9.187,9.187C365.631,259.849,361.519,263.963,356.444,263.963z"/>
</g>
<g>
	<path style="fill:#AD712C;" d="M176.387,202.719h36.746c5.073,0,9.187-4.113,9.187-9.187c0-5.073-4.113-9.187-9.187-9.187h-36.746
		c-5.073,0-9.187,4.113-9.187,9.187C167.2,198.605,171.313,202.719,176.387,202.719z"/>
	<path style="fill:#AD712C;" d="M317.233,187.073c-6.684,0-13.363-1.056-19.855-3.17c-4.824-1.57-7.462-6.755-5.892-11.579
		c1.572-4.826,6.756-7.463,11.58-5.892c9.264,3.017,19.075,3.014,28.371-0.005c4.819-1.568,10.008,1.072,11.575,5.898
		c1.568,4.825-1.073,10.007-5.898,11.575C330.609,186.016,323.919,187.073,317.233,187.073z"/>
</g>
<path style="fill:#8D472E;" d="M274.377,239.465h-36.746c-5.073,0-9.187,4.113-9.187,9.187c0,5.073,4.113,9.187,9.187,9.187h36.746
	c5.075,0,9.187-4.113,9.187-9.187C283.564,243.578,279.452,239.465,274.377,239.465z"/>
<g>
	<circle style="fill:#474641;" cx="194.756" cy="230.278" r="18.373"/>
	<circle style="fill:#474641;" cx="317.244" cy="230.278" r="18.373"/>
</g>
<path style="fill:#AD712C;" d="M384.581,43.803c-24.446-21.139-54.815-36.335-88.506-43.132
	c-20.716-4.179-40.071,11.696-40.071,32.904c0-21.208-19.354-37.083-40.071-32.904c-33.692,6.797-64.059,21.992-88.506,43.132
	c-37.672,32.576-61.28,79.274-61.28,131.153c0,0.064,0,0.138,0,0.203c21.64,0,40.356,12.477,49.376,30.622h0.004
	c4.542,0,8.523-3.085,9.602-7.497c6.413-26.215,20.511-49.406,39.751-67.088c0.002-0.002,0.005-0.005,0.007-0.007
	c23.29,23.377,55.513,37.846,91.116,37.846s67.828-14.47,91.115-37.846c0.002,0.002,0.005,0.005,0.007,0.007
	c19.24,17.682,33.338,40.873,39.751,67.088c1.079,4.412,5.06,7.497,9.602,7.497h0.004c9.021-18.145,27.737-30.622,49.376-30.622
	c0-0.065,0-0.14,0-0.203C445.86,123.077,422.255,76.38,384.581,43.803z"/>
<g>
	<path style="fill:#C98A2E;" d="M296.075,0.672c-20.716-4.179-40.071,11.696-40.071,32.904v87.49
		c0,11.693,10.801,20.522,22.212,17.975c12.441-2.777,24.196-7.886,34.738-15.109c9.078-6.22,13.109-17.592,10.104-28.178
		L296.075,0.672z"/>
	<path style="fill:#C98A2E;" d="M154.488,24.323c-14.76,8.356-20.816,13.958-27.06,19.479
		c-30.627,27.085-52.361,63.005-59.05,103.834c7.257,0.191,14.329,1.308,21.078,3.268c12.094,3.514,25.132-1.181,32.214-11.595
		c7.006-10.3,15.229-19.832,24.563-28.409l7.14-6.562c8.955-8.263,24.638-10.898,24.642-10.898
		c5.768,0.023,11.521-3.41,13.461-9.978l15.226-51.544c4.193-14.193-9.837-26.879-23.589-21.407
		C173.173,14.469,163.63,19.148,154.488,24.323z"/>
</g>
<g>
</g>
<g>
</g>
<g>
</g>
<g>
</g>
<g>
</g>
<g>
</g>
<g>
</g>
<g>
</g>
<g>
</g>
<g>
</g>
<g>
</g>
<g>
</g>
<g>
</g>
<g>
</g>
<g>
</g>
</svg>
