<?xml version="1.0" encoding="iso-8859-1"?>
<!-- Generator: Adobe Illustrator 19.0.0, SVG Export Plug-In . SVG Version: 6.00 Build 0)  -->
<svg version="1.1" id="Layer_1" xmlns="http://www.w3.org/2000/svg" xmlns:xlink="http://www.w3.org/1999/xlink" x="0px" y="0px"
	 viewBox="0 0 512.003 512.003" style="enable-background:new 0 0 512.003 512.003;" xml:space="preserve">
<path style="fill:#BD7155;" d="M349.214,406.472c-6.524-7.512-13.938-14.226-22.079-19.978
	c-20.35-14.378-45.231-22.749-72.049-22.544c-26.818,0.205-51.568,8.954-71.696,23.642c-8.053,5.875-15.364,12.703-21.772,20.312
	c-17.579,20.879-28.355,47.655-28.937,76.9c11.924,5.652,24.31,10.482,37.072,14.45c3.609,1.121,7.248,2.171,10.917,3.151
	c0.481,0.128,0.965,0.254,1.447,0.38c23.649,6.181,48.486,9.405,74.097,9.21c25.611-0.195,50.396-3.797,73.948-10.339
	c0.481-0.133,0.962-0.265,1.441-0.402c3.653-1.035,7.277-2.142,10.868-3.318c6.254-2.049,12.4-4.332,18.454-6.792
	c3.695-1.501,7.364-3.055,10.979-4.708c2.49-1.139,4.963-2.306,7.415-3.514C378.293,453.689,367.11,427.079,349.214,406.472z"/>
<path style="opacity:0.4;fill:#AB5034;enable-background:new    ;" d="M287.259,442.671c-4.107-0.037-8.08,0.5-11.845,1.534
	c-12.909,3.543-26.465,3.647-39.426,0.301c-3.781-0.976-7.761-1.452-11.867-1.353c-23.358,0.563-42.294,21.02-42.116,44.385
	l0.002,0.345l0.113,14.9c23.649,6.181,48.486,9.405,74.097,9.21c25.611-0.195,50.396-3.797,73.948-10.339l-0.113-14.9l-0.003-0.347
	C329.869,463.043,310.624,442.877,287.259,442.671z"/>
<path style="fill:#CE9276;" d="M161.619,407.903c-17.579,20.879-28.355,47.655-28.937,76.9c11.924,5.652,24.31,10.482,37.072,14.449
	c3.609,1.121,7.248,2.171,10.917,3.151c0.481,0.128,0.965,0.254,1.447,0.38l-0.16-21.068
	C181.754,454.774,174.361,429.57,161.619,407.903z"/>
<g>
	<path style="opacity:0.4;fill:#AB5034;enable-background:new    ;" d="M349.214,406.472c-3.377,5.947-6.346,12.152-8.885,18.574
		c-6.795,17.182-10.474,35.928-10.325,55.539l0.16,21.069c0.481-0.133,0.962-0.265,1.441-0.402
		c3.653-1.035,7.277-2.142,10.868-3.318c6.254-2.049,12.4-4.332,18.454-6.792c3.695-1.501,7.364-3.055,10.979-4.708
		c2.49-1.139,4.963-2.306,7.415-3.514C378.293,453.689,367.11,427.079,349.214,406.472z"/>
	<path style="opacity:0.4;fill:#AB5034;enable-background:new    ;" d="M256.001,427.513c31.732,0,60.602-12.23,82.172-32.225
		c-3.507-3.132-7.188-6.075-11.038-8.795c-20.35-14.378-45.231-22.749-72.049-22.544c-26.818,0.205-51.568,8.954-71.696,23.641
		c-3.309,2.414-6.486,4.999-9.533,7.723C195.424,415.294,224.283,427.513,256.001,427.513z"/>
</g>
<path style="fill:#706B63;" d="M118.751,371.355h278.204c27.254,0,49.349-22.095,49.349-49.349V141.824H118.751V371.355z"/>
<path style="fill:#D5A150;" d="M447.23,172.723c-9.053,0-17.592,2.181-25.142,6.024C402.141,103.292,339.37,35.605,263.993,31.095
	l-56.689,357.518c14.843,8.048,31.564,12.351,48.697,12.351c25.083,0,49.291-9.212,68.001-25.918
	c28.14-25.128,68.645-64.832,90.098-102.253c9.248,6.888,20.712,10.967,33.129,10.967c30.662,0,55.518-24.856,55.518-55.518
	S477.892,172.723,447.23,172.723z"/>
<path style="fill:#E1B872;" d="M263.993,31.094c-2.65-0.158-5.312-0.25-7.992-0.25c-78.904,0-145.446,69.79-166.094,147.9
	c-7.549-3.842-16.084-6.021-25.135-6.021c-30.662,0-55.518,24.856-55.518,55.518s24.856,55.518,55.518,55.518
	c12.418,0,23.881-4.079,33.129-10.967c21.453,37.422,61.958,77.126,90.098,102.253c5.931,5.295,12.416,9.832,19.303,13.566
	c24.85-0.159,48.803-9.342,67.35-25.904c39.919-35.644,104.722-100.621,104.722-146.805
	C379.375,140.614,331.197,61.22,263.993,31.094z"/>
<circle style="fill:#C98A2E;" cx="447.23" cy="228.241" r="18.506"/>
<g>
	<circle style="fill:#D5A150;" cx="64.772" cy="228.241" r="18.506"/>
	<path style="fill:#D5A150;" d="M162.437,141.948c30.719-31.621,67.567-21.872,83.578-8.296
		c28.349,24.033,73.285,56.823,106.648,70.139c9.83,3.915,20.181,5.9,30.768,5.9c10.22,0,18.506-8.286,18.506-18.506
		c0-10.22-8.286-18.506-18.506-18.506c-5.876,0-11.621-1.102-17.061-3.268c-27.337-10.911-68.126-40-96.419-63.989
		c-15.928-13.503-37.828-21.39-60.087-21.637c-19.171-0.16-47.609,5.231-73.976,32.374c-22.986,23.662-35.645,55.337-35.645,89.189
		v71.411c9.834,16.231,23.012,32.775,37.012,48.276V205.348C137.257,181.179,146.199,158.664,162.437,141.948z"/>
	<path style="fill:#D5A150;" d="M167.172,262.169h-12.337c-5.111,0-9.253-4.143-9.253-9.253c0-5.11,4.142-9.253,9.253-9.253h12.337
		c5.111,0,9.253,4.143,9.253,9.253C176.425,258.026,172.284,262.169,167.172,262.169z"/>
	<path style="fill:#D5A150;" d="M357.168,262.169H344.83c-5.111,0-9.253-4.143-9.253-9.253c0-5.11,4.142-9.253,9.253-9.253h12.337
		c5.111,0,9.253,4.143,9.253,9.253C366.421,258.026,362.279,262.169,357.168,262.169z"/>
</g>
<path style="fill:#706B63;" d="M440.441,122.808c-8.693-20.015-25.443-39.508-57.334-47.853c0,0,23.467-24.333-9.558-45.392
	c-75.109-47.902-171.626-28.106-221.902-6.671c-30.217,12.885-49.801,31.725-62.506,50.859C65.963,108.657,65.7,144.54,65.7,147.032
	c0,1.346,0,9.397,0,19.935c0,1.853,0,3.773,0,5.758v149.282c0,27.254,22.095,49.349,49.349,49.349h3.701h18.506v-46.319
	l-18.506-21.82v-97.867c0-28.387,10.634-55.934,30.413-76.294c38.59-39.726,86.461-28.472,108.82-9.517
	c23.58,19.991,68.271,53.788,101.528,67.062c7.402,2.949,15.469,4.587,23.922,4.587c30.445,0,55.966-21.033,62.871-49.361
	C445.03,135.309,443.092,128.929,440.441,122.808z"/>
<path style="opacity:0.7;fill:#848075;enable-background:new    ;" d="M383.107,74.955h-57.435c-7.154,0-11.809-7.321-9.005-13.903
	c11.118-26.105-5.943-58.696-37.433-60.596c-49.481-2.986-97.058,9.422-127.587,22.437c-0.186,0.079-0.373,0.159-0.559,0.239
	c-26.899,11.586-44.145,38.278-44.145,67.565v6.57c0,8.118,9.85,12.008,15.497,6.176c0.058-0.06,0.116-0.12,0.174-0.179
	c30.503-31.401,63.701-37.993,86.18-37.993c26.958,0,53.612,9.489,73.123,26.034c27.15,23.017,65.914,50.779,91.288,60.907
	c3.264,1.302,6.707,1.96,10.226,1.96c0.51,0,1.017-0.014,1.521-0.041c11.727-0.633,24.747-2.391,24.747-32.724v-11.89
	C409.7,93.418,398.67,79.075,383.107,74.955z"/>
<g>
	<circle style="fill:#474641;" cx="317.688" cy="228.241" r="18.506"/>
	<circle style="fill:#474641;" cx="194.315" cy="228.241" r="18.506"/>
	<path style="fill:#474641;" d="M274.507,237.494h-37.012c-5.11,0-9.253,4.143-9.253,9.253c0,15.307,12.452,27.759,27.759,27.759
		s27.759-12.452,27.759-27.759C283.76,241.637,279.617,237.494,274.507,237.494z"/>
</g>
<g>
	<path style="fill:#706B63;" d="M177.163,184.715c-3.901,0-7.528-2.486-8.798-6.397c-1.579-4.86,1.081-10.08,5.94-11.659
		c13.107-4.259,26.947-4.259,40.024-0.001c4.86,1.582,7.516,6.804,5.934,11.663c-1.58,4.86-6.802,7.518-11.663,5.934
		c-9.333-3.039-19.214-3.036-28.577,0.005C179.074,184.568,178.111,184.715,177.163,184.715z"/>
	<path style="fill:#706B63;" d="M300.537,184.715c-3.901,0-7.528-2.486-8.798-6.397c-1.579-4.86,1.081-10.08,5.94-11.659
		c13.107-4.259,26.947-4.259,40.024-0.001c4.86,1.582,7.516,6.804,5.934,11.663c-1.58,4.86-6.802,7.518-11.663,5.934
		c-9.333-3.039-19.214-3.036-28.577,0.005C302.448,184.568,301.484,184.715,300.537,184.715z"/>
</g>
<g>
</g>
<g>
</g>
<g>
</g>
<g>
</g>
<g>
</g>
<g>
</g>
<g>
</g>
<g>
</g>
<g>
</g>
<g>
</g>
<g>
</g>
<g>
</g>
<g>
</g>
<g>
</g>
<g>
</g>
</svg>
