<?xml version="1.0" encoding="iso-8859-1"?>
<!-- Generator: Adobe Illustrator 19.0.0, SVG Export Plug-In . SVG Version: 6.00 Build 0)  -->
<svg version="1.1" id="Layer_1" xmlns="http://www.w3.org/2000/svg" xmlns:xlink="http://www.w3.org/1999/xlink" x="0px" y="0px"
	 viewBox="0 0 512.002 512.002" style="enable-background:new 0 0 512.002 512.002;" xml:space="preserve">
<path style="fill:#AD9DB4;" d="M338.305,418.82c-5.761-6.633-12.307-12.561-19.495-17.64
	c-17.969-12.695-39.938-20.087-63.618-19.906s-45.533,7.907-63.306,20.875c-7.11,5.188-13.566,11.216-19.224,17.935
	c-15.522,18.435-25.037,42.079-25.551,67.901c10.529,4.99,21.465,9.255,32.734,12.759c3.186,0.99,6.4,1.917,9.64,2.782
	c0.425,0.113,0.852,0.224,1.278,0.336c20.882,5.458,42.812,8.304,65.426,8.132c22.614-0.172,44.498-3.354,65.294-9.129
	c0.425-0.118,0.85-0.234,1.272-0.355c3.226-0.914,6.425-1.891,9.596-2.929c5.522-1.809,10.949-3.824,16.295-5.997
	c3.263-1.326,6.502-2.697,9.694-4.157c2.198-1.005,4.383-2.036,6.547-3.102C363.982,460.512,354.108,437.016,338.305,418.82z"/>
<path style="opacity:0.3;fill:#684C77;enable-background:new    ;" d="M283.601,450.783c-3.626-0.033-7.134,0.441-10.459,1.354
	c-11.398,3.129-23.368,3.22-34.813,0.266c-3.339-0.862-6.853-1.282-10.479-1.195c-20.625,0.497-37.344,18.561-37.188,39.191
	l0.002,0.305l0.1,13.156c20.882,5.458,42.812,8.304,65.426,8.132c22.614-0.172,44.498-3.354,65.294-9.129l-0.1-13.156l-0.002-0.306
	C321.224,468.772,304.231,450.965,283.601,450.783z"/>
<path style="fill:#C7BBC4;" d="M172.664,420.084c-15.522,18.435-25.037,42.079-25.551,67.901
	c10.529,4.99,21.465,9.255,32.734,12.759c3.186,0.99,6.4,1.917,9.64,2.782c0.425,0.113,0.852,0.224,1.278,0.336l-0.142-18.603
	C190.441,461.47,183.915,439.215,172.664,420.084z"/>
<path style="fill:#937EA3;" d="M338.305,418.82c-2.982,5.251-5.604,10.73-7.846,16.4c-6,15.172-9.249,31.723-9.117,49.04
	l0.142,18.603c0.425-0.118,0.85-0.234,1.272-0.355c3.226-0.914,6.425-1.891,9.596-2.929c5.522-1.809,10.949-3.824,16.295-5.997
	c3.263-1.326,6.502-2.697,9.694-4.157c2.198-1.005,4.383-2.036,6.547-3.102C363.982,460.512,354.108,437.016,338.305,418.82z"/>
<path style="opacity:0.3;fill:#684C77;enable-background:new    ;" d="M338.305,418.82c-0.017-0.02-0.035-0.038-0.052-0.058
	c-5.747-6.609-12.276-12.518-19.443-17.582c-17.969-12.695-39.938-20.087-63.618-19.906s-45.533,7.907-63.306,20.875
	c-6.631,4.838-12.683,10.415-18.059,16.594c19.7,5.738,41.187,9.268,61.242,10.743c7.309,0.538,14.431,0.812,21.197,0.812
	c5.645,0,11.537-0.19,17.58-0.568c10.721-0.67,21.922-1.943,33.093-3.842c8.928-1.517,18.007,1.97,23.435,9.219
	c0.028,0.038,0.057,0.076,0.085,0.113c11.261,15.202,18.003,33.955,18.158,54.279l0.032,4.083c3.263-1.326,6.502-2.697,9.694-4.157
	c2.198-1.005,4.383-2.036,6.547-3.102C363.982,460.512,354.108,437.016,338.305,418.82z"/>
<path style="fill:#DAC69C;" d="M424.852,212.426c-7.994,0-15.532,1.926-22.199,5.318c-15.536-58.767-60.497-112.194-116.564-126.71
	L130.925,378.726c1.016,0.659,2.038,1.314,3.092,1.938l0,0c74.885,44.392,169.085,44.392,243.97,0l0,0
	c26.442-15.675,41.357-42.393,42.705-70.384c1.373,0.115,2.757,0.188,4.16,0.188c27.074,0,49.021-21.947,49.021-49.021
	C473.873,234.374,451.926,212.426,424.852,212.426z"/>
<path style="fill:#E6D8B3;" d="M368.702,251.714c-3.557-8.83-5.787-18.141-6.704-27.616
	c-5.002-51.662-34.283-103.295-75.909-133.064c-7.494-1.94-15.184-3.194-23.031-3.664c-2.34-0.139-4.691-0.221-7.057-0.221
	c-69.67,0-128.426,61.623-146.658,130.593c-6.666-3.392-14.202-5.316-22.194-5.316c-27.074,0-49.021,21.947-49.021,49.021
	c0,27.074,21.947,49.021,49.021,49.021c1.405,0,2.792-0.073,4.167-0.188c1.301,26.871,15.104,52.567,39.607,68.447
	c65.939,23.059,140.079,16.447,201.309-19.849l0,0C370.284,336.32,384.487,290.897,368.702,251.714z"/>
<circle style="fill:#DAC69C;" cx="87.15" cy="261.447" r="16.34"/>
<circle style="fill:#C9AD80;" cx="424.852" cy="261.447" r="16.34"/>
<path style="fill:#DAC69C;" d="M364.261,212.243c-3.989-0.336-7.888-1.254-11.625-2.743c-18.82-7.512-47.227-25.812-75.988-48.956
	c-3.254-2.618-6.332-5.157-9.148-7.545c-15.175-12.865-42.346-24.074-73.092-16.931c-19.847,4.608-46.876,18.558-67.817,58.015
	c-4.595,8.657-10.469,16.571-17.247,23.65c6.766,3.443,12.628,8.41,17.13,14.449c4.003,5.369,11.96,5.779,16.549,0.899
	c2.252-2.394,4.118-5.328,5.508-8.758c0.587-1.449,1.186-2.856,1.794-4.249c12.77-29.278,30.57-47.319,51.475-52.173
	c17.754-4.126,35.178,2.064,44.567,10.025c3.028,2.567,6.323,5.284,9.792,8.077c14.959,12.037,53.126,41.38,84.374,53.854
	c8.68,3.457,17.821,5.209,27.169,5.209h0.366l4.636-31.915C369.904,212.723,367.082,212.479,364.261,212.243z"/>
<g>
	<path style="fill:#B51F79;" d="M111.117,218.687c0.049,0.027,0.097,0.056,0.145,0.084
		C111.213,218.743,111.165,218.714,111.117,218.687z"/>
	<path style="fill:#B51F79;" d="M114.376,220.681c-1.011-0.676-2.052-1.309-3.114-1.911c1.051,0.594,2.082,1.222,3.083,1.89
		C114.355,220.669,114.366,220.674,114.376,220.681z"/>
	<path style="fill:#B51F79;" d="M111.117,218.687c-1.065-0.599-2.155-1.159-3.268-1.679l0,0
		C108.961,217.528,110.05,218.089,111.117,218.687z"/>
</g>
<path style="fill:#516F7F;" d="M286.553,0.034C285.45,0.011,284.344,0,283.235,0c-53.113,0-100.101,26.214-128.736,66.411
	c-17.474,2.563-33.448,9.736-46.651,20.244c-22.568,17.962-37.038,45.665-37.038,76.75c0,17.906,4.806,34.686,13.19,49.132
	c1.043-0.065,2.092-0.111,3.15-0.111c7.398,0,14.408,1.648,20.698,4.583c1.113,0.52,2.203,1.08,3.268,1.679
	c0.049,0.027,0.097,0.056,0.145,0.084c1.062,0.601,2.104,1.234,3.114,1.911c2.201,1.464,4.604,2.624,7.176,3.229
	c4.962,1.167,9.404,0.267,11.834-5.725c0.643-1.585,1.299-3.125,1.961-4.643c34.757-79.687,96.442-69.396,121.585-48.079
	c2.832,2.402,6.02,5.034,9.471,7.811c21.91,17.631,54.807,41.277,80.176,51.404c6.536,2.604,13.658,4.05,21.123,4.05
	c31.564,0,57.151-25.597,57.151-57.172v-28.883C424.852,65.575,363.635,1.623,286.553,0.034z"/>
<g>
	<path style="opacity:0.5;fill:#5C889F;enable-background:new    ;" d="M286.553,0.034C285.45,0.011,284.344,0,283.235,0
		c-52.771,0-99.487,25.885-128.172,65.643c16.872-23.109,48.334-30.453,73.727-17.157c32.813,17.18,57.404,48.005,66.186,84.89
		c1.224,5.143,2.135,14.035,2.714,21.399c0.626,7.972,4.722,15.288,11.263,19.89c0.035,0.025,0.07,0.049,0.105,0.074
		c0,0,34.788,22.457,46.608,27.175c3.832,1.525,7.888,2.303,12.036,2.303c8.495,0,15.759-2.297,19.43-6.147
		c5.718-5.994,21.359-26.821,29.875-38.542l4.287-5.9c2.314-3.184,3.559-7.018,3.559-10.954l0,0
		C424.852,65.575,363.635,1.623,286.553,0.034z"/>
	<path style="opacity:0.8;fill:#5C889F;enable-background:new    ;" d="M254.509,115.681l-0.044-0.077
		c-0.057-0.1-0.119-0.196-0.175-0.296c-0.602-1.053-1.212-2.082-1.83-3.093c-0.261-0.427-0.525-0.852-0.793-1.275
		c-36.253-57.692-97.168-44.53-97.168-44.53c-17.474,2.563-33.448,9.736-46.651,20.244c-22.568,17.962-37.038,45.665-37.038,76.75
		c0,5.451,0.451,10.796,1.307,16.004c0.251,1.517,0.538,3.021,0.856,4.514c0.015,0.069,0.031,0.137,0.046,0.207
		c0.047,0.203,0.098,0.404,0.144,0.607l0,0c0.541,2.241,2.614,3.768,4.915,3.62l4.349-0.28c1.698-0.109,3.243-0.161,4.722-0.161
		c4.488,0,8.912,0.398,13.252,1.19c10.346,1.888,20.774-2.869,26.507-11.686c21.113-32.465,46.454-44.852,65.65-49.31
		c8.3-1.926,16.363-2.625,24.055-2.381c9.305,0.295,18.064,1.978,26.031,4.564C251.358,133.121,258.978,123.677,254.509,115.681z"/>
</g>
<g>
	<path style="fill:#B51F79;" d="M111.117,218.687c0.049,0.027,0.097,0.056,0.145,0.084
		C111.213,218.743,111.165,218.714,111.117,218.687z"/>
	<path style="fill:#B51F79;" d="M114.376,220.681c-1.011-0.676-2.052-1.309-3.114-1.911c1.051,0.594,2.082,1.222,3.083,1.89
		C114.355,220.669,114.366,220.674,114.376,220.681z"/>
	<path style="fill:#B51F79;" d="M111.117,218.687c-1.065-0.599-2.155-1.159-3.268-1.679l0,0
		C108.961,217.528,110.05,218.089,111.117,218.687z"/>
</g>
<path style="fill:#516F7F;" d="M286.553,0.034C285.45,0.011,284.344,0,283.235,0"/>
<g>
	<circle style="fill:#474641;" cx="201.533" cy="261.447" r="16.34"/>
	<circle style="fill:#474641;" cx="310.469" cy="261.447" r="16.34"/>
</g>
<g>
	<path style="fill:#516F7F;" d="M222.689,232.302c-4.808-3.494-9.062-7.745-12.629-12.659c-2.65-3.652-1.838-8.761,1.814-11.411
		c3.652-2.649,8.763-1.839,11.411,1.815c5.089,7.013,12.15,12.141,20.417,14.827c4.291,1.394,6.641,6.003,5.246,10.294
		c-1.394,4.292-6.003,6.64-10.294,5.246C232.866,238.533,227.5,235.797,222.689,232.302z"/>
	<path style="fill:#516F7F;" d="M289.313,232.302c4.81-3.495,9.064-7.745,12.629-12.661c2.65-3.652,1.838-8.761-1.814-11.411
		c-3.653-2.652-8.765-1.837-11.412,1.815c-5.088,7.012-12.149,12.14-20.416,14.827c-4.287,1.392-6.64,6.002-5.245,10.294
		c1.394,4.292,6.003,6.641,10.296,5.245C279.137,238.533,284.502,235.797,289.313,232.302z"/>
</g>
<path style="fill:#BD7155;" d="M238.669,289.985c-3.191,3.191-3.191,8.364,0,11.554c3.191,3.191,8.364,3.191,11.554,0
	c1.544-1.544,3.595-2.393,5.777-2.393c2.182,0,4.234,0.85,5.777,2.393c1.595,1.595,3.686,2.393,5.777,2.393s4.182-0.797,5.777-2.393
	c3.191-3.191,3.191-8.364,0-11.554C263.776,280.428,248.226,280.428,238.669,289.985z"/>
<g>
</g>
<g>
</g>
<g>
</g>
<g>
</g>
<g>
</g>
<g>
</g>
<g>
</g>
<g>
</g>
<g>
</g>
<g>
</g>
<g>
</g>
<g>
</g>
<g>
</g>
<g>
</g>
<g>
</g>
</svg>
