<?xml version="1.0" encoding="iso-8859-1"?>
<!-- Generator: Adobe Illustrator 19.0.0, SVG Export Plug-In . SVG Version: 6.00 Build 0)  -->
<svg version="1.1" id="Layer_1" xmlns="http://www.w3.org/2000/svg" xmlns:xlink="http://www.w3.org/1999/xlink" x="0px" y="0px"
	 viewBox="0 0 512.001 512.001" style="enable-background:new 0 0 512.001 512.001;" xml:space="preserve">
<path style="fill:#848075;" d="M350.39,413.376c-3.755-3.596-7.716-6.979-11.863-10.13c-2.653-2.016-5.382-3.938-8.182-5.759
	c-1.833-1.192-3.695-2.342-5.587-3.447c-20.272-11.875-43.844-18.691-69.036-18.691s-48.206,6.815-68.479,18.691
	c-0.901,0.526-1.794,1.063-2.68,1.61c-0.858,0.528-1.708,1.067-2.552,1.613c-0.025,0.016-0.051,0.032-0.076,0.048
	c-0.001,0-0.002,0.001-0.002,0.002c-0.091,0.059-0.184,0.116-0.276,0.175c0.002,0.003,0.005,0.006,0.007,0.009
	c-7.186,4.675-13.906,10.004-20.071,15.909l21.597,88.316c23.114,6.687,47.543,10.278,72.812,10.278
	c19.536,0,38.571-2.143,56.884-6.206c5.374-1.192,10.684-2.554,15.928-4.072c2.157-0.623,4.298-1.282,6.431-1.96
	c0.681-0.216,1.358-0.444,2.038-0.666c1.468-0.48,2.93-0.969,4.385-1.473c0.762-0.264,1.523-0.532,2.283-0.803
	c1.437-0.513,2.867-1.041,4.291-1.578c0.68-0.257,1.363-0.509,2.041-0.77c0.261-0.101,0.524-0.195,0.785-0.297
	c1.791-0.7,3.572-1.418,5.344-2.155c0.008-0.003,0.017-0.007,0.025-0.01l0,0l0,0l0,0c0.002-0.001,0.005-0.002,0.008-0.003
	L350.39,413.376z"/>
<path style="fill:#E6D8B3;" d="M161.592,413.406c-17.7,16.955-30.847,38.623-37.414,62.995
	c10.054,5.875,20.537,11.094,31.388,15.609l27.624-51.991C177.121,430.255,169.851,421.317,161.592,413.406z"/>
<path style="fill:#706B63;" d="M155.565,492.01c8.967,3.733,18.185,6.982,27.624,9.712v-61.705
	C169.361,454.004,159.536,471.954,155.565,492.01z"/>
<path style="fill:#C9AD80;" d="M358.392,421.721c-2.544-2.883-5.207-5.657-7.983-8.315c-8.26,7.911-15.528,16.849-21.597,26.612
	c13.829,13.987,23.652,31.936,27.624,51.991c0.653-0.272,1.306-0.544,1.956-0.821c10.154-4.324,19.982-9.266,29.431-14.788
	C382.285,455.851,372.069,437.223,358.392,421.721z"/>
<g>
	<path style="fill:#706B63;" d="M356.436,492.01c-8.967,3.733-18.185,6.982-27.624,9.712v-61.705
		C342.64,454.004,352.465,471.954,356.436,492.01z"/>
	<path style="opacity:0.3;fill:#706B63;enable-background:new    ;" d="M338.045,402.703l-0.487-0.164
		c-2.35-1.755-4.749-3.448-7.213-5.051c-1.833-1.192-3.695-2.342-5.587-3.447c-20.046-11.743-43.32-18.526-68.193-18.676
		l-0.564-0.19v0.18c-0.093,0-0.185-0.005-0.279-0.005c-25.192,0-48.206,6.815-68.479,18.691c-0.901,0.526-1.794,1.063-2.68,1.61
		c-0.858,0.528-1.708,1.067-2.552,1.613c-0.025,0.016-0.051,0.032-0.076,0.048c-0.001,0-0.002,0.001-0.002,0.002
		c-0.091,0.059-0.184,0.116-0.276,0.175c0.002,0.003,0.005,0.006,0.007,0.009c-2.6,1.691-5.114,3.496-7.587,5.355
		c0.725,0.652,1.463,1.321,2.168,1.95c6.884,6.147,14.504,11.503,22.649,15.92c17.478,9.477,37.226,14.485,57.108,14.485
		c21.322,0,42.035-5.666,60.178-16.219c5.024-2.923,11.358-2.242,15.797,1.509c19.431,16.417,33.524,38.96,39.241,64.634
		c5.652-2.777,11.194-5.745,16.608-8.908C379.806,446.468,361.99,420.736,338.045,402.703z"/>
</g>
<path style="fill:#DAC69C;" d="M432.341,199.137c-8.348,0-16.222,2.011-23.185,5.555C390.763,135.111,332.878,72.693,263.37,68.534
	l-52.275,329.684c13.687,7.422,29.108,11.39,44.907,11.39c23.13,0,45.454-8.495,62.707-23.9
	c25.949-23.171,63.301-59.784,83.084-94.292c8.528,6.352,19.099,10.113,30.55,10.113c28.275,0,51.196-22.921,51.196-51.196
	S460.616,199.137,432.341,199.137z"/>
<path style="fill:#E6D8B3;" d="M263.37,68.534c-2.444-0.147-4.899-0.231-7.37-0.231c-72.761,0-134.123,64.357-153.163,136.386
	c-6.96-3.542-14.832-5.552-23.178-5.552c-28.275,0-51.196,22.921-51.196,51.196s22.921,51.196,51.196,51.196
	c11.451,0,22.022-3.761,30.55-10.113c19.783,34.508,57.135,71.121,83.084,94.292c5.469,4.883,11.45,9.066,17.8,12.51
	c22.915-0.147,45.003-8.615,62.106-23.887c36.811-32.869,96.569-92.787,96.569-135.375
	C369.768,169.527,325.342,96.314,263.37,68.534z"/>
<circle style="fill:#C9AD80;" cx="432.343" cy="250.336" r="17.065"/>
<g>
	<circle style="fill:#DAC69C;" cx="79.661" cy="250.336" r="17.065"/>
	<path style="fill:#DAC69C;" d="M356.676,150.533c-55.266-55.265-145.324-55.403-200.761-0.309l-53.081,54.48
		c6.687,3.399,12.532,8.215,17.127,14.063c3.585,4.562,10.281,5.099,14.395,1.007l0.085-0.084l45.535-45.255
		c42.126-41.87,110.568-41.763,152.568,0.234l44.983,44.983c0.028,0.028,0.057,0.057,0.085,0.085
		c4.11,4.072,10.915,3.485,14.5-1.057c4.583-5.806,10.4-10.59,17.05-13.972L356.676,150.533z"/>
</g>
<path style="fill:#B0A18D;" d="M183.522,89.902c0.873-0.559,1.749-1.11,2.631-1.65c26.707-18.206,53.72-64.765,64.717-85.185
	C251.97,1.023,253.985,0,256.001,0l34.131,67.734l-34.131,58.224c-32.07-0.035-64.147,12.18-88.609,36.641l-44.983,44.983
	c-2.784,2.784-7.042,3.462-10.553,1.682l-9.02-4.576C115.15,158.387,144.538,114.841,183.522,89.902z"/>
<path style="fill:#978574;" d="M328.481,89.902c-0.873-0.559-1.749-1.11-2.631-1.65c-26.707-18.206-53.72-64.765-64.717-85.185
	C260.031,1.023,258.016,0,256.001,0v53.175c0,24.464-16.207,46.172-39.821,52.564c-24.531,6.642-47.689,19.562-66.888,38.76
	l-35.223,35.223c-0.81,0.81-2.008,1.081-3.093,0.716l-0.018-0.006c-3.212,7.941-5.939,16.054-8.12,24.257l9.02,4.576
	c3.511,1.782,7.769,1.102,10.553-1.682l44.983-44.983c24.461-24.461,56.538-36.677,88.609-36.641
	c31.848,0.035,63.69,12.152,88.057,36.369l45.535,45.255c2.784,2.784,7.042,3.462,10.553,1.682l9.02-4.576
	C396.851,158.387,367.464,114.841,328.481,89.902z"/>
<g>
	<path style="fill:#474641;" d="M237.901,280.137c-3.332,3.332-3.332,8.735,0,12.066c3.332,3.332,8.735,3.332,12.066,0
		c1.612-1.612,3.754-2.5,6.033-2.5c2.279,0,4.422,0.887,6.033,2.5c1.666,1.666,3.85,2.499,6.033,2.499
		c2.183,0,4.368-0.833,6.033-2.499c3.332-3.332,3.332-8.735,0-12.066C264.121,270.156,247.88,270.156,237.901,280.137z"/>
	<path style="fill:#474641;" d="M199.116,275.931c-14.114,0-25.598-11.483-25.598-25.598c0-4.712,3.819-8.533,8.533-8.533
		c4.713,0,8.533,3.82,8.533,8.533c0,4.705,3.827,8.533,8.533,8.533s8.533-3.827,8.533-8.533c0-4.712,3.819-8.533,8.533-8.533
		c4.713,0,8.533,3.82,8.533,8.533C224.714,264.448,213.231,275.931,199.116,275.931z"/>
	<path style="fill:#474641;" d="M312.884,275.931c-14.114,0-25.598-11.483-25.598-25.598c0-4.712,3.819-8.533,8.533-8.533
		s8.533,3.82,8.533,8.533c0,4.705,3.827,8.533,8.533,8.533s8.533-3.827,8.533-8.533c0-4.712,3.819-8.533,8.533-8.533
		s8.533,3.82,8.533,8.533C338.482,264.448,326.999,275.931,312.884,275.931z"/>
</g>
<g>
	<path style="fill:#978574;" d="M157.715,228.791c-1.743,0-3.502-0.532-5.018-1.637c-3.809-2.775-4.646-8.112-1.871-11.921
		c7.38-10.13,17.974-17.835,29.829-21.697c4.482-1.46,9.296,0.99,10.756,5.47c1.46,4.48-0.989,9.296-5.47,10.757
		c-8.467,2.758-16.04,8.27-21.322,15.52C162.948,227.574,160.349,228.791,157.715,228.791z"/>
	<path style="fill:#978574;" d="M354.286,228.791c-2.634,0-5.233-1.216-6.902-3.509c-5.283-7.25-12.856-12.761-21.323-15.52
		c-4.48-1.46-6.93-6.275-5.47-10.757c1.46-4.48,6.271-6.93,10.756-5.47c11.855,3.862,22.448,11.567,29.829,21.697
		c2.775,3.809,1.937,9.146-1.871,11.921C357.787,228.259,356.029,228.791,354.286,228.791z"/>
</g>
<g>
</g>
<g>
</g>
<g>
</g>
<g>
</g>
<g>
</g>
<g>
</g>
<g>
</g>
<g>
</g>
<g>
</g>
<g>
</g>
<g>
</g>
<g>
</g>
<g>
</g>
<g>
</g>
<g>
</g>
</svg>
