<?xml version="1.0" encoding="iso-8859-1"?>
<!-- Generator: Adobe Illustrator 19.0.0, SVG Export Plug-In . SVG Version: 6.00 Build 0)  -->
<svg version="1.1" id="Layer_1" xmlns="http://www.w3.org/2000/svg" xmlns:xlink="http://www.w3.org/1999/xlink" x="0px" y="0px"
	 viewBox="0 0 512 512" style="enable-background:new 0 0 512 512;" xml:space="preserve">
<path style="fill:#5B5751;" d="M439.317,292.729c-6.105,95.937-85.836,171.864-183.314,171.864l0,0
	c-97.478,0-177.209-75.927-183.314-171.864v-75.771h366.626v75.771H439.317z"/>
<path style="fill:#A6C1AD;" d="M186.956,391.963c-0.696,0.5-1.38,1.016-2.065,1.53c-6.965,5.234-13.343,11.209-18.997,17.823
	c-0.065,0.077-0.13,0.153-0.197,0.23c-0.717,0.844-1.408,1.705-2.08,2.58l9.422,85.001c3.912,1.249,7.863,2.409,11.849,3.484
	c0.001-0.001,0.001-0.001,0.002-0.002c0.044,0.012,0.089,0.023,0.133,0.034c1.211,0.326,2.426,0.641,3.643,0.951
	C210.206,509.07,232.76,512,256.002,512V369.778C230.24,369.778,206.4,378.002,186.956,391.963z"/>
<path style="fill:#8BAD9C;" d="M327.757,393.976c-0.9-0.676-1.794-1.357-2.708-2.012c-19.443-13.961-43.284-22.185-69.047-22.185
	c-19.199,0-37.326,4.572-53.365,12.677c-5.484,2.771-10.727,5.951-15.681,9.508c-0.696,0.5-1.38,1.016-2.065,1.53
	c-6.688,5.025-12.825,10.74-18.31,17.041c-0.228,0.262-0.462,0.518-0.687,0.782c-0.065,0.077-0.13,0.153-0.197,0.23
	c-0.717,0.844-1.408,1.705-2.08,2.58c-0.544,0.708-1.069,1.426-1.582,2.152c-0.369,0.523-0.722,1.052-1.075,1.585
	c-0.121,0.181-0.245,0.36-0.365,0.543c-0.441,0.679-0.869,1.365-1.285,2.059c-0.015,0.026-0.032,0.052-0.049,0.078
	c-0.436,0.73-0.859,1.466-1.268,2.21c2.344,1.682,4.719,3.303,7.118,4.871c3.532,2.308,7.123,4.485,10.766,6.528
	c3.006,1.687,6.043,3.289,9.118,4.785c6.191,3.012,12.459,5.607,18.786,7.813c14.391,5.014,29.097,7.938,43.97,8.727
	c2.744,0.146,5.492,0.228,8.245,0.228c0.001,0,0.002,0,0.004,0V512c24.603,0,48.439-3.279,71.111-9.39
	c0.001,0.001,0.001,0.001,0.002,0.002c0.037-0.009,0.073-0.021,0.11-0.031l18.308-91.934
	C340.227,404.466,334.271,398.871,327.757,393.976z"/>
<path style="fill:#C98A2E;" d="M362.669,490.332v-2.036v-29.057v-2.482c0-16.799-5.988-33.047-16.888-45.828l0,0
	c-0.081-0.095-0.166-0.187-0.248-0.282c-3.238,5.705-6.087,11.659-8.524,17.82c-6.528,16.506-10.062,34.514-9.919,53.353
	l0.135,20.76c3.949-1.067,7.863-2.216,11.739-3.454C347.036,496.551,354.946,493.62,362.669,490.332z"/>
<path style="fill:#6F9A8A;" d="M286.332,439.71c-3.944-0.065-7.765,0.421-11.391,1.387c-6.213,1.655-12.576,2.482-18.938,2.482
	s-12.725-0.827-18.938-2.482c-3.625-0.966-7.445-1.452-11.391-1.387c-22.443,0.37-40.782,19.883-40.782,42.329v0.332v17.445v0.333
	v2.462c22.673,6.111,46.508,9.39,71.111,9.39c24.604,0,48.439-3.279,71.111-9.39v-2.462v-0.333V482.37v-0.333
	C327.114,459.592,308.774,440.079,286.332,439.71z"/>
<path style="fill:#D5A150;" d="M165.335,411.999c-0.587,0.697-1.146,1.416-1.717,2.127c-9.352,12.167-14.281,27.219-14.281,42.631
	v2.45v31.127c7.724,3.288,15.634,6.219,23.704,8.794c3.912,1.249,7.863,2.409,11.849,3.484c0.001-0.001,0.001-0.001,0.002-0.002
	c0.044,0.012,0.089,0.023,0.133,0.034l-0.151-19.738C184.677,457.025,177.575,432.813,165.335,411.999z"/>
<g>
	<path style="fill:#C98A2E;" d="M439.703,186.074c-8.695,0-16.895,2.094-24.148,5.785c-0.001-0.002-0.001-0.005-0.002-0.007
		l-0.179-0.169c-6.968-6.591-16.763-9.001-26.12-6.894c-2.496,0.562-5.113,0.922-7.813,1.102c-1.249,0.083-2.509,0.141-3.794,0.141
		c-5.645,0-11.163-1.058-16.391-3.14c-26.264-10.483-65.446-38.427-92.625-61.471c-16.025-13.587-46.775-26.492-80.693-18.146
		c-21.396,5.262-50.106,20.589-72.48,62.584c-5.07,9.517-11.52,18.236-19.014,25.99l100.219,223.11
		c18.426,8.964,38.427,14.079,59.336,14.079c75.799,0,139.723-67.044,159.558-142.08c7.251,3.689,15.451,5.784,24.146,5.784
		c29.455,0,53.333-23.878,53.333-53.333S469.158,186.074,439.703,186.074z"/>
</g>
<path style="fill:#D5A150;" d="M386.37,227.492c-0.001-3.379-2.847-6.034-6.225-5.94c-0.83,0.023-1.662,0.034-2.497,0.034
	c-10.171,0-20.116-1.907-29.559-5.668c-32.051-12.793-75.219-44.292-102.45-67.379c-10.395-8.813-29.64-15.554-49.208-10.74
	c-23.556,5.794-43.347,26.963-57.234,61.218c-0.037,0.091-0.073,0.181-0.111,0.271c-4.59,11.054-19.214,13.205-27.249,4.333
	c-4.35-4.802-9.563-8.809-15.393-11.777l-0.002,0.009c-8.288-4.217-17.816-6.349-27.904-5.653
	c-27.012,1.863-48.572,24.19-49.54,51.249c-1.087,30.349,23.193,55.291,53.297,55.291c8.699,0,16.903-2.095,24.158-5.79
	c14.364,54.335,51.838,104.476,100.21,128.007c7.768,1.451,15.705,2.227,23.781,2.227c91.639,0,165.926-97.991,165.926-189.63
	C386.37,227.534,386.37,227.513,386.37,227.492z"/>
<circle style="fill:#AD712C;" cx="439.703" cy="239.407" r="17.778"/>
<g>
	<circle style="fill:#C98A2E;" cx="72.295" cy="239.407" r="17.778"/>
	<path style="fill:#C98A2E;" d="M170.669,272h-11.852c-4.91,0-8.889-3.98-8.889-8.889s3.979-8.889,8.889-8.889h11.852
		c4.91,0,8.889,3.98,8.889,8.889S175.58,272,170.669,272z"/>
	<path style="fill:#C98A2E;" d="M353.188,272h-11.852c-4.91,0-8.889-3.98-8.889-8.889s3.979-8.889,8.889-8.889h11.852
		c4.91,0,8.889,3.98,8.889,8.889S358.098,272,353.188,272z"/>
</g>
<g>
	<path style="fill:#5B5751;" d="M239.888,216.955c-2.75,0-5.463-1.273-7.201-3.669c-5.453-7.514-13.343-13.244-22.22-16.134
		c-4.667-1.519-7.22-6.536-5.701-11.204c1.519-4.67,6.541-7.22,11.205-5.701c12.599,4.102,23.354,11.916,31.104,22.598
		c2.884,3.974,1.999,9.531-1.975,12.415C243.524,216.404,241.698,216.955,239.888,216.955z"/>
	<path style="fill:#5B5751;" d="M272.12,216.958c-1.81,0-3.636-0.551-5.214-1.696c-3.974-2.884-4.857-8.442-1.973-12.415
		c7.761-10.693,18.517-18.508,31.108-22.598c4.664-1.517,9.683,1.037,11.2,5.707c1.517,4.668-1.038,9.684-5.707,11.201
		c-8.993,2.923-16.673,8.501-22.212,16.133C277.583,215.685,274.871,216.958,272.12,216.958z"/>
</g>
<path style="fill:#8D472E;" d="M256.003,248.296c-14.705,0-26.667,11.962-26.667,26.667c0,4.978,1.375,9.638,3.758,13.63h45.817
	c2.383-3.992,3.758-8.652,3.758-13.63C282.669,260.258,270.707,248.296,256.003,248.296z"/>
<path style="fill:#BD7155;" d="M256.003,301.63c9.727,0,18.251-5.237,22.908-13.037c-4.658-7.8-13.182-13.037-22.908-13.037
	c-9.727,0-18.251,5.237-22.908,13.037C237.752,296.392,246.276,301.63,256.003,301.63z"/>
<g>
	<path style="fill:#474641;" d="M178.973,266.075c-3.26,0-6.4-1.8-7.957-4.915c-2.196-4.391-0.416-9.73,3.975-11.925l19.655-9.828
		l-19.655-9.828c-4.39-2.195-6.17-7.534-3.975-11.925c2.195-4.391,7.532-6.172,11.927-3.975l35.556,17.778
		c3.01,1.505,4.914,4.583,4.914,7.95s-1.902,6.445-4.914,7.95l-35.556,17.778C181.666,265.774,180.309,266.075,178.973,266.075z"/>
	<path style="fill:#474641;" d="M333.033,266.075c-1.336,0-2.692-0.302-3.969-0.94l-35.556-17.778
		c-3.01-1.505-4.914-4.583-4.914-7.95s1.902-6.445,4.914-7.95l35.556-17.778c4.395-2.196,9.732-0.416,11.927,3.975
		c2.196,4.391,0.416,9.73-3.975,11.925l-19.654,9.828l19.655,9.828c4.39,2.195,6.17,7.534,3.975,11.925
		C339.434,264.275,336.293,266.075,333.033,266.075z"/>
</g>
<path style="fill:#5B5751;" d="M311.722,1.588c-0.517-0.108-1.035-0.215-1.553-0.319C306.003,0.427,301.726,0,297.463,0
	c-15.784,0-30.327,5.671-41.46,14.92C244.869,5.671,230.328,0,214.543,0c-4.263,0-8.54,0.427-12.706,1.269
	c-0.563,0.114-1.125,0.23-1.687,0.347C125.575,17.204,72.299,83.198,72.299,159.385v26.689c8.692,0,16.891,2.094,24.141,5.784
	c1.911,0.972,3.904,2.06,5.668,3.246c1.894,1.274,3.923,2.351,6.106,3.021c6.043,1.855,11.602,1.387,14.508-5.784
	c37.371-92.183,106.537-80.994,134.413-57.361c22.651,19.205,65.585,51.672,97.532,64.423c7.111,2.833,14.86,4.407,22.981,4.407
	c12.676,0,24.548-3.109,34.396-9.476c4.066-2.629,8.382-4.891,13.037-6.221c4.646-1.326,9.549-2.039,14.622-2.039
	c0.001,0,0.002,0,0.004,0v-26.689C439.706,83.147,386.355,17.15,311.722,1.588z"/>
<g>
	<path style="fill:#706B63;" d="M72.642,159.409c20.316,0.09,39.705-8.661,52.472-24.466c20.318-25.15,42.841-35.906,60.702-40.3
		c12.486-3.072,24.499-3.586,35.648-2.321c18.465,2.095,34.54-12.66,34.54-31.244V14.92C244.869,5.671,230.328,0,214.543,0
		c-4.263,0-8.54,0.427-12.706,1.269c-0.563,0.114-1.125,0.23-1.687,0.347C125.575,17.204,72.299,83.198,72.299,159.385v0.023h0.004
		C72.415,159.407,72.529,159.407,72.642,159.409z"/>
	<path style="opacity:0.5;fill:#706B63;enable-background:new    ;" d="M311.722,1.588c-0.517-0.108-1.035-0.215-1.553-0.319
		C306.003,0.427,301.726,0,297.463,0c-1.99,0-3.958,0.091-5.905,0.267v51.838c0,18.266,3.995,35.95,11.343,51.956
		c17.895,38.977,72.257,41.944,94.841,5.481l0,0c13.523-21.833,9.829-50.191-8.881-67.787
		C367.896,22.039,341.503,7.797,311.722,1.588z"/>
</g>
<g>
</g>
<g>
</g>
<g>
</g>
<g>
</g>
<g>
</g>
<g>
</g>
<g>
</g>
<g>
</g>
<g>
</g>
<g>
</g>
<g>
</g>
<g>
</g>
<g>
</g>
<g>
</g>
<g>
</g>
</svg>
