<?xml version="1.0" encoding="iso-8859-1"?>
<!-- Generator: Adobe Illustrator 19.0.0, SVG Export Plug-In . SVG Version: 6.00 Build 0)  -->
<svg version="1.1" id="Layer_1" xmlns="http://www.w3.org/2000/svg" xmlns:xlink="http://www.w3.org/1999/xlink" x="0px" y="0px"
	 viewBox="0 0 511.998 511.998" style="enable-background:new 0 0 511.998 511.998;" xml:space="preserve">
<path style="fill:#868075;" d="M321.258,410.775l-140.47-27.811c-1.965,1.149-3.9,2.343-5.807,3.578
	c-7.975,5.161-15.422,11.064-22.253,17.606l23.624,96.608c25.284,7.315,52.006,11.243,79.648,11.243
	c21.371,0,42.192-2.345,62.225-6.789c5.879-1.304,11.687-2.794,17.423-4.454c8.276-2.394,16.395-5.153,24.344-8.257
	c1.969-0.768,3.926-1.558,5.873-2.368c0.714-0.297,1.429-0.595,2.139-0.899c11.107-4.73,21.858-10.136,32.194-16.176
	L321.258,410.775z"/>
<path style="fill:#706B63;" d="M383.876,434.841c-9.797-16.203-22.584-30.394-37.6-41.806c-2.902-2.205-5.888-4.307-8.95-6.3
	c-2.005-1.304-4.042-2.562-6.112-3.771H180.788c-2.07,1.208-4.107,2.467-6.112,3.771c18.344,25.011,47.931,41.26,81.324,41.26
	c16.411,0,31.901-3.928,45.593-10.887c4.893-2.487,10.761-2.06,15.362,0.933c0.095,0.061,0.189,0.123,0.284,0.185
	c11.484,7.519,18.409,20.319,18.409,34.046v48.484c10.324-2.987,20.407-6.542,30.216-10.624l0,0l0,0
	c4.428-1.843,8.801-3.793,13.113-5.848c0.027-0.014,0.056-0.026,0.083-0.039c1.355-0.646,2.703-1.304,4.046-1.97
	c0.102-0.051,0.205-0.1,0.307-0.151c1.261-0.627,2.514-1.267,3.763-1.912c0.177-0.091,0.355-0.179,0.531-0.271
	c1.167-0.605,2.326-1.222,3.483-1.843c0.25-0.134,0.502-0.265,0.752-0.4c1.104-0.596,2.2-1.206,3.297-1.816
	c0.289-0.162,0.581-0.319,0.87-0.48c1.342-0.754,4.06-2.327,4.088-2.343L383.876,434.841z"/>
<path style="fill:#868075;" d="M152.728,404.148c-19.362,18.547-33.743,42.249-40.927,68.909
	c10.998,6.427,22.466,12.135,34.334,17.075l30.218-56.872C169.715,422.579,161.763,412.802,152.728,404.148z"/>
<path style="fill:#F8E5B5;" d="M160.876,462.388c-9.518-10.665-20.539-19.954-32.739-27.535c-7.12,11.772-12.669,24.6-16.335,38.204
	c10.998,6.427,22.466,12.135,34.334,17.075L160.876,462.388z"/>
<path style="fill:#ECCE93;" d="M354.522,458.706c5.258,9.702,9.133,20.263,11.344,31.425c0.714-0.297,1.429-0.595,2.139-0.898
	c11.107-4.73,21.858-10.136,32.194-16.176c-3.666-13.604-9.217-26.431-16.337-38.202
	C373.089,441.548,363.235,449.576,354.522,458.706z"/>
<path style="fill:#706B63;" d="M146.136,490.131c9.809,4.083,19.892,7.637,30.218,10.624v-67.498
	C161.227,448.557,150.479,468.192,146.136,490.131z"/>
<path style="fill:#F8E5B5;" d="M257.245,60.246l-159.352,87.72c-3.77,9.099-6.939,18.422-9.437,27.868
	c-7.614-3.874-16.225-6.073-25.354-6.073c-30.93,0-56.002,25.073-56.002,56.002s25.073,56.002,56.002,56.002
	c6.866,0,13.434-1.252,19.51-3.516c0.209-0.078,0.418-0.156,0.625-0.235c0.922-0.356,1.836-0.731,2.733-1.134
	c0.057-0.025,0.112-0.052,0.168-0.078c0.88-0.398,1.747-0.821,2.602-1.263c0.073-0.039,0.151-0.07,0.224-0.108
	c11.758,39.601,37.214,73.307,70.874,95.632l34.349,12.335l117.191-0.83L446.406,222.65L257.245,60.246z"/>
<path style="fill:#ECCE93;" d="M454.632,170.051c-1.885-0.192-3.798-0.29-5.735-0.29c-9.128,0-17.739,2.198-25.354,6.073
	c-1.711-6.474-3.741-12.891-6.059-19.216C397.98,103.384,357.676,56.606,307.747,36.762C291.397,30.264,274.02,26.645,256,26.645
	c-63.744,0-119.485,45.158-149.857,103.616c-3.004,5.782-5.758,11.695-8.25,17.705v28.421c0.02,7.355,4.415,14.315,11.651,17.252
	c9.555,3.877,20.441-0.724,24.317-10.277c14.597-35.961,35.398-58.19,60.161-64.283c20.588-5.066,40.841,2.014,51.78,11.279
	c28.679,24.288,74.126,57.416,107.822,70.85c10.115,4.032,20.65,6.042,31.167,6.042c0.031,0,0.062,0,0.093,0
	c4.906-0.006,8.805,4.099,8.397,8.988l-1.465,17.572c-13.456,82.846-85.327,146.093-171.973,146.085
	c-19.169-0.001-39.59-3.109-60.003-8.828c27.557,18.278,60.612,28.928,96.159,28.928c78.965,0,145.648-52.538,167.034-124.561
	c8.73,4.555,18.801,6.893,29.476,6.22c28.067-1.772,50.741-24.614,52.301-52.693C506.5,198.539,483.899,173.028,454.632,170.051z"/>
<path style="opacity:0.2;fill:#644D2D;enable-background:new    ;" d="M392.9,226.014c0-0.082-0.005-0.163-0.005-0.244l0,0v-0.006
	c0.175-3.341-1.527-6.581-4.503-8.112c-7.092-3.649-14.165,1.405-14.165,8.112c0,0.002,0,0.004,0,0.006l0,0
	c0,20.623-16.719,37.329-37.341,37.329H321.33c-10.307,0-18.661-8.356-18.661-18.661v-0.012c0-15.458-12.531-27.989-27.989-27.989
	h-37.347c-15.464,0-28.001,12.537-28.001,28.001c0,10.307-8.356,18.661-18.661,18.661h-15.556
	c-20.623,0-37.341-16.706-37.341-37.329l0,0v-0.006c0.175-3.341-1.527-6.581-4.503-8.112c-7.092-3.649-14.165,1.405-14.165,8.112
	c0,0.002,0,0.004,0,0.006l0,0c0,21.685-12.334,40.47-30.363,49.771c0.073-0.039,0.151-0.07,0.224-0.108
	c11.758,39.601,37.214,73.307,70.874,95.632c27.557,18.278,60.612,28.928,96.159,28.928c78.965,0,145.649-52.538,167.034-124.561
	c0.073,0.039,0.151,0.071,0.224,0.108C405.297,266.275,392.993,247.595,392.9,226.014z"/>
<circle style="fill:#ECCE93;" cx="63.103" cy="225.763" r="18.667"/>
<circle style="fill:#E1B872;" cx="448.891" cy="225.763" r="18.667"/>
<polygon style="fill:#E2C35A;" points="207.455,80.052 207.452,80.049 207.45,80.052 "/>
<path style="fill:#D9B43A;" d="M447.302,143.22c-11.89,35.945-51.596,54.667-86.764,40.645
	c-33.584-13.39-78.859-47.588-102.671-67.755c-29.304-24.817-102.015-36.566-141.302,60.231
	c-5.307,13.073-19.005,4.053-28.249-0.808c0,0-11.742-87.801,67.076-108.541c0,0-18.554-18.257,9.758-46.569
	s101.012-29.038,162.615,9.542S447.302,143.22,447.302,143.22L447.302,143.22z"/>
<path style="fill:#BB9430;" d="M410.318,147.01c-33.584-13.39-78.859-47.59-102.671-67.755
	c-20.737-17.562-63.211-28.567-100.196,0.795l-1.388,0.102c-49.204,3.636-93.412,31.406-118.048,74.152l0,0
	c-0.859,12.546,0.301,21.229,0.301,21.229c9.244,4.861,22.942,13.881,28.249,0.808c18.664-45.985,44.87-67.462,70.384-74.687
	c14.65-4.149,29.069-3.605,41.702-0.289c11.676,3.065,21.827,8.489,29.216,14.746c23.812,20.166,69.087,54.366,102.671,67.755
	c6.037,2.407,12.207,3.827,18.349,4.383c29.63,2.681,58.562-15.253,68.413-45.023C434.788,148.889,421.694,151.544,410.318,147.01z"
	/>
<path style="fill:#E2C35A;" d="M109.239,147.991c23.469-43.673,53.477-59.659,75.863-65.167c7.642-1.88,15.131-2.73,22.347-2.773
	c0.001,0,0.001-0.001,0.002-0.002c-11.171-6.184-27.67-11.381-52.059-13.059c-54.036,14.221-65.505,59.956-67.377,87.313
	c0.052,0.027,0.103,0.055,0.157,0.083C95.757,158.397,105.177,155.548,109.239,147.991z"/>
<g>
	<path style="fill:#474641;" d="M256,272.432c-15.44,0-28.001-12.561-28.001-28.001c0-5.155,4.179-9.334,9.334-9.334
		s9.334,4.179,9.334,9.334c0,5.147,4.186,9.334,9.334,9.334c5.147,0,9.334-4.186,9.334-9.334c0-5.155,4.179-9.334,9.334-9.334
		c5.155,0,9.334,4.179,9.334,9.334C284.001,259.872,271.441,272.432,256,272.432z"/>
	<circle style="fill:#474641;" cx="193.781" cy="225.763" r="18.667"/>
	<circle style="fill:#474641;" cx="318.231" cy="225.763" r="18.667"/>
</g>
<g>
	<path style="fill:#BB9430;" d="M336.892,197.763h-37.335c-5.155,0-9.334-4.179-9.334-9.334s4.179-9.334,9.334-9.334h37.335
		c5.155,0,9.334,4.179,9.334,9.334S342.047,197.763,336.892,197.763z"/>
	<path style="fill:#BB9430;" d="M175.108,197.763h37.335c5.155,0,9.334-4.179,9.334-9.334s-4.179-9.334-9.334-9.334h-37.335
		c-5.155,0-9.334,4.179-9.334,9.334S169.953,197.763,175.108,197.763z"/>
</g>
<g>
</g>
<g>
</g>
<g>
</g>
<g>
</g>
<g>
</g>
<g>
</g>
<g>
</g>
<g>
</g>
<g>
</g>
<g>
</g>
<g>
</g>
<g>
</g>
<g>
</g>
<g>
</g>
<g>
</g>
</svg>
