<?xml version="1.0" encoding="iso-8859-1"?>
<!-- Generator: Adobe Illustrator 19.0.0, SVG Export Plug-In . SVG Version: 6.00 Build 0)  -->
<svg version="1.1" id="Layer_1" xmlns="http://www.w3.org/2000/svg" xmlns:xlink="http://www.w3.org/1999/xlink" x="0px" y="0px"
	 viewBox="0 0 512 512" style="enable-background:new 0 0 512 512;" xml:space="preserve">
<path style="fill:#BED8D9;" d="M184.372,389.115c-31.889,18.628-55.866,49.312-65.698,85.799
	c39.053,22.822,84.286,36.22,132.585,37.045L256,512l56.889-59.259l-61.63-63.625H184.372z"/>
<path style="fill:#A1C5D1;" d="M327.628,389.115H256V512c50.08,0,96.998-13.518,137.326-37.086
	C383.494,438.427,359.516,407.743,327.628,389.115z"/>
<path style="fill:#84B3C8;" d="M318.185,388.506l-18.728-18.728H256l-36.741,59.259L256,500.148l47.699-47.699
	c5.657-5.657,5.657-14.829,0-20.486l-4.243-4.243l18.728-18.728C323.842,403.335,323.842,394.163,318.185,388.506z"/>
<path style="fill:#A1C5D1;" d="M212.543,369.778l-18.728,18.728c-5.657,5.657-5.657,14.829,0,20.486l18.728,18.728l-4.243,4.243
	c-5.657,5.657-5.657,14.829,0,20.486l47.7,47.699v-130.37H212.543z"/>
<path style="fill:#E1B872;" d="M157.65,409.289c-18.439,17.663-32.135,40.236-38.976,65.625
	c10.473,6.12,21.395,11.557,32.698,16.261l28.776-54.163C173.826,426.842,166.254,417.531,157.65,409.289z"/>
<path style="fill:#D5A150;" d="M362.667,417.952c-2.65-3.003-5.425-5.893-8.316-8.663c-8.604,8.242-16.177,17.553-22.498,27.723
	l28.777,54.162c0.68-0.283,1.361-0.567,2.037-0.856c10.578-4.505,20.817-9.653,30.66-15.405
	C387.558,453.506,376.915,434.101,362.667,417.952z"/>
<path style="fill:#84B3C8;" d="M331.852,501.293c9.832-2.844,19.436-6.23,28.777-10.118c-4.136-20.892-14.372-39.592-28.777-54.162
	V501.293z"/>
<path style="fill:#A1C5D1;" d="M151.371,491.175c9.342,3.889,18.944,7.273,28.777,10.118v-64.281
	C165.743,451.583,155.508,470.281,151.371,491.175z"/>
<path style="fill:#D5A150;" d="M439.704,186.074c-8.697,0-16.898,2.095-24.152,5.786c-16.904-63.937-65.818-122.063-126.818-137.856
	L119.922,367.003c1.106,0.717,2.217,1.429,3.364,2.108l0,0c81.472,48.296,183.959,48.296,265.431,0l0,0
	c28.768-17.054,44.994-46.121,46.462-76.575c1.493,0.126,3,0.205,4.526,0.205c29.455,0,53.333-23.878,53.333-53.333
	S469.159,186.074,439.704,186.074z"/>
<path style="fill:#E1B872;" d="M378.615,228.819c-3.87-9.607-6.296-19.737-7.294-30.046
	c-5.442-56.206-37.299-112.382-82.586-144.769c-8.153-2.111-16.519-3.475-25.057-3.986c-2.546-0.152-5.103-0.241-7.678-0.241
	c-75.799,0-139.723,67.044-159.558,142.08c-7.252-3.691-15.452-5.784-24.146-5.784c-29.455,0-53.333,23.878-53.333,53.333
	s23.878,53.333,53.333,53.333c1.529,0,3.038-0.079,4.533-0.205c1.415,29.235,16.433,57.191,43.091,74.468
	c71.739,25.087,152.401,17.894,219.016-21.595l0,0C380.335,320.866,395.788,271.448,378.615,228.819z"/>
<circle style="fill:#D5A150;" cx="72.296" cy="239.407" r="17.778"/>
<circle style="fill:#C98A2E;" cx="439.704" cy="239.407" r="17.778"/>
<path style="fill:#D5A150;" d="M402.852,183.974c-7.893-4.904-17.72-6.046-26.3-2.477c-0.472,0.197-0.941,0.405-1.404,0.627
	l-1.083,0.517c-21.803,10.311-47.017,8.745-67.451-4.192c-20.48-12.968-32.74-35.134-32.833-59.334
	c-0.037-9.377-7.263-17.428-16.622-18.021c-10.342-0.655-18.935,7.539-18.935,17.741c0,24.309-12.274,46.594-32.833,59.614
	c-20.433,12.937-45.647,14.505-67.431,4.203l-1.114-0.53c-0.463-0.222-0.932-0.431-1.403-0.627
	c-8.571-3.566-18.389-2.428-26.276,2.469l-12.717,7.898c11.821,6.017,21.101,16.301,25.798,28.834l0,0
	c3.559-2.104,7.808-2.692,11.719-1.358c11.054,3.769,22.507,5.639,33.929,5.639c19.657,0,39.227-5.542,56.516-16.489
	c12.813-8.114,23.484-18.62,31.59-30.747c8.105,12.127,18.777,22.635,31.59,30.747c27.319,17.298,60.325,21.099,90.392,10.867
	c3.911-1.331,8.153-0.779,11.718,1.308l0.055,0.032c4.697-12.531,13.975-22.815,25.793-28.832L402.852,183.974z"/>
<g>
	<path style="fill:#474641;" d="M214.519,248.296c-4.91,0-8.889-3.98-8.889-8.889c0-4.902-3.987-8.889-8.889-8.889
		c-4.902,0-8.889,3.987-8.889,8.889c0,4.909-3.979,8.889-8.889,8.889s-8.889-3.98-8.889-8.889c0-14.705,11.963-26.667,26.667-26.667
		s26.667,11.962,26.667,26.667C223.407,244.316,219.429,248.296,214.519,248.296z"/>
	<path style="fill:#474641;" d="M333.037,248.296c-4.91,0-8.889-3.98-8.889-8.889c0-4.902-3.987-8.889-8.889-8.889
		c-4.902,0-8.889,3.987-8.889,8.889c0,4.909-3.979,8.889-8.889,8.889c-4.91,0-8.889-3.98-8.889-8.889
		c0-14.705,11.963-26.667,26.667-26.667c14.703,0,26.667,11.962,26.667,26.667C341.926,244.316,337.947,248.296,333.037,248.296z"/>
	<path style="fill:#474641;" d="M273.778,248.296h-35.556c-4.909,0-8.889,3.98-8.889,8.889s3.98,8.889,8.889,8.889h35.556
		c4.91,0,8.889-3.98,8.889-8.889S278.688,248.296,273.778,248.296z"/>
</g>
<g>
	<path style="fill:#5F6568;" d="M426.713,62.308c-28.212-29.525-69.033-51.43-116.546-61.038C305.999,0.427,301.723,0,297.46,0
		C281.675,0,267.134,5.671,256,14.92l-59.259,50.857L256,118.835c0,64.608,67.26,107.501,125.665,79.877
		c0.388-0.184,0.775-0.367,1.163-0.553c6.364-3.045,14.018,0.338,15.852,7.175l0,0c4.627-5.566,10.37-10.163,16.879-13.476
		c7.251-3.689,15.451-5.784,24.146-5.784v-0.197V94.923C439.704,82.79,435.095,71.08,426.713,62.308z"/>
	<path style="fill:#5F6568;" d="M214.54,0c-4.263,0-8.54,0.427-12.706,1.269c-47.512,9.608-88.334,31.513-116.546,61.038
		C76.905,71.08,72.296,82.79,72.296,94.923v90.956v0.196c8.693,0,16.894,2.093,24.146,5.784c6.509,3.311,12.252,7.91,16.879,13.476
		l0,0c1.832-6.837,9.487-10.22,15.852-7.175c0.386,0.185,0.774,0.37,1.163,0.553C188.74,226.335,256,183.442,256,118.834V14.92
		C244.866,5.671,230.325,0,214.54,0z"/>
</g>
<g>
	<path style="fill:#6F7475;" d="M214.54,0c-4.263,0-8.54,0.427-12.706,1.269c-47.513,9.607-88.335,31.513-116.546,61.038
		C76.905,71.08,72.296,82.79,72.296,94.923l0,0c0,33.784,21.882,63.505,53.988,74.023c4.722,1.547,9.702,3.339,14.94,5.415
		c19.836,7.859,41.299,8.045,59.409-3.423c17.971-11.38,28.7-30.857,28.7-52.103V14.811C229.333,6.638,222.713,0.009,214.54,0
		L214.54,0z"/>
	<path style="fill:#6F7475;" d="M297.46,0c-8.173,0.009-14.793,6.638-14.793,14.81v104.024c0,21.246,10.729,40.723,28.7,52.103
		l0.009,0.006c1.685,1.065,3.883-0.145,3.883-2.138V18.111c0-9.691-7.622-17.788-17.308-18.103C297.777,0.002,297.612,0,297.46,0z"
		/>
</g>
<g>
</g>
<g>
</g>
<g>
</g>
<g>
</g>
<g>
</g>
<g>
</g>
<g>
</g>
<g>
</g>
<g>
</g>
<g>
</g>
<g>
</g>
<g>
</g>
<g>
</g>
<g>
</g>
<g>
</g>
</svg>
