<?xml version="1.0" encoding="iso-8859-1"?>
<!-- Generator: Adobe Illustrator 19.0.0, SVG Export Plug-In . SVG Version: 6.00 Build 0)  -->
<svg version="1.1" id="Layer_1" xmlns="http://www.w3.org/2000/svg" xmlns:xlink="http://www.w3.org/1999/xlink" x="0px" y="0px"
	 viewBox="0 0 512 512" style="enable-background:new 0 0 512 512;" xml:space="preserve">
<path style="fill:#78ABB1;" d="M186.906,393.462c-30.761,17.969-53.89,47.568-63.374,82.764C162.434,498.96,207.692,512,256,512
	l57.163-61.736L256,393.462H186.906z"/>
<path style="fill:#6A9093;" d="M388.469,476.226c-8.889-32.986-29.764-61.056-57.672-79.243l0,0c-0.001,0-0.001-0.001-0.002-0.001
	c-1.869-1.218-3.769-2.392-5.7-3.52H256h-69.094c-1.931,1.128-3.832,2.303-5.703,3.521c12.107,16.565,29.574,28.962,49.853,34.626
	c14.856,4.149,24.944,17.955,24.944,33.38V512C304.309,512,349.567,498.96,388.469,476.226z"/>
<path style="fill:#5B7676;" d="M329.169,439.845v61.826c9.474-2.74,18.727-6.002,27.727-9.747
	C352.885,471.838,343.026,453.862,329.169,439.845z"/>
<path style="fill:#6A9093;" d="M155.104,491.924c9.001,3.745,18.253,7.006,27.727,9.747v-61.826
	C168.974,453.862,159.116,471.838,155.104,491.924z"/>
<path style="fill:#D5A150;" d="M433.206,197.784c-8.386,0-25.582-2.523-26.918-6.529c-17.834-53.426-58.538-100.726-109.069-117.987
	c-13.152-4.492-26.966-6.959-41.218-6.959c-69.392,0-128.462,58.253-150.658,126.062v56.86l66.635,136.245
	c24.421,15.096,53.203,23.812,84.023,23.812c72.541,0,133.8-48.264,153.446-114.428c7.109,3.71,15.186,5.818,23.759,5.818
	c28.413,0,51.447-23.033,51.447-51.447S461.619,197.784,433.206,197.784z"/>
<path style="fill:#E1B872;" d="M381.759,232.082c0-1.909-0.035-3.821-0.104-5.735c-0.112-3.128-1.596-5.995-3.847-8.17
	c-0.003-0.003-0.008-0.008-0.011-0.011l-45.203-45.203c-16.03-16.03-36.272-26.495-58.537-30.266
	c-6.871-1.164-13.112-3.921-18.38-7.861c-5.267,3.94-11.509,6.697-18.38,7.861c-22.265,3.77-42.508,14.237-58.537,30.266
	l-45.203,45.203c-0.354,0.354-0.753,0.699-1.189,1.03c-7.747,5.91-19.066,1.867-21.793-7.487
	c-1.558-5.346-3.386-11.945-5.233-19.338c-1.189,3.639-18.158,5.413-26.545,5.413c-1.199,0-2.408,0.041-3.625,0.126
	c-26.056,1.797-46.854,23.333-47.788,49.433c-1.046,29.273,22.374,53.334,51.414,53.334c8.573,0,16.65-2.109,23.759-5.818
	c11.299,38.053,36.365,70.181,69.423,90.616c16.945,4.327,33.805,6.663,49.724,6.663
	C310.099,392.138,381.759,320.479,381.759,232.082z"/>
<circle style="fill:#D5A150;" cx="78.795" cy="249.231" r="17.149"/>
<circle style="fill:#C98A2E;" cx="433.204" cy="249.231" r="17.149"/>
<g>
	<path style="fill:#474641;" d="M256,292.103c-14.184,0-25.723-11.539-25.723-25.723c0-4.735,3.839-8.574,8.574-8.574
		s8.574,3.839,8.574,8.574c0,4.729,3.846,8.574,8.574,8.574c4.729,0,8.574-3.846,8.574-8.574c0-4.735,3.839-8.574,8.574-8.574
		s8.574,3.839,8.574,8.574C281.724,280.564,270.185,292.103,256,292.103z"/>
	<circle style="fill:#474641;" cx="198.836" cy="249.231" r="17.149"/>
	<circle style="fill:#474641;" cx="313.162" cy="249.231" r="17.149"/>
</g>
<g>
	<path style="fill:#6D5B4D;" d="M182.944,208.897c-3.615,0-6.976-2.304-8.153-5.928c-1.463-4.503,1.001-9.34,5.505-10.804
		c12.146-3.947,24.971-3.947,37.089-0.001c4.503,1.466,6.965,6.305,5.499,10.807c-1.465,4.503-6.303,6.967-10.807,5.499
		c-8.649-2.816-17.805-2.814-26.481,0.005C184.715,208.76,183.822,208.897,182.944,208.897z"/>
	<path style="fill:#6D5B4D;" d="M297.27,208.897c-3.615,0-6.976-2.304-8.153-5.928c-1.463-4.503,1.002-9.34,5.505-10.804
		c12.146-3.947,24.971-3.947,37.089-0.001c4.503,1.466,6.965,6.305,5.499,10.807c-1.465,4.503-6.303,6.967-10.807,5.499
		c-8.649-2.816-17.805-2.814-26.481,0.005C299.041,208.76,298.148,208.897,297.27,208.897z"/>
	<path style="fill:#6D5B4D;" d="M256,80.028c-4.735,0-8.574-3.839-8.574-8.574V8.574C247.426,3.839,251.265,0,256,0
		s8.574,3.839,8.574,8.574v62.879C264.575,76.189,260.736,80.028,256,80.028z"/>
	<path style="fill:#6D5B4D;" d="M433.206,197.784c0-79.55-59.898-146.014-139.805-162.074C274.065,31.824,256,46.587,256,66.309
		c0-19.722-18.065-34.485-37.401-30.599C138.693,51.77,78.795,118.234,78.795,197.784c8.386,0,16.296,2.019,23.292,5.579l0,0l0,0
		l9.064,4.598c3.528,1.79,7.807,1.108,10.605-1.69l45.203-45.203c19.16-19.16,42.968-30.843,67.8-35.048
		c12.32-2.086,21.243-12.918,21.243-25.414c0,12.496,8.923,23.327,21.243,25.414c24.83,4.205,48.64,15.888,67.8,35.048
		l45.203,45.203c2.798,2.798,7.077,3.479,10.605,1.69l9.064-4.598l0,0l0,0C416.91,199.803,424.82,197.784,433.206,197.784z"/>
</g>
<g>
	<path style="fill:#827061;" d="M273.149,73.818v26.789c0,4.176,2.991,7.834,6.957,8.505c11.369,1.925,22.336,5.174,32.733,9.661
		c21.421,9.243,45.391-6.278,46.069-29.598l0,0V62.82c-19.311-12.909-41.504-22.286-65.507-27.11
		c-0.31-0.062-0.617-0.106-0.926-0.159l-5.931,5.931C277.967,50.059,273.149,61.69,273.149,73.818z"/>
	<path style="fill:#827061;" d="M116.8,186.973l38.032-38.032c21.091-21.091,47.739-34.865,77.063-39.83
		c3.966-0.671,6.957-4.328,6.957-8.505V73.818c0-12.129-4.818-23.76-13.394-32.336l-5.931-5.931
		c-0.309,0.053-0.617,0.097-0.926,0.159C144.5,50.603,87.617,108.842,79.738,180.664c10.438,0.146,20.834,2.688,30.125,7.415
		C112.171,189.25,114.97,188.804,116.8,186.973z M102.087,168.232L102.087,168.232L102.087,168.232z M102.087,145.367
		L102.087,145.367L102.087,145.367z"/>
</g>
<g>
</g>
<g>
</g>
<g>
</g>
<g>
</g>
<g>
</g>
<g>
</g>
<g>
</g>
<g>
</g>
<g>
</g>
<g>
</g>
<g>
</g>
<g>
</g>
<g>
</g>
<g>
</g>
<g>
</g>
</svg>
