<?xml version="1.0" encoding="iso-8859-1"?>
<!-- Generator: Adobe Illustrator 19.0.0, SVG Export Plug-In . SVG Version: 6.00 Build 0)  -->
<svg version="1.1" id="Layer_1" xmlns="http://www.w3.org/2000/svg" xmlns:xlink="http://www.w3.org/1999/xlink" x="0px" y="0px"
	 viewBox="0 0 512.002 512.002" style="enable-background:new 0 0 512.002 512.002;" xml:space="preserve">
<path style="fill:#8D472E;" d="M256.111,283.051c-7.374,0.056-14.328-2.763-19.581-7.937c-3.621-3.567-3.665-9.392-0.098-13.014
	c3.565-3.619,9.392-3.664,13.013-0.098c1.751,1.725,4.068,2.665,6.526,2.645c2.457-0.018,4.762-0.994,6.485-2.745
	c3.567-3.621,9.393-3.666,13.013-0.099c3.622,3.567,3.666,9.392,0.101,13.014C270.395,280.069,263.485,282.994,256.111,283.051z"/>
<path style="fill:#658577;" d="M462.519,357.505c-10.404-41.845-16.349-86.595-16.349-128.921l0,0H256l-85.883,100.606L256,437.159
	c62.625,0,125.251-12.242,184.698-36.726C457.599,393.471,466.929,375.244,462.519,357.505z"/>
<path style="fill:#6F9A8A;" d="M65.829,228.585L65.829,228.585c0,42.326-5.944,87.076-16.349,128.921
	c-4.411,17.739,4.92,35.966,21.821,42.927c59.447,24.484,122.072,36.726,184.698,36.726V228.585H65.829z"/>
<path style="fill:#B7CC8C;" d="M348.696,407.055c-6.488-7.471-13.86-14.147-21.957-19.867
	c-20.238-14.298-44.981-22.623-71.65-22.419s-51.282,8.905-71.299,23.511c-8.008,5.842-15.279,12.632-21.651,20.2
	c-17.482,20.763-28.198,47.392-28.777,76.474c11.858,5.62,24.175,10.424,36.867,14.37c3.589,1.115,7.208,2.159,10.857,3.134
	c0.479,0.128,0.959,0.253,1.439,0.378c23.519,6.147,48.217,9.353,73.687,9.159c25.469-0.194,50.117-3.776,73.538-10.281
	c0.479-0.133,0.957-0.264,1.433-0.4c3.633-1.029,7.236-2.129,10.808-3.299c6.219-2.038,12.332-4.308,18.352-6.754
	c3.675-1.493,7.323-3.038,10.918-4.682c2.476-1.132,4.936-2.293,7.374-3.494C377.614,454.011,366.494,427.549,348.696,407.055z"/>
<path style="opacity:0.3;fill:#4D5B59;enable-background:new    ;" d="M287.085,443.054c-4.084-0.037-8.035,0.497-11.78,1.525
	c-12.837,3.524-26.318,3.627-39.208,0.299c-3.76-0.97-7.718-1.444-11.802-1.346c-23.229,0.561-42.06,20.904-41.883,44.139
	l0.002,0.345l0.113,14.817c23.519,6.147,48.217,9.353,73.687,9.159c25.469-0.194,50.117-3.776,73.538-10.281l-0.113-14.817
	l-0.002-0.345C329.458,463.314,310.32,443.259,287.085,443.054z"/>
<path style="fill:#84B3C8;" d="M162.14,408.478c-17.482,20.763-28.198,47.392-28.777,76.474c11.858,5.62,24.175,10.424,36.867,14.37
	c3.589,1.115,7.208,2.159,10.857,3.133c0.478,0.128,0.959,0.253,1.439,0.378l-0.16-20.952
	C182.163,455.09,174.812,430.025,162.14,408.478z"/>
<path style="fill:#5C889F;" d="M348.696,407.055c-3.358,5.914-6.311,12.085-8.836,18.471c-6.758,17.087-10.416,35.729-10.268,55.232
	l0.159,20.952c0.479-0.133,0.957-0.264,1.433-0.4c3.633-1.029,7.236-2.129,10.808-3.299c6.219-2.038,12.332-4.308,18.352-6.754
	c3.675-1.493,7.323-3.038,10.918-4.682c2.476-1.132,4.936-2.293,7.374-3.494C377.614,454.011,366.494,427.549,348.696,407.055z"/>
<path style="opacity:0.3;fill:#4D5B59;enable-background:new    ;" d="M348.696,407.055c-0.02-0.022-0.039-0.043-0.059-0.065
	c-6.473-7.444-13.826-14.098-21.898-19.802c-20.238-14.298-44.981-22.623-71.65-22.419s-51.282,8.905-71.299,23.511
	c-7.468,5.449-14.285,11.73-20.34,18.689c22.187,6.462,46.387,10.439,68.974,12.1c8.231,0.606,16.253,0.914,23.873,0.914
	c6.358,0,12.994-0.214,19.8-0.639c12.075-0.755,24.69-2.189,37.271-4.327c10.056-1.709,20.281,2.218,26.394,10.383
	c0.032,0.043,0.064,0.086,0.096,0.128c12.683,17.121,20.276,38.243,20.45,61.132l0.036,4.598c3.675-1.493,7.323-3.038,10.918-4.682
	c2.476-1.132,4.936-2.293,7.374-3.494C377.614,454.011,366.494,427.549,348.696,407.055z"/>
<g>
	<path style="fill:#F8E5B5;" d="M256.016,171.012c0.328-1.038,0.663-2.073,1.006-3.108
		C256.679,168.937,256.343,169.974,256.016,171.012z"/>
	<path style="fill:#F8E5B5;" d="M254.721,175.273c0.294-1.005,0.594-2.007,0.903-3.008
		C255.316,173.265,255.016,174.268,254.721,175.273z"/>
	<path style="fill:#F8E5B5;" d="M257.355,166.903c0.458-1.357,0.926-2.71,1.412-4.059
		C258.282,164.193,257.813,165.546,257.355,166.903z"/>
	<path style="fill:#F8E5B5;" d="M253.233,180.588c0.364-1.38,0.747-2.756,1.141-4.13
		C253.982,177.831,253.598,179.208,253.233,180.588z"/>
</g>
<path style="fill:#ECCE93;" d="M501.345,227.787c-1.001-28.01-23.321-51.123-51.283-53.053c-10.443-0.72-20.305,1.487-28.886,5.852
	c-0.482-1.822-0.999-3.638-1.532-5.45c-0.212-0.723-0.431-1.443-0.651-2.163c-0.313-1.021-0.634-2.039-0.962-3.057
	c-0.573-1.778-1.172-3.548-1.788-5.314c-0.055-0.157-0.109-0.315-0.164-0.472c-0.147-0.417-0.287-0.837-0.437-1.253
	c-0.006,0.002-0.012,0.006-0.02,0.01c-9.828-27.339-25.193-53.01-44.609-74.157c-30.448-33.163-70.775-55.223-115.011-55.223
	c-72.432,0-134.387,59.138-159.64,129.333c0,0.001-0.001,0.004-0.001,0.005c-0.486,1.348-0.953,2.703-1.412,4.059
	c-0.113,0.334-0.221,0.667-0.332,1.001c-0.344,1.034-0.68,2.07-1.006,3.108c-0.131,0.417-0.263,0.834-0.391,1.253
	c-0.309,1.001-0.609,2.005-0.903,3.008c-0.115,0.395-0.234,0.789-0.347,1.185c-0.394,1.374-0.777,2.751-1.141,4.13l4.536,139.038
	c4.6,18.75,10.661,34.656,18.256,42.003c27.978,27.063,94.737,39.949,142.682,39.949s114.105-12.886,142.083-39.949
	c12.622-12.209,21.013-48.042,25.488-81.312c6.822,3.017,14.362,4.705,22.3,4.705C477.335,285.022,502.468,259.202,501.345,227.787z
	"/>
<path style="fill:#F8E5B5;" d="M361.575,306.418c9.864-9.542,17.144-33.512,21.99-59.41c1.555-8.309-6.163-15.444-14.317-13.219
	c-11.078,3.024-21.836,4.234-31.931,4.234c-37.5,0.002-65.88-16.482-67.666-17.544l0,0c-5.581-3.316-9.001-9.328-9.001-15.82l0,0
	c0-44.832-6.068-59.541-16.551-69.796c-8.945-8.749-26.888-15.72-46.815-11.568c-25.948,5.406-47.587,27.785-62.576,64.718
	c-0.151,0.372-0.315,0.74-0.49,1.103c-5.164,10.685-19.665,12.155-27.685,3.41c-4.456-4.859-9.772-8.917-15.707-11.937
	c-8.58-4.365-18.443-6.573-28.886-5.852c-27.962,1.929-50.282,25.041-51.283,53.053c-1.123,31.415,24.011,57.235,55.174,57.235
	c7.938,0,15.479-1.688,22.3-4.705c1.783,13.249,4.187,26.9,7.231,39.308c32.854,18.055,84.804,26.742,124.131,26.742
	C267.438,346.368,333.598,333.481,361.575,306.418z"/>
<g>
	<path style="fill:#ECCE93;" d="M167.736,264.225l-12.269,0.093c-5.082,0.039-9.232-4.05-9.272-9.132
		c-0.039-5.082,4.049-9.232,9.132-9.272l12.269-0.093c5.082-0.039,9.232,4.05,9.272,9.132
		C176.906,260.035,172.818,264.186,167.736,264.225z"/>
	<path style="fill:#ECCE93;" d="M356.674,262.783l-12.269,0.093c-5.082,0.039-9.232-4.05-9.272-9.132
		c-0.039-5.082,4.049-9.232,9.132-9.272l12.269-0.093c5.082-0.039,9.232,4.05,9.272,9.132
		C365.843,258.594,361.757,262.744,356.674,262.783z"/>
	<circle style="fill:#ECCE93;" cx="65.829" cy="229.812" r="18.404"/>
</g>
<circle style="fill:#E1B872;" cx="446.164" cy="229.812" r="18.404"/>
<g>
	<path style="fill:#5B5751;" d="M335.749,229.812c5.082,0,9.202-4.12,9.202-9.202s-4.12-9.202-9.202-9.202h-36.807
		c-5.082,0-9.202,4.12-9.202,9.202s4.12,9.202,9.202,9.202c-5.082,0-9.202,4.12-9.202,9.202c0,5.082,4.12,9.202,9.202,9.202h36.807
		c5.082,0,9.202-4.12,9.202-9.202C344.95,233.932,340.83,229.812,335.749,229.812z"/>
	<path style="fill:#5B5751;" d="M222.26,220.61c0-5.082-4.12-9.202-9.202-9.202h-36.807c-5.082,0-9.202,4.12-9.202,9.202
		s4.12,9.202,9.202,9.202c-5.082,0-9.202,4.12-9.202,9.202c0,5.082,4.12,9.202,9.202,9.202h36.807c5.082,0,9.202-4.12,9.202-9.202
		c0-5.082-4.12-9.202-9.202-9.202C218.14,229.812,222.26,225.692,222.26,220.61z"/>
</g>
<path style="fill:#658577;" d="M214.094,168.888c-13.037-4.135-26.801-4.029-39.801,0.305c-4.822,1.607-7.426,6.818-5.819,11.64
	c1.292,3.878,4.919,6.323,8.797,6.294c0.943-0.007,1.9-0.16,2.842-0.475c9.286-3.095,19.113-3.173,28.416-0.222
	c4.838,1.536,10.016-1.143,11.554-5.99C221.619,175.597,218.937,170.424,214.094,168.888z"/>
<path style="fill:#BD7155;" d="M256.111,283.051c-7.374,0.056-14.328-2.763-19.581-7.937c-3.621-3.567-3.665-9.392-0.098-13.014
	c3.565-3.619,9.392-3.664,13.013-0.098c1.751,1.725,4.068,2.665,6.526,2.645c2.457-0.018,4.762-0.994,6.485-2.745
	c3.567-3.621,9.393-3.666,13.013-0.099c3.622,3.567,3.666,9.392,0.101,13.014C270.395,280.069,263.485,282.994,256.111,283.051z"/>
<path style="fill:#8BAD9C;" d="M215.863,0.67C130.111,17.904,65.829,89.23,65.829,174.601c9.976,0,19.326,2.66,27.403,7.288
	c8.792,4.811,19.643,10.981,24.422-0.797C155.937,86.772,228.192,95.026,256,120.795V33.507C256,12.341,236.613-3.502,215.863,0.67z
	"/>
<path style="fill:#6F9A8A;" d="M296.137,0.67C275.386-3.501,256,12.343,256,33.508v87.288c0.328,0.303,0.654,0.606,0.969,0.914
	c14.697,14.379,21.506,33.434,22.049,77.11c0.047,3.749,2.244,7.128,5.635,8.728c15.715,7.414,62.049,24.634,107.448-3.667
	c5.049-3.147,9.484-7.153,13.52-11.523c10.085-10.916,24.515-17.756,40.548-17.756C446.17,89.23,381.89,17.904,296.137,0.67z"/>
<path style="fill:#658577;" d="M443.904,147.06c-23.968,0.665-46.643,11.798-61.824,30.319
	c-23.304,16.676-47.664,16.203-65.02,12.312c-6.285-1.408-10.834-6.854-11.318-13.276c-2.336-30.997-9.782-55.178-29.468-74.439
	c-2.954-2.891-6.157-5.558-9.565-7.993C260.068,89.236,256,81.686,256,73.522V33.507c0-18.753-15.223-33.317-33.126-33.493V0.38
	l-1.009-0.368c-1.977,0.04-3.983,0.252-6.002,0.658c-4.705,0.946-9.342,2.064-13.911,3.329l12.917,12.917
	c5.125,5.125,8.004,12.075,8.004,19.324l0,0c0,20.295-14.275,37.828-34.168,41.85c-0.269,0.054-0.537,0.109-0.806,0.166
	c-19.756,4.116-37.864,13.706-53.824,28.502c-6.234,5.779-12.075,12.318-17.507,19.588c-10.694,14.314-27.926,21.903-45.761,20.832
	c-0.902-0.054-1.806-0.093-2.71-0.119c-1.492,8.977-2.267,18.177-2.267,27.545c9.976,0,19.326,2.66,27.403,7.288
	c8.792,4.811,19.643,10.981,24.422-0.797c38.733-95.429,112.25-85.859,139.315-59.382c14.697,14.379,21.506,33.434,22.049,77.11
	c0.047,3.749,2.244,7.128,5.635,8.728c15.715,7.414,62.05,24.634,107.448-3.667c5.049-3.147,9.484-7.153,13.52-11.523
	c10.085-10.916,24.515-17.756,40.548-17.756C446.17,165.233,445.396,156.036,443.904,147.06z"/>
<g>
	<circle style="fill:#E7E4CD;" cx="65.829" cy="285.022" r="18.404"/>
	<circle style="fill:#E7E4CD;" cx="446.164" cy="285.022" r="18.404"/>
</g>
<g>
</g>
<g>
</g>
<g>
</g>
<g>
</g>
<g>
</g>
<g>
</g>
<g>
</g>
<g>
</g>
<g>
</g>
<g>
</g>
<g>
</g>
<g>
</g>
<g>
</g>
<g>
</g>
<g>
</g>
</svg>
