<?xml version="1.0" encoding="iso-8859-1"?>
<!-- Generator: Adobe Illustrator 19.0.0, SVG Export Plug-In . SVG Version: 6.00 Build 0)  -->
<svg version="1.1" id="Layer_1" xmlns="http://www.w3.org/2000/svg" xmlns:xlink="http://www.w3.org/1999/xlink" x="0px" y="0px"
	 viewBox="0 0 512 512" style="enable-background:new 0 0 512 512;" xml:space="preserve">
<path style="fill:#A1C5D1;" d="M178.642,372.884c-34.44,20.118-60.335,53.257-70.954,92.663C151.242,491,201.914,505.6,256,505.6
	s104.758-14.6,148.312-40.052c-10.619-39.406-36.515-72.545-70.954-92.663L178.642,372.884L178.642,372.884z"/>
<path style="fill:#84B3C8;" d="M404.312,465.548c-10.619-39.406-36.515-72.545-70.954-92.663H178.642
	c-13.798,8.06-26.221,18.216-36.842,30.021c11.817,9.372,24.389,17.4,37.519,23.788C204.017,438.708,229.815,444.8,256,444.8
	c13.152,0,26.158-1.516,38.907-4.498c12.828-3,25.093,6.767,25.093,19.941v38.374C350.095,491.941,378.458,480.657,404.312,465.548z
	"/>
<g>
	<path style="fill:#ECCE93;" d="M124.484,426.25c-7.32,12.109-13.025,25.304-16.796,39.296
		c18.696,10.926,38.706,19.844,59.732,26.474l6.66-16.207C161.591,455.72,144.581,438.737,124.484,426.25z"/>
	<path style="fill:#ECCE93;" d="M337.92,475.813l6.66,16.207c21.025-6.63,41.036-15.548,59.733-26.474
		c-3.771-13.992-9.476-27.187-16.796-39.296C367.419,438.737,350.41,455.72,337.92,475.813z"/>
</g>
<path style="fill:#67A0C0;" d="M337.92,494.036c10.619-3.072,20.991-6.729,31.08-10.927c-4.467-22.564-15.521-42.76-31.08-58.495
	V494.036z"/>
<path style="fill:#84B3C8;" d="M174.08,494.036v-69.423c-15.557,15.736-26.611,35.931-31.08,58.495
	C153.089,487.308,163.461,490.964,174.08,494.036z"/>
<path style="fill:#E1B872;" d="M454.4,153.6c-9.39,0-18.246,2.262-26.08,6.248C409.18,87.447,352.029,21.943,281.683,8.805
	l-89.766,391.99C211.817,410.475,233.418,416,256,416c81.862,0,150.9-72.407,172.323-153.446c7.831,3.985,16.687,6.246,26.077,6.246
	c31.812,0,57.6-25.788,57.6-57.6S486.212,153.6,454.4,153.6z"/>
<path style="fill:#ECCE93;" d="M281.683,8.805C273.294,7.238,264.722,6.4,256,6.4c-81.862,0-150.9,72.407-172.323,153.446
	C75.845,155.86,66.989,153.6,57.6,153.6C25.788,153.6,0,179.388,0,211.2s25.788,57.6,57.6,57.6c9.395,0,18.255-2.263,26.09-6.253
	c15.514,58.682,55.985,112.835,108.227,138.248c8.389,1.567,16.961,2.405,25.683,2.405c98.97,0,179.2-105.83,179.2-204.8
	C396.8,122.013,349,41.553,281.683,8.805z"/>
<circle style="fill:#D5A150;" cx="454.4" cy="211.2" r="19.2"/>
<circle style="fill:#E1B872;" cx="57.6" cy="211.2" r="19.2"/>
<path style="fill:#C98A2E;" d="M133.098,67.255c-23.121,26.227-40.449,58.65-49.422,92.591c11.03,5.613,20.012,14.669,25.526,25.754
	c4.746,0,8.906-3.224,10.034-7.835c2.779-11.357,6.938-22.171,12.287-32.256c12.803-24.138,12.952-52.865,1.778-77.8
	C133.233,67.558,133.166,67.407,133.098,67.255z"/>
<g>
	<path style="fill:#AD712C;" d="M378.902,67.255c-0.067,0.151-0.134,0.303-0.202,0.454c-11.176,24.934-11.025,53.66,1.778,77.8
		c5.349,10.085,9.508,20.9,12.287,32.256c1.128,4.611,5.288,7.835,10.034,7.835c5.516-11.085,14.496-20.141,25.526-25.754
		C419.351,125.906,402.022,93.482,378.902,67.255z"/>
	<path style="fill:#AD712C;" d="M145.42,186.963c-1.961,0-3.94-0.599-5.646-1.842c-4.285-3.122-5.228-9.126-2.106-13.412
		c8.303-11.397,20.223-20.067,33.56-24.411c5.043-1.642,10.459,1.114,12.101,6.154c1.642,5.041-1.112,10.459-6.154,12.102
		c-9.526,3.103-18.047,9.304-23.99,17.462C151.308,185.595,148.384,186.963,145.42,186.963z"/>
	<path style="fill:#AD712C;" d="M366.58,186.963c-2.963,0-5.888-1.368-7.766-3.948c-5.944-8.157-14.464-14.358-23.99-17.462
		c-5.041-1.642-7.796-7.06-6.154-12.102c1.642-5.041,7.055-7.796,12.101-6.154c13.338,4.346,25.256,13.014,33.56,24.411
		c3.122,4.285,2.18,10.29-2.106,13.412C370.52,186.365,368.541,186.963,366.58,186.963z"/>
</g>
<g>
	<path style="fill:#474641;" d="M256,201.6c-15.881,0-28.8,12.919-28.8,28.8s12.919,28.8,28.8,28.8s28.8-12.919,28.8-28.8
		S271.881,201.6,256,201.6z"/>
	<circle style="fill:#474641;" cx="192" cy="211.2" r="19.2"/>
	<circle style="fill:#474641;" cx="320" cy="211.2" r="19.2"/>
</g>
<g>
</g>
<g>
</g>
<g>
</g>
<g>
</g>
<g>
</g>
<g>
</g>
<g>
</g>
<g>
</g>
<g>
</g>
<g>
</g>
<g>
</g>
<g>
</g>
<g>
</g>
<g>
</g>
<g>
</g>
</svg>
