<?xml version="1.0" encoding="iso-8859-1"?>
<!-- Generator: Adobe Illustrator 19.0.0, SVG Export Plug-In . SVG Version: 6.00 Build 0)  -->
<svg version="1.1" id="Layer_1" xmlns="http://www.w3.org/2000/svg" xmlns:xlink="http://www.w3.org/1999/xlink" x="0px" y="0px"
	 viewBox="0 0 512 512" style="enable-background:new 0 0 512 512;" xml:space="preserve">
<path style="fill:#DBD9C7;" d="M184.397,389.158c-31.877,18.621-55.846,49.295-65.675,85.769C159.036,498.487,205.937,512,256,512
	l59.238-63.977L256,389.158H184.397z"/>
<path style="fill:#B8B7AC;" d="M393.278,474.927c-9.212-34.184-30.844-63.273-59.766-82.12l0,0c-0.001,0-0.001-0.001-0.002-0.001
	c-1.937-1.262-3.906-2.479-5.907-3.648H256h-71.603c-11.606,6.779-22.156,15.163-31.364,24.835
	c32.12,11.766,70.655,17.625,102.967,18.178V512C306.062,512,352.964,498.487,393.278,474.927z"/>
<path style="fill:#A4A49E;" d="M331.825,437.226v64.071c9.818-2.84,19.406-6.22,28.734-10.101
	C356.402,470.38,346.185,451.751,331.825,437.226z"/>
<g>
	<path style="fill:#B8B7AC;" d="M151.44,491.195c9.328,3.881,18.916,7.26,28.734,10.101v-64.071
		C165.814,451.751,155.598,470.38,151.44,491.195z"/>
	<circle style="fill:#B8B7AC;" cx="220.165" cy="449.987" r="8.886"/>
	<circle style="fill:#B8B7AC;" cx="220.461" cy="485.53" r="8.886"/>
</g>
<g>
	<circle style="fill:#A4A49E;" cx="291.844" cy="449.987" r="8.886"/>
	<circle style="fill:#A4A49E;" cx="291.548" cy="485.53" r="8.886"/>
</g>
<g>
	<polygon style="fill:#E1B872;" points="208.609,393.973 255.868,441.101 303.39,393.71 	"/>
	<path style="fill:#E1B872;" d="M439.639,186.376c-8.69,0-16.888,2.092-24.137,5.782c-8.65-32.722-25.689-63.923-48.44-88.704l0,0
		C337.659,71.43,298.717,50.128,256,50.128c-75.772,0-139.674,67.02-159.502,142.03l4.381,134.263
		c4.442,18.106,10.294,33.466,17.629,40.561c27.016,26.134,91.483,38.577,137.781,38.577s110.186-12.444,137.203-38.577
		c12.189-11.79,20.292-46.392,24.612-78.519c6.587,2.913,13.869,4.544,21.534,4.544c29.445,0,53.315-23.87,53.315-53.315
		S469.084,186.376,439.639,186.376z"/>
</g>
<path style="fill:#ECCE93;" d="M373.126,199.325c-16.665-41.058-42.174-63.672-71.827-63.672c-15.619,0-27.705,6.38-33.809,12.351
	c-10.121,9.902-15.981,24.106-15.981,67.398l0,0c0,6.269-3.303,12.074-8.691,15.276l0,0c-1.16,0.69-28.821,16.881-65.268,16.883
	c-0.002,0-0.009,0-0.012,0c-0.457,0-0.915-0.002-1.371-0.007c-24.001-0.257-45.615-13.669-57.608-34.461
	c-5.156-8.94-12.833-16.242-22.063-20.938c-8.285-4.215-17.809-6.347-27.893-5.651c-27.002,1.862-48.555,24.18-49.523,51.229
	c-1.085,30.336,23.186,55.271,53.279,55.271c7.665,0,14.947-1.63,21.534-4.544c1.721,12.794,4.044,25.976,6.983,37.958
	c31.726,17.435,81.89,25.823,119.868,25.823c46.298,0,110.186-12.444,137.203-38.577c10.524-10.18,18.003-37.366,22.629-65.281
	c2.692-16.237-0.047-32.76-6.88-47.733C373.499,200.218,373.31,199.774,373.126,199.325z"/>
<circle style="fill:#D5A150;" cx="439.644" cy="239.69" r="17.772"/>
<circle style="fill:#E1B872;" cx="72.365" cy="239.69" r="17.772"/>
<g>
	<path style="fill:#474641;" d="M298.766,197.892c-3.746,0-7.229-2.387-8.449-6.143c-1.516-4.667,1.038-9.68,5.705-11.196
		c12.587-4.09,25.878-4.09,38.435-0.001c4.667,1.519,7.218,6.534,5.699,11.2c-1.519,4.667-6.532,7.22-11.2,5.699
		c-8.963-2.917-18.452-2.916-27.443,0.005C300.602,197.751,299.676,197.892,298.766,197.892z"/>
	<circle style="fill:#474641;" cx="196.766" cy="239.69" r="17.772"/>
	<circle style="fill:#474641;" cx="315.243" cy="239.69" r="17.772"/>
	<path style="fill:#474641;" d="M256,284.119c-14.699,0-26.657-11.958-26.657-26.657c0-4.907,3.978-8.886,8.886-8.886
		c4.907,0,8.886,3.978,8.886,8.886c0,4.9,3.986,8.886,8.886,8.886s8.886-3.986,8.886-8.886c0-4.907,3.978-8.886,8.886-8.886
		c4.907,0,8.886,3.978,8.886,8.886C282.657,272.161,270.699,284.119,256,284.119z"/>
</g>
<path style="fill:#978574;" d="M439.2,77.721c17.807,23.932-6.824,82.353-23.695,114.437c-8.803,4.632-20.864,12.926-25.911,0.486
	c-37.403-92.151-108.394-82.91-134.53-57.343c-14.81,14.49-21.326,33.896-21.326,80.102c0,0-68.942,40.993-127.919-15.402
	c-0.912-0.877-1.789-1.765-2.666-2.666c-1.303-1.351-4.04-3.969-6.658-5.177c-16.871-32.084-41.502-90.504-23.695-114.437
	c27.747-37.273,73.93-65.233,129.187-76.453C206.133,0.427,210.398,0,214.651,0C230.397,0,244.898,5.675,256,14.94
	C267.101,5.675,281.603,0,297.348,0c4.253,0,8.518,0.427,12.665,1.268C365.271,12.487,411.453,40.448,439.2,77.721z"/>
<path style="fill:#B0A18D;" d="M418.28,96.258c-0.115-1.223-0.291-2.107-0.486-2.652c-6.772-19.03-12.734-40.462-30.645-62.524
	C364.724,17.357,338.586,7.07,310.013,1.268C305.867,0.427,301.601,0,297.348,0C281.603,0,267.101,5.675,256,14.94l-19.409,101.141
	c-0.057,0.054-0.113,0.11-0.169,0.165c5.621-5.497,12.269-10.197,19.577-14.009c13.518-7.051,29.327-11.011,45.3-11.011
	c14.375,0,43.031,3.583,70.592,28.045C390.704,135.964,420.634,121.3,418.28,96.258z"/>
<path style="fill:#C8BDA5;" d="M256,70.983V14.94C244.898,5.675,230.397,0,214.651,0c-4.253,0-8.518,0.427-12.665,1.268
	c-55.258,11.22-101.44,39.18-129.187,76.453c-3.823,5.138-5.68,11.875-6.087,19.591c11.741,38.49,50.406,76.672,50.406,76.672
	c1.748,1.434,3.478,3.037,5.163,4.784c0.642,0.659,1.312,1.341,1.979,1.983c15.526,14.846,33.459,22.384,53.28,22.384h0.007
	c0.977,0,1.945-0.018,2.905-0.052c0.396-0.014,0.783-0.043,1.176-0.063c0.559-0.028,1.122-0.05,1.675-0.089
	c0.461-0.032,0.911-0.079,1.367-0.118c0.474-0.04,0.953-0.075,1.422-0.123c0.472-0.049,0.932-0.11,1.399-0.166
	c0.442-0.052,0.89-0.098,1.327-0.158c0.39-0.052,0.768-0.115,1.154-0.172c0.501-0.073,1.007-0.143,1.501-0.224
	c0.37-0.06,0.729-0.132,1.094-0.195c0.496-0.088,0.998-0.172,1.485-0.267c0.412-0.079,0.81-0.168,1.216-0.252
	c0.428-0.089,0.861-0.173,1.281-0.265c0.395-0.088,0.776-0.182,1.163-0.274c0.416-0.097,0.838-0.192,1.245-0.293
	c4.982-1.239,8.58-5.567,8.945-10.689c0.078-1.094,0.161-2.175,0.251-3.243c0-0.004,0.001-0.007,0.001-0.011
	c0.269-3.199,0.59-6.279,0.968-9.249c0.008-0.065,0.018-0.128,0.026-0.192c0.118-0.924,0.241-1.84,0.37-2.743
	c0.026-0.179,0.055-0.353,0.081-0.532c0.256-1.748,0.528-3.462,0.827-5.132c0.009-0.051,0.019-0.1,0.028-0.15
	c0.155-0.87,0.316-1.73,0.483-2.579c0.004-0.018,0.007-0.034,0.011-0.052c0.173-0.879,0.353-1.748,0.539-2.606
	c0.063-0.288,0.13-0.569,0.194-0.854c0.13-0.584,0.259-1.169,0.397-1.744c0.044-0.184,0.091-0.363,0.136-0.545
	c0.162-0.668,0.325-1.334,0.496-1.989c0.04-0.156,0.084-0.307,0.126-0.462c0.179-0.675,0.359-1.348,0.547-2.011
	c0.065-0.23,0.135-0.453,0.201-0.68c0.169-0.581,0.338-1.162,0.513-1.733c0.056-0.18,0.115-0.355,0.172-0.534
	c0.192-0.613,0.385-1.223,0.586-1.825c0.012-0.036,0.025-0.07,0.037-0.104c0.248-0.739,0.502-1.471,0.763-2.194
	c0.084-0.231,0.173-0.456,0.257-0.686c0.193-0.522,0.386-1.047,0.586-1.562c0.059-0.152,0.123-0.3,0.182-0.451
	c0.232-0.585,0.464-1.171,0.706-1.745c0.009-0.021,0.019-0.043,0.028-0.065c0.295-0.7,0.596-1.394,0.905-2.079
	c0.052-0.117,0.109-0.23,0.162-0.347c0.268-0.586,0.538-1.172,0.816-1.748c0.222-0.459,0.453-0.909,0.68-1.361
	c0.115-0.229,0.226-0.461,0.344-0.687c0.231-0.448,0.472-0.887,0.71-1.328c0.122-0.225,0.238-0.454,0.361-0.678
	c0.163-0.296,0.335-0.586,0.501-0.88c0.205-0.361,0.408-0.726,0.617-1.083c0.063-0.107,0.129-0.21,0.192-0.316
	c0.704-1.182,1.431-2.346,2.189-3.484c0.008-0.012,0.017-0.024,0.025-0.036c0.405-0.608,0.818-1.21,1.238-1.804
	c0.213-0.302,0.436-0.599,0.654-0.899c0.22-0.302,0.436-0.608,0.66-0.908c1.118-1.495,2.296-2.95,3.521-4.378
	c0.438-0.511,0.884-1.018,1.336-1.521c0.679-0.756,1.373-1.503,2.085-2.243c0.659-0.684,1.326-1.364,2.012-2.035
	c0.056-0.054,0.113-0.11,0.169-0.165C248.826,104.191,256,88.044,256,70.983z"/>
<g>
</g>
<g>
</g>
<g>
</g>
<g>
</g>
<g>
</g>
<g>
</g>
<g>
</g>
<g>
</g>
<g>
</g>
<g>
</g>
<g>
</g>
<g>
</g>
<g>
</g>
<g>
</g>
<g>
</g>
</svg>
