<?xml version="1.0" encoding="iso-8859-1"?>
<!-- Generator: Adobe Illustrator 19.0.0, SVG Export Plug-In . SVG Version: 6.00 Build 0)  -->
<svg version="1.1" id="Layer_1" xmlns="http://www.w3.org/2000/svg" xmlns:xlink="http://www.w3.org/1999/xlink" x="0px" y="0px"
	 viewBox="0 0 512 512" style="enable-background:new 0 0 512 512;" xml:space="preserve">
<path style="fill:#D5A150;" d="M181.973,384.999c-32.957,19.251-57.737,50.964-67.899,88.673
	c40.361,23.586,87.109,37.434,137.026,38.286L256,512l58.794-61.244L251.1,384.999H181.973z"/>
<path style="fill:#C98A2E;" d="M397.925,473.672c-10.162-37.709-34.942-69.421-67.899-88.673l0,0l0,0H181.973
	c-13.204,7.713-25.092,17.431-35.256,28.728c11.308,8.969,23.339,16.651,35.904,22.763c23.634,11.498,48.322,17.327,73.379,17.327
	V512C307.757,512,356.246,498.029,397.925,473.672z"/>
<path style="fill:#AD712C;" d="M334.392,500.934c10.162-2.94,20.087-6.439,29.741-10.457c-4.275-21.592-14.853-40.918-29.741-55.976
	V500.934z"/>
<path style="fill:#C98A2E;" d="M147.866,490.477c9.655,4.019,19.578,7.517,29.741,10.457v-66.433
	C162.72,449.559,152.142,468.884,147.866,490.477z"/>
<g style="opacity:0.8;">
	<path style="fill:#915729;" d="M305.297,429.282l-4.385-4.385L256,378.488l-15.923,60.019L256,499.751l49.298-49.298
		C311.144,444.607,311.144,435.129,305.297,429.282z"/>
</g>
<path style="fill:#AD712C;" d="M211.087,424.897c-1.08,1.112-4.385,4.385-4.385,4.385c-5.846,5.846-5.846,15.326,0,21.172
	L256,499.751V378.488C256,378.488,222.489,413.156,211.087,424.897z"/>
<path style="fill:#EBD37A;" d="M445.856,175.158c-8.986,0-17.461,2.164-24.956,5.979c-18.317-69.283-73.007-131.965-140.322-144.538
	c-8.029-1.499-16.232-2.302-24.578-2.302c-78.337,0-144.402,69.289-164.902,146.839c0,0,1.269,0.639,2.929,1.601
	c11.458,6.734,20.26,17.485,24.479,30.324l76.17,198.649c19.043,9.263,39.714,14.549,61.324,14.549
	c78.337,0,144.402-69.289,164.902-146.839c7.494,3.813,15.969,5.977,24.954,5.977c30.442,0,55.12-24.678,55.12-55.12
	S476.298,175.158,445.856,175.158z"/>
<circle style="fill:#E2C35A;" cx="445.856" cy="230.277" r="18.373"/>
<path style="fill:#F3E29A;" d="M390.548,226.209c0.311-7.129-5.522-13.019-12.654-12.826l-1.856,0.051H344.97
	c-18.013,0-32.176-14.765-32.218-32.778c-0.05-21.488-12.105-40.21-29.8-49.8c-5.004-2.712-11.281-0.169-12.854,5.301
	c-4.253,14.797-11.595,28.466-21.527,40.203c-7.126,8.42-15.576,15.852-25.218,21.958c-28.361,17.959-62.653,21.843-93.837,11.09
	c-4.074-1.405-8.582,0.089-11.01,3.649c-4.22-12.839-13.022-23.59-24.479-30.324c-1.66-0.962-2.929-1.601-2.929-1.601
	c-8.566-4.358-18.412-6.562-28.839-5.843c-27.916,1.927-50.199,25.001-51.199,52.965c-1.122,31.363,23.971,57.141,55.083,57.141
	c8.991,0,17.469-2.166,24.967-5.984c14.846,56.155,53.574,107.976,103.566,132.294c8.028,1.499,16.231,2.302,24.577,2.302
	c91.957,0,167.009-95.476,171.291-187.715C390.545,226.267,390.547,226.239,390.548,226.209z"/>
<circle style="fill:#EBD37A;" cx="66.143" cy="230.277" r="18.373"/>
<path style="opacity:0.2;fill:#463540;enable-background:new    ;" d="M390.73,230.283L390.73,230.283v-0.006
	c0.173-3.289-1.503-6.477-4.432-7.984c-6.981-3.591-13.942,1.383-13.942,7.984c0,0.002,0,0.004,0,0.006l0,0
	c0,20.297-16.455,36.74-36.753,36.74h-15.311c-10.144,0-18.367,8.224-18.367,18.367l0,0c0,15.22-12.339,27.56-27.56,27.56h-36.759
	c-15.214,0-27.548-12.333-27.548-27.548v-0.012c0-10.144-8.223-18.367-18.367-18.367h-15.311c-20.298,0-36.753-16.443-36.753-36.74
	l0,0v-0.006c0.173-3.289-1.503-6.477-4.432-7.984c-6.981-3.591-13.942,1.383-13.942,7.984c0,0.002,0,0.004,0,0.006l0,0
	c0,21.46-12.25,40.028-30.153,49.13c14.846,56.155,53.574,107.976,103.566,132.294c19.043,9.264,39.713,14.55,61.324,14.55
	c78.337,0,144.402-69.289,164.902-146.839C402.98,270.322,390.73,251.752,390.73,230.283z"/>
<g>
	<path style="fill:#474641;" d="M274.373,239.464h-36.746c-5.073,0-9.187,4.113-9.187,9.187c0,5.073,4.113,9.187,9.187,9.187h36.746
		c5.075,0,9.187-4.113,9.187-9.187C283.559,243.577,279.447,239.464,274.373,239.464z"/>
	<circle style="fill:#474641;" cx="194.756" cy="230.277" r="18.373"/>
	<circle style="fill:#474641;" cx="317.244" cy="230.277" r="18.373"/>
</g>
<g>
	<path style="fill:#5F6568;" d="M300.215,187.063c-3.873,0-7.474-2.468-8.735-6.351c-1.568-4.825,1.073-10.007,5.898-11.575
		c13.013-4.228,26.754-4.228,39.736-0.001c4.825,1.57,7.462,6.755,5.892,11.579c-1.569,4.825-6.753,7.464-11.579,5.892
		c-9.266-3.017-19.076-3.014-28.372,0.005C302.111,186.918,301.156,187.063,300.215,187.063z"/>
	<path style="fill:#5F6568;" d="M296.07,0.671C275.354-3.508,256,12.366,256,33.575c0-21.208-19.354-37.083-40.071-32.904
		c-85.612,17.27-149.786,88.74-149.786,174.283c0,0.064,0,0.138,0,0.203c8.984,0,17.459,2.163,24.954,5.977
		c6.727,3.422,12.663,8.175,17.445,13.927l0,0c1.894-7.066,9.805-10.562,16.383-7.415c0.399,0.191,0.8,0.382,1.202,0.571
		C186.486,216.767,256,172.437,256,105.665c41.492,0,75.126,33.635,75.126,75.126l0,0c0,7.881,6.389,14.27,14.27,14.27h44.867
		c7.57,0,14.868-2.681,20.731-7.468c3.049-2.489,6.368-4.657,9.908-6.459c7.494-3.813,15.969-5.977,24.954-5.977
		c0-0.065,0-0.14,0-0.203C445.856,89.411,381.682,17.941,296.07,0.671z"/>
</g>
<g style="opacity:0.9;">
	<path style="fill:#7F8383;" d="M134.583,162.909c20.431,8.386,45.479,8.458,64.195-3.394
		c18.573-11.761,29.662-31.891,29.662-53.848V0.531c-4.007-0.72-8.229-0.725-12.511,0.138
		C147.972,14.379,93.557,62.251,73.99,124.192l0,0C90.571,140.773,112.891,154.006,134.583,162.909z"/>
</g>
<path style="fill:#6F7475;" d="M296.07,0.671c-4.283-0.864-8.503-0.856-12.511-0.134v3.137v50.114
	c0,15.555,8.653,29.653,22.243,37.222c12.319,6.861,23.087,16.182,31.634,27.296c16.002,20.806,46.479,23.11,65.039,4.549l0,0
	c15.805-15.805,17.007-41.108,2.631-58.222C378.249,32.661,339.987,9.53,296.07,0.671z"/>
<g>
</g>
<g>
</g>
<g>
</g>
<g>
</g>
<g>
</g>
<g>
</g>
<g>
</g>
<g>
</g>
<g>
</g>
<g>
</g>
<g>
</g>
<g>
</g>
<g>
</g>
<g>
</g>
<g>
</g>
</svg>
