<?xml version="1.0" encoding="iso-8859-1"?>
<!-- Generator: Adobe Illustrator 19.0.0, SVG Export Plug-In . SVG Version: 6.00 Build 0)  -->
<svg version="1.1" id="Layer_1" xmlns="http://www.w3.org/2000/svg" xmlns:xlink="http://www.w3.org/1999/xlink" x="0px" y="0px"
	 viewBox="0 0 512 512" style="enable-background:new 0 0 512 512;" xml:space="preserve">
<path style="fill:#848075;" d="M181.796,384.695c-33.036,19.298-57.876,51.086-68.062,88.885
	c40.458,23.643,87.317,37.523,137.355,38.378L256,512l58.935-61.391l-63.847-65.914H181.796z"/>
<path style="fill:#706B63;" d="M330.205,384.695H256V512c51.881,0,100.487-14.005,142.266-38.42
	C388.08,435.781,363.24,403.993,330.205,384.695z"/>
<path style="fill:#5B5751;" d="M334.581,500.908c10.186-2.947,20.135-6.455,29.813-10.482c-4.285-21.644-14.889-41.017-29.813-56.11
	V500.908z"/>
<path style="fill:#706B63;" d="M147.607,490.426c9.678,4.028,19.625,7.535,29.813,10.482v-66.593
	C162.497,449.41,151.894,468.781,147.607,490.426z"/>
<path style="fill:#C1BDAB;" d="M305.416,429.085l-4.396-4.396L256,378.168l-15.962,60.163L256,499.722l49.416-49.416
	C311.277,444.446,311.277,434.945,305.416,429.085z"/>
<path style="fill:#D5D2BD;" d="M210.98,424.689c-1.083,1.115-4.396,4.396-4.396,4.396c-5.86,5.86-5.86,15.362,0,21.223L256,499.722
	V378.168C256,378.168,222.41,412.919,210.98,424.689z"/>
<path style="fill:#C98A2E;" d="M256,403.952l-23.961-23.961c-9.282-9.282-25.152-2.709-25.152,10.418v27.084
	c0,13.127,15.871,19.7,25.152,10.418L256,403.952z"/>
<path style="fill:#915729;" d="M256,403.952l23.961-23.961c9.282-9.282,25.152-2.709,25.152,10.418v27.084
	c0,13.127-15.871,19.7-25.152,10.418L256,403.952z"/>
<circle style="fill:#AD712C;" cx="256" cy="403.952" r="18.417"/>
<g>
	<path style="fill:#ECCE93;" d="M446.312,174.351c-9.01,0-17.506,2.171-25.02,5.994c-17.512-66.236-68.186-126.454-131.38-142.815
		L115.027,361.788c1.146,0.743,2.297,1.481,3.485,2.184l0,0c84.403,50.034,190.576,50.034,274.978,0l0,0
		c29.803-17.667,46.613-47.781,48.133-79.329c1.547,0.13,3.108,0.212,4.689,0.212c30.515,0,55.252-24.737,55.252-55.252
		S476.827,174.351,446.312,174.351z"/>
</g>
<path style="fill:#F8E5B5;" d="M383.025,218.633c-4.009-9.953-6.522-20.447-7.556-31.126
	c-5.638-58.228-38.641-116.424-85.557-149.977c-8.446-2.187-17.113-3.6-25.959-4.129c-2.637-0.157-5.287-0.249-7.954-0.249
	c-78.525,0-144.749,69.455-165.297,147.191c-7.513-3.823-16.008-5.992-25.014-5.992c-30.515,0-55.252,24.737-55.252,55.252
	c0,30.515,24.737,55.252,55.252,55.252c1.584,0,3.147-0.082,4.696-0.212c1.466,30.287,17.024,59.248,44.641,77.146
	c74.32,25.989,157.883,18.538,226.895-22.372l0,0C384.808,313.991,400.816,262.795,383.025,218.633z"/>
<circle style="fill:#ECCE93;" cx="65.688" cy="229.602" r="18.417"/>
<circle style="fill:#E1B872;" cx="446.312" cy="229.602" r="18.417"/>
<path style="fill:#ECCE93;" d="M421.289,180.342l-0.048-0.18c-2.581-9.742-14.44-13.636-22.167-7.167
	c-0.108,0.091-0.216,0.182-0.324,0.273c-8.469-21.425-21.71-40.71-38.954-56.556l-13.025-11.969l-11.462,11.506
	c-21.017,21.098-49.452,33.524-79.231,33.544c-29.624,0.02-57.456-11.529-78.363-32.518l-12.484-12.532l-13.025,11.969
	c-17.243,15.845-30.484,35.129-38.954,56.556c-0.001,0-0.002,0-0.004,0.001c-7.706-6.776-19.887-2.957-22.499,6.888l-0.048,0.18
	c10.522,5.357,19.101,13.984,24.394,24.543c6.103,12.176,24.138,10.505,27.534-2.685c0.028-0.109,0.055-0.219,0.082-0.328
	c4.156-16.96,12.036-32.63,23.077-46.058c25.702,19.99,57.116,30.819,90.21,30.819s64.508-10.829,90.211-30.819
	c11.041,13.427,18.921,29.098,23.077,46.058c2.682,10.945,11.447,19.031,22.185,21.077
	C393.715,204.298,405.239,188.516,421.289,180.342z"/>
<path style="opacity:0.2;fill:#463540;enable-background:new    ;" d="M391.4,235.717l0.01,0.177
	c-0.011-0.098-0.015-0.198-0.026-0.296c-0.071-0.659-0.122-1.325-0.169-1.992c-0.023-0.329-0.056-0.656-0.075-0.986
	c-0.053-0.981-0.082-1.969-0.083-2.964c0-0.016-0.001-0.032-0.001-0.048l0,0v-0.006c0.173-3.297-1.507-6.493-4.442-8.003
	c-6.997-3.6-13.975,1.386-13.975,8.003v0.006l0,0c0,20.346-16.494,36.828-36.841,36.828h-15.355
	c-10.169,0-18.411,8.244-18.411,18.411l0,0c0,15.257-12.369,27.626-27.626,27.626h-36.847c-15.251,0-27.614-12.363-27.614-27.614
	v-0.012c0-10.169-8.242-18.411-18.411-18.411h-15.342c-20.346,0-36.841-16.482-36.841-36.828l0,0v-0.006
	c0.173-3.297-1.507-6.493-4.442-8.003c-6.997-3.6-13.975,8.007-13.975,8.007v0.002c-0.002,28.929-22.242,52.648-50.555,55.033
	c1.466,30.287,17.024,59.248,44.641,77.146c1.146,0.743,2.297,1.481,3.485,2.184l0,0c84.403,50.034,190.576,50.034,274.978,0l0,0
	c29.8-17.666,46.61-47.777,48.133-79.324C415.324,282.435,394.276,261.818,391.4,235.717z"/>
<path style="fill:#978574;" d="M396.817,205.046c9.043-18.189,27.804-30.695,49.495-30.695l0,0c0-19.167-7.195-37.622-20.134-51.762
	c-23.41-25.584-64.304-66.607-106.847-92.115C253.892-8.761,176.665-8.023,146.589,20.77s-10.366,47.361-10.366,47.361
	c-34.575,8.711-52.746,29.051-62.164,49.932c-5.687,12.608-8.371,26.365-8.371,40.196v16.091c21.692,0,40.453,12.507,49.495,30.695
	l0,0c4.571,0,8.553-3.12,9.641-7.561c6.435-26.263,20.563-49.496,39.843-67.211c23.344,23.434,55.645,37.938,91.335,37.938
	s67.99-14.504,91.334-37.937c19.279,17.715,33.408,40.948,39.843,67.211C388.264,201.926,392.245,205.046,396.817,205.046
	L396.817,205.046z"/>
<g>
	<path style="fill:#B0A18D;" d="M74.06,118.064c-4.102,9.093-6.634,18.787-7.73,28.672c15.609,0.118,30.414,4.509,43.08,12.367
		c8.848-18.347,21.139-34.956,36.395-49.013c0.102-0.093,0.204-0.187,0.306-0.277c9.807-8.774,9.971-24.043,0.133-32.782
		l-10.018-8.898C101.648,76.842,83.477,97.183,74.06,118.064z"/>
	<path style="opacity:0.6;fill:#B0A18D;enable-background:new    ;" d="M319.852,30.787c-0.173-0.104-0.346-0.209-0.521-0.313
		C253.892-8.761,176.665-8.023,146.589,20.771c-30.075,28.794-10.366,47.361-10.366,47.361l45.698,40.588
		c0.799,0.64,1.578,1.316,2.317,2.058c19.148,19.221,44.632,29.808,71.761,29.808s52.614-10.586,71.761-29.808l2.171-2.263
		C352.167,85.334,347.362,47.367,319.852,30.787z"/>
</g>
<g>
	<path style="fill:#474641;" d="M213.027,238.811h-36.835c-5.087,0-9.209-4.123-9.209-9.209c0-5.086,4.122-9.209,9.209-9.209h36.835
		c5.087,0,9.209,4.123,9.209,9.209C222.235,234.688,218.113,238.811,213.027,238.811z"/>
	<path style="fill:#474641;" d="M335.808,238.811h-36.835c-5.087,0-9.209-4.123-9.209-9.209c0-5.086,4.122-9.209,9.209-9.209h36.835
		c5.087,0,9.209,4.123,9.209,9.209C345.017,234.688,340.895,238.811,335.808,238.811z"/>
	<path style="fill:#474641;" d="M237.583,275.645h36.835c5.086,0,9.209-4.123,9.209-9.209c0-15.234-12.392-27.626-27.626-27.626
		c-15.234,0-27.626,12.392-27.626,27.626C228.374,271.522,232.497,275.645,237.583,275.645z"/>
</g>
<g>
	<path style="fill:#978574;" d="M176.192,201.976h36.835c5.086,0,9.209-4.123,9.209-9.209c0-5.086-4.123-9.209-9.209-9.209h-36.835
		c-5.086,0-9.209,4.123-9.209,9.209C166.983,197.853,171.106,201.976,176.192,201.976z"/>
	<path style="fill:#978574;" d="M317.375,186.294c-6.7,0-13.395-1.058-19.903-3.178c-4.835-1.574-7.48-6.771-5.906-11.607
		c1.575-4.838,6.773-7.481,11.608-5.906c9.286,3.024,19.121,3.022,28.439-0.005c4.83-1.572,10.032,1.074,11.603,5.912
		c1.572,4.836-1.076,10.031-5.912,11.603C330.783,185.234,324.077,186.294,317.375,186.294z"/>
</g>
<g>
</g>
<g>
</g>
<g>
</g>
<g>
</g>
<g>
</g>
<g>
</g>
<g>
</g>
<g>
</g>
<g>
</g>
<g>
</g>
<g>
</g>
<g>
</g>
<g>
</g>
<g>
</g>
<g>
</g>
</svg>
