<?xml version="1.0" encoding="iso-8859-1"?>
<!-- Generator: Adobe Illustrator 19.0.0, SVG Export Plug-In . SVG Version: 6.00 Build 0)  -->
<svg version="1.1" id="Layer_1" xmlns="http://www.w3.org/2000/svg" xmlns:xlink="http://www.w3.org/1999/xlink" x="0px" y="0px"
	 viewBox="0 0 512.002 512.002" style="enable-background:new 0 0 512.002 512.002;" xml:space="preserve">
<path style="fill:#BED8D9;" d="M353.999,409.607c-3.899-3.734-8.011-7.245-12.316-10.517c-2.755-2.093-5.588-4.088-8.495-5.979
	c-1.903-1.238-3.836-2.432-5.801-3.579c-21.047-12.329-45.52-19.406-71.675-19.406s-50.049,7.075-71.097,19.406
	c-0.936,0.546-1.863,1.103-2.783,1.671c-0.891,0.548-1.773,1.108-2.649,1.675c-0.026,0.017-0.053,0.033-0.079,0.05
	c-0.001,0-0.002,0.001-0.002,0.002c-0.094,0.061-0.191,0.12-0.287,0.182c0.002,0.004,0.005,0.006,0.007,0.009
	c-7.46,4.853-14.438,10.386-20.838,16.518l-6.257,81.609l14.339,5.496l14.339,4.588c23.998,6.943,49.36,10.671,75.595,10.671
	c20.283,0,40.045-2.225,59.059-6.443c5.58-1.238,11.092-2.652,16.536-4.227c2.24-0.647,4.462-1.331,6.677-2.035
	c0.708-0.224,1.41-0.461,2.115-0.691c1.524-0.498,3.042-1.006,4.552-1.53c0.791-0.274,1.582-0.553,2.371-0.834
	c1.492-0.533,2.977-1.081,4.455-1.638c0.706-0.267,1.415-0.528,2.119-0.8c0.27-0.105,0.544-0.202,0.815-0.308
	c1.859-0.726,3.709-1.472,5.548-2.237c0.008-0.004,0.018-0.007,0.026-0.011l0,0l0,0l0,0c0.002-0.001,0.005-0.002,0.008-0.004
	L353.999,409.607z"/>
<path style="fill:#B69362;" d="M180.406,437.266L180.406,437.266c-6.3-10.136-13.847-19.415-22.422-27.63
	c-18.377,17.603-32.026,40.1-38.844,65.403c10.438,6.1,21.323,11.518,32.586,16.206C155.85,470.423,166.05,451.788,180.406,437.266
	L180.406,437.266z"/>
<path style="opacity:0.4;fill:#6D5B4D;enable-background:new    ;" d="M180.406,437.266c-14.356,14.521-24.557,33.157-28.68,53.978
	l0,0c9.31,3.875,18.88,7.249,28.68,10.084V437.266L180.406,437.266z"/>
<path style="fill:#A57D48;" d="M362.307,418.271c-2.641-2.993-5.406-5.873-8.288-8.633c-8.575,8.214-16.122,17.493-22.422,27.629
	c14.357,14.521,24.557,33.157,28.68,53.978c0.678-0.282,1.356-0.565,2.03-0.853c10.542-4.49,20.746-9.621,30.556-15.353
	C387.114,453.705,376.507,434.365,362.307,418.271z"/>
<g style="opacity:0.4;">
	<path style="fill:#6D5B4D;" d="M360.277,491.245c-9.31,3.875-18.88,7.249-28.68,10.084v-64.063
		C345.954,451.788,356.153,470.423,360.277,491.245z"/>
</g>
<path style="opacity:0.4;fill:#6D5B4D;enable-background:new    ;" d="M341.183,398.524l-0.506-0.17
	c-2.44-1.823-4.93-3.58-7.489-5.244c-1.903-1.238-3.836-2.432-5.801-3.579c-20.812-12.192-44.976-19.234-70.8-19.39l-0.586-0.197
	v0.187c-0.097,0-0.193-0.005-0.289-0.005c-26.155,0-50.049,7.075-71.097,19.406c-0.936,0.546-1.863,1.103-2.783,1.671
	c-0.891,0.548-1.773,1.108-2.649,1.675c-0.026,0.017-0.053,0.033-0.079,0.05c-0.001,0-0.002,0.001-0.002,0.002
	c-0.094,0.061-0.191,0.12-0.287,0.182c0.002,0.004,0.005,0.006,0.007,0.009c-2.699,1.755-5.309,3.63-7.877,5.56
	c0.752,0.677,1.519,1.371,2.251,2.025c7.147,6.382,15.059,11.943,23.515,16.528c18.146,9.839,38.649,15.039,59.291,15.039
	c22.138,0,43.642-5.882,62.478-16.839c5.216-3.034,11.792-2.328,16.401,1.566c20.173,17.044,34.806,40.449,40.741,67.105
	c5.868-2.883,11.622-5.965,17.243-9.249C384.54,443.964,366.043,417.248,341.183,398.524z"/>
<g>
	<polygon style="fill:#A57D48;" points="415.015,192.944 415.012,192.944 415.013,192.944 	"/>
	<path style="fill:#A57D48;" d="M439.083,187.178c-8.667,0-16.841,2.088-24.07,5.766h-0.001
		c-19.097-72.241-79.195-137.043-151.36-141.362c-2.537-0.152-5.086-0.24-7.652-0.24c-75.542,0-139.25,66.817-159.018,141.599
		l112.396,200.927c14.211,7.706,30.22,11.826,46.623,11.826c24.014,0,47.191-8.82,65.104-24.814
		c26.941-24.057,65.721-62.07,86.26-97.897c8.854,6.594,19.83,10.499,31.718,10.499c29.356,0,53.153-23.797,53.153-53.153
		S468.439,187.178,439.083,187.178z"/>
</g>
<path style="fill:#B69362;" d="M373.994,222.038c-1.102,0.005-2.219,0.135-3.333,0.432c-8.74,2.339-17.695,3.516-26.787,3.516
	c-27.632,0-52.822-10.696-71.662-28.17c-8.925-8.279-22.464-8.481-31.642-0.656c-0.259,0.221-0.527,0.423-0.778,0.656
	c-18.84,17.475-44.028,28.17-71.662,28.17c-9.088,0-18.041-1.178-26.775-3.513c-0.348-0.093-0.697-0.171-1.045-0.235
	c-10.197-1.862-19.396-6.987-25.872-15.08c-4.718-5.895-10.665-10.763-17.454-14.218c-7.226-3.677-15.399-5.764-24.064-5.764
	c-29.356,0-53.153,23.797-53.153,53.153s23.797,53.153,53.153,53.153c11.889,0,22.864-3.905,31.718-10.499
	c20.539,35.827,59.319,73.84,86.26,97.897c5.678,5.07,11.887,9.413,18.481,12.988c23.791-0.152,46.724-8.944,64.48-24.8
	c38.218-34.125,100.26-96.334,100.26-140.55C374.119,226.361,374.075,224.2,373.994,222.038z"/>
<circle style="opacity:0.5;fill:#8D663D;enable-background:new    ;" cx="439.08" cy="240.334" r="17.718"/>
<circle style="fill:#A57D48;" cx="72.919" cy="240.334" r="17.718"/>
<g>
	<circle style="fill:#474641;" cx="315.057" cy="240.334" r="17.718"/>
	<circle style="fill:#474641;" cx="196.939" cy="240.334" r="17.718"/>
	<path style="fill:#474641;" d="M273.719,249.189h-35.435c-4.892,0-8.859,3.966-8.859,8.859c0,14.655,11.922,26.576,26.576,26.576
		c14.655,0,26.576-11.922,26.576-26.576C282.578,253.154,278.611,249.189,273.719,249.189z"/>
</g>
<path style="fill:#625143;" d="M439.083,47.168c-0.079-0.08-0.154-0.164-0.234-0.243c-25.811-25.944-79-41.53-137.707-46.758
	c-24.234-2.157-45.141,16.842-45.141,41.175l-35.435,37.956l35.435,40.867c0,64.389,67.033,107.137,125.24,79.606
	c0.386-0.183,0.772-0.366,1.158-0.55c6.343-3.034,13.971,0.337,15.798,7.151l0,0l0,0c0.565-0.679,1.147-1.342,1.743-1.991
	c0.076-0.083,0.157-0.162,0.234-0.245c0.529-0.568,1.068-1.127,1.621-1.671c0.097-0.094,0.196-0.185,0.294-0.28
	c0.547-0.53,1.102-1.05,1.67-1.556c0.092-0.083,0.188-0.162,0.281-0.243c0.586-0.514,1.181-1.016,1.788-1.505
	c0.077-0.061,0.156-0.122,0.234-0.184c0.634-0.503,1.279-0.993,1.937-1.468c0.054-0.039,0.11-0.078,0.165-0.117
	c0.687-0.493,1.385-0.969,2.097-1.428c0.033-0.021,0.065-0.041,0.098-0.063c0.738-0.475,1.487-0.932,2.249-1.37
	c0.012-0.007,0.024-0.013,0.035-0.02c4.245-2.44,8.855-4.314,13.735-5.511c0.154-0.038,0.309-0.071,0.463-0.107
	c0.783-0.184,1.572-0.353,2.368-0.503c0.266-0.05,0.534-0.097,0.801-0.143c0.699-0.12,1.403-0.227,2.112-0.319
	c0.309-0.041,0.619-0.083,0.931-0.118c0.708-0.08,1.421-0.141,2.137-0.193c0.293-0.021,0.583-0.051,0.879-0.067
	c0.999-0.056,2.004-0.091,3.017-0.091c7.102,0,13.874,1.404,20.067,3.932C476.279,150.708,474.859,83.419,439.083,47.168z"/>
<path style="fill:#6D5B4D;" d="M73.153,46.925c-0.079,0.08-0.155,0.163-0.234,0.243c-35.775,36.25-37.195,103.538-20.067,143.94
	c6.193-2.528,12.965-3.932,20.067-3.932c1.013,0,2.017,0.034,3.017,0.091c0.294,0.017,0.585,0.045,0.879,0.067
	c0.716,0.052,1.429,0.113,2.137,0.193c0.312,0.035,0.621,0.078,0.931,0.118c0.709,0.092,1.413,0.198,2.112,0.319
	c0.268,0.046,0.535,0.093,0.801,0.143c0.796,0.15,1.584,0.318,2.367,0.503c0.155,0.037,0.311,0.07,0.465,0.107
	c4.879,1.198,9.488,3.071,13.734,5.511c0.012,0.007,0.024,0.013,0.035,0.02c0.762,0.438,1.512,0.895,2.249,1.37
	c0.032,0.021,0.065,0.041,0.098,0.063c0.711,0.459,1.409,0.936,2.097,1.428c0.054,0.039,0.111,0.078,0.165,0.117
	c0.657,0.475,1.302,0.964,1.935,1.467c0.079,0.063,0.158,0.123,0.236,0.185c0.607,0.488,1.202,0.99,1.787,1.504
	c0.093,0.081,0.188,0.161,0.281,0.243c0.569,0.507,1.126,1.028,1.673,1.558c0.097,0.093,0.195,0.183,0.291,0.278
	c0.554,0.546,1.093,1.104,1.623,1.674c0.077,0.083,0.157,0.161,0.233,0.243c0.596,0.65,1.179,1.312,1.743,1.991l0,0l0,0
	c1.826-6.814,9.455-10.185,15.798-7.151c0.385,0.184,0.771,0.369,1.158,0.55c58.206,27.531,125.24-15.217,125.24-79.606V41.342
	c0-24.331-20.906-43.331-45.141-41.173C152.154,5.395,98.964,20.981,73.153,46.925z"/>
<path style="opacity:0.5;fill:#827061;enable-background:new    ;" d="M73.153,46.925c-0.079,0.08-0.155,0.163-0.234,0.243
	c-7.943,8.049-14.191,17.627-18.918,28.1c-14.741,32.662,4.601,70.464,39.432,78.879c0.213,0.051,0.425,0.104,0.638,0.156
	c15.669,3.896,62.654,15.677,62.654,15.677c18.689,4.676,38.714-1.093,51.334-15.648c7.59-8.754,12.506-20.341,12.506-34.167V53.184
	c0-29.854-27.355-52.248-56.614-46.316C124.869,14.792,91.837,28.144,73.153,46.925z"/>
<g>
</g>
<g>
</g>
<g>
</g>
<g>
</g>
<g>
</g>
<g>
</g>
<g>
</g>
<g>
</g>
<g>
</g>
<g>
</g>
<g>
</g>
<g>
</g>
<g>
</g>
<g>
</g>
<g>
</g>
</svg>
