<?xml version="1.0" encoding="iso-8859-1"?>
<!-- Generator: Adobe Illustrator 19.0.0, SVG Export Plug-In . SVG Version: 6.00 Build 0)  -->
<svg version="1.1" id="Layer_1" xmlns="http://www.w3.org/2000/svg" xmlns:xlink="http://www.w3.org/1999/xlink" x="0px" y="0px"
	 viewBox="0 0 512 512" style="enable-background:new 0 0 512 512;" xml:space="preserve">
<path style="fill:#C78489;" d="M339.743,376.625c-0.001,0-0.001-0.001-0.003-0.001c-2.093-1.363-4.22-2.678-6.382-3.941
	c-22.783-13.359-49.181-21.027-77.5-21.027s-54.435,7.667-77.217,21.027c-2.162,1.262-4.289,2.577-6.382,3.941
	c-0.001,0-0.001,0.001-0.003,0.001l0,0c-0.001,0.001-0.004,0.003-0.005,0.004c-1.274,0.831-2.531,1.684-3.777,2.551
	c-0.333,0.232-0.663,0.466-0.995,0.7c-0.998,0.705-1.988,1.423-2.97,2.152c-0.264,0.196-0.531,0.39-0.794,0.588
	c-2.514,1.892-4.964,3.862-7.355,5.902c-0.184,0.157-0.367,0.315-0.55,0.474c-1.161,1-2.309,2.015-3.439,3.049
	c-0.019,0.018-0.038,0.035-0.058,0.052c-2.449,2.241-4.82,4.564-7.119,6.959c-0.046,0.049-0.093,0.097-0.14,0.146
	c-17.53,18.309-30.578,40.942-37.37,66.147c43.555,25.453,94.226,40.052,148.312,40.052s104.758-14.6,148.312-40.052
	C394.36,428.413,370.989,396.987,339.743,376.625z"/>
<g>
	<path style="opacity:0.5;fill:#B35F6D;enable-background:new    ;" d="M348.307,382.63l-0.548-0.184
		c-2.645-1.975-5.343-3.88-8.115-5.683c-2.062-1.341-4.157-2.635-6.286-3.878c-22.554-13.212-48.739-20.844-76.723-21.012
		L256,351.658v0.202c-0.105,0-0.209-0.005-0.314-0.005c-28.343,0-54.236,7.667-77.046,21.029c-1.014,0.591-2.019,1.196-3.016,1.811
		c-0.965,0.594-1.921,1.201-2.871,1.815c-0.028,0.018-0.058,0.036-0.086,0.054c-0.001,0-0.003,0.001-0.003,0.003
		c-0.102,0.067-0.207,0.131-0.311,0.197c0.003,0.004,0.005,0.006,0.008,0.01c-2.925,1.902-5.754,3.933-8.536,6.025
		c0.815,0.733,1.646,1.486,2.44,2.194c7.745,6.916,16.319,12.942,25.482,17.911c19.665,10.662,41.883,16.297,64.252,16.297
		c23.99,0,47.293-6.374,67.706-18.248c5.652-3.288,12.778-2.523,17.773,1.697c21.861,18.47,37.718,43.834,44.15,72.719
		c6.359-3.124,12.594-6.464,18.685-10.022C395.292,431.871,375.249,402.92,348.307,382.63z"/>
	<circle style="fill:#B35F6D;" cx="256.32" cy="419.2" r="9.6"/>
	<circle style="fill:#B35F6D;" cx="255.68" cy="457.6" r="9.6"/>
	<circle style="fill:#B35F6D;" cx="256" cy="496" r="9.6"/>
	<path style="fill:#B35F6D;" d="M143.036,482.921c10.077,4.193,20.436,7.844,31.044,10.913v-69.221
		C158.565,440.306,147.528,460.433,143.036,482.921z"/>
	<path style="fill:#B35F6D;" d="M337.92,424.613v69.221c10.607-3.068,20.966-6.72,31.044-10.913
		C364.472,460.433,353.435,440.306,337.92,424.613z"/>
</g>
<path style="fill:#ECCE93;" d="M454.4,153.6c-9.393,0-18.252,2.263-26.085,6.25C407.62,81.565,342.495,11.34,264.292,6.66
	l-58.815,370.925C220.876,385.934,238.225,390.4,256,390.4c26.024,0,51.14-9.558,70.551-26.89
	c29.196-26.07,71.219-67.263,93.477-106.088c9.595,7.146,21.489,11.378,34.372,11.378c31.812,0,57.6-25.788,57.6-57.6
	S486.212,153.6,454.4,153.6z"/>
<path style="fill:#F8E5B5;" d="M264.292,6.66C261.542,6.496,258.78,6.4,256,6.4c-81.862,0-150.9,72.407-172.323,153.446
	C75.845,155.86,66.989,153.6,57.6,153.6C25.788,153.6,0,179.388,0,211.2s25.788,57.6,57.6,57.6c12.883,0,24.777-4.232,34.372-11.378
	c22.258,38.825,64.282,80.018,93.477,106.088c6.153,5.494,12.882,10.2,20.027,14.075c25.782-0.165,50.633-9.692,69.875-26.875
	C316.767,313.729,384,246.316,384,198.4C384,120.287,334.016,37.915,264.292,6.66z"/>
<circle style="fill:#E1B872;" cx="454.4" cy="211.2" r="19.2"/>
<g>
	<circle style="fill:#ECCE93;" cx="57.6" cy="211.2" r="19.2"/>
	<path style="fill:#ECCE93;" d="M428.312,159.852c-26.359,1.265-50.226-16.298-56.084-42.029c-0.86-3.776-1.509-7.753-1.893-11.931
		c-0.682-7.423-5.599-13.778-12.611-16.305c-7.014-2.525-14.852-0.765-20.111,4.513C315.836,115.962,286.853,128,256,128
		s-59.836-12.038-81.613-33.9c-5.258-5.28-13.097-7.039-20.111-4.513c-7.012,2.528-11.927,8.882-12.611,16.305
		c-0.384,4.177-1.033,8.152-1.893,11.927c-5.857,25.733-29.731,43.297-56.091,42.029h-0.006
		c11.718,5.961,21.123,15.812,26.511,27.855c4.845,10.826,18.931,13.983,27.702,5.999c0.065-0.06,0.131-0.119,0.196-0.179
		c10.056-9.268,25.35-26.459,34.556-51.649C197.252,157.841,225.96,166.4,256,166.4s58.748-8.559,83.359-24.526
		c9.206,25.19,24.502,42.381,34.559,51.652c6.506,5.997,14.625,9.763,23.292,10.903c2.287-19.512,14.322-36.036,31.105-44.576
		L428.312,159.852z"/>
</g>
<g>
	<path style="fill:#474641;" d="M275.2,220.8h-38.4c-5.302,0-9.6,4.298-9.6,9.6c0,15.881,12.919,28.8,28.8,28.8
		s28.8-12.919,28.8-28.8C284.8,225.098,280.502,220.8,275.2,220.8z"/>
	<path style="fill:#474641;" d="M211.2,220.8h-38.4c-5.303,0-9.6-4.298-9.6-9.6s4.297-9.6,9.6-9.6h38.4c5.303,0,9.6,4.298,9.6,9.6
		S216.503,220.8,211.2,220.8z"/>
	<path style="fill:#474641;" d="M339.2,220.8h-38.4c-5.303,0-9.6-4.298-9.6-9.6s4.297-9.6,9.6-9.6h38.4c5.303,0,9.6,4.298,9.6,9.6
		S344.503,220.8,339.2,220.8z"/>
</g>
<g>
	<path style="fill:#AD712C;" d="M172.8,182.4h38.4c5.302,0,9.6-4.298,9.6-9.6s-4.298-9.6-9.6-9.6h-38.4c-5.302,0-9.6,4.298-9.6,9.6
		S167.498,182.4,172.8,182.4z"/>
	<path style="fill:#AD712C;" d="M319.983,166.051c-6.985,0-13.965-1.103-20.749-3.313c-5.041-1.641-7.798-7.059-6.157-12.1
		c1.642-5.043,7.06-7.799,12.101-6.157c9.681,3.153,19.933,3.15,29.647-0.005c5.036-1.638,10.459,1.12,12.096,6.163
		c1.638,5.042-1.121,10.458-6.163,12.096C333.961,164.946,326.97,166.051,319.983,166.051z"/>
</g>
<path style="fill:#C98A2E;" d="M428.323,159.846C406.9,78.807,337.862,6.4,256,6.4S105.1,78.807,83.677,159.846
	c11.03,5.613,20.009,14.665,25.522,25.754l0,0c5.884,0,11.547-2.207,15.873-6.195c11.447-10.551,32.288-34.547,35.712-71.754
	C185.12,132.079,218.793,147.2,256,147.2s70.88-15.121,95.215-39.549c3.424,37.208,24.265,61.204,35.712,71.754
	c4.326,3.988,9.989,6.195,15.873,6.195l0,0C408.314,174.511,417.293,165.458,428.323,159.846z"/>
<path style="fill:#D5A150;" d="M233.533,8.225C167.739,18.953,113.034,75.588,89.38,141.532c1.016,0.317,2.024,0.703,3.005,1.201
	c0.091,0.046,0.18,0.092,0.27,0.138c17.644,9.068,39.429,0.599,45.315-18.345c1.768-5.69,3.076-11.901,3.695-18.637
	c0.682-7.423,5.599-13.778,12.611-16.305c7.032-2.532,14.895-0.756,20.154,4.557c11.409,11.528,24.855,20.627,39.552,26.478
	c0.859,0.342,1.926,0.672,3.169,0.992c31.405,8.063,61.889-16.091,61.889-48.512V47.904c0-23.855-20.739-42.605-44.431-39.825
	C234.2,8.127,233.841,8.175,233.533,8.225z"/>
<path style="opacity:0.2;fill:#915729;enable-background:new    ;" d="M396.796,211.206L396.796,211.206V211.2
	c0.18-3.437-1.571-6.769-4.631-8.343c-7.295-3.753-14.569,1.445-14.569,8.343c0,0.003,0,0.004,0,0.006l0,0
	c0,21.211-17.195,38.394-38.406,38.394h-16c-10.601,0-19.194,8.594-19.194,19.194l0,0c0,15.905-12.895,28.8-28.8,28.8h-38.413
	c-15.899,0-28.787-12.888-28.787-28.787v-0.013c0-10.601-8.593-19.194-19.194-19.194h-16c-21.211,0-38.406-17.183-38.406-38.394l0,0
	V211.2c0.18-3.437-1.571-6.769-4.631-8.343c-7.295-3.753-14.569,1.445-14.569,8.343c0,0.003,0,0.004,0,0.006l0,0
	c0,18.934-9.126,35.713-23.228,46.205c22.257,38.829,64.284,80.027,93.484,106.099c6.153,5.494,12.882,10.2,20.027,14.075
	c15.4,8.348,32.749,12.814,50.524,12.814c26.024,0,51.14-9.558,70.551-26.89c29.197-26.07,71.22-67.264,93.478-106.09
	C405.921,246.931,396.796,230.149,396.796,211.206z"/>
<g>
</g>
<g>
</g>
<g>
</g>
<g>
</g>
<g>
</g>
<g>
</g>
<g>
</g>
<g>
</g>
<g>
</g>
<g>
</g>
<g>
</g>
<g>
</g>
<g>
</g>
<g>
</g>
<g>
</g>
</svg>
