<?xml version="1.0" encoding="iso-8859-1"?>
<!-- Generator: Adobe Illustrator 19.0.0, SVG Export Plug-In . SVG Version: 6.00 Build 0)  -->
<svg version="1.1" id="Layer_1" xmlns="http://www.w3.org/2000/svg" xmlns:xlink="http://www.w3.org/1999/xlink" x="0px" y="0px"
	 viewBox="0 0 512 512" style="enable-background:new 0 0 512 512;" xml:space="preserve">
<path style="fill:#C98A2E;" d="M262.102,231.809H64.933v120.866c0,26.97,87.457,48.835,195.34,48.835l195.34-169.701
	L262.102,231.809L262.102,231.809z"/>
<path style="fill:#AD712C;" d="M260.884,231.809c0,71.848,0,132.919,0,169.699c107.602-0.083,194.729-21.913,194.729-48.832V231.809
	L260.884,231.809L260.884,231.809z"/>
<path style="fill:#797DAF;" d="M373.819,455.585c-4.791-17.678-13.428-33.774-24.996-47.303
	c-6.399-7.483-13.684-14.183-21.697-19.936c-20.028-14.381-44.586-22.854-71.126-22.854s-51.096,8.472-71.126,22.854
	c-8.013,5.754-15.299,12.453-21.697,19.936c-11.568,13.527-20.205,29.623-24.996,47.301c0,0.001,0,0.001-0.001,0.002l0,0
	l34.836,8.901l9.73,37.837c1.293,0.348,2.591,0.685,3.891,1.015l0,0c22.187,5.64,45.42,8.658,69.361,8.658
	c25.344,0,49.897-3.378,73.252-9.673l10.286-37.837L373.819,455.585C373.819,455.587,373.819,455.587,373.819,455.585z"/>
<path style="fill:#E1B872;" d="M182.748,473.763l-18.313-19.296l-18.313,5.122v30.09c7.956,3.387,16.105,6.406,24.417,9.059
	c3.563,1.137,7.157,2.204,10.779,3.201c0.476,0.131,0.952,0.259,1.43,0.387V473.763z"/>
<path style="fill:#D5A150;" d="M329.454,473.768c0,0-0.201,5.124-0.201,7.71v20.849c0.476-0.128,0.954-0.255,1.43-0.387
	c3.624-0.997,7.217-2.063,10.779-3.201c8.313-2.653,16.461-5.672,24.417-9.059v-2.097V459.59l-18.313-5.08L329.454,473.768z"/>
<path style="fill:#656890;" d="M365.879,459.59c2.669-1.287,5.317-2.62,7.941-4.002c-4.791-17.678-13.428-33.775-24.997-47.304
	c-3.385,5.859-6.372,11.978-8.933,18.313c-5.941,14.692-9.569,30.566-10.431,47.171c9.369-2.824,18.547-6.201,27.506-10.094
	C359.961,462.371,362.933,461.01,365.879,459.59z"/>
<path style="fill:#797DAF;" d="M182.527,473.763c-1.234-23.764-8.114-46.035-19.35-65.479
	c-11.568,13.529-20.205,29.624-24.997,47.304c2.624,1.382,5.272,2.715,7.941,4.002C157.866,465.251,170.029,469.994,182.527,473.763
	z"/>
<path style="opacity:0.3;fill:#46475A;enable-background:new    ;" d="M287.241,437.531c-4.063-0.067-7.999,0.433-11.734,1.428
	c-12.801,3.409-26.216,3.409-39.017,0c-3.735-0.995-7.67-1.496-11.734-1.428c-23.118,0.381-42.01,20.481-42.01,43.603v0.343v20.849
	c23.355,6.295,47.908,9.673,73.252,9.673s49.897-3.378,73.252-9.673v-20.849v-0.343
	C329.252,458.013,310.359,437.912,287.241,437.531z"/>
<path style="opacity:0.3;fill:#AB5034;enable-background:new    ;" d="M373.819,455.587L373.819,455.587L373.819,455.587z"/>
<path style="opacity:0.3;fill:#46475A;enable-background:new    ;" d="M348.822,408.283c-6.399-7.483-13.684-14.183-21.697-19.936
	c-20.028-14.381-44.586-22.854-71.126-22.854s-51.096,8.472-71.126,22.854c16.788,20.688,42.407,33.918,71.126,33.918
	c16.239,0,31.489-4.23,44.711-11.646c9.476-5.314,21.415-3.682,29.047,4.052c3.664,3.713,7.052,7.7,10.131,11.926
	c7.977,10.943,13.863,23.498,17.084,37.072c2.994-1.301,5.963-2.66,8.905-4.079c2.669-1.287,5.317-2.62,7.941-4.002
	C369.028,437.908,360.391,421.811,348.822,408.283z"/>
<g>
	<path style="fill:#E1B872;" d="M73,176.621c0.321,0.037,0.641,0.081,0.961,0.122C73.641,176.701,73.322,176.657,73,176.621z"/>
	<path style="fill:#E1B872;" d="M69.883,176.352c0.304,0.017,0.604,0.048,0.907,0.07C70.488,176.4,70.187,176.369,69.883,176.352z"
		/>
	<path style="fill:#E1B872;" d="M76.145,177.072c0.276,0.048,0.552,0.096,0.827,0.148C76.698,177.169,76.422,177.12,76.145,177.072z
		"/>
	<path style="fill:#E1B872;" d="M89.318,281.291c-0.048,0.022-0.095,0.043-0.143,0.065C89.223,281.335,89.27,281.313,89.318,281.291
		z"/>
	<path style="fill:#E1B872;" d="M79.423,177.742c0.157,0.038,0.317,0.071,0.475,0.11C79.74,177.812,79.58,177.778,79.423,177.742z"
		/>
	<path style="fill:#E1B872;" d="M70.853,285.97c-0.309,0.023-0.614,0.052-0.924,0.07C70.238,286.023,70.545,285.993,70.853,285.97z"
		/>
	<path style="fill:#E1B872;" d="M74.074,285.639c-0.326,0.044-0.652,0.087-0.98,0.125C73.422,285.725,73.748,285.683,74.074,285.639
		z"/>
	<path style="fill:#E1B872;" d="M80.092,284.501c-0.085,0.021-0.172,0.039-0.259,0.06C79.92,284.54,80.006,284.522,80.092,284.501z"
		/>
	<path style="fill:#E1B872;" d="M77.129,285.148c-0.27,0.051-0.542,0.098-0.814,0.145C76.587,285.246,76.859,285.199,77.129,285.148
		z"/>
	<path style="fill:#E1B872;" d="M405.557,186.637c-25.028-49.445-59.212-79.357-97.059-79.357L66.765,176.259
		c-30.342,0-54.939,24.597-54.939,54.939s24.597,54.939,54.939,54.939c9.155,0,17.781-2.253,25.372-6.213
		c12.066,40.637,38.834,74.946,74.136,96.768c120.265,49.045,194.721-39.888,211.202-56.981
		C393.959,302.62,430.585,236.082,405.557,186.637z"/>
</g>
<g>
	<path style="fill:#D5A150;" d="M500.138,229.182c-0.997-27.873-23.208-50.87-51.033-52.789c-10.391-0.717-20.205,1.48-28.743,5.824
		c-18.662-46.197-41.82-66.63-54.892-75.548c-6.488-4.426-10.22-6.518-10.22-6.518c-25.498-14.483-52.484-15.461-74.488-8.866
		c-0.576,0.172-1.15,0.348-1.719,0.531c-12.466,4.007-23.508,10.48-31.933,18.722c-18.389,17.991-26.173,41.305-27.328,83.768
		c-16.477,6.418-52.333,16.177-85.941-2.83c-8.325-4.706-18.756-2.18-24.077,5.55c-0.43,0.624-0.838,1.272-1.196,1.963
		c-4.616,8.884-0.884,19.834,7.859,24.714c1.684,0.94,3.367,1.812,5.051,2.653c19.276,9.636,38.489,12.997,55.887,12.997
		c18.471,0,34.877-3.774,47.126-7.792c13.132-4.308,21.485-8.898,22.426-9.428c5.767-3.244,9.337-9.346,9.337-15.963
		c0-44.612,6.038-59.248,16.47-69.453c4.319-4.225,10.543-7.788,17.524-10.032c28.136-9.042,66.903,2.74,91.33,62.919
		c0.563,1.386,1.276,2.665,2.113,3.827c4.081,5.66,6.596,12.334,6.602,19.313c0,0.048,0,0.094,0,0.14
		c0,94.398-76.524,170.922-170.922,170.922c-16.999,0-35.005-2.494-53.099-7.115c26.079,16.12,56.813,25.428,89.726,25.428
		c77.466,0,142.884-51.54,163.863-122.196c7.591,3.962,16.217,6.213,25.372,6.213C476.247,286.138,501.256,260.443,500.138,229.182z
		"/>
	<circle style="fill:#D5A150;" cx="66.765" cy="231.196" r="18.313"/>
</g>
<circle style="fill:#C98A2E;" cx="445.24" cy="231.196" r="18.313"/>
<path style="fill:#AD712C;" d="M336.85,170.258c-12.944-4.213-26.637-4.214-39.606,0.001c-4.809,1.563-7.442,6.728-5.879,11.538
	c1.256,3.869,4.847,6.329,8.706,6.329c0.939,0,1.892-0.145,2.831-0.451c9.266-3.011,19.046-3.011,28.278-0.005
	c4.803,1.565,9.976-1.062,11.542-5.872C344.287,176.989,341.659,171.823,336.85,170.258z"/>
<g>
	<circle style="fill:#474641;" cx="194.961" cy="231.196" r="18.313"/>
	<circle style="fill:#474641;" cx="317.049" cy="231.196" r="18.313"/>
</g>
<g>
	<path style="fill:#D5A150;" d="M168.097,264.773h-12.209c-5.058,0-9.157-4.1-9.157-9.157s4.098-9.157,9.157-9.157h12.209
		c5.058,0,9.157,4.1,9.157,9.157S173.154,264.773,168.097,264.773z"/>
	<path style="fill:#D5A150;" d="M356.112,264.773h-12.209c-5.058,0-9.157-4.1-9.157-9.157s4.098-9.157,9.157-9.157h12.209
		c5.058,0,9.157,4.1,9.157,9.157S361.168,264.773,356.112,264.773z"/>
</g>
<path style="fill:#8D472E;" d="M236.576,263.181c-3.576,3.576-3.576,9.374,0,12.949c3.576,3.576,9.374,3.576,12.949,0
	c1.73-1.73,4.029-2.682,6.474-2.682s4.746,0.952,6.474,2.682c1.787,1.787,4.131,2.682,6.474,2.682s4.687-0.894,6.474-2.682
	c3.576-3.576,3.576-9.374,0-12.949C264.713,252.471,247.287,252.471,236.576,263.181z"/>
<path style="fill:#C98A2E;" d="M440.828,123.603c-3.537-8.184-8.404-16.28-15.08-23.574c-2.054-2.244-4.279-4.412-6.689-6.483
	c-1.808-1.553-3.719-3.052-5.741-4.488c-8.086-5.742-17.931-10.469-29.908-13.619c0,0,23.502-24.491-9.572-45.685
	C298.621-18.458,201.964,1.467,151.615,23.04C66.154,59.666,65.544,144.102,65.544,147.984c0,4.456,0,17.41,0,28.617
	c0.733-0.085,1.489-0.159,2.234-0.208c0.745-0.061,1.477-0.049,2.21-0.073c11.256-0.513,22.061,4.163,30.046,12.111
	c61.202,60.873,137.91,17.739,137.91,17.739c0-47.614,6.715-67.612,21.976-82.543c6.152-6.019,14.716-11.159,24.729-14.377
	c33.819-10.868,84.162,0.199,113.901,73.467c5.201,12.819,18.496,4.273,27.567-0.501c6.788-3.455,14.382-5.531,22.44-5.86v-14.113
	C448.556,148.984,446.078,135.787,440.828,123.603z"/>
<path style="fill:#AD712C;" d="M448.456,158.033l-0.65,0.027c-5.466,0.223-10.813,1.041-16.002,2.442
	c-1.51,0.408-3.878,1.32-6.446,2.394c-7.169,3.001-15.385,0.024-19.022-6.844c-8.56-16.162-18.278-28.998-28.637-38.989
	c-6.504-6.272-3.881-17.234,4.721-19.999c5.476-1.759,10.449-4.918,14.382-9.135l5.219-5.596
	c-5.548-2.747-11.725-5.082-18.612-6.893c0,0,0.143-0.149,0.392-0.435c0.696-0.8,2.218-2.668,3.726-5.313
	c0.862-1.511,1.72-3.277,2.417-5.241c0.175-0.491,0.338-0.995,0.491-1.51c0.151-0.515,0.291-1.043,0.415-1.58
	s0.234-1.087,0.326-1.645c0.138-0.838,0.237-1.697,0.289-2.577c0.034-0.586,0.048-1.182,0.038-1.784
	c-0.015-0.903-0.083-1.825-0.212-2.762c-0.085-0.624-0.199-1.255-0.342-1.891c-1.499-6.683-6.259-13.991-17.112-20.947
	c-0.214-0.137-0.43-0.266-0.645-0.402v0.993c0,18.566-11.98,35.01-29.653,40.7l-64.497,20.769
	c-12.466,4.007-23.508,10.48-31.932,18.722c-18.403,18.007-26.187,41.346-27.332,83.875c-19.756,7.871-67.225,20.428-106.828-18.961
	c-11.812-11.756-27.681-18.106-43.617-17.434l-0.389,0.009c-0.631,0.011-1.485,0.026-2.5,0.103c-0.293,0.02-0.599,0.048-0.902,0.073
	c0,5.523,0,12.223,0,18.4c0.733-0.085,1.489-0.159,2.234-0.208c0.745-0.061,1.477-0.049,2.21-0.073
	c11.256-0.513,22.061,4.163,30.046,12.111c61.202,60.873,137.91,17.739,137.91,17.739c0-47.614,6.715-67.612,21.976-82.543
	c6.152-6.019,14.716-11.159,24.729-14.377c33.819-10.868,84.162,0.199,113.901,73.467c5.201,12.819,18.496,4.273,27.567-0.501
	c6.788-3.455,14.382-5.531,22.44-5.86v-14.113C448.556,160.839,448.512,159.435,448.456,158.033z"/>
<g>
</g>
<g>
</g>
<g>
</g>
<g>
</g>
<g>
</g>
<g>
</g>
<g>
</g>
<g>
</g>
<g>
</g>
<g>
</g>
<g>
</g>
<g>
</g>
<g>
</g>
<g>
</g>
<g>
</g>
</svg>
