<?xml version="1.0" encoding="iso-8859-1"?>
<!-- Generator: Adobe Illustrator 19.0.0, SVG Export Plug-In . SVG Version: 6.00 Build 0)  -->
<svg version="1.1" id="Layer_1" xmlns="http://www.w3.org/2000/svg" xmlns:xlink="http://www.w3.org/1999/xlink" x="0px" y="0px"
	 viewBox="0 0 512 512" style="enable-background:new 0 0 512 512;" xml:space="preserve">
<path style="fill:#848075;" d="M181.41,384.033c-33.208,19.398-58.177,51.352-68.416,89.348C154.99,497.923,203.849,512,256,512
	l61.71-66.647L256,384.033H181.41z"/>
<path style="fill:#706B63;" d="M399.006,473.381c-9.596-35.611-32.131-65.913-62.259-85.546l0,0c-0.001,0-0.001-0.001-0.003-0.001
	c-2.018-1.314-4.069-2.582-6.154-3.8H256h-74.59c-12.09,7.062-23.081,15.795-32.673,25.871
	c33.461,12.257,73.603,18.36,107.264,18.936V512C308.152,512,357.01,497.923,399.006,473.381z"/>
<path style="fill:#5B5751;" d="M334.989,434.107v66.745c10.228-2.958,20.216-6.48,29.933-10.523
	C360.592,468.644,349.949,449.237,334.989,434.107z"/>
<g>
	<path style="fill:#706B63;" d="M147.078,490.329c9.717,4.043,19.705,7.563,29.933,10.523v-66.745
		C162.051,449.237,151.409,468.644,147.078,490.329z"/>
	<circle style="fill:#706B63;" cx="218.664" cy="447.4" r="9.257"/>
	<circle style="fill:#706B63;" cx="218.973" cy="484.426" r="9.257"/>
</g>
<polygon style="fill:#EBD37A;" points="206.632,389.049 255.863,438.143 305.368,388.775 "/>
<path style="fill:#EBD37A;" d="M447.302,172.789c-9.057,0-17.597,2.182-25.151,6.025c-17.602-66.58-68.54-127.112-132.064-143.558
	L114.294,361.202c1.152,0.747,2.309,1.488,3.503,2.196l0,0c84.842,50.294,191.567,50.294,276.409,0l0,0
	c29.958-17.759,46.855-48.029,48.383-79.742c1.555,0.131,3.124,0.214,4.713,0.214c30.674,0,55.539-24.866,55.539-55.539
	S477.976,172.789,447.302,172.789z"/>
<path style="fill:#F3E29A;" d="M383.686,217.302c-4.03-10.004-6.556-20.553-7.595-31.288
	c-5.667-58.531-38.842-117.03-86.003-150.757c-8.49-2.198-17.202-3.619-26.094-4.151c-2.651-0.159-5.314-0.251-7.995-0.251
	c-78.932,0-145.5,69.817-166.156,147.956c-7.551-3.842-16.09-6.023-25.144-6.023c-30.674,0-55.539,24.866-55.539,55.539
	s24.866,55.539,55.539,55.539c1.592,0,3.163-0.083,4.721-0.214c1.474,30.444,17.112,59.557,44.873,77.548
	c74.706,26.124,158.704,18.634,228.075-22.488l0,0C385.478,313.156,401.57,261.694,383.686,217.302z"/>
<circle style="fill:#EBD37A;" cx="64.697" cy="228.328" r="18.513"/>
<circle style="fill:#E2C35A;" cx="447.301" cy="228.328" r="18.513"/>
<path style="fill:#EBD37A;" d="M422.087,178.59c-2.328-8.786-11.924-13.205-20.273-9.61c-5.649,2.433-11.858,3.764-18.335,3.764
	c-5.879,0-11.625-1.102-17.068-3.269c-27.348-10.915-68.152-40.015-96.457-64.013c-16.685-14.148-48.702-27.588-84.03-18.897
	c-22.127,5.443-51.764,21.217-74.992,64.261c-5.577,10.336-12.69,19.776-21.09,27.986l0,0c6.104,3.106,11.561,7.304,16.106,12.34
	c8.568,9.49,24.192,7.218,29.098-4.589c0.041-0.098,0.08-0.194,0.12-0.291c14.461-35.672,35.071-57.718,59.601-63.752
	c20.368-5.008,40.417,2.007,51.242,11.186c28.361,24.042,73.313,56.845,106.688,70.166c9.834,3.916,20.189,5.902,30.78,5.902
	c3.987,0,7.916-0.285,11.768-0.828c4.879-13.096,14.56-23.842,26.9-30.124L422.087,178.59z"/>
<g>
	<path style="fill:#474641;" d="M175.777,246.841h37.026c5.112,0,9.257-4.144,9.257-9.257s-4.144-9.257-9.257-9.257
		c0-10.224-8.289-18.513-18.513-18.513s-18.513,8.289-18.513,18.513c-5.112,0-9.257,4.144-9.257,9.257
		S170.665,246.841,175.777,246.841z"/>
	<path style="fill:#474641;" d="M299.197,246.841h37.026c5.112,0,9.257-4.144,9.257-9.257s-4.144-9.257-9.257-9.257
		c0-10.224-8.289-18.513-18.513-18.513s-18.513,8.289-18.513,18.513c-5.112,0-9.257,4.144-9.257,9.257
		S294.085,246.841,299.197,246.841z"/>
	<path style="fill:#474641;" d="M256,274.611c-15.313,0-27.77-12.457-27.77-27.77c0-5.112,4.144-9.257,9.257-9.257
		s9.257,4.144,9.257,9.257c0,5.105,4.152,9.257,9.257,9.257s9.257-4.152,9.257-9.257c0-5.112,4.144-9.257,9.257-9.257
		c5.112,0,9.257,4.144,9.257,9.257C283.77,262.154,271.313,274.611,256,274.611z"/>
</g>
<g>
	<path style="fill:#7A5436;" d="M317.694,184.794c-6.735,0-13.465-1.064-20.006-3.194c-4.86-1.582-7.519-6.807-5.937-11.667
		c1.583-4.863,6.808-7.52,11.668-5.937c9.334,3.04,19.22,3.037,28.587-0.005c4.855-1.58,10.085,1.08,11.663,5.943
		c1.58,4.862-1.081,10.083-5.943,11.663C331.172,183.729,324.431,184.794,317.694,184.794z"/>
	<path style="fill:#7A5436;" d="M194.274,184.794c-6.735,0-13.465-1.064-20.006-3.194c-4.86-1.582-7.519-6.807-5.937-11.667
		c1.583-4.863,6.814-7.52,11.668-5.937c9.334,3.04,19.22,3.037,28.587-0.005c4.857-1.58,10.085,1.08,11.663,5.943
		c1.58,4.862-1.081,10.083-5.943,11.663C207.751,183.729,201.01,184.794,194.274,184.794z"/>
	<path style="fill:#7A5436;" d="M440.51,122.854c-8.696-20.023-25.453-39.523-57.356-47.871c0,0,23.476-24.342-9.561-45.409
		c-75.137-47.92-171.691-28.116-221.987-6.673c-30.228,12.89-49.82,31.738-62.53,50.879c-23.187,34.918-23.45,70.815-23.45,73.308
		c0,1.583,0,12.427,0,25.701c8.383,0,16.324,1.867,23.45,5.192l0,0l0,0c1.261,0.589,2.496,1.223,3.704,1.902
		c0.054,0.031,0.107,0.063,0.162,0.093c1.192,0.674,2.36,1.386,3.494,2.143c0.012,0.007,0.025,0.015,0.037,0.022
		c2.493,1.659,5.217,2.973,8.13,3.658c5.622,1.322,10.655,0.302,13.407-6.486c38.917-95.995,110.944-84.344,139.972-59.733
		c23.589,19.999,68.297,53.809,101.566,67.088c7.405,2.95,15.474,4.589,23.931,4.589c30.456,0,55.987-21.041,62.895-49.379
		C445.101,135.361,443.162,128.979,440.51,122.854z"/>
</g>
<path style="opacity:0.7;fill:#8D663D;enable-background:new    ;" d="M383.154,74.983h-57.457c-7.157,0-11.814-7.324-9.008-13.908
	c11.123-26.115-5.945-58.719-37.447-60.619c-49.5-2.987-97.095,9.426-127.635,22.445c-0.186,0.079-0.373,0.159-0.559,0.239
	c-26.909,11.59-44.162,38.292-44.162,67.592v6.572c0,8.121,9.854,12.013,15.503,6.178c0.058-0.06,0.116-0.12,0.174-0.179
	c30.514-31.413,63.726-38.007,86.213-38.007c26.969,0,53.632,9.492,73.151,26.044c27.16,23.025,65.939,50.799,91.323,60.93
	c3.266,1.302,6.709,1.961,10.23,1.961c0.51,0,1.017-0.014,1.522-0.041c11.731-0.633,24.757-2.392,24.757-32.736v-11.894
	C409.757,93.453,398.724,79.106,383.154,74.983z"/>
<g>
</g>
<g>
</g>
<g>
</g>
<g>
</g>
<g>
</g>
<g>
</g>
<g>
</g>
<g>
</g>
<g>
</g>
<g>
</g>
<g>
</g>
<g>
</g>
<g>
</g>
<g>
</g>
<g>
</g>
</svg>
