<?xml version="1.0" encoding="iso-8859-1"?>
<!-- Generator: Adobe Illustrator 19.0.0, SVG Export Plug-In . SVG Version: 6.00 Build 0)  -->
<svg version="1.1" id="Layer_1" xmlns="http://www.w3.org/2000/svg" xmlns:xlink="http://www.w3.org/1999/xlink" x="0px" y="0px"
	 viewBox="0 0 511.999 511.999" style="enable-background:new 0 0 511.999 511.999;" xml:space="preserve">
<path style="fill:#C6DCD1;" d="M405.58,464.806L405.58,464.806c-6.345-23.089-17.945-43.989-33.419-61.354
	c-2.877-3.229-5.891-6.336-9.028-9.311c-7.095,6.866-13.525,14.412-19.196,22.527l-19.87-15.516l-144.62-27.884
	c-2.016,1.19-3.999,2.431-5.955,3.71c-8.175,5.349-15.806,11.459-22.797,18.222c-19.818,19.175-34.489,43.628-41.741,71.084
	c11.345,6.554,23.168,12.366,35.4,17.385l19.271-36.711l11.863,47.483c26.043,7.395,53.547,11.296,81.977,11.155
	c21.98-0.109,43.383-2.628,63.965-7.301c6.039-1.371,12.005-2.934,17.897-4.67c8.499-2.505,16.837-5.385,24.996-8.617
	c2.021-0.8,4.029-1.622,6.029-2.465c0.733-0.31,1.466-0.62,2.197-0.934c2.851-1.23,5.677-2.505,8.48-3.821
	c5.605-2.633,11.114-5.436,16.52-8.405C400.253,467.899,402.93,466.373,405.58,464.806L405.58,464.806L405.58,464.806z"/>
<g>
	<path style="fill:#92BCBC;" d="M394.716,436.586c-10.697-21.234-26.171-39.638-45.008-53.808c-2.996-2.254-6.077-4.399-9.238-6.433
		c-2.069-1.331-4.17-2.615-6.305-3.848l-154.716,0.771c-2.122,1.254-4.211,2.559-6.267,3.91c18.995,25.63,49.51,42.192,83.856,42.02
		c16.88-0.085,32.791-4.204,46.838-11.431c5.02-2.583,11.058-2.173,15.806,0.882c0.097,0.063,0.195,0.125,0.292,0.188
		c11.85,7.675,19.038,20.804,19.108,34.923l0.248,49.867c10.604-3.125,20.956-6.833,31.024-11.082l0,0l0,0
		c4.545-1.919,9.032-3.948,13.458-6.083c0.028-0.014,0.058-0.027,0.086-0.041c1.39-0.671,2.774-1.354,4.151-2.047
		c0.105-0.052,0.21-0.104,0.315-0.156c1.293-0.652,2.579-1.316,3.862-1.985c0.18-0.095,0.363-0.187,0.545-0.282
		c1.197-0.629,2.386-1.27,3.574-1.914c0.256-0.14,0.515-0.275,0.771-0.415c1.133-0.62,2.258-1.251,3.38-1.884
		c0.297-0.168,0.596-0.33,0.892-0.499c1.376-0.782,2.744-1.577,4.106-2.381c0.028-0.017,0.058-0.033,0.086-0.05
		C402.876,454.968,399.22,445.525,394.716,436.586z"/>
	<path style="fill:#92BCBC;" d="M144.357,483.67c10.11,4.148,20.499,7.753,31.134,10.773l-0.346-69.423
		C159.664,440.833,148.711,461.083,144.357,483.67z"/>
	<path style="fill:#92BCBC;" d="M454.113,152.61c-9.389,0.047-18.234,2.351-26.046,6.376
		c-17.572-65.156-65.981-124.553-126.9-145.025L162.689,364.208c27.426,16.766,59.697,26.363,94.204,26.19
		c81.218-0.405,149.534-54.782,171.159-128.97c7.98,4.114,17.034,6.43,26.633,6.382c31.811-0.159,57.471-26.075,57.313-57.887
		C511.839,178.11,485.924,152.451,454.113,152.61z"/>
</g>
<path style="fill:#C6DCD1;" d="M396.705,191.297c-0.34-68.391-39.016-139.861-95.538-177.336c-14.75-4.957-30.23-7.642-46.187-7.562
	c-81.862,0.407-150.54,73.158-171.559,154.304c-7.852-3.946-16.718-6.163-26.108-6.116c-31.811,0.159-57.471,26.075-57.313,57.887
	s26.075,57.471,57.887,57.313c9.599-0.047,18.631-2.454,26.569-6.647c12.863,42.541,41.106,78.373,78.232,101.067
	c18.995,4.75,37.886,7.272,55.709,7.182C317.367,370.896,397.198,290.266,396.705,191.297z"/>
<circle style="fill:#92BCBC;" cx="57.601" cy="212.187" r="19.2"/>
<circle style="fill:#78ABB1;" cx="454.405" cy="210.216" r="19.2"/>
<circle style="fill:#5B5751;" cx="192.003" cy="211.201" r="19.2"/>
<path style="fill:#5B7676;" d="M256.001,259.198c-15.881,0-28.8-12.92-28.8-28.8c0-5.303,4.298-9.6,9.6-9.6
	c5.302,0,9.6,4.297,9.6,9.6c0,5.294,4.306,9.6,9.6,9.6c5.294,0,9.6-4.306,9.6-9.6c0-5.303,4.298-9.6,9.6-9.6
	c5.302,0,9.6,4.297,9.6,9.6C284.801,246.279,271.882,259.198,256.001,259.198z"/>
<circle style="fill:#5B5751;" cx="320.004" cy="211.201" r="19.2"/>
<g>
	<path style="fill:#5B7676;" d="M174.205,166.038c-4.047,0-7.811-2.579-9.128-6.637c-1.638-5.042,1.121-10.459,6.163-12.096
		c13.598-4.417,27.958-4.419,41.525-0.001c5.042,1.641,7.798,7.059,6.157,12.101c-1.641,5.041-7.055,7.799-12.1,6.157
		c-9.685-3.154-19.937-3.153-29.649,0.004C176.188,165.886,175.188,166.038,174.205,166.038z"/>
	<path style="fill:#5B7676;" d="M302.207,166.038c-4.047,0-7.811-2.579-9.128-6.637c-1.638-5.042,1.121-10.459,6.163-12.096
		c13.598-4.417,27.958-4.419,41.525-0.001c5.042,1.641,7.798,7.059,6.157,12.101c-1.641,5.041-7.059,7.799-12.1,6.157
		c-9.683-3.154-19.936-3.153-29.649,0.004C304.189,165.886,303.19,166.038,302.207,166.038z"/>
</g>
<g>
</g>
<g>
</g>
<g>
</g>
<g>
</g>
<g>
</g>
<g>
</g>
<g>
</g>
<g>
</g>
<g>
</g>
<g>
</g>
<g>
</g>
<g>
</g>
<g>
</g>
<g>
</g>
<g>
</g>
</svg>
