<?xml version="1.0" encoding="iso-8859-1"?>
<!-- Generator: Adobe Illustrator 19.0.0, SVG Export Plug-In . SVG Version: 6.00 Build 0)  -->
<svg version="1.1" id="Layer_1" xmlns="http://www.w3.org/2000/svg" xmlns:xlink="http://www.w3.org/1999/xlink" x="0px" y="0px"
	 viewBox="0 0 512 512" style="enable-background:new 0 0 512 512;" xml:space="preserve">
<g>
	<path style="fill:#6A9093;" d="M336.678,442.35c0.081,0.094,0.163,0.184,0.244,0.277
		C336.842,442.534,336.759,442.444,336.678,442.35z"/>
	<path style="fill:#6A9093;" d="M339.446,445.693c0.146,0.184,0.293,0.365,0.438,0.548
		C339.739,446.057,339.592,445.875,339.446,445.693z"/>
	<path style="fill:#6A9093;" d="M342.221,449.336c0.143,0.197,0.285,0.393,0.426,0.591
		C342.505,449.729,342.364,449.532,342.221,449.336z"/>
	<path style="fill:#6A9093;" d="M349.551,460.892c0.052,0.096,0.107,0.191,0.159,0.287
		C349.658,461.082,349.604,460.988,349.551,460.892z"/>
	<path style="fill:#6A9093;" d="M333.715,439.059c0.15,0.16,0.297,0.324,0.448,0.486
		C334.014,439.384,333.867,439.22,333.715,439.059z"/>
	<path style="fill:#6A9093;" d="M344.889,453.171c0.099,0.15,0.197,0.303,0.296,0.454
		C345.086,453.474,344.989,453.321,344.889,453.171z"/>
	<path style="fill:#6A9093;" d="M380.839,481.75c-1.189,0.615-2.382,1.222-3.581,1.819
		C378.456,482.971,379.65,482.363,380.839,481.75z"/>
	<path style="fill:#6A9093;" d="M393.149,474.987c-1.264,0.738-2.533,1.466-3.81,2.184
		C390.615,476.452,391.885,475.725,393.149,474.987z"/>
	<path style="fill:#6A9093;" d="M388.511,477.628c-1.042,0.582-2.086,1.161-3.137,1.728
		C386.425,478.788,387.469,478.21,388.511,477.628z"/>
	<path style="fill:#6A9093;" d="M351.628,464.886c0.07,0.141,0.14,0.282,0.208,0.423
		C351.767,465.168,351.697,465.027,351.628,464.886z"/>
	<path style="fill:#6A9093;" d="M384.659,479.736c-1.101,0.591-2.205,1.178-3.315,1.754
		C382.454,480.915,383.558,480.327,384.659,479.736z"/>
	<path style="fill:#6A9093;" d="M376.965,483.712c-1.278,0.635-2.561,1.26-3.85,1.875
		C374.403,484.972,375.687,484.347,376.965,483.712z"/>
	<path style="fill:#6A9093;" d="M373.035,485.625c-4.105,1.955-8.265,3.811-12.479,5.565
		C364.77,489.436,368.931,487.58,373.035,485.625z"/>
	<path style="fill:#6A9093;" d="M359.522,486.537c0.019,0.076,0.037,0.152,0.054,0.226
		C359.559,486.688,359.541,486.613,359.522,486.537z"/>
	<path style="fill:#6A9093;" d="M353.599,469.106c0.049,0.11,0.096,0.221,0.145,0.332
		C353.695,469.327,353.648,469.216,353.599,469.106z"/>
	<path style="fill:#6A9093;" d="M358.315,482.045c0.02,0.07,0.041,0.14,0.062,0.208
		C358.357,482.184,358.335,482.114,358.315,482.045z"/>
	<path style="fill:#6A9093;" d="M360.555,491.19L360.555,491.19c-0.294-1.488-0.622-2.962-0.978-4.426
		C359.933,488.228,360.261,489.703,360.555,491.19z"/>
	<path style="fill:#6A9093;" d="M334.163,439.545c0.854,0.92,1.694,1.855,2.516,2.806
		C335.856,441.399,335.017,440.466,334.163,439.545z"/>
	<path style="fill:#6A9093;" d="M331.799,437.067v0.027c0.643,0.651,1.29,1.298,1.916,1.966
		C333.085,438.388,332.447,437.722,331.799,437.067z"/>
	<path style="fill:#6A9093;" d="M339.883,446.241c0.798,1.016,1.576,2.049,2.338,3.095
		C341.46,448.29,340.681,447.257,339.883,446.241z"/>
	<path style="fill:#6A9093;" d="M353.743,469.437c1.778,4.076,3.309,8.284,4.572,12.607
		C357.051,477.722,355.521,473.514,353.743,469.437z"/>
	<path style="fill:#6A9093;" d="M345.186,453.624c1.548,2.359,3.006,4.782,4.365,7.268
		C348.191,458.408,346.733,455.983,345.186,453.624z"/>
	<path style="fill:#6A9093;" d="M349.71,461.178c0.663,1.221,1.302,2.458,1.917,3.707
		C351.011,463.637,350.374,462.399,349.71,461.178z"/>
	<path style="fill:#6A9093;" d="M336.921,442.628c0.861,1.004,1.7,2.029,2.524,3.065
		C338.621,444.656,337.783,443.632,336.921,442.628z"/>
	<path style="fill:#6A9093;" d="M342.647,449.927c0.766,1.067,1.515,2.147,2.242,3.244
		C344.162,452.074,343.414,450.994,342.647,449.927z"/>
	<path style="fill:#6A9093;" d="M358.377,482.253c0.411,1.416,0.792,2.844,1.145,4.284
		C359.169,485.098,358.788,483.67,358.377,482.253z"/>
	<path style="fill:#6A9093;" d="M351.837,465.309c0.611,1.252,1.2,2.518,1.762,3.797
		C353.036,467.827,352.448,466.561,351.837,465.309z"/>
</g>
<path style="fill:#AC3C33;" d="M383.308,448.78c-9.799-19.695-24.033-36.796-41.395-49.993c-2.762-2.099-5.603-4.099-8.518-5.995
	c-1.908-1.241-3.847-2.439-5.816-3.589c-21.669,10.387-45.943,16.206-71.577,16.206c-25.634,0-49.908-5.821-71.576-16.206
	c-1.97,1.15-3.908,2.347-5.816,3.589c-28.957,18.839-50.617,47.942-59.835,82.149c10.466,6.116,21.38,11.548,32.675,16.249
	c9.335,3.886,18.93,7.268,28.757,10.111C204.269,508.262,229.699,512,256.004,512s51.735-3.738,75.797-10.699
	c9.825-2.842,19.421-6.226,28.756-10.111l0,0l0,0c4.214-1.754,8.376-3.61,12.479-5.565c0.026-0.013,0.053-0.025,0.079-0.037
	c1.29-0.615,2.572-1.241,3.85-1.875c0.097-0.049,0.195-0.095,0.293-0.143c1.2-0.597,2.392-1.206,3.581-1.819
	c0.168-0.086,0.338-0.171,0.506-0.258c1.111-0.576,2.214-1.163,3.315-1.754c0.238-0.128,0.477-0.252,0.715-0.38
	c1.051-0.567,2.094-1.148,3.137-1.728c0.275-0.154,0.553-0.303,0.828-0.457c1.277-0.718,2.546-1.446,3.81-2.184
	c0.026-0.015,0.053-0.031,0.081-0.046C390.773,465.826,387.433,457.073,383.308,448.78z"/>
<g>
	<path style="fill:#8A352D;" d="M151.447,491.19c9.335,3.886,18.93,7.268,28.757,10.111v-64.234
		C165.81,451.626,155.582,470.311,151.447,491.19z"/>
	<path style="fill:#8A352D;" d="M383.308,448.78c-9.799-19.695-24.033-36.796-41.395-49.993c-2.762-2.099-5.603-4.099-8.518-5.995
		c-1.908-1.241-3.847-2.439-5.816-3.589H184.425c-1.97,1.15-3.908,2.347-5.816,3.589c17.457,23.802,45.613,39.265,77.393,39.265
		c15.618,0,30.359-3.738,43.389-10.361c4.657-2.366,10.241-1.96,14.619,0.888c0.09,0.058,0.18,0.117,0.27,0.176
		c10.929,7.156,17.519,19.337,17.519,32.4v46.141c9.825-2.842,19.421-6.226,28.756-10.111l0,0l0,0
		c4.214-1.754,8.376-3.61,12.479-5.565c0.026-0.013,0.053-0.025,0.079-0.037c1.29-0.615,2.572-1.241,3.85-1.875
		c0.097-0.049,0.195-0.095,0.293-0.143c1.2-0.597,2.392-1.206,3.581-1.819c0.168-0.086,0.338-0.171,0.506-0.258
		c1.111-0.576,2.214-1.163,3.315-1.754c0.238-0.128,0.477-0.252,0.715-0.38c1.051-0.567,2.094-1.148,3.137-1.728
		c0.275-0.154,0.553-0.303,0.828-0.457c1.277-0.718,2.546-1.446,3.81-2.184c0.026-0.015,0.053-0.031,0.081-0.046
		C390.773,465.826,387.433,457.073,383.308,448.78z"/>
</g>
<g>
	<path style="fill:#E1B872;" d="M439.573,186.308c-2.583,0-5.116,0.206-7.6,0.564c-5.87,0.843-11.436,2.626-16.527,5.216
		C399.488,131.721,354.972,76.541,298.7,57.319c-13.625-4.654-27.935-7.209-42.699-7.209c-62.83,0-117.494,46.099-145.621,104.616
		l4.704,107.38l53.875,118.637c25.299,15.638,55.113,24.667,87.04,24.667c75.147,0,138.608-49.998,158.959-118.539
		c7.364,3.843,15.732,6.027,24.613,6.027c29.434,0,53.295-23.861,53.295-53.295S469.008,186.308,439.573,186.308z"/>
</g>
<path style="fill:#ECCE93;" d="M386.103,229.305c-6.08-0.229-11.783-1.989-16.557-5.164c-1.136-0.752-2.209-1.583-3.176-2.457
	l-42.92-38.76c-13.835-12.494-32.485-20.742-53.93-23.854c-6.421-0.932-12.529-2.66-18.255-5.159
	c-5.726,2.499-11.834,4.227-18.255,5.159c-21.446,3.111-40.096,11.36-53.932,23.854l-42.931,38.768
	c-0.952,0.862-2.023,1.69-3.172,2.453c-0.051,0.034-0.103,0.068-0.154,0.102c-7.613,4.993-17.738-0.705-17.738-9.809v-55.009
	c0-2.598-2.106-4.704-4.704-4.704l0,0c-5.781,12.027-10.443,24.577-13.822,37.361c-8.282-4.214-17.803-6.344-27.883-5.649
	c-26.992,1.862-48.538,24.171-49.505,51.209c-1.085,30.326,23.176,55.25,53.26,55.25c8.881,0,17.249-2.185,24.613-6.027
	c11.705,39.421,37.671,72.703,71.918,93.872c17.554,4.483,35.02,6.902,51.51,6.902C309.541,387.645,382.196,317.411,386.103,229.305
	z"/>
<circle style="fill:#E1B872;" cx="72.435" cy="239.603" r="17.765"/>
<g>
	<circle style="fill:#D5A150;" cx="439.568" cy="239.603" r="17.765"/>
	<path style="fill:#D5A150;" d="M214.669,0c-4.251,0-8.513,0.428-12.668,1.271c-55.235,11.213-101.4,39.165-129.136,76.428
		c-20.575,27.642,16.007,98.835,31.153,125.505c4.351,7.663,16.675,10.927,23.866,6.146c0.406-0.27,0.775-0.551,1.094-0.84
		l42.931-38.769c16.296-14.717,38.284-24.622,63.286-28.25c7.76-1.126,14.816-3.806,20.806-7.667l61.585-57.065l-61.585-61.825
		C244.902,5.677,230.406,0,214.669,0z"/>
</g>
<path style="fill:#C98A2E;" d="M439.136,77.698C411.401,40.436,365.235,12.484,310,1.271C305.847,0.428,301.583,0,297.334,0
	c-15.736,0-30.233,5.677-41.332,14.932v118.89c5.99,3.861,13.047,6.542,20.806,7.667c25.003,3.628,46.988,13.533,63.286,28.25
	l42.931,38.769c0.321,0.289,0.688,0.57,1.094,0.84c7.19,4.781,19.514,1.517,23.866-6.146
	C423.13,176.533,459.713,105.341,439.136,77.698z"/>
<path style="fill:#AD712C;" d="M439.136,77.698c-17.488-23.496-42.309-43.283-72.106-57.513l36.189,52.382
	c12.254,17.738,15.302,40.26,8.181,60.61c-0.105,0.301-0.212,0.604-0.32,0.908c-0.394,1.111-0.798,2.222-1.21,3.329
	c-7.937,21.339-35.02,27.807-51.917,12.547l0,0c-20.393-18.415-47.129-30.463-77.318-34.843l-0.114-0.017
	c-6.348-0.917-12.8,0.73-17.932,4.579l-6.586,4.94l-6.603-4.952c-5.127-3.844-11.574-5.488-17.915-4.567l-0.115,0.017
	c-30.19,4.38-56.925,16.429-77.318,34.843l-16.778,15.151c-13.09,11.822-22.885,26.636-28.725,42.935
	c5.64,3.941,13.936,4.891,19.337,1.299c0.406-0.27,0.775-0.551,1.094-0.84l42.931-38.769c16.296-14.717,38.284-24.622,63.286-28.25
	c7.76-1.126,14.816-3.806,20.806-7.667c5.99,3.861,13.047,6.542,20.806,7.667c25.003,3.628,46.988,13.533,63.286,28.25
	l42.931,38.769c0.321,0.289,0.688,0.57,1.094,0.84c7.19,4.781,19.514,1.517,23.866-6.146
	C423.13,176.533,459.713,105.341,439.136,77.698z"/>
<g>
	<circle style="fill:#474641;" cx="196.791" cy="239.603" r="17.765"/>
	<circle style="fill:#474641;" cx="315.212" cy="239.603" r="17.765"/>
</g>
<g>
	<path style="fill:#AD712C;" d="M332.983,195.19h-35.53c-4.907,0-8.883,3.977-8.883,8.883c0,4.906,3.976,8.883,8.883,8.883h35.53
		c4.907,0,8.883-3.977,8.883-8.883C341.866,199.167,337.89,195.19,332.983,195.19z"/>
	<path style="fill:#AD712C;" d="M214.55,195.19h-35.53c-4.906,0-8.883,3.977-8.883,8.883c0,4.906,3.977,8.883,8.883,8.883h35.53
		c4.906,0,8.883-3.977,8.883-8.883C223.432,199.167,219.455,195.19,214.55,195.19z"/>
</g>
<path style="fill:#474641;" d="M273.767,248.485h-35.53c-4.906,0-8.883,3.977-8.883,8.883s3.977,8.883,8.883,8.883h35.53
	c4.907,0,8.883-3.977,8.883-8.883S278.673,248.485,273.767,248.485z"/>
<g>
</g>
<g>
</g>
<g>
</g>
<g>
</g>
<g>
</g>
<g>
</g>
<g>
</g>
<g>
</g>
<g>
</g>
<g>
</g>
<g>
</g>
<g>
</g>
<g>
</g>
<g>
</g>
<g>
</g>
</svg>
