<?xml version="1.0" encoding="iso-8859-1"?>
<!-- Generator: Adobe Illustrator 19.0.0, SVG Export Plug-In . SVG Version: 6.00 Build 0)  -->
<svg version="1.1" id="Layer_1" xmlns="http://www.w3.org/2000/svg" xmlns:xlink="http://www.w3.org/1999/xlink" x="0px" y="0px"
	 viewBox="0 0 512 512" style="enable-background:new 0 0 512 512;" xml:space="preserve">
<path style="fill:#B0A18D;" d="M166.832,383.963c-0.691,0.497-1.37,1.009-2.05,1.52c-6.917,5.198-13.251,11.132-18.866,17.7
	c-0.065,0.077-0.129,0.152-0.195,0.228c-10.63,12.495-16.249,28.493-16.249,44.898v2.433v30.912
	c7.671,3.265,15.526,6.176,23.54,8.733c3.885,1.241,7.808,2.393,11.768,3.46c0.001-0.001,0.001-0.001,0.002-0.002
	c1.246,0.335,2.498,0.66,3.751,0.978c21.39,5.438,43.788,8.347,66.87,8.347V361.929C209.818,361.93,186.141,370.098,166.832,383.963
	z"/>
<path style="fill:#978574;" d="M324.562,402.797L324.562,402.797c-5.332-6.251-11.332-11.901-17.9-16.836
	c-0.893-0.671-1.782-1.348-2.689-1.999c-19.309-13.865-42.986-22.033-68.57-22.033c-19.066,0-37.069,4.541-52.997,12.589
	c-5.446,2.752-10.653,5.91-15.573,9.442c-0.691,0.497-1.37,1.009-2.05,1.52c-6.642,4.991-12.736,10.666-18.184,16.923
	c17.749,5.171,36.84,8.686,55.263,10.635c4.052,0.428,8.072,0.783,12.037,1.062c12.13,0.855,21.504,10.996,21.504,23.157l0,0v65.913
	c24.434,0,48.104-3.257,70.621-9.325c0.001,0.001,0.001,0.001,0.002,0.002c3.959-1.068,7.882-2.221,11.768-3.46
	c8.014-2.558,15.87-5.468,23.54-8.733v-2.022v-28.857v-2.465C341.333,431.627,335.387,415.492,324.562,402.797z"/>
<path style="fill:#D5D2BD;" d="M265.522,431.38c-3.917-0.065-7.712,0.418-11.312,1.377c-6.17,1.643-12.489,2.465-18.807,2.465
	l-25.894,37.348l25.894,30.602c24.435,0,48.104-3.257,70.621-9.325v-2.445v-0.331v-17.324v-0.331
	C306.023,451.126,287.81,431.747,265.522,431.38z"/>
<path style="fill:#E7E4CD;" d="M216.595,432.757c-3.6-0.959-7.394-1.442-11.312-1.377c-22.288,0.367-40.501,19.746-40.501,42.037
	v0.331v17.324v0.331v2.445c22.516,6.069,46.187,9.325,70.621,9.325v-67.95C229.084,435.222,222.765,434.4,216.595,432.757z"/>
<path style="fill:#D5D2BD;" d="M341.333,452.645c2.573-1.241,5.126-2.526,7.655-3.858c-4.619-17.043-12.946-32.562-24.099-45.604
	c-3.264,5.648-6.143,11.548-8.612,17.655c-5.727,14.164-9.225,29.468-10.056,45.476c9.032-2.722,17.881-5.978,26.518-9.732
	C335.628,455.326,338.493,454.014,341.333,452.645z"/>
<path style="fill:#E7E4CD;" d="M164.57,466.309c-1.19-22.911-7.822-44.382-18.654-63.127c-11.152,13.042-19.48,28.56-24.099,45.604
	c2.529,1.332,5.082,2.618,7.655,3.858C140.794,458.103,152.52,462.677,164.57,466.309z"/>
<path style="fill:#5B5751;" d="M417.839,137.121c-51.92,0-94.161,42.241-94.161,94.161s42.241,94.161,94.161,94.161
	S512,283.203,512,231.282S469.759,137.121,417.839,137.121z"/>
<path style="fill:#978574;" d="M417.839,179.494c-8.637,0-16.782,2.081-23.985,5.746C377.066,121.744,328.49,64.018,267.91,48.335
	L100.263,359.175c1.098,0.712,2.202,1.419,3.34,2.094l0,0c80.91,47.963,182.69,47.963,263.6,0l0,0
	c28.57-16.936,44.684-45.803,46.141-76.047c1.483,0.125,2.979,0.204,4.495,0.204c29.252,0,52.966-23.713,52.966-52.966
	S447.091,179.494,417.839,179.494z"/>
<path style="fill:#B0A18D;" d="M357.171,221.944c-3.843-9.541-6.252-19.601-7.243-29.838
	c-5.405-55.819-37.042-111.607-82.017-143.771c-8.097-2.096-16.405-3.451-24.884-3.958c-2.528-0.151-5.068-0.239-7.625-0.239
	c-75.276,0-138.759,66.581-158.458,141.1c-7.201-3.664-15.345-5.744-23.979-5.744C23.713,179.494,0,203.207,0,232.459
	s23.713,52.966,52.966,52.966c1.518,0,3.017-0.079,4.502-0.204c1.405,29.033,16.319,56.797,42.794,73.954
	c71.245,24.914,151.35,17.771,217.506-21.446l0,0C358.88,313.356,374.226,264.279,357.171,221.944z"/>
<g>
	<path style="fill:#978574;" d="M150.657,264.827h-11.77c-4.876,0-8.828-3.952-8.828-8.828c0-4.875,3.951-8.828,8.828-8.828h11.77
		c4.876,0,8.828,3.952,8.828,8.828C159.485,260.875,155.534,264.827,150.657,264.827z"/>
	<path style="fill:#978574;" d="M331.917,264.827h-11.77c-4.876,0-8.828-3.952-8.828-8.828c0-4.875,3.951-8.828,8.828-8.828h11.77
		c4.876,0,8.828,3.952,8.828,8.828C340.745,260.875,336.794,264.827,331.917,264.827z"/>
	<circle style="fill:#978574;" cx="52.966" cy="232.459" r="17.655"/>
</g>
<circle style="fill:#827061;" cx="417.839" cy="232.459" r="17.655"/>
<g>
	<circle style="fill:#D5D2BD;" cx="52.966" cy="285.425" r="17.655"/>
	<circle style="fill:#D5D2BD;" cx="417.839" cy="285.425" r="17.655"/>
</g>
<path style="fill:#978574;" d="M353.301,142.953l-13.744-13.744c-57.318-57.318-150.204-57.462-207.7-0.321l-14.149,14.062
	l-40.769,42.297c6.215,3.165,11.729,7.508,16.232,12.749c2.328,2.709,6.253,3.515,9.301,1.651c0.051-0.031,0.101-0.061,0.151-0.093
	c14.461-8.95,27.91-19.568,39.976-31.559l14.149-14.061c43.584-43.318,114.391-43.209,157.842,0.242l13.744,13.744
	c12.008,12.008,25.408,22.64,39.829,31.602c0.06,0.038,0.12,0.074,0.181,0.112c3.043,1.864,6.962,1.07,9.288-1.636
	c4.501-5.239,10.012-9.582,16.224-12.746L353.301,142.953z"/>
<path style="fill:#5B5751;" d="M235.402,8.827c-100.757,0-182.437,76.41-182.437,170.667c8.633,0,16.777,2.079,23.979,5.744l0,0
	c5.209,2.642,11.421,2.38,16.388-0.694l0,0c13.34-8.257,25.694-18.009,36.822-29.069l14.149-14.062
	c50.594-50.283,132.333-50.157,182.771,0.281l13.744,13.744c11.067,11.067,23.37,20.828,36.665,29.09l0,0
	c4.96,3.083,11.17,3.352,16.378,0.71l0,0c7.202-3.664,15.345-5.744,23.979-5.744C417.839,85.237,336.159,8.827,235.402,8.827z"/>
<path style="fill:#706B63;" d="M80.098,164.653c1.854,2.341,3.596,4.209,4.834,4.84c3.43,1.74,7.64,0.711,9.821-2.456
	c1.829-2.657,3.905-5.152,6.209-7.441l30.895-30.705c27.746-27.576,64.57-42.763,103.689-42.763c5.415,0,10.785,0.291,16.093,0.865
	c36.848,3.988,72.656-13.419,91.66-45.118c-30.22-20.77-67.523-33.047-107.897-33.047c-78.614,0-145.61,46.517-171.262,111.73
	l3.536,17.143C69.7,147.517,73.876,156.794,80.098,164.653z"/>
<g>
	<circle style="fill:#5B5751;" cx="167.724" cy="79.448" r="8.828"/>
	<circle style="fill:#5B5751;" cx="131.237" cy="103.576" r="8.828"/>
	<circle style="fill:#5B5751;" cx="94.161" cy="137.71" r="8.828"/>
	<circle style="fill:#5B5751;" cx="131.237" cy="68.266" r="8.828"/>
	<circle style="fill:#5B5751;" cx="213.628" cy="32.956" r="8.828"/>
	<circle style="fill:#5B5751;" cx="260.708" cy="68.266" r="8.828"/>
	<circle style="fill:#5B5751;" cx="284.248" cy="44.726" r="8.828"/>
	<path style="fill:#5B5751;" d="M251.406,161.503c2.731,0,5.425,1.264,7.152,3.644c5.415,7.462,13.251,13.153,22.067,16.023
		c4.635,1.509,7.17,6.491,5.661,11.126c-1.509,4.637-6.496,7.17-11.127,5.661c-12.512-4.074-23.193-11.834-30.889-22.442
		c-2.864-3.947-1.986-9.466,1.961-12.329C247.795,162.05,249.609,161.503,251.406,161.503z"/>
	<path style="fill:#5B5751;" d="M219.396,161.501c1.797,0,3.611,0.547,5.178,1.684c3.947,2.864,4.823,8.384,1.96,12.329
		c-7.707,10.619-18.39,18.38-30.893,22.442c-4.632,1.507-9.616-1.03-11.123-5.667c-1.507-4.636,1.031-9.617,5.667-11.124
		c8.931-2.903,16.558-8.443,22.058-16.021C213.971,162.765,216.664,161.501,219.396,161.501z"/>
</g>
<g>
	<path style="fill:#474641;" d="M194.207,241.287c-4.876,0-8.828-3.952-8.828-8.828c0-4.868-3.959-8.828-8.828-8.828
		s-8.828,3.959-8.828,8.828c0,4.875-3.951,8.828-8.828,8.828c-4.876,0-8.828-3.952-8.828-8.828
		c0-14.603,11.881-26.483,26.483-26.483c14.602,0,26.483,11.88,26.483,26.483C203.034,237.334,199.083,241.287,194.207,241.287z"/>
	<path style="fill:#474641;" d="M311.908,241.287c-4.876,0-8.828-3.952-8.828-8.828c0-4.868-3.959-8.828-8.828-8.828
		c-4.868,0-8.828,3.959-8.828,8.828c0,4.875-3.951,8.828-8.828,8.828c-4.876,0-8.828-3.952-8.828-8.828
		c0-14.603,11.881-26.483,26.483-26.483s26.483,11.88,26.483,26.483C320.736,237.334,316.784,241.287,311.908,241.287z"/>
</g>
<path style="fill:#BD7155;" d="M235.402,283.534c-7.074,0-13.724-2.755-18.726-7.757c-3.447-3.447-3.447-9.037,0.001-12.485
	c3.447-3.446,9.037-3.446,12.483,0c1.667,1.668,3.884,2.586,6.242,2.586s4.575-0.918,6.242-2.586c3.449-3.447,9.038-3.447,12.483,0
	c3.449,3.447,3.449,9.037,0.001,12.485C249.126,280.779,242.476,283.534,235.402,283.534z"/>
<g>
</g>
<g>
</g>
<g>
</g>
<g>
</g>
<g>
</g>
<g>
</g>
<g>
</g>
<g>
</g>
<g>
</g>
<g>
</g>
<g>
</g>
<g>
</g>
<g>
</g>
<g>
</g>
<g>
</g>
</svg>
