<?xml version="1.0" encoding="iso-8859-1"?>
<!-- Generator: Adobe Illustrator 19.0.0, SVG Export Plug-In . SVG Version: 6.00 Build 0)  -->
<svg version="1.1" id="Layer_1" xmlns="http://www.w3.org/2000/svg" xmlns:xlink="http://www.w3.org/1999/xlink" x="0px" y="0px"
	 viewBox="0 0 512 512" style="enable-background:new 0 0 512 512;" xml:space="preserve">
<path style="fill:#D8D5C0;" d="M182.326,385.604c-32.8,19.16-57.462,50.721-67.575,88.251
	c40.169,23.474,86.694,37.255,136.374,38.104L256,512l58.514-60.952l-63.39-65.443H182.326z"/>
<path style="fill:#B3B19E;" d="M329.675,385.604H256V512c51.511,0,99.769-13.904,141.25-38.145
	C387.137,436.325,362.474,404.764,329.675,385.604z"/>
<path style="fill:#A3A191;" d="M334.019,500.987c10.113-2.926,19.991-6.409,29.6-10.407c-4.254-21.489-14.782-40.724-29.6-55.709
	V500.987z"/>
<path style="fill:#B2B09E;" d="M148.382,490.58c9.609,4,19.485,7.481,29.6,10.407V434.87
	C163.165,449.857,152.637,469.09,148.382,490.58z"/>
<path style="fill:#A3A191;" d="M305.063,429.677l-4.364-4.364L256,379.124l-15.848,59.733L256,499.81l49.063-49.063
	C310.882,444.928,310.882,435.495,305.063,429.677z"/>
<path style="fill:#B2B09E;" d="M211.301,425.312c-1.075,1.107-4.364,4.364-4.364,4.364c-5.819,5.819-5.819,15.253,0,21.071
	L256,499.81V379.124C256,379.124,222.65,413.625,211.301,425.312z"/>
<path style="fill:#AB5034;" d="M256,402.286l-23.79-23.79c-9.216-9.216-24.972-2.689-24.972,10.344v26.891
	c0,13.033,15.757,19.56,24.972,10.344L256,402.286z"/>
<path style="fill:#6F3D28;" d="M256,402.286l23.79-23.79c9.216-9.216,24.972-2.689,24.972,10.344v26.891
	c0,13.033-15.757,19.56-24.972,10.344L256,402.286z"/>
<circle style="fill:#8D472E;" cx="256" cy="402.286" r="18.286"/>
<path style="fill:#DAC69C;" d="M499.773,229.606c-0.995-27.831-23.173-50.795-50.956-52.712c-10.375-0.716-20.175,1.477-28.7,5.815
	c-8.9-33.669-26.433-65.772-49.842-91.27C340.022,58.49,299.953,36.571,256,36.571c-47.901,0-91.187,26.036-122.183,64.012
	c-13.405,16.423-24.508,35.077-32.691,54.829v27.905l0.007-0.005L96.39,320.858c4.57,18.629,10.592,34.434,18.139,41.734
	c27.799,26.89,94.13,39.693,141.768,39.693s113.374-12.804,141.173-39.693c12.542-12.131,20.879-47.734,25.324-80.791
	c6.778,2.998,14.27,4.675,22.157,4.675C475.918,286.476,500.89,260.821,499.773,229.606z"/>
<path style="fill:#E6D8B3;" d="M382.158,213.483c-10.302,0-20.621-1.969-30.53-5.918c-21.137-8.427-46.989-24.766-70.232-41.676
	c-13.051-9.495-25.283-19.17-35.385-27.726c-10.715-9.075-30.554-16.01-50.721-11.048c-24.255,5.968-44.633,27.743-58.931,62.969
	c-3.797,9.357-14.46,13.864-23.82,10.067c-7.068-2.87-11.363-9.656-11.405-16.839l-0.007,0.005v-27.905
	c-3.692,8.912-6.797,18.046-9.244,27.298c-7.458-3.795-15.893-5.948-24.834-5.948c-30.297,0-54.857,24.56-54.857,54.857
	s24.56,54.857,54.857,54.857c7.887,0,15.38-1.677,22.157-4.675c1.77,13.164,4.161,26.728,7.185,39.056
	c32.644,17.94,84.259,26.572,123.336,26.572c47.638,0,113.374-12.804,141.173-39.693c14.301-13.833,23.136-58.185,26.969-94.48
	C385.967,213.391,384.064,213.483,382.158,213.483z"/>
<circle style="fill:#C9AD80;" cx="444.953" cy="231.619" r="18.286"/>
<g>
	<circle style="fill:#DAC69C;" cx="67.048" cy="231.619" r="18.286"/>
	<path style="fill:#DAC69C;" d="M195.048,268.19c-5.051,0-9.143-4.094-9.143-9.143c0-5.049,4.092-9.143,9.143-9.143
		c10.083,0,18.286-8.203,18.286-18.286c0-5.049,4.092-9.143,9.143-9.143s9.143,4.094,9.143,9.143
		C231.619,251.785,215.213,268.19,195.048,268.19z"/>
	<path style="fill:#DAC69C;" d="M316.953,268.19c-20.165,0-36.571-16.406-36.571-36.571c0-5.049,4.092-9.143,9.143-9.143
		c5.051,0,9.143,4.094,9.143,9.143c0,10.083,8.203,18.286,18.286,18.286c5.051,0,9.143,4.094,9.143,9.143
		C326.096,264.097,322.003,268.19,316.953,268.19z"/>
</g>
<path style="fill:#A4A49E;" d="M69.642,147.412c3.541-19.811,10.606-38.505,20.568-55.501C122.311,37.138,184.517,0,256,0
	c14.473,0,28.564,1.523,42.102,4.404l13.261,5.603c17.702,7.48,33.791,18.313,47.381,31.901l18.979,18.979
	c22.454,22.454,22.454,58.858,0,81.312l0,0c-18.999,18.999-48.622,22.306-71.344,7.966l-49.168-31.032
	c-27.37-17.274-61.617-19.543-91.026-6.028l0,0c-18.482,8.493-33.808,22.608-43.789,40.331l0,0
	c-7.301,12.963-24.454,16.344-36.128,7.117L69.642,147.412z"/>
<g>
	<path style="fill:#91928F;" d="M298.107,4.412c0.215,0.1,27.63,12.827,51.477,39.523c14.913,16.695,14.164,42.147-1.665,57.977l0,0
		c-20.531,20.531-53.118,22.613-76.095,4.864l0,0c-18.133-15.375-50.525-28.603-87.047-19.617
		c-24.398,6-57.629,24.105-81.926,75.487c-0.981-0.511-1.972-1-2.961-1.46c-0.834-0.389-1.677-0.764-2.531-1.126
		c-4.601-1.952-15.555-6.912-27.738-12.483c-2.454,14.175,5.553,27.902,18.814,33.526c0.597,0.254,1.19,0.517,1.776,0.791
		c1.246,0.581,2.466,1.209,3.658,1.879c0.054,0.029,0.106,0.061,0.158,0.091c1.178,0.666,2.331,1.369,3.452,2.117
		c0.012,0.009,0.024,0.015,0.037,0.022c2.462,1.637,5.152,2.937,8.03,3.613c5.553,1.306,10.524,0.299,13.243-6.406
		c38.439-94.816,109.581-83.308,138.253-58.999c23.3,19.753,67.458,53.148,100.319,66.264c7.314,2.914,15.284,4.532,23.637,4.532
		c8.218,0,15.698-1.23,22.415-3.496c27.697-9.342,42.202-39.921,32.923-67.64C416.41,64.36,363.763,18.392,298.107,4.412z"/>
	<path style="fill:#91928F;" d="M312.061,188.62c-6.652,0-13.3-1.051-19.761-3.155c-4.801-1.563-7.426-6.723-5.864-11.524
		c1.564-4.803,6.724-7.428,11.525-5.864c9.22,3.003,18.984,3,28.236-0.005c4.796-1.56,9.961,1.067,11.52,5.87
		c1.56,4.802-1.068,9.96-5.87,11.52C325.373,187.568,318.714,188.62,312.061,188.62z"/>
	<path style="fill:#91928F;" d="M190.156,188.62c-6.652,0-13.3-1.051-19.761-3.155c-4.801-1.563-7.426-6.723-5.864-11.524
		c1.564-4.803,6.73-7.428,11.525-5.864c9.22,3.003,18.984,3,28.236-0.005c4.797-1.56,9.961,1.067,11.52,5.87
		c1.56,4.802-1.068,9.96-5.87,11.52C203.468,187.568,196.809,188.62,190.156,188.62z"/>
	<path style="fill:#91928F;" d="M264.534,246.552c-3.957,0-7.316,2.517-8.589,6.034c-1.353-3.357-4.636-5.73-8.477-5.73
		c-20.165,0-36.571,16.406-36.571,36.571c0,5.049,4.092,9.143,9.143,9.143c17.961,0,32.93-13.019,35.989-30.115
		c3.182,16.946,18.08,29.811,35.935,29.811c5.051,0,9.143-4.094,9.143-9.143C301.105,262.958,284.699,246.552,264.534,246.552z"/>
</g>
<g>
	<circle style="fill:#474641;" cx="195.048" cy="231.619" r="18.286"/>
	<circle style="fill:#474641;" cx="316.953" cy="231.619" r="18.286"/>
</g>
<g>
</g>
<g>
</g>
<g>
</g>
<g>
</g>
<g>
</g>
<g>
</g>
<g>
</g>
<g>
</g>
<g>
</g>
<g>
</g>
<g>
</g>
<g>
</g>
<g>
</g>
<g>
</g>
<g>
</g>
</svg>
