<?xml version="1.0" encoding="iso-8859-1"?>
<!-- Generator: Adobe Illustrator 19.0.0, SVG Export Plug-In . SVG Version: 6.00 Build 0)  -->
<svg version="1.1" id="Layer_1" xmlns="http://www.w3.org/2000/svg" xmlns:xlink="http://www.w3.org/1999/xlink" x="0px" y="0px"
	 viewBox="0 0 512 512" style="enable-background:new 0 0 512 512;" xml:space="preserve">
<path style="fill:#C98A2E;" d="M59.303,228.189v62.547l0,0c0.001,0.667-0.009,1.327,0,1.992c0.01,0.603-0.017,1.208,0,1.81
	c1.366,56.065,31.592,104.955,76.392,132.387h0.228c24.297,14.883,52.857,23.415,83.413,23.384h37.455l197.241-222.12
	L59.303,228.189L59.303,228.189z"/>
<path style="fill:#AD712C;" d="M256.572,228.189l0.218,222.12h37.455c30.556-0.03,59.1-8.692,83.367-23.622h0.228
	c44.745-27.52,74.935-76.471,76.191-132.538c0.016-0.602-0.009-1.207,0-1.81c0.007-0.665,0.001-1.326,0-1.992l0,0v-62.158H256.572z"
	/>
<path style="fill:#E1B872;" d="M349.456,406.788L349.456,406.788c-5.589-6.552-11.878-12.474-18.763-17.647
	c-0.936-0.703-1.868-1.413-2.819-2.095c-20.239-14.533-45.057-23.094-71.875-23.094l-49.349,74.024L256,512
	c25.611,0,50.423-3.414,74.024-9.775c0.001,0.001,0.001,0.001,0.003,0.003c4.15-1.119,8.262-2.328,12.335-3.627
	c8.401-2.681,16.634-5.732,24.675-9.154v-2.121v-30.247v-2.583C367.036,437.007,360.803,420.094,349.456,406.788z"/>
<path style="fill:#ECCE93;" d="M184.125,387.046c-0.724,0.521-1.436,1.057-2.149,1.593c-7.251,5.448-13.889,11.669-19.776,18.553
	c-0.068,0.08-0.136,0.159-0.205,0.239c-11.142,13.099-17.032,29.866-17.032,47.063v2.55v32.402
	c8.04,3.422,16.274,6.473,24.675,9.154c4.073,1.3,8.185,2.508,12.335,3.627c0.001-0.001,0.001-0.001,0.002-0.003
	c1.307,0.352,2.618,0.692,3.932,1.025c22.419,5.7,45.899,8.75,70.092,8.75V363.951C229.182,363.951,204.364,372.512,184.125,387.046
	z"/>
<polygon style="fill:#959BC9;" points="256,374.143 192.013,452.916 256,488.459 319.986,452.916 "/>
<g>
	<path style="fill:#797DAF;" d="M287.571,436.748c-4.106-0.068-8.083,0.438-11.857,1.443c-6.467,1.722-13.091,2.583-19.714,2.583
		l-27.142,39.148L256,512c25.612,0,50.423-3.414,74.024-9.775v-2.562v-0.347v-18.159v-0.347
		C330.024,457.445,310.933,437.133,287.571,436.748z"/>
	<path style="fill:#797DAF;" d="M236.286,438.191c-3.774-1.006-7.75-1.511-11.857-1.444c-12.965,0.213-24.614,6.565-32.416,16.168
		c-6.256,7.702-10.038,17.496-10.038,27.894v0.347v18.159v0.347v2.562c23.601,6.361,48.413,9.775,74.024,9.775v-71.225
		C249.377,440.775,242.753,439.914,236.286,438.191z"/>
</g>
<path style="fill:#E1B872;" d="M447.229,172.722c-9.053,0-17.592,2.181-25.142,6.024c-19.947-75.455-82.718-143.143-158.094-147.652
	l-56.689,357.518c14.842,8.048,31.564,12.351,48.697,12.351c25.083,0,49.291-9.212,68.001-25.918
	c28.14-25.128,68.645-64.832,90.098-102.253c9.248,6.888,20.712,10.967,33.129,10.967c30.662,0,55.518-24.856,55.518-55.518
	S477.891,172.722,447.229,172.722z"/>
<path style="fill:#ECCE93;" d="M263.992,31.093c-2.65-0.158-5.312-0.25-7.992-0.25c-78.904,0-145.446,69.79-166.094,147.9
	c-7.549-3.842-16.085-6.021-25.135-6.021c-30.662,0-55.518,24.856-55.518,55.518s24.856,55.518,55.518,55.518
	c12.418,0,23.881-4.079,33.129-10.967c21.453,37.422,61.958,77.126,90.098,102.253c5.931,5.295,12.416,9.832,19.303,13.566
	c24.85-0.159,48.803-9.342,67.35-25.904c39.919-35.644,104.722-100.621,104.722-146.805
	C379.373,140.613,331.196,61.219,263.992,31.093z"/>
<path style="fill:#E1B872;" d="M311.518,209.734c-56.321,0-104.585-40.294-114.76-95.811c-1.725-9.415-10.347-15.955-19.878-15.094
	c-9.533,0.866-16.832,8.859-16.832,18.43c0,50.69-30.303,80.359-43.522,90.893c2.421,6.232,3.763,13.001,3.763,20.088l0,0
	c5.421,8.843,17.535,10.666,25.267,3.751c11.765-10.521,27.67-28.014,38.679-52.872c27.881,41.223,74.938,67.627,127.283,67.627
	h83.365v-37.012H311.518z"/>
<circle style="fill:#D5A150;" cx="447.229" cy="228.24" r="18.506"/>
<circle style="fill:#E1B872;" cx="64.771" cy="228.24" r="18.506"/>
<g>
	<circle style="fill:#474641;" cx="194.313" cy="228.24" r="18.506"/>
	<circle style="fill:#474641;" cx="317.687" cy="228.24" r="18.506"/>
</g>
<path style="fill:#AD712C;" d="M177.16,184.714c-3.901,0-7.528-2.486-8.798-6.397c-1.579-4.86,1.081-10.08,5.94-11.659
	c13.107-4.259,26.947-4.259,40.024-0.001c4.86,1.582,7.516,6.804,5.934,11.663c-1.58,4.86-6.802,7.518-11.663,5.934
	c-9.333-3.039-19.214-3.036-28.577,0.005C179.071,184.568,178.108,184.714,177.16,184.714z"/>
<path style="fill:#AB5034;" d="M256,281.777c-7.415,0-14.385-2.888-19.629-8.13c-3.614-3.614-3.614-9.473,0.001-13.086
	c3.614-3.612,9.473-3.612,13.085,0c1.747,1.748,4.071,2.711,6.542,2.711c2.471,0,4.796-0.962,6.542-2.711
	c3.615-3.614,9.474-3.614,13.085,0c3.615,3.614,3.615,9.473,0.001,13.086C270.385,278.889,263.415,281.777,256,281.777z"/>
<g>
	<path style="fill:#E1B872;" d="M167.171,262.168h-12.337c-5.111,0-9.253-4.143-9.253-9.253c0-5.11,4.142-9.253,9.253-9.253h12.337
		c5.111,0,9.253,4.143,9.253,9.253C176.424,258.025,172.282,262.168,167.171,262.168z"/>
	<path style="fill:#E1B872;" d="M357.166,262.168h-12.337c-5.111,0-9.253-4.143-9.253-9.253c0-5.11,4.142-9.253,9.253-9.253h12.337
		c5.111,0,9.253,4.143,9.253,9.253C366.419,258.025,362.277,262.168,357.166,262.168z"/>
</g>
<path style="fill:#C98A2E;" d="M130.609,75.495l-0.788-0.542c-31.891,8.345-48.641,27.838-57.334,47.853
	c-5.242,12.107-7.716,25.219-7.716,38.391v11.524c26.504,0,48.671,18.573,54.194,43.414c1.212,5.451,7.792,7.627,12.033,3.995
	c16.826-14.413,47.557-48.216,47.557-102.87l-2.512-27.646C176.043,89.616,143.977,84.692,130.609,75.495z"/>
<path style="fill:#AD712C;" d="M361.282,22.891C311.006,1.458,214.49-18.339,139.38,29.562
	c-33.026,21.057-9.558,45.392-9.558,45.392l0.788,0.542c5.036,3.464,12.726,6.323,20.355,8.54
	c15.158,4.404,26.161,17.504,27.589,33.224l0,0c11.582,63.197,66.421,110.981,132.963,110.981h6.053
	c33.963,0,66.149-14.237,89.783-38.629c0.098-0.101,0.196-0.201,0.295-0.302c10.071-10.238,24.085-16.586,39.581-16.586v-25.691
	C447.229,143.173,446.619,59.282,361.282,22.891z"/>
<path style="opacity:0.5;fill:#C98A2E;enable-background:new    ;" d="M176.83,11.493c-0.461,0.16-0.922,0.322-1.382,0.487v4.805
	c0,14.493,7.552,27.441,19.175,34.785c10.261,6.483,16.72,17.567,17.819,29.654l2.809,30.883
	c6.336,31.795,27.56,57.477,55.567,70.278c19.045,8.706,40.698-5.438,40.698-26.38v-48.457
	C311.518,37.776,242.727-11.436,176.83,11.493z"/>
<g>
</g>
<g>
</g>
<g>
</g>
<g>
</g>
<g>
</g>
<g>
</g>
<g>
</g>
<g>
</g>
<g>
</g>
<g>
</g>
<g>
</g>
<g>
</g>
<g>
</g>
<g>
</g>
<g>
</g>
</svg>
