<?xml version="1.0" encoding="iso-8859-1"?>
<!-- Generator: Adobe Illustrator 19.0.0, SVG Export Plug-In . SVG Version: 6.00 Build 0)  -->
<svg version="1.1" id="Layer_1" xmlns="http://www.w3.org/2000/svg" xmlns:xlink="http://www.w3.org/1999/xlink" x="0px" y="0px"
	 viewBox="0 0 512 512" style="enable-background:new 0 0 512 512;" xml:space="preserve">
<path style="fill:#964758;" d="M384.344,357.322L384.344,357.322c-84.776,16.409-171.913,16.409-256.69,0l0,0
	c-35.714-6.913-61.511-38.182-61.511-74.56V174.954h379.713v107.808C445.856,319.14,420.059,350.409,384.344,357.322z"/>
<path style="fill:#E1B872;" d="M445.856,175.158c-8.984,0-17.459,2.163-24.954,5.977c-8.943-33.83-26.559-66.087-50.082-91.707
	L95.626,319.943c4.592,18.719,10.643,34.599,18.226,41.934c27.932,27.018,94.58,39.883,142.446,39.883
	s113.916-12.865,141.848-39.883c12.602-12.189,20.979-47.963,25.446-81.178c6.81,3.012,14.338,4.697,22.263,4.697
	c30.442,0,55.12-24.678,55.12-55.12S476.298,175.158,445.856,175.158z"/>
<path style="fill:#ECCE93;" d="M95.626,319.943c32.8,18.024,84.664,26.697,123.926,26.697c47.866,0,113.916-12.865,141.848-39.883
	c19.972-19.318,29.336-97.881,29.336-131.6c0-28.995-7.212-58.598-19.915-85.729C340.423,56.32,300.163,34.296,256,34.296
	c-78.337,0-144.402,69.289-164.902,146.839c-7.495-3.814-15.97-5.977-24.954-5.977c-30.442,0-55.12,24.678-55.12,55.12
	s24.678,55.12,55.12,55.12c7.925,0,15.453-1.685,22.263-4.697C90.187,293.927,92.587,307.555,95.626,319.943z"/>
<path style="fill:#E1B872;" d="M421.204,190.306c-2.308-8.61-8.285-15.691-16.399-19.425c-8.183-3.766-17.533-3.697-25.67,0.196
	l-1.12,0.533c-22.532,10.658-48.591,9.04-69.71-4.334c-21.248-13.455-33.933-36.487-33.933-61.61
	c0-10.147-8.226-18.373-18.373-18.373s-18.373,8.226-18.373,18.373c0,25.124-12.685,48.155-33.933,61.61
	c-21.119,13.371-47.179,14.991-69.729,4.325l-1.112-0.529c-8.127-3.887-17.479-3.958-25.659-0.191
	c-5.572,2.565-10.135,6.707-13.196,11.84c10.838,6.362,19.308,16.313,23.772,28.23c1.857-1.078,3.525-2.479,4.914-4.151
	c32.936,13.86,70.221,10.802,100.668-8.477c13.243-8.386,24.271-19.244,32.648-31.777c8.377,12.533,19.406,23.393,32.648,31.777
	c17.871,11.317,38.095,17.044,58.412,17.044c14.303,0,28.652-2.839,42.255-8.566c4.443,5.347,11.74,7.93,18.897,6.009
	C418.015,210.182,423.831,200.107,421.204,190.306z"/>
<circle style="fill:#D5A150;" cx="445.856" cy="230.277" r="18.373"/>
<circle style="fill:#E1B872;" cx="66.143" cy="230.277" r="18.373"/>
<g>
	<circle style="fill:#5B5751;" cx="194.756" cy="230.277" r="18.373"/>
	<circle style="fill:#5B5751;" cx="317.244" cy="230.277" r="18.373"/>
</g>
<path style="fill:#BD7155;" d="M274.373,239.464h-36.746c-5.073,0-9.187,4.113-9.187,9.187c0,5.073,4.113,9.187,9.187,9.187h36.746
	c5.075,0,9.187-4.113,9.187-9.187C283.56,243.577,279.448,239.464,274.373,239.464z"/>
<path style="fill:#964758;" d="M296.071,0.671C275.354-3.508,256,12.366,256,33.575c0-21.208-19.354-37.083-40.071-32.904
	c-85.612,17.27-149.786,88.74-149.786,174.283c0,0.064,0,0.138,0,0.203c8.984,0,17.459,2.163,24.954,5.977
	c6.727,3.422,12.663,8.175,17.445,13.927l0,0c1.894-7.066,9.805-10.562,16.383-7.415c0.399,0.191,0.8,0.382,1.202,0.571
	C186.487,216.767,256,172.437,256,105.665c0,66.772,69.513,111.102,129.874,82.552c0.401-0.19,0.801-0.38,1.202-0.571
	c6.578-3.147,14.488,0.349,16.383,7.415l0,0c4.782-5.752,10.718-10.503,17.445-13.927c7.494-3.813,15.969-5.977,24.954-5.977
	c0-0.065,0-0.14,0-0.203C445.856,89.411,381.682,17.941,296.071,0.671z"/>
<g>
	<path style="opacity:0.7;fill:#B35F6D;enable-background:new    ;" d="M137.914,163.306c19.75,9.882,42.148,8.061,60.864-3.791
		c18.573-11.761,29.662-31.891,29.662-53.848V0.531c-4.007-0.72-8.229-0.725-12.511,0.138
		C151.502,13.667,99.22,57.362,77.289,114.648c1.933,2.768,4.008,5.736,6.151,8.796C95.771,141.04,122.822,155.754,137.914,163.306z
		"/>
	<path style="opacity:0.3;fill:#B35F6D;enable-background:new    ;" d="M374.086,163.306c-19.75,9.882-42.148,8.061-60.864-3.791
		c-18.573-11.761-29.662-31.891-29.662-53.848V0.531c4.007-0.72,8.229-0.725,12.511,0.138
		c64.427,12.997,116.709,56.692,138.641,113.979c-1.933,2.768-4.008,5.736-6.151,8.796
		C416.229,141.04,389.177,155.754,374.086,163.306z"/>
</g>
<path style="fill:#ECCE93;" d="M184.641,387.943c-0.719,0.517-1.426,1.05-2.134,1.581c-7.199,5.409-13.79,11.585-19.634,18.42
	c-0.067,0.08-0.135,0.158-0.203,0.238c-11.062,13.003-16.909,29.652-16.909,46.726v2.532v32.169
	c7.983,3.398,16.157,6.427,24.498,9.089c4.043,1.291,8.126,2.49,12.246,3.601c0.001-0.001,0.001-0.001,0.002-0.002
	c1.297,0.349,2.599,0.687,3.904,1.018C208.669,508.972,231.98,512,256,512V365.014C229.375,365.014,204.735,373.513,184.641,387.943
	z"/>
<path style="fill:#E1B872;" d="M348.786,407.543L348.786,407.543c-5.549-6.505-11.793-12.385-18.628-17.521
	c-0.93-0.698-1.854-1.402-2.799-2.08c-20.094-14.429-44.734-22.929-71.359-22.929c-19.842,0-38.576,4.726-55.153,13.101
	c-5.668,2.864-11.086,6.15-16.206,9.826c-0.719,0.517-1.426,1.05-2.134,1.581c-6.912,5.193-13.254,11.1-18.923,17.611
	c18.471,5.381,38.339,9.04,57.511,11.068c4.217,0.446,8.4,0.815,12.527,1.105c12.624,0.89,22.379,11.444,22.379,24.099l0,0V512
	c25.427,0,50.061-3.389,73.493-9.705c0.001,0.001,0.001,0.001,0.002,0.002c4.121-1.111,8.203-2.311,12.246-3.601
	c8.34-2.662,16.515-5.691,24.498-9.089v-2.106v-30.03v-2.565C366.239,437.545,360.051,420.753,348.786,407.543z"/>
<path style="fill:#964758;" d="M287.345,437.288c-4.076-0.067-8.025,0.435-11.772,1.433c-6.421,1.71-12.997,2.565-19.572,2.565
	l-26.947,38.867L256,512c25.429,0,50.061-3.389,73.493-9.705v-2.544v-0.344v-18.029v-0.344
	C329.493,457.837,310.539,437.67,287.345,437.288z"/>
<path style="fill:#B35F6D;" d="M236.427,438.721c-3.747-0.998-7.695-1.5-11.772-1.433c-23.194,0.382-42.148,20.549-42.148,43.747
	v0.343v18.029v0.344v2.544C205.939,508.61,230.573,512,256,512v-70.714C249.425,441.286,242.848,440.431,236.427,438.721z"/>
<g>
	<path style="fill:#964758;" d="M239.345,207.073c-2.842,0-5.645-1.316-7.442-3.792c-5.636-7.766-13.79-13.688-22.964-16.674
		c-4.824-1.57-7.462-6.755-5.892-11.579c1.57-4.826,6.76-7.462,11.58-5.892c13.02,4.239,24.136,12.315,32.146,23.355
		c2.98,4.107,2.066,9.85-2.041,12.831C243.103,206.503,241.216,207.073,239.345,207.073z"/>
	<path style="fill:#964758;" d="M272.657,207.076c-1.87,0-3.758-0.57-5.388-1.753c-4.107-2.98-5.02-8.725-2.039-12.831
		c8.021-11.051,19.138-19.128,32.149-23.355c4.82-1.568,10.007,1.072,11.575,5.898c1.568,4.825-1.073,10.009-5.898,11.576
		c-9.294,3.021-17.232,8.786-22.955,16.673C278.302,205.76,275.5,207.076,272.657,207.076z"/>
</g>
<g>
</g>
<g>
</g>
<g>
</g>
<g>
</g>
<g>
</g>
<g>
</g>
<g>
</g>
<g>
</g>
<g>
</g>
<g>
</g>
<g>
</g>
<g>
</g>
<g>
</g>
<g>
</g>
<g>
</g>
</svg>
