<?xml version="1.0" encoding="iso-8859-1"?>
<!-- Generator: Adobe Illustrator 19.0.0, SVG Export Plug-In . SVG Version: 6.00 Build 0)  -->
<svg version="1.1" id="Layer_1" xmlns="http://www.w3.org/2000/svg" xmlns:xlink="http://www.w3.org/1999/xlink" x="0px" y="0px"
	 viewBox="0 0 512 512" style="enable-background:new 0 0 512 512;" xml:space="preserve">
<path style="fill:#EAE9A8;" d="M178.834,365.372c-34.354,20.068-60.185,53.125-70.778,92.433
	c43.446,25.39,93.992,39.953,147.944,39.953l63.841-68.948L256,365.372H178.834z"/>
<path style="fill:#DEDE8E;" d="M403.944,457.805c-9.927-36.84-33.241-68.189-64.409-88.5l0,0c-0.001,0-0.001-0.001-0.003-0.001
	c-2.088-1.36-4.21-2.671-6.366-3.931H256h-77.166c-1.873,1.094-3.714,2.234-5.535,3.404c-0.277,0.177-0.558,0.349-0.834,0.529l0,0
	c-11.279,7.351-21.525,16.153-30.484,26.133c11.817,9.383,24.392,17.422,37.528,23.811c24.371,11.855,49.816,17.92,75.647,18.049
	c0.535,2.587,0.845,5.245,0.845,7.957v52.503C309.953,497.758,360.498,483.195,403.944,457.805z"/>
<g>
	<path style="fill:#D1D274;" d="M143.318,475.337c10.052,4.183,20.386,7.824,30.967,10.886v-69.049
		C158.807,432.828,147.798,452.905,143.318,475.337z"/>
	<path style="fill:#D1D274;" d="M337.716,417.174v69.049c10.581-3.061,20.914-6.703,30.967-10.886
		C364.203,452.905,353.193,432.828,337.716,417.174z"/>
</g>
<polygon style="fill:#5B5751;" points="269.534,422.126 284.983,496.341 255.996,512 243.228,465.082 255.996,422.126 "/>
<polygon style="fill:#706B63;" points="242.458,422.126 227.01,496.341 255.996,512 255.996,422.126 "/>
<g>
	<path style="fill:#D1D274;" d="M256,408.583l-51.073-51.073v77.485c0,9.1,11.002,13.658,17.438,7.223L256,408.583z"/>
	<path style="fill:#D1D274;" d="M256,408.583l51.073-51.073v77.485c0,9.1-11.002,13.658-17.438,7.223L256,408.583z"/>
</g>
<circle style="fill:#5B5751;" cx="256.003" cy="408.583" r="19.152"/>
<path style="fill:#8D663D;" d="M453.907,146.834c-9.367,0-18.201,2.256-26.015,6.232C408.8,80.846,351.791,15.504,281.619,2.399
	l-89.543,391.016c19.851,9.657,41.398,15.167,63.924,15.167c81.659,0,150.526-72.227,171.895-153.065
	c7.812,3.975,16.646,6.231,26.013,6.231c31.733,0,57.457-25.724,57.457-57.457S485.64,146.834,453.907,146.834z"/>
<path style="fill:#A57D48;" d="M281.619,2.399C273.251,0.836,264.7,0,256,0C174.342,0,105.474,72.227,84.105,153.065
	c-7.812-3.975-16.646-6.231-26.013-6.231c-31.733,0-57.457,25.724-57.457,57.457s25.724,57.457,57.457,57.457
	c9.372,0,18.21-2.257,26.025-6.237c15.475,58.536,55.846,112.554,107.958,137.904c8.368,1.563,16.919,2.399,25.619,2.399
	c98.724,0,178.755-105.568,178.755-204.291C396.45,115.326,348.769,35.065,281.619,2.399z"/>
<circle style="fill:#7A5436;" cx="453.91" cy="204.291" r="19.152"/>
<circle style="fill:#8D663D;" cx="58.093" cy="204.291" r="19.152"/>
<g>
	<path style="fill:#474641;" d="M145.695,180.115c-1.956,0-3.93-0.598-5.632-1.837c-4.275-3.114-5.215-9.104-2.1-13.379
		c8.283-11.369,20.172-20.017,33.477-24.35c5.031-1.638,10.433,1.111,12.071,6.139c1.638,5.028-1.11,10.433-6.139,12.072
		c-9.502,3.095-18.002,9.281-23.93,17.418C151.568,178.75,148.651,180.115,145.695,180.115z"/>
	<path style="fill:#474641;" d="M366.306,180.115c-2.956,0-5.873-1.365-7.746-3.938c-5.93-8.137-14.428-14.322-23.93-17.418
		c-5.028-1.638-7.777-7.043-6.139-12.072c1.638-5.028,7.038-7.777,12.071-6.139c13.305,4.335,25.193,12.981,33.477,24.35
		c3.114,4.275,2.174,10.264-2.1,13.379C370.236,179.518,368.262,180.115,366.306,180.115z"/>
	<path style="fill:#474641;" d="M256,252.172c-15.842,0-28.728-12.887-28.728-28.728c0-5.289,4.288-9.576,9.576-9.576
		s9.576,4.288,9.576,9.576c0,5.281,4.295,9.576,9.576,9.576c5.281,0,9.576-4.295,9.576-9.576c0-5.289,4.288-9.576,9.576-9.576
		c5.289,0,9.576,4.288,9.576,9.576C284.728,239.285,271.842,252.172,256,252.172z"/>
	<path style="fill:#474641;" d="M192.159,233.02c-15.842,0-28.728-12.887-28.728-28.728c0-5.289,4.288-9.576,9.576-9.576
		s9.576,4.288,9.576,9.576c0,5.281,4.295,9.576,9.576,9.576s9.576-4.295,9.576-9.576c0-5.289,4.288-9.576,9.576-9.576
		s9.576,4.288,9.576,9.576C220.887,220.133,208,233.02,192.159,233.02z"/>
	<path style="fill:#474641;" d="M319.841,233.02c-15.84,0-28.728-12.887-28.728-28.728c0-5.289,4.286-9.576,9.576-9.576
		s9.576,4.288,9.576,9.576c0,5.281,4.295,9.576,9.576,9.576s9.576-4.295,9.576-9.576c0-5.289,4.286-9.576,9.576-9.576
		c5.29,0,9.576,4.288,9.576,9.576C348.569,220.133,335.683,233.02,319.841,233.02z"/>
</g>
<path style="opacity:0.5;fill:#625143;enable-background:new    ;" d="M256,0C174.342,0,105.474,72.227,84.105,153.065l0,0
	l10.123,5.135c3.94,1.999,8.719,1.237,11.844-1.887l51.103-50.789c54.884-54.547,143.554-54.41,198.27,0.305l50.484,50.484
	c3.124,3.124,7.904,3.885,11.844,1.887l10.123-5.135l0,0C406.526,72.227,337.659,0,256,0z"/>
<g>
</g>
<g>
</g>
<g>
</g>
<g>
</g>
<g>
</g>
<g>
</g>
<g>
</g>
<g>
</g>
<g>
</g>
<g>
</g>
<g>
</g>
<g>
</g>
<g>
</g>
<g>
</g>
<g>
</g>
</svg>
