<?xml version="1.0" encoding="iso-8859-1"?>
<!-- Generator: Adobe Illustrator 19.0.0, SVG Export Plug-In . SVG Version: 6.00 Build 0)  -->
<svg version="1.1" id="Layer_1" xmlns="http://www.w3.org/2000/svg" xmlns:xlink="http://www.w3.org/1999/xlink" x="0px" y="0px"
	 viewBox="0 0 512.001 512.001" style="enable-background:new 0 0 512.001 512.001;" xml:space="preserve">
<path style="fill:#A0B7CB;" d="M189.725,396.773c-0.668,0.48-1.324,0.975-1.982,1.469c-6.686,5.024-12.808,10.76-18.236,17.108
	c-0.063,0.074-0.125,0.147-0.189,0.221c-0.688,0.81-1.352,1.637-1.997,2.477l9.045,81.595c3.755,1.199,7.547,2.313,11.375,3.345
	c0.001-0.001,0.001-0.001,0.002-0.002c0.042,0.011,0.085,0.022,0.127,0.033c1.163,0.313,2.329,0.615,3.497,0.912
	c20.675,5.256,42.325,8.068,64.635,8.068V375.477C231.273,375.478,208.389,383.372,189.725,396.773z"/>
<path style="fill:#F3E29A;" d="M168.969,416.007c-0.563,0.669-1.1,1.36-1.649,2.042c-8.977,11.679-13.709,26.128-13.709,40.923
	v2.352v29.879c7.414,3.156,15.007,5.969,22.754,8.442c3.755,1.199,7.547,2.313,11.375,3.345c0.001-0.001,0.001-0.001,0.002-0.002
	c0.042,0.011,0.085,0.022,0.127,0.033l-0.144-18.947C187.536,459.229,180.719,435.987,168.969,416.007z"/>
<path style="fill:#5D7A9A;" d="M324.882,398.706c-0.863-0.648-1.722-1.303-2.6-1.932c-18.664-13.401-41.549-21.296-66.279-21.296
	v72.812l0,0V512c23.617,0,46.497-3.148,68.261-9.014c0.001,0.001,0.001,0.001,0.002,0.002c0.035-0.009,0.071-0.02,0.106-0.03
	l17.574-88.249C336.853,408.776,331.135,403.405,324.882,398.706z"/>
<path style="fill:#EBD37A;" d="M358.396,491.201v-1.955v-27.893v-2.382c0-16.126-5.748-31.722-16.211-43.991l0,0
	c-0.077-0.091-0.159-0.18-0.238-0.271c-3.108,5.477-5.843,11.191-8.182,17.106c-6.266,15.845-9.659,33.131-9.521,51.215l0.13,19.928
	c3.791-1.024,7.547-2.127,11.269-3.315C343.389,497.17,350.982,494.357,358.396,491.201z"/>
<path style="fill:#5D7A9A;" d="M285.116,442.607c-3.786-0.063-7.454,0.404-10.934,1.331c-5.964,1.588-12.072,2.382-18.179,2.382
	l-25.029,36.1L256.003,512c23.618,0,46.497-3.148,68.261-9.014v-2.363v-0.32v-16.746v-0.32
	C324.265,461.693,306.66,442.962,285.116,442.607z"/>
<path style="fill:#668BB7;" d="M237.825,443.938c-3.48-0.927-7.147-1.394-10.934-1.331c-21.543,0.355-39.148,19.086-39.148,40.632
	v0.32v16.746v0.32v2.363c21.764,5.866,44.644,9.014,68.261,9.014v-65.68C249.896,446.32,243.789,445.526,237.825,443.938z"/>
<path style="fill:#55687D;" d="M315.696,393.456l-17.978-17.978h-41.715l-35.268,56.884l35.268,68.261l45.787-45.787
	c5.43-5.43,5.43-14.235,0-19.665l-4.073-4.073l17.978-17.978C321.126,407.69,321.126,398.886,315.696,393.456z"/>
<path style="fill:#5D7A9A;" d="M214.289,375.478l-17.978,17.978c-5.43,5.43-5.43,14.235,0,19.665l17.978,17.978l-4.073,4.073
	c-5.43,5.43-5.43,14.235,0,19.665l45.788,45.787V375.478H214.289z"/>
<g>
	<path style="fill:#EBD37A;" d="M432.341,199.137c-8.346,0-16.218,2.01-23.18,5.553l-49.219-50.893l-3.264-3.264
		c-55.265-55.265-145.326-55.402-200.76-0.309l-53.081,54.463l96.205,214.161c17.688,8.604,36.887,13.515,56.958,13.515
		c72.761,0,134.123-64.357,153.163-136.386c6.96,3.542,14.832,5.552,23.178,5.552c28.275,0,51.196-22.921,51.196-51.196
		C483.537,222.058,460.616,199.137,432.341,199.137z"/>
	<path style="fill:#EBD37A;" d="M407.537,198.91c0.572,1.92,1.114,3.847,1.625,5.778
		C408.651,202.757,408.108,200.831,407.537,198.91z"/>
</g>
<g>
	<path style="fill:#F3E29A;" d="M104.506,198.776c0.563-1.884,1.154-3.761,1.773-5.632
		C105.659,195.015,105.068,196.892,104.506,198.776z"/>
	<path style="fill:#F3E29A;" d="M381.145,238.956c0-0.055,0-0.11,0-0.165c-0.011-10.065-4.159-19.686-11.277-26.803l-11.474-11.472
		l-25.849-25.849c-42-42-110.441-42.105-152.568-0.234l-45.535,45.255l-0.085,0.085c-4.113,4.093-10.81,3.555-14.394-1.009
		c-4.594-5.851-10.438-10.674-17.126-14.077c0.493-1.864,1.018-3.72,1.569-5.571c-0.548,1.852-1.076,3.709-1.569,5.572
		c-7.956-4.048-17.102-6.095-26.786-5.427c-25.929,1.788-46.626,23.22-47.554,49.195c-1.041,29.13,22.264,53.073,51.162,53.073
		c8.351,0,16.226-2.011,23.189-5.558c13.789,52.157,49.76,100.289,96.193,122.877c7.456,1.393,15.075,2.138,22.828,2.138
		C309.835,420.985,381.145,326.922,381.145,238.956z"/>
</g>
<circle style="fill:#E2C35A;" cx="432.343" cy="250.336" r="17.065"/>
<g>
	<circle style="fill:#EBD37A;" cx="79.661" cy="250.336" r="17.065"/>
	<path style="fill:#EBD37A;" d="M174.091,281.619h-11.377c-4.713,0-8.533-3.82-8.533-8.533s3.819-8.533,8.533-8.533h11.377
		c4.713,0,8.533,3.82,8.533,8.533S178.803,281.619,174.091,281.619z"/>
	<path style="fill:#EBD37A;" d="M349.294,281.619h-11.377c-4.713,0-8.533-3.82-8.533-8.533s3.819-8.533,8.533-8.533h11.377
		c4.713,0,8.533,3.82,8.533,8.533S354.007,281.619,349.294,281.619z"/>
</g>
<g>
	<path style="fill:#BE6054;" d="M221.215,219.895c-5.022-3.649-9.464-8.089-13.189-13.221c-2.768-3.814-1.919-9.149,1.894-11.917
		c3.814-2.767,9.152-1.92,11.917,1.895c5.315,7.324,12.689,12.679,21.322,15.485c4.481,1.456,6.935,6.27,5.479,10.751
		c-1.456,4.482-6.27,6.934-10.751,5.479C231.843,226.403,226.239,223.545,221.215,219.895z"/>
	<path style="fill:#BE6054;" d="M290.792,219.895c5.023-3.65,9.466-8.089,13.189-13.222c2.768-3.814,1.919-9.149-1.894-11.917
		c-3.815-2.769-9.154-1.918-11.918,1.895c-5.314,7.323-12.687,12.678-21.321,15.485c-4.477,1.454-6.934,6.269-5.478,10.751
		c1.456,4.482,6.27,6.935,10.752,5.478C280.165,226.403,285.77,223.545,290.792,219.895z"/>
</g>
<path style="fill:#8D472E;" d="M256.107,299.7c-6.837,0.052-13.286-2.562-18.157-7.36c-3.357-3.307-3.398-8.709-0.091-12.067
	c3.306-3.356,8.709-3.397,12.066-0.091c1.623,1.6,3.773,2.471,6.051,2.453c2.279-0.017,4.415-0.922,6.014-2.545
	c3.307-3.357,8.71-3.399,12.066-0.092c3.358,3.307,3.399,8.709,0.093,12.067C269.352,296.936,262.944,299.648,256.107,299.7z"/>
<g>
	<circle style="fill:#474641;" cx="199.118" cy="250.336" r="17.065"/>
	<circle style="fill:#474641;" cx="312.886" cy="250.336" r="17.065"/>
</g>
<path style="fill:#CF8575;" d="M183.525,89.902c0.873-0.559,1.749-1.11,2.631-1.65c26.707-18.206,53.72-64.765,64.717-85.185
	c1.1-2.044,3.115-3.067,5.131-3.067l34.131,67.734l-34.131,58.224c-32.07-0.035-64.147,12.18-88.609,36.641l-44.983,44.983
	c-2.784,2.784-7.042,3.462-10.553,1.682l-9.02-4.576C115.153,158.387,144.541,114.841,183.525,89.902z"/>
<path style="fill:#BE6054;" d="M328.484,89.902c-0.873-0.559-1.749-1.11-2.631-1.65c-26.707-18.206-53.72-64.765-64.717-85.185
	C260.034,1.023,258.019,0,256.004,0v53.175c0,24.464-16.207,46.172-39.821,52.564c-24.531,6.642-47.689,19.562-66.888,38.76
	l-35.223,35.223c-0.81,0.81-2.008,1.081-3.093,0.716l-0.018-0.006c-3.212,7.941-5.939,16.054-8.12,24.257l9.02,4.576
	c3.511,1.782,7.769,1.102,10.553-1.682l44.983-44.983c24.461-24.461,56.538-36.677,88.609-36.641
	c31.848,0.035,63.69,12.152,88.057,36.369l45.535,45.255c2.784,2.784,7.042,3.462,10.553,1.682l9.02-4.576
	C396.855,158.387,367.467,114.841,328.484,89.902z"/>
<g>
</g>
<g>
</g>
<g>
</g>
<g>
</g>
<g>
</g>
<g>
</g>
<g>
</g>
<g>
</g>
<g>
</g>
<g>
</g>
<g>
</g>
<g>
</g>
<g>
</g>
<g>
</g>
<g>
</g>
</svg>
