<?xml version="1.0" encoding="iso-8859-1"?>
<!-- Generator: Adobe Illustrator 19.0.0, SVG Export Plug-In . SVG Version: 6.00 Build 0)  -->
<svg version="1.1" id="Layer_1" xmlns="http://www.w3.org/2000/svg" xmlns:xlink="http://www.w3.org/1999/xlink" x="0px" y="0px"
	 viewBox="0 0 508 508" style="enable-background:new 0 0 508 508;" xml:space="preserve">
<circle style="fill:#FD8469;" cx="254" cy="254" r="254"/>
<path style="fill:#FFFFFF;" d="M382.8,443.6H125.6c-10,0-18-8-18-18V88.8c0-10,8-18,18-18h257.2c10,0,18,8,18,18v336.8
	C401.2,435.6,392.8,443.6,382.8,443.6z"/>
<g>
	<rect x="128.4" y="222.8" style="fill:#E6E9EE;" width="252" height="10.4"/>
	<rect x="128.4" y="253.2" style="fill:#E6E9EE;" width="252" height="10.4"/>
	<rect x="128.4" y="283.2" style="fill:#E6E9EE;" width="252" height="10.4"/>
	<rect x="128.4" y="313.2" style="fill:#E6E9EE;" width="252" height="10.4"/>
	<rect x="128.4" y="343.6" style="fill:#E6E9EE;" width="252" height="10.4"/>
	<polygon style="fill:#E6E9EE;" points="266,383.6 380.4,383.6 380.4,373.6 128.4,373.6 128.4,384 266,384 	"/>
	<rect x="128.4" y="403.6" style="fill:#E6E9EE;" width="138" height="10.4"/>
</g>
<path style="fill:#2B3B4E;" d="M313.6,194.4l-13.2,13.2L284,191.2c2.4-2,4.8-4,6.8-6s4.4-4.4,6-6.8L313.6,194.4z"/>
<circle style="fill:#324A5E;" cx="232.8" cy="126.4" r="82.8"/>
<circle style="fill:#FFFFFF;" cx="232.8" cy="126.4" r="67.6"/>
<path style="fill:#84DBFF;" d="M286,168c-12.4,16-31.6,26-53.2,26s-41.2-10.4-53.6-26c9.6-8.8,21.6-14,32-16.4
	c-0.8,8,3.2,18.4,3.2,18.4c4-9.6,18.4-10.4,18.4-10.4s14,0.8,18.4,10.4c0,0.4,4.4-10.4,3.2-18.4C264.4,154,276.8,158.8,286,168z"/>
<path style="fill:#FFD05B;" d="M250,144c0,1.6-1.2,8.8-16.8,14.8h-0.8l0,0c-15.6-6-16.8-13.2-16.8-14.8l0,0c0-2.8,0.8-5.6,2-8.4
	c4.4,4.8,9.6,8,15.2,8c5.6,0,10.8-3.2,15.2-8C249.2,138.4,250,141.2,250,144z"/>
<g>
	<path style="fill:#F1543F;" d="M233.2,159.2C233.2,159.2,232.8,159.2,233.2,159.2c-0.4,0-0.8,0-0.8,0H233.2z"/>
	<path style="fill:#F1543F;" d="M242,161.6l-3.6,7.2h-12l-3.6-7.2c4.8-2,9.6-2.4,9.6-2.4S237.6,159.6,242,161.6z"/>
</g>
<path style="fill:#FF7058;" d="M223.6,193.2c3.2,0.4,6,0.8,9.2,0.8s6-0.4,9.2-0.8l-3.2-24.8h-12L223.6,193.2z"/>
<g>
	<path style="fill:#54C0EB;" d="M250,144c0,0,0.8,8.8-17.2,15.2c0,0,14,0.8,18.4,10.4C251.2,170,259.2,148.8,250,144z"/>
	<path style="fill:#54C0EB;" d="M215.6,144c-9.2,5.2-1.2,26-1.2,26c4-9.6,18.4-10.4,18.4-10.4C214.8,152.4,215.6,144,215.6,144z"/>
</g>
<path style="fill:#F9B54C;" d="M248.8,138c-4.8,4.8-10,8-16,8s-11.6-3.2-16-8c0.4-0.8,0.4-1.6,0.8-2.4c4.4,4.8,9.6,8,15.2,8
	c5.6,0,10.8-3.2,15.2-8C248.4,136.4,248.8,137.2,248.8,138z"/>
<path style="fill:#FFD05B;" d="M262.4,121.2c-2.4,4-5.6,6-8.4,5.6c-5.2,9.6-12.8,16.8-21.2,16.8s-16-7.2-21.2-16.8
	c-2.8,0.4-6-2-8.4-5.6c-2.8-4.4-2.8-9.6,0-11.2c0.4-0.4,1.2-0.4,2-0.4c1.6,4.4,4,7.2,4,7.2c-2.4-14,7.6-15.2,6-28.8
	c0,0,6.4,14.4,24.8,4.4l-1.6,2.8c25.2-5.6,17.2,23.6,16.8,25.2c2.8-3.6,4.8-7.2,6-10.8c0.4,0,0.8,0,1.2,0.4
	C265.2,112,265.2,116.8,262.4,121.2z"/>
<g>
	<path style="fill:#324A5E;" d="M205.2,77.6c0,0,5.2-0.8,6.8,3.2c0,0-1.6-5.6,0-8s0-0.8,0-0.8s-0.8,3.6,0.8,5.6
		c0,0,3.6-13.2,25.6-9.6c0,0-4.4-0.4-9.6,4c0,0,15.2-6.8,24.4,3.6c0,0-3.6-1.6-5.6-1.6c0,0,19.6,7.6,16.8,27.2l-1.2-4.4
		c0,0,1.6,12-8,24c0,0,9.2-31.2-16.8-25.2l1.6-2.8c-18.4,10-24.8-4.4-24.8-4.4c1.6,13.2-8.4,14.8-6,28.8c0,0-8.8-10-5.2-23.2
		l-2.8,3.2c0,0-2-12,9.6-16C210.4,81.2,209.6,78.4,205.2,77.6z"/>
	<path style="fill:#324A5E;" d="M414.4,293.6L400,308c-3.2,3.2-8.4,3.2-11.2,0L300,219.2c-3.2-3.2-3.2-8.4,0-11.2l14.4-14.4
		c3.2-3.2,8.4-3.2,11.2,0L414,282C417.2,285.6,417.2,290.4,414.4,293.6z"/>
</g>
<rect x="302.067" y="232.66" transform="matrix(-0.7071 -0.7071 0.7071 -0.7071 432.3066 680.3868)" style="fill:#4CDBC4;" width="109.999" height="36"/>
<g>
</g>
<g>
</g>
<g>
</g>
<g>
</g>
<g>
</g>
<g>
</g>
<g>
</g>
<g>
</g>
<g>
</g>
<g>
</g>
<g>
</g>
<g>
</g>
<g>
</g>
<g>
</g>
<g>
</g>
</svg>
