<?xml version="1.0" encoding="iso-8859-1"?>
<!-- Generator: Adobe Illustrator 19.0.0, SVG Export Plug-In . SVG Version: 6.00 Build 0)  -->
<svg version="1.1" id="Layer_1" xmlns="http://www.w3.org/2000/svg" xmlns:xlink="http://www.w3.org/1999/xlink" x="0px" y="0px"
	 viewBox="0 0 512 512" style="enable-background:new 0 0 512 512;" xml:space="preserve">
<circle style="fill:#366796;" cx="256" cy="256" r="256"/>
<path style="fill:#273B7A;" d="M179.245,393.29l115.759,115.759c110.218-16.848,197.303-103.988,214.071-214.231L334.712,120.453
	L179.245,393.29z"/>
<path style="fill:#FDE085;" d="M318.635,398.222H193.364c-12.535,0-22.697-10.162-22.697-22.699V136.475
	c0-12.535,10.162-22.697,22.697-22.697h125.271c12.536,0,22.699,10.162,22.699,22.697v239.049
	C341.333,388.06,331.171,398.222,318.635,398.222z"/>
<path style="fill:#FFC91B;" d="M170.667,255.426v120.099c0,12.536,10.162,22.699,22.699,22.699h125.271
	c12.536,0,22.699-10.162,22.699-22.699V255.426L170.667,255.426L170.667,255.426z"/>
<path style="fill:#D48B07;" d="M271.451,377.984l-83.223,16.73c-9.59,1.927-17.561-6.632-17.561-19.168V136.497
	c0-12.536,7.971-21.12,17.563-19.22l83.223,16.481c7.244,1.434,12.993,11.112,12.993,21.647v200.892
	C284.444,366.832,278.697,376.529,271.451,377.984z"/>
<path style="fill:#AF6E05;" d="M170.667,255.426v120.122c0,12.536,7.971,21.095,17.563,19.168l83.223-16.73
	c7.244-1.457,12.993-11.152,12.993-21.687V255.426L170.667,255.426L170.667,255.426z"/>
<polygon style="fill:#273B7A;" points="170.667,261.173 276.714,261.172 257.967,284.16 269.45,284.16 292.414,256 269.45,227.84 
	257.967,227.84 276.714,250.828 170.667,250.83 "/>
<polygon style="fill:#121149;" points="170.667,255.426 170.667,261.173 276.714,261.172 257.967,284.16 269.45,284.16 292.414,256 
	291.945,255.426 "/>
<g>
</g>
<g>
</g>
<g>
</g>
<g>
</g>
<g>
</g>
<g>
</g>
<g>
</g>
<g>
</g>
<g>
</g>
<g>
</g>
<g>
</g>
<g>
</g>
<g>
</g>
<g>
</g>
<g>
</g>
</svg>
