<?xml version="1.0" encoding="iso-8859-1"?>
<!-- Generator: Adobe Illustrator 19.0.0, SVG Export Plug-In . SVG Version: 6.00 Build 0)  -->
<svg version="1.1" id="Layer_1" xmlns="http://www.w3.org/2000/svg" xmlns:xlink="http://www.w3.org/1999/xlink" x="0px" y="0px"
	 viewBox="0 0 512 512" style="enable-background:new 0 0 512 512;" xml:space="preserve">
<circle style="fill:#C1321F;" cx="256" cy="256" r="256"/>
<path style="fill:#A82116;" d="M358.415,490.672c84.787-37.055,145.629-118.694,152.859-215.293L395.604,159.708l-20.596,17.263
	l-34.104-34.104l-32.091,44.308l-57.151-57.151L117.231,243.365l39.589,39.589l-5.161,0.96L358.415,490.672z"/>
<path style="fill:#F9AAC8;" d="M296.791,155.624c3.731-14.277,18.329-22.826,32.606-19.096s22.828,18.329,19.099,32.606
	c3.731-14.277,18.329-22.826,32.606-19.096c14.277,3.731,22.828,18.329,19.099,32.606c-6.458,24.719-65.889,40.779-65.889,40.779
	S289.968,181.738,296.791,155.624z"/>
<path style="fill:#FED8B2;" d="M217.434,302.711v-22.476H176.9v22.476c0,1.793-1.453,3.248-3.248,3.248h-27.934v77.56h102.895
	v-77.56h-27.932C218.888,305.959,217.434,304.504,217.434,302.711z"/>
<path style="fill:#EABE96;" d="M248.615,305.959h-27.932c-1.793,0-3.248-1.453-3.248-3.248v-22.476h-21.195v103.284h52.376V305.959z
	"/>
<circle style="fill:#FED8B2;" cx="129.793" cy="233.141" r="16.2"/>
<circle style="fill:#EABE96;" cx="261.086" cy="233.141" r="16.2"/>
<path style="fill:#F4E3C3;" d="M197.265,300.599h-3.651c-33.764,0-61.135-27.37-61.135-61.135v-55.818
	c0-33.764,27.37-61.135,61.135-61.135h3.651c33.764,0,61.135,27.37,61.135,61.135v55.818
	C258.4,273.229,231.029,300.599,197.265,300.599z"/>
<path style="fill:#FED8B2;" d="M197.265,122.513h-1.026v178.086h1.026c33.764,0,61.135-27.37,61.135-61.135v-55.818
	C258.4,149.883,231.029,122.513,197.265,122.513z"/>
<circle style="fill:#59595B;" cx="165.754" cy="225.952" r="6.296"/>
<circle style="fill:#272525;" cx="225.125" cy="225.952" r="6.296"/>
<path style="fill:#31BAFD;" d="M253.031,305.959h-21.566c0,18.942-34.299,37.336-34.299,37.336s-34.299-18.394-34.299-37.336
	h-21.566c-25.974,0-47.03,21.056-47.03,47.03v101.448C138.361,490.413,194.657,512,256,512c15.026,0,29.746-1.307,44.061-3.791
	V352.987C300.061,327.015,279.006,305.959,253.031,305.959z"/>
<path style="fill:#2B9ED8;" d="M253.031,305.959h-21.566c0,18.942-34.299,37.336-34.299,37.336s-0.336-0.181-0.927-0.515v162.192
	C215.412,509.559,235.42,512,256,512c15.026,0,29.746-1.307,44.061-3.791V352.987C300.061,327.015,279.006,305.959,253.031,305.959z
	"/>
<path style="fill:#FD8469;" d="M195.439,277.549c-11.343,0-20.571-9.228-20.571-20.571c0-1.922,1.558-3.482,3.482-3.482
	s3.482,1.558,3.482,3.482c0,7.502,6.104,13.609,13.609,13.609c7.502,0,13.609-6.104,13.609-13.609c0-1.924,1.558-3.482,3.482-3.482
	s3.482,1.558,3.482,3.482C216.011,268.321,206.782,277.549,195.439,277.549z"/>
<path style="fill:#FC6F58;" d="M216.011,256.977c0-1.924-1.558-3.482-3.482-3.482s-3.482,1.558-3.482,3.482
	c0,7.234-5.679,13.15-12.809,13.567v6.963C207.21,277.083,216.011,268.05,216.011,256.977z"/>
<path style="fill:#935635;" d="M255.409,134.897c-12.886-18.356-34.201-30.367-58.334-30.367h-4.255
	c-39.346,0-71.242,31.896-71.242,71.242v5.51v50.183h10.459v-29.431c-0.002,0-0.005,0-0.007,0c31.739-3.224,62.947-9.45,90.3-23.126
	c9.844,11.304,21.211,21.397,33.758,29.586v22.969h12.228v-37.516v-18.175C268.317,160.558,263.532,146.47,255.409,134.897z"/>
<path style="fill:#804000;" d="M255.409,134.897c-12.886-18.356-34.201-30.367-58.334-30.367h-0.836v84.958
	c8.994-2.917,17.725-6.396,26.093-10.58c9.844,11.304,21.211,21.397,33.758,29.586v22.969h12.228v-37.516v-18.175
	C268.317,160.558,263.532,146.47,255.409,134.897z"/>
<path style="fill:#EDBB8E;" d="M341.082,366.973l-23.628,2.281c-10.728,1.036-19.47,9.057-21.421,19.658l-22.55,122.483
	c46.547-3.139,89.683-18.708,126.109-43.432l-33.723-85.792C361.925,372.14,351.809,365.937,341.082,366.973z"/>
<path style="fill:#DBA375;" d="M365.868,382.169c-3.943-10.031-14.058-16.232-24.786-15.198l-11.56,1.115L341.613,497.3
	c20.675-7.332,40.136-17.229,57.978-29.341L365.868,382.169z"/>
<path style="fill:#CC8A66;" d="M265.418,312.106l9.6-0.927c4.36-0.421,8.47,2.1,10.071,6.175l25.085,63.816
	c2.384,6.065-1.7,12.726-8.187,13.352l-47.101,4.546c-6.487,0.626-11.769-5.13-10.588-11.54l12.416-67.434
	C257.507,315.787,261.06,312.527,265.418,312.106z"/>
<path style="fill:#B97850;" d="M371.628,301.854l9.6-0.927c4.36-0.421,8.47,2.1,10.071,6.175l25.085,63.816
	c2.384,6.065-1.7,12.726-8.187,13.352l-47.101,4.546c-6.487,0.626-11.769-5.13-10.588-11.54l12.416-67.434
	C363.716,305.535,367.269,302.275,371.628,301.854z"/>
<path style="fill:#F4E3C3;" d="M344.498,444.264l-15.615,1.507c-7.09,0.684-13.776-3.415-16.381-10.043l-40.8-103.798
	c-3.877-9.864,2.765-20.699,13.315-21.716l76.61-7.394c10.55-1.019,19.142,8.345,17.224,18.768l-20.194,109.685
	C357.366,438.279,351.589,443.58,344.498,444.264z"/>
<path style="fill:#FED8B2;" d="M361.627,302.82l-37.874,3.655l12.965,138.54l7.78-0.752c7.09-0.684,12.867-5.985,14.157-12.991
	l20.194-109.684C380.769,311.165,372.177,301.801,361.627,302.82z"/>
<circle style="fill:#B97850;" cx="307.355" cy="348.005" r="19.878"/>
<g>
	<circle style="fill:#324A5E;" cx="307.355" cy="348.005" r="6.023"/>
	<circle style="fill:#324A5E;" cx="346.936" cy="344.178" r="6.023"/>
</g>
<circle style="fill:#935635;" cx="335.731" cy="435.131" r="9.938"/>
<path style="fill:#804000;" d="M345.629,434.171c-0.524-5.435-5.334-9.419-10.762-8.942l1.851,19.785
	C342.168,444.473,346.155,439.624,345.629,434.171z"/>
<g>
</g>
<g>
</g>
<g>
</g>
<g>
</g>
<g>
</g>
<g>
</g>
<g>
</g>
<g>
</g>
<g>
</g>
<g>
</g>
<g>
</g>
<g>
</g>
<g>
</g>
<g>
</g>
<g>
</g>
</svg>
