<?xml version="1.0" encoding="iso-8859-1"?>
<!-- Generator: Adobe Illustrator 19.0.0, SVG Export Plug-In . SVG Version: 6.00 Build 0)  -->
<svg version="1.1" id="Layer_1" xmlns="http://www.w3.org/2000/svg" xmlns:xlink="http://www.w3.org/1999/xlink" x="0px" y="0px"
	 viewBox="0 0 512 512" style="enable-background:new 0 0 512 512;" xml:space="preserve">
<g transform="translate(1 1)">
	<path style="fill:#FFDD09;" d="M255,54.467C118.467,54.467,7.533,165.4,7.533,301.933c0,58.027,19.627,111.787,53.76,153.6H449.56
		c33.28-41.813,53.76-95.573,53.76-153.6C502.467,165.4,391.533,54.467,255,54.467"/>
	<path style="fill:#FD9808;" d="M255,54.467c-4.267,0-8.533,0-12.8,0c130.56,6.827,234.667,115.2,234.667,247.467
		c0,58.027-19.627,111.787-53.76,153.6h25.6c33.28-41.813,53.76-95.573,53.76-153.6C502.467,165.4,391.533,54.467,255,54.467"/>
	<path style="fill:#FFFFFF;" d="M255,54.467c4.267,0,8.533,0,12.8,0c-130.56,6.827-234.667,115.2-234.667,247.467
		c0,58.027,19.627,111.787,53.76,153.6h-25.6c-34.133-41.813-53.76-95.573-53.76-153.6C7.533,165.4,118.467,54.467,255,54.467"/>
	<g>
		<path style="fill:#1CD759;" d="M239.64,271.213c-13.653,6.827-22.187,22.187-17.92,38.4c2.56,11.947,12.8,22.187,25.6,24.747
			c17.067,3.413,32.427-4.267,38.4-17.92c10.24-20.48,18.773-40.96,30.72-59.733l23.893-40.107l-40.96,24.747
			C280.6,252.44,260.12,261.827,239.64,271.213"/>
		<path style="fill:#1CD759;" d="M340.333,421.4c-11.093-39.253-51.2-59.733-93.867-59.733s-82.773,20.48-93.867,59.733H340.333z"/>
	</g>
	<path style="fill:#15A143;" d="M306.2,421.4h34.133c-11.093-39.253-51.2-59.733-93.867-59.733c-5.973,0-11.093,0-17.067,0.853
		C265.24,367.64,296.813,387.267,306.2,421.4"/>
	<path d="M75.8,310.467H7.533c-5.12,0-8.533-3.413-8.533-8.533s3.413-8.533,8.533-8.533H75.8c5.12,0,8.533,3.413,8.533,8.533
		S80.92,310.467,75.8,310.467z"/>
	<path d="M502.467,310.467H434.2c-5.12,0-8.533-3.413-8.533-8.533s3.413-8.533,8.533-8.533h68.267c5.12,0,8.533,3.413,8.533,8.533
		S507.587,310.467,502.467,310.467z"/>
	<path d="M255,131.267c-5.12,0-8.533-3.413-8.533-8.533V54.467c0-5.12,3.413-8.533,8.533-8.533s8.533,3.413,8.533,8.533v68.267
		C263.533,127.853,260.12,131.267,255,131.267z"/>
	<path d="M255,344.6c-3.413,0-6.827,0-10.24-0.853c-15.36-3.413-28.16-16.213-31.573-31.573c-4.267-19.627,5.12-39.253,23.04-48.64
		c5.12-2.56,10.24-5.12,14.507-6.827c14.507-6.827,29.867-14.507,44.373-23.04l40.96-24.747c3.413-1.707,7.68-1.707,10.24,1.707
		s3.413,6.827,1.707,10.24l-24.747,40.96c-8.533,14.507-15.36,29.867-23.04,44.373c-2.56,5.12-5.12,10.24-6.827,14.507
		C285.72,335.213,271.213,344.6,255,344.6z M315.587,241.347l-11.093,6.827c-14.507,8.533-30.72,16.213-46.08,23.893
		c-5.12,2.56-10.24,4.267-14.507,6.827l0,0c-11.093,5.12-16.213,17.067-13.653,29.013c1.707,9.387,9.387,17.067,18.773,18.773
		c11.947,2.56,23.893-2.56,29.013-13.653c2.56-5.12,5.12-9.387,6.827-14.507c6.827-15.36,14.507-30.72,23.893-46.08L315.587,241.347
		z M239.64,271.213L239.64,271.213L239.64,271.213z"/>
	<path d="M103.96,159.427c-2.56,0-4.267-0.853-5.973-2.56l-23.893-23.893c-3.413-3.413-3.413-8.533,0-11.947
		c3.413-3.413,8.533-3.413,11.947,0l23.893,23.893c3.413,3.413,3.413,8.533,0,11.947C108.227,158.573,106.52,159.427,103.96,159.427
		z"/>
	<path d="M406.04,159.427c-2.56,0-4.267-0.853-5.973-2.56c-3.413-3.413-3.413-8.533,0-11.947l23.893-23.893
		c3.413-3.413,8.533-3.413,11.947,0c3.413,3.413,3.413,8.533,0,11.947l-23.893,23.893
		C410.307,158.573,407.747,159.427,406.04,159.427z"/>
	<path d="M58.733,227.693c-0.853,0-2.56,0-3.413-0.853l-31.573-13.653c-4.267-1.707-5.973-6.827-4.267-11.093
		s6.827-5.973,11.093-4.267l31.573,13.653c4.267,1.707,5.973,6.827,4.267,11.093C64.707,225.987,62.147,227.693,58.733,227.693z"/>
	<path d="M482.84,406.893c-0.853,0-2.56,0-3.413-0.853l-31.573-13.653c-4.267-1.707-5.973-6.827-4.267-11.093
		c1.707-4.267,6.827-5.973,11.093-4.267l31.573,13.653c4.267,1.707,5.973,6.827,4.267,11.093
		C489.667,404.333,486.253,406.893,482.84,406.893z"/>
	<path d="M337.773,114.2c-0.853,0-2.56,0-3.413-0.853c-4.267-1.707-5.973-6.827-4.267-11.093l13.653-31.573
		c1.707-4.267,6.827-5.973,11.093-4.267c4.267,1.707,5.973,6.827,4.267,11.093l-13.653,31.573
		C344.6,111.64,341.187,114.2,337.773,114.2z"/>
	<path d="M174.787,112.493c-3.413,0-6.827-1.707-7.68-5.12l-12.8-31.573c-1.707-4.267,0-9.387,4.267-11.093
		c4.267-1.707,9.387,0,11.093,4.267l12.8,31.573c1.707,4.267,0,9.387-4.267,11.093C176.493,112.493,175.64,112.493,174.787,112.493z
		"/>
	<path d="M452.973,230.253c-3.413,0-6.827-1.707-7.68-5.12c-1.707-4.267,0-9.387,4.267-11.093l31.573-12.8
		c4.267-1.707,9.387,0,11.093,4.267s0,9.387-4.267,11.093l-31.573,12.8C454.68,229.4,453.827,230.253,452.973,230.253z"/>
	<path d="M25.453,403.48c-3.413,0-6.827-1.707-7.68-5.12c-1.707-4.267,0-9.387,4.267-11.093l31.573-12.8
		c4.267-1.707,9.387,0,11.093,4.267c1.707,4.267,0,9.387-4.267,11.093l-31.573,12.8C28.013,403.48,27.16,403.48,25.453,403.48z"/>
	<path d="M448.707,464.067H61.293c-2.56,0-5.12-0.853-6.827-3.413C17.773,415.427-1,359.96-1,301.933c0-140.8,115.2-256,256-256
		s256,115.2,256,256c0,58.027-18.773,113.493-55.467,158.72C453.827,463.213,451.267,464.067,448.707,464.067z M65.56,447h379.733
		c31.573-41.813,48.64-92.16,48.64-145.067C493.933,170.52,386.413,63,255,63S16.067,170.52,16.067,301.933
		C16.067,354.84,33.133,405.187,65.56,447z"/>
	<path d="M340.333,429.933L340.333,429.933H152.6c-2.56,0-5.12-0.853-6.827-3.413c-1.707-1.707-1.707-5.12-1.707-7.68
		c11.093-40.107,51.2-65.707,102.4-65.707s90.453,25.6,102.4,65.707c0.853,2.56,0,5.12-1.707,7.68
		C345.453,429.08,342.893,429.933,340.333,429.933z M165.4,412.867h162.987c-12.8-26.453-43.52-42.667-81.067-42.667
		C208.92,370.2,178.2,386.413,165.4,412.867z"/>
	<path d="M246.467,429.933c-2.56,0-5.12-1.707-6.827-3.413l-17.067-25.6c-2.56-4.267-1.707-9.387,2.56-11.947
		s9.387-1.707,11.947,2.56l17.067,25.6c2.56,4.267,1.707,9.387-2.56,11.947C249.88,429.08,248.173,429.933,246.467,429.933z"/>
</g>
<g>
</g>
<g>
</g>
<g>
</g>
<g>
</g>
<g>
</g>
<g>
</g>
<g>
</g>
<g>
</g>
<g>
</g>
<g>
</g>
<g>
</g>
<g>
</g>
<g>
</g>
<g>
</g>
<g>
</g>
</svg>
